%
M48
M72
T01C0.0118
T02C0.0315
T03C0.0354
T04C0.0400
T05C0.1102
%
T01
X4598Y2876
X5798Y2376
X6448Y2806
X6808Y2946
X7098Y3166
X7478Y3406
X6638Y3836
X6368Y4046
X5588Y3806
X5228Y3806
X4628Y3926
X4178Y4736
X4148Y5156
X5888Y6056
X7168Y5486
X7258Y5046
X7368Y4626
X7448Y4326
X6218Y4836
X8138Y6636
X7688Y6866
X9458Y6596
X9458Y6296
X7308Y1746
X8018Y1256
X7658Y1046
T02
X8998Y2926
X8998Y3926
X8998Y4926
T03
X2638Y4614
X2638Y3237
T04
X1798Y826
X2798Y826
X3798Y826
X4798Y826
X5798Y826
X6798Y826
X8098Y1926
X8098Y2926
X8098Y3926
X8098Y4926
X8098Y5926
X10198Y4926
X11198Y4926
X11198Y3926
X10198Y3926
X10198Y2926
X11198Y2926
X5798Y6926
X4798Y6926
X3798Y6926
X2798Y6926
X1798Y6926
T05
X6988Y6636
X9478Y1756
M30
