G75*
G70*
%OFA0B0*%
%FSLAX24Y24*%
%IPPOS*%
%LPD*%
%AMOC8*
5,1,8,0,0,1.08239X$1,22.5*
%
%ADD10C,0.1182*%
%ADD11C,0.0198*%
%ADD12C,0.0081*%
%ADD13C,0.0137*%
%ADD14C,0.0082*%
%ADD15C,0.0114*%
%ADD16C,0.0085*%
%ADD17C,0.0434*%
%ADD18C,0.0080*%
%ADD19OC8,0.0680*%
%ADD20C,0.0552*%
%ADD21OC8,0.0552*%
%ADD22C,0.0081*%
%ADD23C,0.0080*%
D10*
X009478Y001756D03*
X006988Y006636D03*
D11*
X006813Y004535D02*
X006813Y004359D01*
D12*
X006557Y004300D02*
X006557Y004594D01*
X006675Y004594D01*
X006675Y004300D01*
X006557Y004300D01*
X006557Y004380D02*
X006675Y004380D01*
X006675Y004460D02*
X006557Y004460D01*
X006557Y004540D02*
X006675Y004540D01*
X006360Y004594D02*
X006360Y004300D01*
X006360Y004594D02*
X006478Y004594D01*
X006478Y004300D01*
X006360Y004300D01*
X006360Y004380D02*
X006478Y004380D01*
X006478Y004460D02*
X006360Y004460D01*
X006360Y004540D02*
X006478Y004540D01*
X006912Y004063D02*
X006912Y003945D01*
X006912Y004063D02*
X007206Y004063D01*
X007206Y003945D01*
X006912Y003945D01*
X006912Y004025D02*
X007206Y004025D01*
X006912Y003866D02*
X006912Y003748D01*
X006912Y003866D02*
X007206Y003866D01*
X007206Y003748D01*
X006912Y003748D01*
X006912Y003828D02*
X007206Y003828D01*
X006557Y003511D02*
X006557Y003217D01*
X006557Y003511D02*
X006675Y003511D01*
X006675Y003217D01*
X006557Y003217D01*
X006557Y003297D02*
X006675Y003297D01*
X006675Y003377D02*
X006557Y003377D01*
X006557Y003457D02*
X006675Y003457D01*
X006360Y003511D02*
X006360Y003217D01*
X006360Y003511D02*
X006478Y003511D01*
X006478Y003217D01*
X006360Y003217D01*
X006360Y003297D02*
X006478Y003297D01*
X006478Y003377D02*
X006360Y003377D01*
X006360Y003457D02*
X006478Y003457D01*
D13*
X006196Y003481D02*
X006196Y003247D01*
X006196Y003481D02*
X006250Y003481D01*
X006250Y003247D01*
X006196Y003247D01*
X006196Y003383D02*
X006250Y003383D01*
X005859Y003583D02*
X005859Y003637D01*
X006093Y003637D01*
X006093Y003583D01*
X005859Y003583D01*
X005859Y004174D02*
X005859Y004228D01*
X006093Y004228D01*
X006093Y004174D01*
X005859Y004174D01*
X006196Y004330D02*
X006196Y004564D01*
X006250Y004564D01*
X006250Y004330D01*
X006196Y004330D01*
X006196Y004466D02*
X006250Y004466D01*
D14*
X005832Y004058D02*
X005832Y003950D01*
X005832Y004058D02*
X006120Y004058D01*
X006120Y003950D01*
X005832Y003950D01*
X005832Y004031D02*
X006120Y004031D01*
X005832Y003861D02*
X005832Y003753D01*
X005832Y003861D02*
X006120Y003861D01*
X006120Y003753D01*
X005832Y003753D01*
X005832Y003834D02*
X006120Y003834D01*
D15*
X006775Y003492D02*
X006775Y003236D01*
X006775Y003492D02*
X006851Y003492D01*
X006851Y003236D01*
X006775Y003236D01*
X006775Y003349D02*
X006851Y003349D01*
X006851Y003462D02*
X006775Y003462D01*
X006931Y003572D02*
X006931Y003648D01*
X007187Y003648D01*
X007187Y003572D01*
X006931Y003572D01*
X006931Y004163D02*
X006931Y004239D01*
X007187Y004239D01*
X007187Y004163D01*
X006931Y004163D01*
D16*
X003856Y005089D02*
X002994Y005089D01*
X002994Y006069D01*
X003856Y006069D01*
X003856Y005089D01*
X003856Y005173D02*
X002994Y005173D01*
X002994Y005257D02*
X003856Y005257D01*
X003856Y005341D02*
X002994Y005341D01*
X002994Y005425D02*
X003856Y005425D01*
X003856Y005509D02*
X002994Y005509D01*
X002994Y005593D02*
X003856Y005593D01*
X003856Y005677D02*
X002994Y005677D01*
X002994Y005761D02*
X003856Y005761D01*
X003856Y005845D02*
X002994Y005845D01*
X002994Y005929D02*
X003856Y005929D01*
X003856Y006013D02*
X002994Y006013D01*
X001770Y005089D02*
X000908Y005089D01*
X000908Y006069D01*
X001770Y006069D01*
X001770Y005089D01*
X001770Y005173D02*
X000908Y005173D01*
X000908Y005257D02*
X001770Y005257D01*
X001770Y005341D02*
X000908Y005341D01*
X000908Y005425D02*
X001770Y005425D01*
X001770Y005509D02*
X000908Y005509D01*
X000908Y005593D02*
X001770Y005593D01*
X001770Y005677D02*
X000908Y005677D01*
X000908Y005761D02*
X001770Y005761D01*
X001770Y005845D02*
X000908Y005845D01*
X000908Y005929D02*
X001770Y005929D01*
X001770Y006013D02*
X000908Y006013D01*
X000908Y001782D02*
X001770Y001782D01*
X000908Y001782D02*
X000908Y002762D01*
X001770Y002762D01*
X001770Y001782D01*
X001770Y001866D02*
X000908Y001866D01*
X000908Y001950D02*
X001770Y001950D01*
X001770Y002034D02*
X000908Y002034D01*
X000908Y002118D02*
X001770Y002118D01*
X001770Y002202D02*
X000908Y002202D01*
X000908Y002286D02*
X001770Y002286D01*
X001770Y002370D02*
X000908Y002370D01*
X000908Y002454D02*
X001770Y002454D01*
X001770Y002538D02*
X000908Y002538D01*
X000908Y002622D02*
X001770Y002622D01*
X001770Y002706D02*
X000908Y002706D01*
X002994Y001782D02*
X003856Y001782D01*
X002994Y001782D02*
X002994Y002762D01*
X003856Y002762D01*
X003856Y001782D01*
X003856Y001866D02*
X002994Y001866D01*
X002994Y001950D02*
X003856Y001950D01*
X003856Y002034D02*
X002994Y002034D01*
X002994Y002118D02*
X003856Y002118D01*
X003856Y002202D02*
X002994Y002202D01*
X002994Y002286D02*
X003856Y002286D01*
X003856Y002370D02*
X002994Y002370D01*
X002994Y002454D02*
X003856Y002454D01*
X003856Y002538D02*
X002994Y002538D01*
X002994Y002622D02*
X003856Y002622D01*
X003856Y002706D02*
X002994Y002706D01*
D17*
X002638Y003237D03*
X002638Y004614D03*
D18*
X003131Y004457D02*
X003917Y004457D01*
X003131Y004457D02*
X003131Y004653D01*
X003917Y004653D01*
X003917Y004457D01*
X003917Y004536D02*
X003131Y004536D01*
X003131Y004615D02*
X003917Y004615D01*
X003917Y004142D02*
X003131Y004142D01*
X003131Y004338D01*
X003917Y004338D01*
X003917Y004142D01*
X003917Y004221D02*
X003131Y004221D01*
X003131Y004300D02*
X003917Y004300D01*
X003917Y003828D02*
X003131Y003828D01*
X003131Y004024D01*
X003917Y004024D01*
X003917Y003828D01*
X003917Y003907D02*
X003131Y003907D01*
X003131Y003986D02*
X003917Y003986D01*
X003917Y003513D02*
X003131Y003513D01*
X003131Y003709D01*
X003917Y003709D01*
X003917Y003513D01*
X003917Y003592D02*
X003131Y003592D01*
X003131Y003671D02*
X003917Y003671D01*
X003917Y003198D02*
X003131Y003198D01*
X003131Y003394D01*
X003917Y003394D01*
X003917Y003198D01*
X003917Y003277D02*
X003131Y003277D01*
X003131Y003356D02*
X003917Y003356D01*
D19*
X001798Y000826D03*
X002798Y000826D03*
X003798Y000826D03*
X004798Y000826D03*
X005798Y000826D03*
X006798Y000826D03*
X008098Y001926D03*
X008098Y002926D03*
X008098Y003926D03*
X008098Y004926D03*
X008098Y005926D03*
X010198Y004926D03*
X011198Y004926D03*
X011198Y003926D03*
X010198Y003926D03*
X010198Y002926D03*
X011198Y002926D03*
X005798Y006926D03*
X004798Y006926D03*
X003798Y006926D03*
X002798Y006926D03*
X001798Y006926D03*
D20*
X008998Y002926D03*
D21*
X008998Y003926D03*
X008998Y004926D03*
D22*
X006949Y005270D02*
X006555Y005270D01*
X006555Y005702D01*
X006949Y005702D01*
X006949Y005270D01*
X006949Y005350D02*
X006555Y005350D01*
X006555Y005430D02*
X006949Y005430D01*
X006949Y005510D02*
X006555Y005510D01*
X006555Y005590D02*
X006949Y005590D01*
X006949Y005670D02*
X006555Y005670D01*
X006280Y005270D02*
X005886Y005270D01*
X005886Y005702D01*
X006280Y005702D01*
X006280Y005270D01*
X006280Y005350D02*
X005886Y005350D01*
X005886Y005430D02*
X006280Y005430D01*
X006280Y005510D02*
X005886Y005510D01*
X005886Y005590D02*
X006280Y005590D01*
X006280Y005670D02*
X005886Y005670D01*
X005478Y005683D02*
X005046Y005683D01*
X005478Y005683D02*
X005478Y005289D01*
X005046Y005289D01*
X005046Y005683D01*
X005046Y005369D02*
X005478Y005369D01*
X005478Y005449D02*
X005046Y005449D01*
X005046Y005529D02*
X005478Y005529D01*
X005478Y005609D02*
X005046Y005609D01*
X004809Y005683D02*
X004377Y005683D01*
X004809Y005683D02*
X004809Y005289D01*
X004377Y005289D01*
X004377Y005683D01*
X004377Y005369D02*
X004809Y005369D01*
X004809Y005449D02*
X004377Y005449D01*
X004377Y005529D02*
X004809Y005529D01*
X004809Y005609D02*
X004377Y005609D01*
X004406Y004190D02*
X004800Y004190D01*
X004406Y004190D02*
X004406Y004622D01*
X004800Y004622D01*
X004800Y004190D01*
X004800Y004270D02*
X004406Y004270D01*
X004406Y004350D02*
X004800Y004350D01*
X004800Y004430D02*
X004406Y004430D01*
X004406Y004510D02*
X004800Y004510D01*
X004800Y004590D02*
X004406Y004590D01*
X005075Y004190D02*
X005469Y004190D01*
X005075Y004190D02*
X005075Y004622D01*
X005469Y004622D01*
X005469Y004190D01*
X005469Y004270D02*
X005075Y004270D01*
X005075Y004350D02*
X005469Y004350D01*
X005469Y004430D02*
X005075Y004430D01*
X005075Y004510D02*
X005469Y004510D01*
X005469Y004590D02*
X005075Y004590D01*
X005066Y003553D02*
X005498Y003553D01*
X005498Y003159D01*
X005066Y003159D01*
X005066Y003553D01*
X005066Y003239D02*
X005498Y003239D01*
X005498Y003319D02*
X005066Y003319D01*
X005066Y003399D02*
X005498Y003399D01*
X005498Y003479D02*
X005066Y003479D01*
X004829Y003553D02*
X004397Y003553D01*
X004829Y003553D02*
X004829Y003159D01*
X004397Y003159D01*
X004397Y003553D01*
X004397Y003239D02*
X004829Y003239D01*
X004829Y003319D02*
X004397Y003319D01*
X004397Y003399D02*
X004829Y003399D01*
X004829Y003479D02*
X004397Y003479D01*
X004426Y002120D02*
X004820Y002120D01*
X004426Y002120D02*
X004426Y002552D01*
X004820Y002552D01*
X004820Y002120D01*
X004820Y002200D02*
X004426Y002200D01*
X004426Y002280D02*
X004820Y002280D01*
X004820Y002360D02*
X004426Y002360D01*
X004426Y002440D02*
X004820Y002440D01*
X004820Y002520D02*
X004426Y002520D01*
X005095Y002120D02*
X005489Y002120D01*
X005095Y002120D02*
X005095Y002552D01*
X005489Y002552D01*
X005489Y002120D01*
X005489Y002200D02*
X005095Y002200D01*
X005095Y002280D02*
X005489Y002280D01*
X005489Y002360D02*
X005095Y002360D01*
X005095Y002440D02*
X005489Y002440D01*
X005489Y002520D02*
X005095Y002520D01*
X007996Y000580D02*
X008390Y000580D01*
X007996Y000580D02*
X007996Y001012D01*
X008390Y001012D01*
X008390Y000580D01*
X008390Y000660D02*
X007996Y000660D01*
X007996Y000740D02*
X008390Y000740D01*
X008390Y000820D02*
X007996Y000820D01*
X007996Y000900D02*
X008390Y000900D01*
X008390Y000980D02*
X007996Y000980D01*
X008665Y000580D02*
X009059Y000580D01*
X008665Y000580D02*
X008665Y001012D01*
X009059Y001012D01*
X009059Y000580D01*
X009059Y000660D02*
X008665Y000660D01*
X008665Y000740D02*
X009059Y000740D01*
X009059Y000820D02*
X008665Y000820D01*
X008665Y000900D02*
X009059Y000900D01*
X009059Y000980D02*
X008665Y000980D01*
X008615Y006830D02*
X009009Y006830D01*
X008615Y006830D02*
X008615Y007262D01*
X009009Y007262D01*
X009009Y006830D01*
X009009Y006910D02*
X008615Y006910D01*
X008615Y006990D02*
X009009Y006990D01*
X009009Y007070D02*
X008615Y007070D01*
X008615Y007150D02*
X009009Y007150D01*
X009009Y007230D02*
X008615Y007230D01*
X008340Y006830D02*
X007946Y006830D01*
X007946Y007262D01*
X008340Y007262D01*
X008340Y006830D01*
X008340Y006910D02*
X007946Y006910D01*
X007946Y006990D02*
X008340Y006990D01*
X008340Y007070D02*
X007946Y007070D01*
X007946Y007150D02*
X008340Y007150D01*
X008340Y007230D02*
X007946Y007230D01*
D23*
X009674Y007043D02*
X010091Y007460D01*
X010508Y007043D01*
X010091Y006626D01*
X009674Y007043D01*
X010012Y006705D02*
X010170Y006705D01*
X010249Y006784D02*
X009933Y006784D01*
X009854Y006863D02*
X010328Y006863D01*
X010407Y006942D02*
X009775Y006942D01*
X009696Y007021D02*
X010486Y007021D01*
X010451Y007100D02*
X009731Y007100D01*
X009810Y007179D02*
X010372Y007179D01*
X010293Y007258D02*
X009889Y007258D01*
X009968Y007337D02*
X010214Y007337D01*
X010135Y007416D02*
X010047Y007416D01*
X011065Y006485D02*
X010648Y006068D01*
X011065Y006485D02*
X011482Y006068D01*
X011065Y005651D01*
X010648Y006068D01*
X010986Y005730D02*
X011144Y005730D01*
X011223Y005809D02*
X010907Y005809D01*
X010828Y005888D02*
X011302Y005888D01*
X011381Y005967D02*
X010749Y005967D01*
X010670Y006046D02*
X011460Y006046D01*
X011425Y006125D02*
X010705Y006125D01*
X010784Y006204D02*
X011346Y006204D01*
X011267Y006283D02*
X010863Y006283D01*
X010942Y006362D02*
X011188Y006362D01*
X011109Y006441D02*
X011021Y006441D01*
X010678Y001793D02*
X011095Y001376D01*
X010678Y001793D02*
X011095Y002210D01*
X011512Y001793D01*
X011095Y001376D01*
X011174Y001455D02*
X011016Y001455D01*
X010937Y001534D02*
X011253Y001534D01*
X011332Y001613D02*
X010858Y001613D01*
X010779Y001692D02*
X011411Y001692D01*
X011490Y001771D02*
X010700Y001771D01*
X010735Y001850D02*
X011455Y001850D01*
X011376Y001929D02*
X010814Y001929D01*
X010893Y002008D02*
X011297Y002008D01*
X011218Y002087D02*
X010972Y002087D01*
X011051Y002166D02*
X011139Y002166D01*
X009704Y000818D02*
X010121Y000401D01*
X009704Y000818D02*
X010121Y001235D01*
X010538Y000818D01*
X010121Y000401D01*
X010200Y000480D02*
X010042Y000480D01*
X009963Y000559D02*
X010279Y000559D01*
X010358Y000638D02*
X009884Y000638D01*
X009805Y000717D02*
X010437Y000717D01*
X010516Y000796D02*
X009726Y000796D01*
X009761Y000875D02*
X010481Y000875D01*
X010402Y000954D02*
X009840Y000954D01*
X009919Y001033D02*
X010323Y001033D01*
X010244Y001112D02*
X009998Y001112D01*
X010077Y001191D02*
X010165Y001191D01*
M02*
