G75*
G70*
%OFA0B0*%
%FSLAX24Y24*%
%IPPOS*%
%LPD*%
%AMOC8*
5,1,8,0,0,1.08239X$1,22.5*
%
%ADD10C,0.0000*%
%ADD11C,0.0118*%
%ADD12R,0.0118X0.0295*%
%ADD13C,0.0055*%
%ADD14R,0.0290X0.0110*%
%ADD15C,0.0033*%
%ADD16R,0.0295X0.0118*%
%ADD17R,0.0866X0.0984*%
%ADD18R,0.0787X0.0197*%
%ADD19OC8,0.0600*%
%ADD20C,0.0472*%
%ADD21OC8,0.0472*%
%ADD22R,0.0394X0.0433*%
%ADD23R,0.0433X0.0394*%
%ADD24R,0.0591X0.0591*%
%ADD25C,0.0200*%
%ADD26C,0.0100*%
%ADD27C,0.0090*%
%ADD28C,0.0060*%
%ADD29C,0.0236*%
%ADD30C,0.0120*%
D10*
X001298Y000126D02*
X000598Y002226D01*
X000598Y005626D01*
X001298Y007622D01*
X010168Y007622D01*
X012098Y005726D01*
X012098Y002226D01*
X011168Y001226D01*
X010098Y000126D01*
X001298Y000126D01*
X002461Y003237D02*
X002463Y003263D01*
X002469Y003289D01*
X002479Y003314D01*
X002492Y003337D01*
X002508Y003357D01*
X002528Y003375D01*
X002550Y003390D01*
X002573Y003402D01*
X002599Y003410D01*
X002625Y003414D01*
X002651Y003414D01*
X002677Y003410D01*
X002703Y003402D01*
X002727Y003390D01*
X002748Y003375D01*
X002768Y003357D01*
X002784Y003337D01*
X002797Y003314D01*
X002807Y003289D01*
X002813Y003263D01*
X002815Y003237D01*
X002813Y003211D01*
X002807Y003185D01*
X002797Y003160D01*
X002784Y003137D01*
X002768Y003117D01*
X002748Y003099D01*
X002726Y003084D01*
X002703Y003072D01*
X002677Y003064D01*
X002651Y003060D01*
X002625Y003060D01*
X002599Y003064D01*
X002573Y003072D01*
X002549Y003084D01*
X002528Y003099D01*
X002508Y003117D01*
X002492Y003137D01*
X002479Y003160D01*
X002469Y003185D01*
X002463Y003211D01*
X002461Y003237D01*
X002461Y004614D02*
X002463Y004640D01*
X002469Y004666D01*
X002479Y004691D01*
X002492Y004714D01*
X002508Y004734D01*
X002528Y004752D01*
X002550Y004767D01*
X002573Y004779D01*
X002599Y004787D01*
X002625Y004791D01*
X002651Y004791D01*
X002677Y004787D01*
X002703Y004779D01*
X002727Y004767D01*
X002748Y004752D01*
X002768Y004734D01*
X002784Y004714D01*
X002797Y004691D01*
X002807Y004666D01*
X002813Y004640D01*
X002815Y004614D01*
X002813Y004588D01*
X002807Y004562D01*
X002797Y004537D01*
X002784Y004514D01*
X002768Y004494D01*
X002748Y004476D01*
X002726Y004461D01*
X002703Y004449D01*
X002677Y004441D01*
X002651Y004437D01*
X002625Y004437D01*
X002599Y004441D01*
X002573Y004449D01*
X002549Y004461D01*
X002528Y004476D01*
X002508Y004494D01*
X002492Y004514D01*
X002479Y004537D01*
X002469Y004562D01*
X002463Y004588D01*
X002461Y004614D01*
X006437Y006636D02*
X006439Y006683D01*
X006445Y006729D01*
X006455Y006775D01*
X006468Y006820D01*
X006486Y006863D01*
X006507Y006905D01*
X006531Y006945D01*
X006559Y006982D01*
X006590Y007017D01*
X006624Y007050D01*
X006660Y007079D01*
X006699Y007105D01*
X006740Y007128D01*
X006783Y007147D01*
X006827Y007163D01*
X006872Y007175D01*
X006918Y007183D01*
X006965Y007187D01*
X007011Y007187D01*
X007058Y007183D01*
X007104Y007175D01*
X007149Y007163D01*
X007193Y007147D01*
X007236Y007128D01*
X007277Y007105D01*
X007316Y007079D01*
X007352Y007050D01*
X007386Y007017D01*
X007417Y006982D01*
X007445Y006945D01*
X007469Y006905D01*
X007490Y006863D01*
X007508Y006820D01*
X007521Y006775D01*
X007531Y006729D01*
X007537Y006683D01*
X007539Y006636D01*
X007537Y006589D01*
X007531Y006543D01*
X007521Y006497D01*
X007508Y006452D01*
X007490Y006409D01*
X007469Y006367D01*
X007445Y006327D01*
X007417Y006290D01*
X007386Y006255D01*
X007352Y006222D01*
X007316Y006193D01*
X007277Y006167D01*
X007236Y006144D01*
X007193Y006125D01*
X007149Y006109D01*
X007104Y006097D01*
X007058Y006089D01*
X007011Y006085D01*
X006965Y006085D01*
X006918Y006089D01*
X006872Y006097D01*
X006827Y006109D01*
X006783Y006125D01*
X006740Y006144D01*
X006699Y006167D01*
X006660Y006193D01*
X006624Y006222D01*
X006590Y006255D01*
X006559Y006290D01*
X006531Y006327D01*
X006507Y006367D01*
X006486Y006409D01*
X006468Y006452D01*
X006455Y006497D01*
X006445Y006543D01*
X006439Y006589D01*
X006437Y006636D01*
X008927Y001756D02*
X008929Y001803D01*
X008935Y001849D01*
X008945Y001895D01*
X008958Y001940D01*
X008976Y001983D01*
X008997Y002025D01*
X009021Y002065D01*
X009049Y002102D01*
X009080Y002137D01*
X009114Y002170D01*
X009150Y002199D01*
X009189Y002225D01*
X009230Y002248D01*
X009273Y002267D01*
X009317Y002283D01*
X009362Y002295D01*
X009408Y002303D01*
X009455Y002307D01*
X009501Y002307D01*
X009548Y002303D01*
X009594Y002295D01*
X009639Y002283D01*
X009683Y002267D01*
X009726Y002248D01*
X009767Y002225D01*
X009806Y002199D01*
X009842Y002170D01*
X009876Y002137D01*
X009907Y002102D01*
X009935Y002065D01*
X009959Y002025D01*
X009980Y001983D01*
X009998Y001940D01*
X010011Y001895D01*
X010021Y001849D01*
X010027Y001803D01*
X010029Y001756D01*
X010027Y001709D01*
X010021Y001663D01*
X010011Y001617D01*
X009998Y001572D01*
X009980Y001529D01*
X009959Y001487D01*
X009935Y001447D01*
X009907Y001410D01*
X009876Y001375D01*
X009842Y001342D01*
X009806Y001313D01*
X009767Y001287D01*
X009726Y001264D01*
X009683Y001245D01*
X009639Y001229D01*
X009594Y001217D01*
X009548Y001209D01*
X009501Y001205D01*
X009455Y001205D01*
X009408Y001209D01*
X009362Y001217D01*
X009317Y001229D01*
X009273Y001245D01*
X009230Y001264D01*
X009189Y001287D01*
X009150Y001313D01*
X009114Y001342D01*
X009080Y001375D01*
X009049Y001410D01*
X009021Y001447D01*
X008997Y001487D01*
X008976Y001529D01*
X008958Y001572D01*
X008945Y001617D01*
X008935Y001663D01*
X008929Y001709D01*
X008927Y001756D01*
D11*
X006813Y004359D02*
X006813Y004535D01*
D12*
X006616Y004447D03*
X006419Y004447D03*
X006419Y003364D03*
X006616Y003364D03*
D13*
X006195Y003246D02*
X006195Y003482D01*
X006251Y003482D01*
X006251Y003246D01*
X006195Y003246D01*
X006195Y003300D02*
X006251Y003300D01*
X006251Y003354D02*
X006195Y003354D01*
X006195Y003408D02*
X006251Y003408D01*
X006251Y003462D02*
X006195Y003462D01*
X005858Y003582D02*
X005858Y003638D01*
X006094Y003638D01*
X006094Y003582D01*
X005858Y003582D01*
X005858Y003636D02*
X006094Y003636D01*
X005858Y004173D02*
X005858Y004229D01*
X006094Y004229D01*
X006094Y004173D01*
X005858Y004173D01*
X005858Y004227D02*
X006094Y004227D01*
X006195Y004329D02*
X006195Y004565D01*
X006251Y004565D01*
X006251Y004329D01*
X006195Y004329D01*
X006195Y004383D02*
X006251Y004383D01*
X006251Y004437D02*
X006195Y004437D01*
X006195Y004491D02*
X006251Y004491D01*
X006251Y004545D02*
X006195Y004545D01*
D14*
X005976Y004004D03*
X005976Y003807D03*
D15*
X006774Y003493D02*
X006774Y003235D01*
X006774Y003493D02*
X006852Y003493D01*
X006852Y003235D01*
X006774Y003235D01*
X006774Y003267D02*
X006852Y003267D01*
X006852Y003299D02*
X006774Y003299D01*
X006774Y003331D02*
X006852Y003331D01*
X006852Y003363D02*
X006774Y003363D01*
X006774Y003395D02*
X006852Y003395D01*
X006852Y003427D02*
X006774Y003427D01*
X006774Y003459D02*
X006852Y003459D01*
X006852Y003491D02*
X006774Y003491D01*
X006930Y003571D02*
X006930Y003649D01*
X007188Y003649D01*
X007188Y003571D01*
X006930Y003571D01*
X006930Y003603D02*
X007188Y003603D01*
X007188Y003635D02*
X006930Y003635D01*
X006930Y004162D02*
X006930Y004240D01*
X007188Y004240D01*
X007188Y004162D01*
X006930Y004162D01*
X006930Y004194D02*
X007188Y004194D01*
X007188Y004226D02*
X006930Y004226D01*
D16*
X007059Y004004D03*
X007059Y003807D03*
D17*
X003425Y002272D03*
X001339Y002272D03*
X001339Y005579D03*
X003425Y005579D03*
D18*
X003524Y004555D03*
X003524Y004240D03*
X003524Y003926D03*
X003524Y003611D03*
X003524Y003296D03*
D19*
X003798Y000826D03*
X004798Y000826D03*
X005798Y000826D03*
X006798Y000826D03*
X008098Y001926D03*
X008098Y002926D03*
X008098Y003926D03*
X008098Y004926D03*
X008098Y005926D03*
X010198Y004926D03*
X011198Y004926D03*
X011198Y003926D03*
X010198Y003926D03*
X010198Y002926D03*
X011198Y002926D03*
X005798Y006926D03*
X004798Y006926D03*
X003798Y006926D03*
X002798Y006926D03*
X001798Y006926D03*
X001798Y000826D03*
X002798Y000826D03*
D20*
X008998Y002926D03*
D21*
X008998Y003926D03*
X008998Y004926D03*
D22*
X006752Y005486D03*
X006083Y005486D03*
X005272Y004406D03*
X004603Y004406D03*
X004623Y002336D03*
X005292Y002336D03*
X008193Y000796D03*
X008862Y000796D03*
X008812Y007046D03*
X008143Y007046D03*
D23*
X005262Y005486D03*
X004593Y005486D03*
X004613Y003356D03*
X005282Y003356D03*
D24*
G36*
X010121Y000401D02*
X009704Y000818D01*
X010121Y001235D01*
X010538Y000818D01*
X010121Y000401D01*
G37*
G36*
X011095Y001376D02*
X010678Y001793D01*
X011095Y002210D01*
X011512Y001793D01*
X011095Y001376D01*
G37*
G36*
X010648Y006068D02*
X011065Y006485D01*
X011482Y006068D01*
X011065Y005651D01*
X010648Y006068D01*
G37*
G36*
X009674Y007043D02*
X010091Y007460D01*
X010508Y007043D01*
X010091Y006626D01*
X009674Y007043D01*
G37*
D25*
X010628Y006056D02*
X009428Y004856D01*
X009428Y004346D01*
X009008Y003926D01*
X008998Y003926D01*
X009158Y003956D01*
X010118Y002996D01*
X010198Y002926D01*
X010208Y002906D01*
X011078Y002036D01*
X011078Y001796D01*
X011095Y001793D01*
X008098Y002926D02*
X008078Y002906D01*
X008088Y002926D01*
X007568Y002436D01*
X006248Y002436D01*
X005738Y002916D01*
X005018Y002906D01*
X004658Y003266D01*
X004613Y003356D01*
X004138Y003286D01*
X003534Y003286D01*
X003524Y003296D01*
X003458Y003206D01*
X003440Y003205D01*
X003438Y003266D01*
X003428Y003296D02*
X003524Y003296D01*
X003440Y003205D02*
X003448Y003006D01*
X002948Y003006D01*
X002708Y002786D01*
X002708Y001746D01*
X001798Y000826D01*
X004568Y005486D02*
X004593Y005486D01*
X004568Y005486D02*
X004568Y006176D01*
X003818Y006926D01*
X003798Y006926D01*
X010628Y006056D02*
X011048Y006056D01*
X011065Y006068D01*
D26*
X006888Y005496D02*
X006888Y005486D01*
X006752Y005486D02*
X006752Y005871D01*
X006208Y006416D01*
X005308Y006416D01*
X004798Y006926D01*
X004938Y004816D02*
X005608Y004816D01*
X005608Y004336D01*
X005748Y004196D01*
X005976Y004201D01*
X005988Y002076D02*
X005698Y001866D01*
X004848Y001866D01*
X005988Y002076D02*
X007888Y002076D01*
X008102Y001938D01*
X008118Y001926D01*
D27*
X004938Y003706D02*
X004613Y003381D01*
X004613Y003356D01*
X004938Y003706D02*
X004938Y004816D01*
D28*
X005272Y004406D02*
X005288Y004406D01*
X005678Y004016D01*
X005948Y004016D01*
X005976Y004004D01*
X005976Y003807D02*
X005948Y003806D01*
X005588Y003806D01*
X006248Y003926D02*
X006368Y004046D01*
X006248Y003926D02*
X006248Y003386D01*
X006223Y003364D01*
X006419Y003364D02*
X006428Y003356D01*
X006428Y003116D01*
X006808Y002946D01*
X007098Y003166D02*
X006998Y003356D01*
X006818Y003356D01*
X006813Y003364D01*
X006638Y003386D02*
X006616Y003364D01*
X006638Y003386D02*
X006638Y003836D01*
X007059Y003807D02*
X007088Y003806D01*
X007568Y003806D01*
X007748Y003506D01*
X007748Y003326D01*
X007488Y002716D01*
X006538Y002716D01*
X006448Y002806D01*
X005808Y002386D02*
X005318Y002336D01*
X005292Y002336D01*
X005798Y002376D02*
X005808Y002386D01*
X006408Y001746D02*
X005998Y001336D01*
X005318Y001336D01*
X004798Y000826D01*
X005798Y000826D02*
X005798Y000836D01*
X006188Y000776D02*
X006188Y000656D01*
X005948Y000416D01*
X003188Y000416D01*
X002798Y000806D01*
X002798Y000826D01*
X004598Y002336D02*
X004623Y002336D01*
X004598Y002336D02*
X004598Y002876D01*
X003848Y003626D02*
X003548Y003626D01*
X003524Y003611D01*
X003848Y003626D02*
X004148Y003926D01*
X004628Y003926D01*
X004328Y004406D02*
X003848Y003926D01*
X003524Y003926D01*
X003524Y004240D02*
X003548Y004256D01*
X003878Y004256D01*
X004178Y004556D01*
X004178Y004736D01*
X004328Y004406D02*
X004603Y004406D01*
X005262Y005486D02*
X005888Y005486D01*
X006083Y005486D01*
X005888Y005486D02*
X005888Y006056D01*
X006428Y004706D02*
X007088Y005226D01*
X007308Y005286D01*
X007488Y005486D01*
X007488Y006126D01*
X007688Y006326D01*
X007688Y006866D01*
X007268Y007286D01*
X006728Y007286D01*
X006313Y007331D01*
X005808Y007346D01*
X003218Y007346D01*
X002798Y006926D01*
X002348Y007466D02*
X001808Y006926D01*
X001798Y006926D01*
X002348Y007466D02*
X008288Y007466D01*
X008498Y007256D01*
X008498Y006596D01*
X009458Y006596D01*
X009458Y006296D02*
X009458Y005396D01*
X009008Y004946D01*
X008998Y004926D01*
X008288Y004316D02*
X008588Y004016D01*
X008588Y001826D01*
X008228Y001466D01*
X006878Y001466D01*
X006188Y000776D01*
X006798Y000826D02*
X006818Y000836D01*
X007238Y001256D01*
X008018Y001256D01*
X007928Y001046D02*
X007658Y001046D01*
X007928Y001046D02*
X008168Y000806D01*
X008193Y000796D01*
X008862Y000796D02*
X008888Y000806D01*
X010118Y000806D01*
X010121Y000818D01*
X007308Y001746D02*
X006408Y001746D01*
X007478Y003406D02*
X007218Y003606D01*
X007088Y003596D01*
X007059Y003610D01*
X007059Y004004D02*
X007088Y004016D01*
X007628Y004016D01*
X007928Y004316D01*
X008288Y004316D01*
X007448Y004326D02*
X007088Y004226D01*
X007059Y004201D01*
X006818Y004436D02*
X006813Y004447D01*
X006818Y004436D02*
X007368Y004626D01*
X007438Y004836D02*
X006898Y004836D01*
X006638Y004586D01*
X006638Y004466D01*
X006616Y004447D01*
X006428Y004466D02*
X006428Y004706D01*
X006218Y004836D02*
X006218Y004466D01*
X006223Y004447D01*
X006419Y004447D02*
X006428Y004466D01*
X007258Y005046D02*
X008108Y005906D01*
X008098Y005926D01*
X008498Y005756D02*
X008498Y006596D01*
X008138Y006636D02*
X008138Y007046D01*
X008143Y007046D01*
X008812Y007046D02*
X010088Y007046D01*
X010091Y007043D01*
X008498Y005756D02*
X008258Y005516D01*
X008108Y005516D01*
X007438Y004836D01*
D29*
X007368Y004626D03*
X007448Y004326D03*
X006638Y003836D03*
X006368Y004046D03*
X005588Y003806D03*
X005228Y003806D03*
X004628Y003926D03*
X004178Y004736D03*
X004148Y005156D03*
X005888Y006056D03*
X007168Y005486D03*
X007258Y005046D03*
X006218Y004836D03*
X007478Y003406D03*
X007098Y003166D03*
X006808Y002946D03*
X006448Y002806D03*
X005798Y002376D03*
X004598Y002876D03*
X007308Y001746D03*
X008018Y001256D03*
X007658Y001046D03*
X009458Y006296D03*
X009458Y006596D03*
X008138Y006636D03*
X007688Y006866D03*
D30*
X007168Y005486D02*
X006888Y005486D01*
X006752Y005486D01*
X004278Y005016D02*
X004148Y005156D01*
X003548Y004556D01*
X003524Y004555D01*
X005228Y003806D02*
X005228Y003386D01*
X005282Y003356D01*
X005528Y003356D01*
X005768Y003596D01*
X005948Y003596D01*
X005976Y003610D01*
X008102Y001938D02*
X008108Y001946D01*
X008098Y001926D01*
X004848Y001866D02*
X003818Y000836D01*
X003798Y000826D01*
M02*
