G75*
G70*
%OFA0B0*%
%FSLAX24Y24*%
%IPPOS*%
%LPD*%
%AMOC8*
5,1,8,0,0,1.08239X$1,22.5*
%
%ADD10C,0.0020*%
%ADD11C,0.0030*%
%ADD12C,0.0160*%
%ADD13C,0.0600*%
%ADD14C,0.0380*%
%ADD15C,0.0150*%
%ADD16C,0.0520*%
%ADD17C,0.0080*%
%ADD18C,0.0040*%
%ADD19C,0.0060*%
%ADD20R,0.0200X0.0100*%
%ADD21R,0.0150X0.0050*%
%ADD22R,0.0100X0.0100*%
%ADD23C,0.0050*%
%ADD24R,0.0128X0.0167*%
%ADD25R,0.0138X0.0138*%
D10*
X000549Y001594D02*
X000695Y001594D01*
X000770Y001594D02*
X000916Y001594D01*
X000991Y001594D02*
X000991Y001814D01*
X001137Y001814D01*
X001212Y001814D02*
X001358Y001814D01*
X001285Y001814D02*
X001285Y001594D01*
X001064Y001704D02*
X000991Y001704D01*
X000916Y001814D02*
X000770Y001814D01*
X000770Y001594D01*
X000770Y001704D02*
X000843Y001704D01*
X000549Y001814D02*
X000549Y001594D01*
X001993Y001564D02*
X002139Y001564D01*
X002066Y001564D02*
X002066Y001784D01*
X001993Y001710D01*
X008322Y001673D02*
X008509Y001486D01*
X008462Y001533D02*
X008603Y001673D01*
X008603Y001486D02*
X008322Y001486D01*
X008322Y001210D02*
X008603Y001210D01*
X008603Y001397D01*
X008556Y001121D02*
X008603Y001074D01*
X008603Y000934D01*
X008322Y000934D01*
X008322Y001074D01*
X008369Y001121D01*
X008416Y001121D01*
X008462Y001074D01*
X008462Y000934D01*
X008462Y001074D02*
X008509Y001121D01*
X008556Y001121D01*
X009673Y003394D02*
X009673Y003614D01*
X009783Y003614D01*
X009819Y003577D01*
X009819Y003504D01*
X009783Y003467D01*
X009673Y003467D01*
X009746Y003467D02*
X009819Y003394D01*
X009894Y003394D02*
X010040Y003614D01*
X010115Y003577D02*
X010151Y003614D01*
X010225Y003614D01*
X010261Y003577D01*
X010115Y003430D01*
X010151Y003394D01*
X010225Y003394D01*
X010261Y003430D01*
X010261Y003577D01*
X010115Y003577D02*
X010115Y003430D01*
X010040Y003394D02*
X009894Y003614D01*
X010493Y003614D02*
X010639Y003614D01*
X010566Y003614D02*
X010566Y003394D01*
X010714Y003394D02*
X010860Y003614D01*
X010935Y003540D02*
X011008Y003614D01*
X011008Y003394D01*
X010935Y003394D02*
X011081Y003394D01*
X010860Y003394D02*
X010714Y003614D01*
X011303Y003614D02*
X011376Y003614D01*
X011339Y003614D02*
X011339Y003394D01*
X011303Y003394D02*
X011376Y003394D01*
X011450Y003394D02*
X011450Y003614D01*
X011560Y003614D01*
X011597Y003577D01*
X011597Y003504D01*
X011560Y003467D01*
X011450Y003467D01*
X011523Y003467D02*
X011597Y003394D01*
X011671Y003394D02*
X011818Y003540D01*
X011818Y003577D01*
X011781Y003614D01*
X011708Y003614D01*
X011671Y003577D01*
X011671Y003394D02*
X011818Y003394D01*
X012103Y003394D02*
X012103Y003614D01*
X012213Y003614D01*
X012249Y003577D01*
X012249Y003504D01*
X012213Y003467D01*
X012103Y003467D01*
X012324Y003430D02*
X012360Y003394D01*
X012434Y003394D01*
X012470Y003430D01*
X012470Y003467D01*
X012434Y003504D01*
X012397Y003504D01*
X012434Y003504D02*
X012470Y003540D01*
X012470Y003577D01*
X012434Y003614D01*
X012360Y003614D01*
X012324Y003577D01*
X012943Y003514D02*
X013089Y003514D01*
X013053Y003624D02*
X012943Y003514D01*
X013053Y003404D02*
X013053Y003624D01*
X013573Y003614D02*
X013573Y003394D01*
X013573Y003467D02*
X013683Y003467D01*
X013719Y003504D01*
X013719Y003577D01*
X013683Y003614D01*
X013573Y003614D01*
X013794Y003614D02*
X013794Y003504D01*
X013867Y003540D01*
X013904Y003540D01*
X013940Y003504D01*
X013940Y003430D01*
X013904Y003394D01*
X013830Y003394D01*
X013794Y003430D01*
X013794Y003614D02*
X013940Y003614D01*
X014373Y003614D02*
X014373Y003394D01*
X014373Y003467D02*
X014483Y003467D01*
X014519Y003504D01*
X014519Y003577D01*
X014483Y003614D01*
X014373Y003614D01*
X014594Y003504D02*
X014667Y003577D01*
X014740Y003614D01*
X014704Y003504D02*
X014594Y003504D01*
X014594Y003430D01*
X014630Y003394D01*
X014704Y003394D01*
X014740Y003430D01*
X014740Y003467D01*
X014704Y003504D01*
X015173Y003430D02*
X015173Y003394D01*
X015173Y003430D02*
X015319Y003577D01*
X015319Y003614D01*
X015173Y003614D01*
X015973Y003577D02*
X015973Y003540D01*
X016009Y003504D01*
X016083Y003504D01*
X016119Y003467D01*
X016119Y003430D01*
X016083Y003394D01*
X016009Y003394D01*
X015973Y003430D01*
X015973Y003467D01*
X016009Y003504D01*
X016083Y003504D02*
X016119Y003540D01*
X016119Y003577D01*
X016083Y003614D01*
X016009Y003614D01*
X015973Y003577D01*
X016573Y003614D02*
X016573Y003394D01*
X016573Y003467D02*
X016683Y003467D01*
X016719Y003504D01*
X016719Y003577D01*
X016683Y003614D01*
X016573Y003614D01*
X016794Y003577D02*
X016794Y003540D01*
X016830Y003504D01*
X016940Y003504D01*
X016940Y003577D02*
X016940Y003430D01*
X016904Y003394D01*
X016830Y003394D01*
X016794Y003430D01*
X016794Y003577D02*
X016830Y003614D01*
X016904Y003614D01*
X016940Y003577D01*
X017323Y003560D02*
X017359Y003524D01*
X017433Y003524D01*
X017469Y003560D01*
X017469Y003597D01*
X017433Y003634D01*
X017359Y003634D01*
X017323Y003670D01*
X017323Y003707D01*
X017359Y003744D01*
X017433Y003744D01*
X017469Y003707D01*
X017544Y003707D02*
X017544Y003670D01*
X017580Y003634D01*
X017654Y003634D01*
X017690Y003597D01*
X017690Y003560D01*
X017654Y003524D01*
X017580Y003524D01*
X017544Y003560D01*
X017600Y003454D02*
X017674Y003454D01*
X017710Y003417D01*
X017564Y003270D01*
X017600Y003234D01*
X017674Y003234D01*
X017710Y003270D01*
X017710Y003417D01*
X017600Y003454D02*
X017564Y003417D01*
X017564Y003270D01*
X017489Y003234D02*
X017343Y003234D01*
X017416Y003234D02*
X017416Y003454D01*
X017343Y003380D01*
X017544Y003707D02*
X017580Y003744D01*
X017654Y003744D01*
X017690Y003707D01*
X017893Y003744D02*
X017966Y003670D01*
X018039Y003744D01*
X018039Y003524D01*
X018114Y003560D02*
X018150Y003524D01*
X018224Y003524D01*
X018260Y003560D01*
X018260Y003707D01*
X018224Y003744D01*
X018150Y003744D01*
X018114Y003707D01*
X018114Y003560D01*
X018176Y003464D02*
X018176Y003244D01*
X018103Y003244D02*
X018249Y003244D01*
X018324Y003244D02*
X018470Y003244D01*
X018397Y003244D02*
X018397Y003464D01*
X018324Y003390D01*
X018371Y003524D02*
X018335Y003560D01*
X018371Y003524D02*
X018445Y003524D01*
X018481Y003560D01*
X018481Y003597D01*
X018445Y003634D01*
X018371Y003634D01*
X018335Y003670D01*
X018335Y003707D01*
X018371Y003744D01*
X018445Y003744D01*
X018481Y003707D01*
X018556Y003744D02*
X018629Y003744D01*
X018592Y003744D02*
X018592Y003524D01*
X018556Y003524D02*
X018629Y003524D01*
X018753Y003534D02*
X018753Y003754D01*
X018826Y003680D01*
X018899Y003754D01*
X018899Y003534D01*
X018916Y003474D02*
X018916Y003254D01*
X018843Y003254D02*
X018989Y003254D01*
X019064Y003254D02*
X019210Y003400D01*
X019210Y003437D01*
X019174Y003474D01*
X019100Y003474D01*
X019064Y003437D01*
X019047Y003534D02*
X018974Y003534D01*
X019010Y003534D02*
X019010Y003754D01*
X018974Y003754D02*
X019047Y003754D01*
X019121Y003717D02*
X019121Y003680D01*
X019158Y003644D01*
X019231Y003644D01*
X019268Y003607D01*
X019268Y003570D01*
X019231Y003534D01*
X019158Y003534D01*
X019121Y003570D01*
X019121Y003717D02*
X019158Y003754D01*
X019231Y003754D01*
X019268Y003717D01*
X019342Y003717D02*
X019342Y003570D01*
X019379Y003534D01*
X019452Y003534D01*
X019489Y003570D01*
X019489Y003717D01*
X019452Y003754D01*
X019379Y003754D01*
X019342Y003717D01*
X019643Y003717D02*
X019643Y003680D01*
X019679Y003644D01*
X019753Y003644D01*
X019789Y003607D01*
X019789Y003570D01*
X019753Y003534D01*
X019679Y003534D01*
X019643Y003570D01*
X019706Y003484D02*
X019706Y003264D01*
X019633Y003264D02*
X019779Y003264D01*
X019854Y003300D02*
X019890Y003264D01*
X019964Y003264D01*
X020000Y003300D01*
X020000Y003337D01*
X019964Y003374D01*
X019927Y003374D01*
X019964Y003374D02*
X020000Y003410D01*
X020000Y003447D01*
X019964Y003484D01*
X019890Y003484D01*
X019854Y003447D01*
X019900Y003534D02*
X019974Y003534D01*
X020010Y003570D01*
X020085Y003534D02*
X020085Y003754D01*
X020010Y003717D02*
X019974Y003754D01*
X019900Y003754D01*
X019864Y003717D01*
X019864Y003570D01*
X019900Y003534D01*
X020085Y003534D02*
X020231Y003534D01*
X020306Y003534D02*
X020306Y003754D01*
X020342Y003644D02*
X020452Y003534D01*
X020306Y003607D02*
X020452Y003754D01*
X019789Y003717D02*
X019753Y003754D01*
X019679Y003754D01*
X019643Y003717D01*
X019706Y003484D02*
X019633Y003410D01*
X019210Y003254D02*
X019064Y003254D01*
X018843Y003400D02*
X018916Y003474D01*
X018176Y003464D02*
X018103Y003390D01*
X017893Y003524D02*
X017893Y003744D01*
X014843Y001683D02*
X014562Y001683D01*
X014562Y001496D02*
X014843Y001683D01*
X014843Y001496D02*
X014562Y001496D01*
X014609Y001407D02*
X014702Y001407D01*
X014749Y001360D01*
X014749Y001220D01*
X014749Y001313D02*
X014843Y001407D01*
X014843Y001220D02*
X014562Y001220D01*
X014562Y001360D01*
X014609Y001407D01*
X014609Y001131D02*
X014562Y001084D01*
X014562Y000990D01*
X014609Y000944D01*
X014796Y000944D01*
X014843Y000990D01*
X014843Y001084D01*
X014796Y001131D01*
X014702Y001131D01*
X014702Y001037D01*
X005843Y005854D02*
X005703Y005947D01*
X005843Y006041D01*
X005703Y006134D02*
X005703Y005854D01*
X005612Y005854D02*
X005519Y005854D01*
X005566Y005854D02*
X005566Y006134D01*
X005519Y006134D01*
X005429Y006041D02*
X005289Y006041D01*
X005243Y005994D01*
X005243Y005900D01*
X005289Y005854D01*
X005429Y005854D01*
X004716Y005834D02*
X004576Y005834D01*
X004529Y005880D01*
X004576Y005927D01*
X004716Y005927D01*
X004716Y005974D02*
X004716Y005834D01*
X004716Y005974D02*
X004669Y006021D01*
X004576Y006021D01*
X004438Y006021D02*
X004345Y006021D01*
X004392Y006067D02*
X004392Y005880D01*
X004438Y005834D01*
X004256Y005834D02*
X004256Y005974D01*
X004209Y006021D01*
X004116Y006021D01*
X004116Y005927D02*
X004256Y005927D01*
X004256Y005834D02*
X004116Y005834D01*
X004069Y005880D01*
X004116Y005927D01*
X003979Y005834D02*
X003979Y006114D01*
X003979Y006021D02*
X003839Y006021D01*
X003793Y005974D01*
X003793Y005880D01*
X003839Y005834D01*
X003979Y005834D01*
X008913Y009410D02*
X008913Y009691D01*
X009053Y009691D01*
X009099Y009644D01*
X009099Y009550D01*
X009053Y009504D01*
X008913Y009504D01*
X009189Y009504D02*
X009282Y009504D01*
X009236Y009504D02*
X009236Y009691D01*
X009189Y009691D01*
X009236Y009784D02*
X009236Y009831D01*
X009373Y009691D02*
X009513Y009691D01*
X009560Y009644D01*
X009560Y009504D01*
X009373Y009504D02*
X009373Y009691D01*
X009925Y009691D02*
X010019Y009784D01*
X010019Y009504D01*
X010112Y009504D02*
X009925Y009504D01*
X011149Y018474D02*
X011149Y018657D01*
X011186Y018694D01*
X011186Y018584D02*
X011113Y018584D01*
X011260Y018584D02*
X011260Y018510D01*
X011297Y018474D01*
X011370Y018474D01*
X011407Y018510D01*
X011407Y018584D01*
X011370Y018620D01*
X011297Y018620D01*
X011260Y018584D01*
X011481Y018620D02*
X011481Y018474D01*
X011481Y018547D02*
X011554Y018620D01*
X011591Y018620D01*
X011886Y018620D02*
X011886Y018510D01*
X011923Y018474D01*
X012033Y018474D01*
X012033Y018437D02*
X011996Y018400D01*
X011959Y018400D01*
X012033Y018437D02*
X012033Y018620D01*
X012107Y018584D02*
X012107Y018510D01*
X012144Y018474D01*
X012217Y018474D01*
X012254Y018510D01*
X012254Y018584D01*
X012217Y018620D01*
X012144Y018620D01*
X012107Y018584D01*
X012328Y018620D02*
X012328Y018510D01*
X012365Y018474D01*
X012475Y018474D01*
X012475Y018620D01*
X012549Y018620D02*
X012549Y018474D01*
X012549Y018547D02*
X012622Y018620D01*
X012659Y018620D01*
X012644Y018850D02*
X012680Y018887D01*
X012680Y019070D01*
X012570Y019070D01*
X012533Y019034D01*
X012533Y018960D01*
X012570Y018924D01*
X012680Y018924D01*
X012644Y018850D02*
X012607Y018850D01*
X012459Y018924D02*
X012349Y018924D01*
X012312Y018960D01*
X012349Y018997D01*
X012459Y018997D01*
X012459Y019034D02*
X012459Y018924D01*
X012459Y019034D02*
X012423Y019070D01*
X012349Y019070D01*
X012239Y019070D02*
X012165Y019070D01*
X012202Y019107D02*
X012202Y018960D01*
X012239Y018924D01*
X012091Y018924D02*
X012018Y018924D01*
X012054Y018924D02*
X012054Y019144D01*
X012018Y019144D01*
X011944Y019034D02*
X011907Y019070D01*
X011834Y019070D01*
X011797Y019034D01*
X011797Y018960D01*
X011834Y018924D01*
X011907Y018924D01*
X011944Y018960D01*
X011944Y019034D01*
X011723Y018997D02*
X011723Y019144D01*
X011723Y018997D02*
X011649Y018924D01*
X011576Y018997D01*
X011576Y019144D01*
X011281Y019070D02*
X011281Y018887D01*
X011244Y018850D01*
X011207Y018850D01*
X011171Y018924D02*
X011281Y018924D01*
X011171Y018924D02*
X011134Y018960D01*
X011134Y019034D01*
X011171Y019070D01*
X011281Y019070D01*
X011060Y019034D02*
X011023Y019070D01*
X010950Y019070D01*
X010913Y019034D01*
X010913Y018960D01*
X010950Y018924D01*
X011023Y018924D01*
X011060Y018960D01*
X011060Y019034D01*
X010839Y018924D02*
X010766Y018924D01*
X010802Y018924D02*
X010802Y019144D01*
X010766Y019144D01*
X010691Y019034D02*
X010691Y018924D01*
X010581Y018924D01*
X010545Y018960D01*
X010581Y018997D01*
X010691Y018997D01*
X010691Y019034D02*
X010655Y019070D01*
X010581Y019070D01*
X010470Y019034D02*
X010434Y019070D01*
X010324Y019070D01*
X010324Y018924D01*
X010249Y018924D02*
X010249Y019070D01*
X010176Y019144D01*
X010103Y019070D01*
X010103Y018924D01*
X010103Y019034D02*
X010249Y019034D01*
X010470Y019034D02*
X010470Y018924D01*
X012754Y018960D02*
X012754Y019034D01*
X012791Y019070D01*
X012864Y019070D01*
X012901Y019034D01*
X012901Y018997D01*
X012754Y018997D01*
X012754Y018960D02*
X012791Y018924D01*
X012864Y018924D01*
X012954Y018620D02*
X012954Y018510D01*
X012991Y018474D01*
X013101Y018474D01*
X013101Y018620D01*
X013175Y018584D02*
X013212Y018547D01*
X013285Y018547D01*
X013322Y018510D01*
X013285Y018474D01*
X013175Y018474D01*
X013175Y018584D02*
X013212Y018620D01*
X013322Y018620D01*
X013396Y018584D02*
X013433Y018620D01*
X013506Y018620D01*
X013543Y018584D01*
X013543Y018547D01*
X013396Y018547D01*
X013396Y018510D02*
X013396Y018584D01*
X013396Y018510D02*
X013433Y018474D01*
X013506Y018474D01*
X013491Y018924D02*
X013417Y018924D01*
X013454Y018924D02*
X013454Y019070D01*
X013417Y019070D01*
X013343Y019070D02*
X013233Y019070D01*
X013196Y019034D01*
X013196Y018960D01*
X013233Y018924D01*
X013343Y018924D01*
X013343Y019144D01*
X013454Y019144D02*
X013454Y019181D01*
X013565Y019070D02*
X013638Y018924D01*
X013711Y019070D01*
X013786Y019070D02*
X013822Y019070D01*
X013822Y018924D01*
X013786Y018924D02*
X013859Y018924D01*
X013933Y018960D02*
X013933Y019034D01*
X013970Y019070D01*
X014080Y019070D01*
X014080Y019144D02*
X014080Y018924D01*
X013970Y018924D01*
X013933Y018960D01*
X013822Y019144D02*
X013822Y019181D01*
X014154Y019034D02*
X014191Y019070D01*
X014264Y019070D01*
X014301Y019034D01*
X014301Y018997D01*
X014154Y018997D01*
X014154Y018960D02*
X014154Y019034D01*
X014154Y018960D02*
X014191Y018924D01*
X014264Y018924D01*
X014375Y018924D02*
X014375Y019070D01*
X014375Y018997D02*
X014448Y019070D01*
X014485Y019070D01*
X014559Y019034D02*
X014596Y019070D01*
X014706Y019070D01*
X014669Y018997D02*
X014596Y018997D01*
X014559Y019034D01*
X014559Y018924D02*
X014669Y018924D01*
X014706Y018960D01*
X014669Y018997D01*
X014809Y022044D02*
X014883Y022044D01*
X014919Y022080D01*
X014919Y022264D01*
X014994Y022227D02*
X014994Y022190D01*
X015030Y022154D01*
X015104Y022154D01*
X015140Y022117D01*
X015140Y022080D01*
X015104Y022044D01*
X015030Y022044D01*
X014994Y022080D01*
X014994Y022227D02*
X015030Y022264D01*
X015104Y022264D01*
X015140Y022227D01*
X015215Y022264D02*
X015325Y022264D01*
X015361Y022227D01*
X015361Y022154D01*
X015325Y022117D01*
X015215Y022117D01*
X015288Y022117D02*
X015361Y022044D01*
X015215Y022044D02*
X015215Y022264D01*
X014773Y022264D02*
X014773Y022080D01*
X014809Y022044D01*
X011186Y022590D02*
X011149Y022590D01*
X011076Y022517D01*
X011076Y022444D02*
X011076Y022590D01*
X011002Y022554D02*
X010965Y022590D01*
X010892Y022590D01*
X010855Y022554D01*
X010855Y022480D01*
X010892Y022444D01*
X010965Y022444D01*
X011002Y022480D01*
X011002Y022554D01*
X010781Y022590D02*
X010671Y022590D01*
X010634Y022554D01*
X010671Y022517D01*
X010744Y022517D01*
X010781Y022480D01*
X010744Y022444D01*
X010634Y022444D01*
X010560Y022444D02*
X010560Y022554D01*
X010523Y022590D01*
X010413Y022590D01*
X010413Y022444D01*
X010339Y022517D02*
X010192Y022517D01*
X010192Y022480D02*
X010192Y022554D01*
X010229Y022590D01*
X010302Y022590D01*
X010339Y022554D01*
X010339Y022517D01*
X010302Y022444D02*
X010229Y022444D01*
X010192Y022480D01*
X010118Y022480D02*
X010081Y022517D01*
X010008Y022517D01*
X009971Y022554D01*
X010008Y022590D01*
X010118Y022590D01*
X010118Y022480D02*
X010081Y022444D01*
X009971Y022444D01*
X009676Y022444D02*
X009640Y022480D01*
X009640Y022627D01*
X009676Y022590D02*
X009603Y022590D01*
X009529Y022554D02*
X009529Y022444D01*
X009529Y022554D02*
X009492Y022590D01*
X009419Y022590D01*
X009382Y022554D01*
X009308Y022590D02*
X009198Y022590D01*
X009161Y022554D01*
X009161Y022480D01*
X009198Y022444D01*
X009308Y022444D01*
X009308Y022407D02*
X009308Y022590D01*
X009382Y022664D02*
X009382Y022444D01*
X009308Y022407D02*
X009271Y022370D01*
X009234Y022370D01*
X009087Y022444D02*
X009014Y022444D01*
X009050Y022444D02*
X009050Y022590D01*
X009014Y022590D01*
X009050Y022664D02*
X009050Y022701D01*
X009026Y022804D02*
X009026Y022944D01*
X008979Y022991D01*
X008839Y022991D01*
X008839Y022804D01*
X008749Y022804D02*
X008609Y022804D01*
X008563Y022850D01*
X008563Y022944D01*
X008609Y022991D01*
X008749Y022991D01*
X008749Y022757D01*
X008703Y022710D01*
X008656Y022710D01*
X008793Y022664D02*
X008793Y022444D01*
X008939Y022444D01*
X009162Y022804D02*
X009115Y022850D01*
X009115Y022944D01*
X009162Y022991D01*
X009302Y022991D01*
X009302Y023084D02*
X009302Y022804D01*
X009162Y022804D01*
X006739Y022894D02*
X006553Y022894D01*
X006646Y022987D02*
X006646Y022800D01*
X006993Y020734D02*
X007139Y020734D01*
X007139Y020697D01*
X006993Y020550D01*
X006993Y020514D01*
X007111Y020394D02*
X007184Y020320D01*
X007184Y020174D01*
X007259Y020174D02*
X007405Y020394D01*
X007480Y020394D02*
X007626Y020394D01*
X007553Y020394D02*
X007553Y020174D01*
X007405Y020174D02*
X007259Y020394D01*
X007184Y020284D02*
X007038Y020284D01*
X007038Y020320D02*
X007111Y020394D01*
X007038Y020320D02*
X007038Y020174D01*
X007701Y020174D02*
X007701Y020394D01*
X007811Y020394D01*
X007847Y020357D01*
X007847Y020284D01*
X007811Y020247D01*
X007701Y020247D01*
X007774Y020247D02*
X007847Y020174D01*
X007922Y020174D02*
X007922Y020320D01*
X007995Y020394D01*
X008068Y020320D01*
X008068Y020174D01*
X008068Y020284D02*
X007922Y020284D01*
X008019Y020494D02*
X008093Y020494D01*
X008129Y020530D01*
X008129Y020567D01*
X008093Y020604D01*
X007983Y020604D01*
X007983Y020530D01*
X008019Y020494D01*
X007983Y020604D02*
X008056Y020677D01*
X008129Y020714D01*
X003155Y020691D02*
X003108Y020691D01*
X003015Y020597D01*
X003015Y020504D02*
X003015Y020691D01*
X002926Y020691D02*
X002926Y020550D01*
X002879Y020504D01*
X002832Y020550D01*
X002786Y020504D01*
X002739Y020550D01*
X002739Y020691D01*
X002649Y020644D02*
X002649Y020550D01*
X002603Y020504D01*
X002463Y020504D01*
X002463Y020410D02*
X002463Y020691D01*
X002603Y020691D01*
X002649Y020644D01*
X002676Y020794D02*
X002629Y020840D01*
X002629Y020934D01*
X002676Y020981D01*
X002769Y020981D01*
X002816Y020934D01*
X002816Y020887D01*
X002629Y020887D01*
X002676Y020794D02*
X002769Y020794D01*
X002905Y020840D02*
X002905Y020934D01*
X002952Y020981D01*
X003092Y020981D01*
X003092Y021074D02*
X003092Y020794D01*
X002952Y020794D01*
X002905Y020840D01*
X002539Y020794D02*
X002353Y020794D01*
X002353Y021074D01*
X002443Y021302D02*
X002267Y021366D01*
X002239Y021426D01*
X002271Y021514D01*
X002331Y021542D01*
X002419Y021510D02*
X002387Y021422D01*
X002419Y021510D02*
X002507Y021478D01*
X002535Y021418D01*
X002503Y021330D01*
X002443Y021302D01*
X002581Y021546D02*
X002318Y021642D01*
X002645Y021722D01*
X002382Y021817D01*
X002412Y021901D02*
X002460Y022033D01*
X002520Y022061D01*
X002696Y021997D01*
X002723Y021937D01*
X002676Y021806D01*
X002412Y021901D01*
X002742Y022125D02*
X002786Y022109D01*
X002802Y022153D01*
X002758Y022169D01*
X002742Y022125D01*
X002802Y022153D02*
X002858Y022033D01*
X002745Y022270D02*
X002865Y022326D01*
X002809Y022446D01*
X002633Y022509D01*
X002752Y022561D02*
X002768Y022605D01*
X002943Y022541D01*
X002927Y022498D02*
X002959Y022585D01*
X002990Y022671D02*
X002815Y022734D01*
X002863Y022866D01*
X002923Y022894D01*
X003054Y022846D01*
X002680Y022637D02*
X002636Y022653D01*
X002570Y022334D02*
X002745Y022270D01*
X021613Y019911D02*
X021613Y019770D01*
X021659Y019724D01*
X021799Y019724D01*
X021799Y019911D01*
X021889Y019864D02*
X021936Y019911D01*
X022076Y019911D01*
X022165Y019864D02*
X022212Y019911D01*
X022305Y019911D01*
X022352Y019864D01*
X022352Y019817D01*
X022165Y019817D01*
X022165Y019770D02*
X022165Y019864D01*
X022165Y019770D02*
X022212Y019724D01*
X022305Y019724D01*
X022076Y019770D02*
X022029Y019817D01*
X021936Y019817D01*
X021889Y019864D01*
X021889Y019724D02*
X022029Y019724D01*
X022076Y019770D01*
X022421Y020237D02*
X022561Y020237D01*
X022608Y020284D01*
X022608Y020331D01*
X022561Y020377D01*
X022421Y020377D01*
X022421Y020237D02*
X022421Y020517D01*
X022561Y020517D01*
X022608Y020471D01*
X022608Y020424D01*
X022561Y020377D01*
X022697Y020331D02*
X022837Y020331D01*
X022884Y020377D01*
X022884Y020471D01*
X022837Y020517D01*
X022697Y020517D01*
X022697Y020237D01*
X022791Y020331D02*
X022884Y020237D01*
X022974Y020237D02*
X023067Y020237D01*
X023020Y020237D02*
X023020Y020517D01*
X022974Y020517D02*
X023067Y020517D01*
X023158Y020517D02*
X023158Y020237D01*
X023344Y020237D01*
X023434Y020237D02*
X023621Y020237D01*
X023710Y020237D02*
X023710Y020517D01*
X023897Y020517D01*
X023986Y020517D02*
X024173Y020517D01*
X024080Y020517D02*
X024080Y020237D01*
X023804Y020377D02*
X023710Y020377D01*
X023621Y020517D02*
X023434Y020517D01*
X023434Y020237D01*
X023434Y020377D02*
X023527Y020377D01*
X023640Y020051D02*
X023640Y020004D01*
X023640Y019911D02*
X023640Y019677D01*
X023593Y019630D01*
X023546Y019630D01*
X023730Y019770D02*
X023777Y019724D01*
X023870Y019724D01*
X023917Y019817D02*
X023730Y019817D01*
X023730Y019770D02*
X023730Y019864D01*
X023777Y019911D01*
X023870Y019911D01*
X023917Y019864D01*
X023917Y019817D01*
X024006Y019770D02*
X024053Y019724D01*
X024100Y019770D01*
X024147Y019724D01*
X024193Y019770D01*
X024193Y019911D01*
X024283Y019864D02*
X024329Y019911D01*
X024423Y019911D01*
X024470Y019864D01*
X024470Y019817D01*
X024283Y019817D01*
X024283Y019770D02*
X024283Y019864D01*
X024283Y019770D02*
X024329Y019724D01*
X024423Y019724D01*
X024559Y019724D02*
X024652Y019724D01*
X024606Y019724D02*
X024606Y020004D01*
X024559Y020004D01*
X024743Y020004D02*
X024790Y020004D01*
X024790Y019724D01*
X024836Y019724D02*
X024743Y019724D01*
X024927Y019770D02*
X024974Y019724D01*
X025067Y019724D01*
X025114Y019817D02*
X024927Y019817D01*
X024927Y019770D02*
X024927Y019864D01*
X024974Y019911D01*
X025067Y019911D01*
X025114Y019864D01*
X025114Y019817D01*
X025203Y019817D02*
X025297Y019911D01*
X025344Y019911D01*
X025434Y019864D02*
X025480Y019911D01*
X025620Y019911D01*
X025574Y019817D02*
X025480Y019817D01*
X025434Y019864D01*
X025434Y019724D02*
X025574Y019724D01*
X025620Y019770D01*
X025574Y019817D01*
X025203Y019724D02*
X025203Y019911D01*
X025231Y020277D02*
X025371Y020277D01*
X025418Y020324D01*
X025418Y020371D01*
X025371Y020417D01*
X025231Y020417D01*
X025231Y020277D02*
X025231Y020557D01*
X025371Y020557D01*
X025418Y020511D01*
X025418Y020464D01*
X025371Y020417D01*
X025507Y020371D02*
X025647Y020371D01*
X025694Y020417D01*
X025694Y020511D01*
X025647Y020557D01*
X025507Y020557D01*
X025507Y020277D01*
X025601Y020371D02*
X025694Y020277D01*
X025784Y020277D02*
X025877Y020277D01*
X025830Y020277D02*
X025830Y020557D01*
X025784Y020557D02*
X025877Y020557D01*
X025968Y020557D02*
X025968Y020277D01*
X025968Y020371D02*
X026108Y020371D01*
X026154Y020417D01*
X026154Y020511D01*
X026108Y020557D01*
X025968Y020557D01*
X026061Y020371D02*
X026154Y020277D01*
X026244Y020277D02*
X026337Y020277D01*
X026291Y020277D02*
X026291Y020557D01*
X026337Y020557D02*
X026244Y020557D01*
X026428Y020511D02*
X026428Y020324D01*
X026475Y020277D01*
X026568Y020277D01*
X026615Y020324D01*
X026615Y020417D01*
X026521Y020417D01*
X026428Y020511D02*
X026475Y020557D01*
X026568Y020557D01*
X026615Y020511D01*
X026704Y020557D02*
X026704Y020277D01*
X026704Y020417D02*
X026891Y020417D01*
X026891Y020557D02*
X026891Y020277D01*
X027074Y020277D02*
X027074Y020557D01*
X027167Y020557D02*
X026980Y020557D01*
X027508Y020004D02*
X027508Y019724D01*
X027368Y019724D01*
X027321Y019770D01*
X027321Y019864D01*
X027368Y019911D01*
X027508Y019911D01*
X027597Y019911D02*
X027597Y019724D01*
X027597Y019817D02*
X027691Y019911D01*
X027737Y019911D01*
X027827Y019911D02*
X027874Y019911D01*
X027874Y019724D01*
X027827Y019724D02*
X027921Y019724D01*
X028105Y019724D02*
X028198Y019911D01*
X028288Y019864D02*
X028334Y019911D01*
X028428Y019911D01*
X028475Y019864D01*
X028475Y019817D01*
X028288Y019817D01*
X028288Y019770D02*
X028288Y019864D01*
X028288Y019770D02*
X028334Y019724D01*
X028428Y019724D01*
X028564Y019724D02*
X028564Y019911D01*
X028657Y019911D02*
X028704Y019911D01*
X028657Y019911D02*
X028564Y019817D01*
X028105Y019724D02*
X028012Y019911D01*
X027874Y020004D02*
X027874Y020051D01*
X027232Y019911D02*
X027232Y019770D01*
X027185Y019724D01*
X027138Y019770D01*
X027092Y019724D01*
X027045Y019770D01*
X027045Y019911D01*
X026955Y019864D02*
X026955Y019817D01*
X026769Y019817D01*
X026769Y019770D02*
X026769Y019864D01*
X026815Y019911D01*
X026909Y019911D01*
X026955Y019864D01*
X026909Y019724D02*
X026815Y019724D01*
X026769Y019770D01*
X026679Y019911D02*
X026632Y019911D01*
X026538Y019817D01*
X026538Y019724D02*
X026538Y019911D01*
X026449Y019911D02*
X026309Y019911D01*
X026262Y019864D01*
X026262Y019770D01*
X026309Y019724D01*
X026449Y019724D01*
X026173Y019770D02*
X026126Y019817D01*
X026033Y019817D01*
X025986Y019864D01*
X026033Y019911D01*
X026173Y019911D01*
X026173Y019770D02*
X026126Y019724D01*
X025986Y019724D01*
X025521Y020787D02*
X025558Y020824D01*
X025558Y021007D01*
X025521Y021007D02*
X025595Y021007D01*
X025374Y020971D02*
X025374Y020824D01*
X025337Y020787D01*
X025227Y020787D01*
X025227Y021007D01*
X025337Y021007D01*
X025374Y020971D01*
X025448Y020824D02*
X025485Y020787D01*
X025521Y020787D01*
X025153Y020787D02*
X025153Y020934D01*
X025079Y021007D01*
X025006Y020934D01*
X025006Y020787D01*
X024932Y020861D02*
X024932Y021007D01*
X025006Y020897D02*
X025153Y020897D01*
X024932Y020861D02*
X024858Y020787D01*
X024785Y020861D01*
X024785Y021007D01*
X024711Y020751D02*
X024564Y020751D01*
X024490Y020824D02*
X024490Y020971D01*
X024453Y021007D01*
X024343Y021007D01*
X024343Y020787D01*
X024453Y020787D01*
X024490Y020824D01*
X024269Y020787D02*
X024122Y020787D01*
X024122Y021007D01*
X024269Y021007D01*
X024195Y020897D02*
X024122Y020897D01*
X024048Y020787D02*
X023901Y020787D01*
X023901Y021007D01*
X023134Y020004D02*
X023040Y020004D01*
X022994Y019957D01*
X022994Y019770D01*
X023181Y019957D01*
X023181Y019770D01*
X023134Y019724D01*
X023040Y019724D01*
X022994Y019770D01*
X022904Y019817D02*
X022717Y019817D01*
X022717Y019911D02*
X022858Y019911D01*
X022904Y019911D01*
X022858Y020004D02*
X022858Y019724D01*
X022764Y019724D02*
X022764Y020004D01*
X023134Y020004D02*
X023181Y019957D01*
X024006Y019911D02*
X024006Y019770D01*
X028232Y021594D02*
X028379Y021594D01*
X028453Y021667D01*
X028379Y021740D01*
X028232Y021740D01*
X028232Y021815D02*
X028232Y021888D01*
X028232Y021851D02*
X028453Y021851D01*
X028453Y021815D02*
X028453Y021888D01*
X028453Y021962D02*
X028232Y021962D01*
X028453Y022109D01*
X028232Y022109D01*
X028232Y022183D02*
X028453Y022183D01*
X028453Y022330D01*
X028453Y022404D02*
X028232Y022404D01*
X028232Y022551D01*
X028232Y022625D02*
X028232Y022735D01*
X028269Y022772D01*
X028416Y022772D01*
X028453Y022735D01*
X028453Y022625D01*
X028232Y022625D01*
X028343Y022477D02*
X028343Y022404D01*
X028453Y022404D02*
X028453Y022551D01*
X028416Y022846D02*
X028453Y022883D01*
X028453Y022956D01*
X028416Y022993D01*
X028379Y022993D01*
X028343Y022956D01*
X028343Y022883D01*
X028306Y022846D01*
X028269Y022846D01*
X028232Y022883D01*
X028232Y022956D01*
X028269Y022993D01*
X035533Y020457D02*
X035533Y020270D01*
X035579Y020224D01*
X035673Y020224D01*
X035719Y020270D01*
X035809Y020224D02*
X035809Y020504D01*
X035949Y020504D01*
X035996Y020457D01*
X035996Y020364D01*
X035949Y020317D01*
X035809Y020317D01*
X035719Y020457D02*
X035673Y020504D01*
X035579Y020504D01*
X035533Y020457D01*
X036085Y020504D02*
X036085Y020270D01*
X036132Y020224D01*
X036225Y020224D01*
X036272Y020270D01*
X036272Y020504D01*
X036408Y020270D02*
X036408Y020224D01*
X036455Y020224D01*
X036455Y020270D01*
X036408Y020270D01*
X036455Y020224D02*
X036361Y020130D01*
X036822Y020224D02*
X037008Y020224D01*
X037098Y020224D02*
X037285Y020224D01*
X037374Y020224D02*
X037514Y020224D01*
X037561Y020270D01*
X037561Y020457D01*
X037514Y020504D01*
X037374Y020504D01*
X037374Y020224D01*
X037191Y020364D02*
X037098Y020364D01*
X037098Y020504D02*
X037098Y020224D01*
X036822Y020224D02*
X036822Y020504D01*
X037098Y020504D02*
X037285Y020504D01*
X038571Y021810D02*
X038665Y021904D01*
X038618Y021904D01*
X038618Y021950D01*
X038665Y021950D01*
X038665Y021904D01*
X038755Y021997D02*
X038849Y021904D01*
X038942Y021997D01*
X038942Y022184D01*
X039032Y022091D02*
X039078Y022091D01*
X039078Y021904D01*
X039032Y021904D02*
X039125Y021904D01*
X039216Y021904D02*
X039216Y022091D01*
X039356Y022091D01*
X039403Y022044D01*
X039403Y021904D01*
X039078Y022184D02*
X039078Y022231D01*
X039074Y022444D02*
X039074Y022631D01*
X039214Y022631D01*
X039261Y022584D01*
X039261Y022444D01*
X039350Y022444D02*
X039491Y022444D01*
X039537Y022490D01*
X039491Y022537D01*
X039397Y022537D01*
X039350Y022584D01*
X039397Y022631D01*
X039537Y022631D01*
X038983Y022444D02*
X038890Y022444D01*
X038937Y022444D02*
X038937Y022631D01*
X038890Y022631D01*
X038801Y022677D02*
X038801Y022584D01*
X038754Y022537D01*
X038614Y022537D01*
X038614Y022444D02*
X038614Y022724D01*
X038754Y022724D01*
X038801Y022677D01*
X038937Y022724D02*
X038937Y022771D01*
X038248Y022631D02*
X038201Y022631D01*
X038107Y022537D01*
X038018Y022537D02*
X037831Y022537D01*
X037831Y022490D02*
X037831Y022584D01*
X037878Y022631D01*
X037971Y022631D01*
X038018Y022584D01*
X038018Y022537D01*
X037971Y022444D02*
X037878Y022444D01*
X037831Y022490D01*
X037742Y022490D02*
X037742Y022631D01*
X037742Y022490D02*
X037695Y022444D01*
X037648Y022490D01*
X037602Y022444D01*
X037555Y022490D01*
X037555Y022631D01*
X037466Y022584D02*
X037419Y022631D01*
X037326Y022631D01*
X037279Y022584D01*
X037279Y022490D01*
X037326Y022444D01*
X037419Y022444D01*
X037466Y022490D01*
X037466Y022584D01*
X037189Y022584D02*
X037189Y022677D01*
X037143Y022724D01*
X037003Y022724D01*
X037003Y022444D01*
X037003Y022537D02*
X037143Y022537D01*
X037189Y022584D01*
X037743Y022137D02*
X037743Y021950D01*
X037789Y021904D01*
X037883Y021904D01*
X037929Y021950D01*
X037929Y022044D01*
X037836Y022044D01*
X037743Y022137D02*
X037789Y022184D01*
X037883Y022184D01*
X037929Y022137D01*
X038019Y022184D02*
X038206Y021904D01*
X038206Y022184D01*
X038295Y022184D02*
X038295Y021904D01*
X038435Y021904D01*
X038482Y021950D01*
X038482Y022137D01*
X038435Y022184D01*
X038295Y022184D01*
X038019Y022184D02*
X038019Y021904D01*
X038107Y022444D02*
X038107Y022631D01*
X038755Y022184D02*
X038755Y021997D01*
X036405Y003000D02*
X036368Y003000D01*
X036295Y002927D01*
X036295Y002854D02*
X036295Y003000D01*
X036220Y003000D02*
X036220Y002890D01*
X036184Y002854D01*
X036147Y002890D01*
X036110Y002854D01*
X036074Y002890D01*
X036074Y003000D01*
X035999Y002964D02*
X035999Y002890D01*
X035963Y002854D01*
X035853Y002854D01*
X035853Y002780D02*
X035853Y003000D01*
X035963Y003000D01*
X035999Y002964D01*
X034469Y002974D02*
X034469Y002864D01*
X034359Y002864D01*
X034322Y002900D01*
X034359Y002937D01*
X034469Y002937D01*
X034469Y002974D02*
X034432Y003010D01*
X034359Y003010D01*
X034248Y003010D02*
X034175Y003010D01*
X034211Y003047D02*
X034211Y002900D01*
X034248Y002864D01*
X034100Y002864D02*
X033990Y002864D01*
X033954Y002900D01*
X033990Y002937D01*
X034100Y002937D01*
X034100Y002974D02*
X034100Y002864D01*
X034100Y002974D02*
X034064Y003010D01*
X033990Y003010D01*
X033879Y003010D02*
X033769Y003010D01*
X033733Y002974D01*
X033733Y002900D01*
X033769Y002864D01*
X033879Y002864D01*
X033879Y003084D01*
X037751Y001824D02*
X037751Y001604D01*
X037751Y001677D02*
X037861Y001677D01*
X037898Y001714D01*
X037898Y001787D01*
X037861Y001824D01*
X037751Y001824D01*
X037825Y001677D02*
X037898Y001604D01*
X037972Y001604D02*
X038046Y001604D01*
X038009Y001604D02*
X038009Y001824D01*
X037972Y001824D02*
X038046Y001824D01*
X038120Y001787D02*
X038120Y001640D01*
X038156Y001604D01*
X038230Y001604D01*
X038266Y001640D01*
X038266Y001714D01*
X038193Y001714D01*
X038120Y001787D02*
X038156Y001824D01*
X038230Y001824D01*
X038266Y001787D01*
X038341Y001824D02*
X038341Y001604D01*
X038341Y001714D02*
X038487Y001714D01*
X038487Y001824D02*
X038487Y001604D01*
X038635Y001604D02*
X038635Y001824D01*
X038562Y001824D02*
X038708Y001824D01*
X039243Y001710D02*
X039316Y001784D01*
X039316Y001564D01*
X039243Y001564D02*
X039389Y001564D01*
D11*
X037661Y001927D02*
X037613Y001879D01*
X037516Y001879D01*
X037468Y001927D01*
X037468Y002024D02*
X037565Y002072D01*
X037613Y002072D01*
X037661Y002024D01*
X037661Y001927D01*
X037468Y002024D02*
X037468Y002169D01*
X037661Y002169D01*
X037367Y002121D02*
X037367Y002072D01*
X037318Y002024D01*
X037367Y001975D01*
X037367Y001927D01*
X037318Y001879D01*
X037222Y001879D01*
X037173Y001927D01*
X037074Y001927D02*
X037025Y001927D01*
X037025Y001879D01*
X037074Y001879D01*
X037074Y001927D01*
X037074Y001879D02*
X036977Y001782D01*
X036876Y001927D02*
X036827Y001879D01*
X036731Y001879D01*
X036682Y001927D01*
X036682Y002024D01*
X036827Y002024D01*
X036876Y001975D01*
X036876Y001927D01*
X036779Y002121D02*
X036682Y002024D01*
X036581Y002072D02*
X036533Y002024D01*
X036581Y001975D01*
X036581Y001927D01*
X036533Y001879D01*
X036436Y001879D01*
X036388Y001927D01*
X036484Y002024D02*
X036533Y002024D01*
X036581Y002072D02*
X036581Y002121D01*
X036533Y002169D01*
X036436Y002169D01*
X036388Y002121D01*
X036779Y002121D02*
X036876Y002169D01*
X037173Y002121D02*
X037222Y002169D01*
X037318Y002169D01*
X037367Y002121D01*
X037318Y002024D02*
X037270Y002024D01*
X036221Y001669D02*
X036221Y001422D01*
X036098Y001299D01*
X035975Y001422D01*
X035975Y001669D01*
X035853Y001607D02*
X035791Y001669D01*
X035668Y001669D01*
X035606Y001607D01*
X035606Y001360D01*
X035668Y001299D01*
X035791Y001299D01*
X035853Y001360D01*
X035485Y001299D02*
X035238Y001299D01*
X035238Y001669D01*
X035485Y001669D01*
X035361Y001484D02*
X035238Y001484D01*
X035117Y001484D02*
X035055Y001422D01*
X034870Y001422D01*
X034993Y001422D02*
X035117Y001299D01*
X035117Y001484D02*
X035117Y001607D01*
X035055Y001669D01*
X034870Y001669D01*
X034870Y001299D01*
X034748Y001237D02*
X034501Y001237D01*
X034380Y001299D02*
X034257Y001422D01*
X034318Y001422D02*
X034133Y001422D01*
X034133Y001299D02*
X034133Y001669D01*
X034318Y001669D01*
X034380Y001607D01*
X034380Y001484D01*
X034318Y001422D01*
X034011Y001299D02*
X033888Y001299D01*
X033949Y001299D02*
X033949Y001669D01*
X033888Y001669D02*
X034011Y001669D01*
X033068Y002957D02*
X032697Y002957D01*
X032697Y003142D01*
X032759Y003204D01*
X032882Y003204D01*
X032944Y003142D01*
X032944Y002957D01*
X033068Y003325D02*
X033068Y003448D01*
X033068Y003387D02*
X032697Y003387D01*
X032697Y003448D02*
X032697Y003325D01*
X032697Y003570D02*
X033068Y003817D01*
X032697Y003817D01*
X032821Y003939D02*
X032697Y004062D01*
X033068Y004062D01*
X033068Y003939D02*
X033068Y004186D01*
X033006Y004307D02*
X033068Y004369D01*
X033068Y004492D01*
X033006Y004554D01*
X032944Y004554D01*
X032882Y004492D01*
X032882Y004431D01*
X032882Y004492D02*
X032821Y004554D01*
X032759Y004554D01*
X032697Y004492D01*
X032697Y004369D01*
X032759Y004307D01*
X033129Y004675D02*
X033129Y004922D01*
X033068Y005044D02*
X032697Y005044D01*
X032697Y005412D02*
X033068Y005412D01*
X033068Y005659D01*
X033068Y005780D02*
X032697Y005780D01*
X032697Y005965D01*
X032759Y006027D01*
X033006Y006027D01*
X033068Y005965D01*
X033068Y005780D01*
X032882Y005535D02*
X032882Y005412D01*
X032697Y005412D02*
X032697Y005659D01*
X033068Y005291D02*
X033068Y005044D01*
X031608Y005079D02*
X031608Y004832D01*
X031237Y004832D01*
X031237Y005079D01*
X031237Y005200D02*
X031237Y005386D01*
X031299Y005447D01*
X031546Y005447D01*
X031608Y005386D01*
X031608Y005200D01*
X031237Y005200D01*
X031422Y004955D02*
X031422Y004832D01*
X031608Y004711D02*
X031608Y004464D01*
X031237Y004464D01*
X031669Y004342D02*
X031669Y004095D01*
X031608Y003974D02*
X031484Y003851D01*
X031484Y003912D02*
X031484Y003727D01*
X031608Y003727D02*
X031237Y003727D01*
X031237Y003912D01*
X031299Y003974D01*
X031422Y003974D01*
X031484Y003912D01*
X031608Y003606D02*
X031237Y003606D01*
X031237Y003359D02*
X031608Y003359D01*
X031484Y003482D01*
X031608Y003606D01*
X031422Y003237D02*
X031484Y003176D01*
X031484Y002991D01*
X031608Y002991D02*
X031237Y002991D01*
X031237Y003176D01*
X031299Y003237D01*
X031422Y003237D01*
X030158Y003186D02*
X030158Y003062D01*
X030096Y003001D01*
X029787Y003001D01*
X029787Y003247D02*
X030096Y003247D01*
X030158Y003186D01*
X030096Y003369D02*
X030158Y003431D01*
X030158Y003554D01*
X030096Y003616D01*
X030034Y003616D01*
X029972Y003554D01*
X029972Y003431D01*
X029911Y003369D01*
X029849Y003369D01*
X029787Y003431D01*
X029787Y003554D01*
X029849Y003616D01*
X029787Y003737D02*
X029787Y003922D01*
X029849Y003984D01*
X029911Y003984D01*
X029972Y003922D01*
X029972Y003737D01*
X029787Y003737D02*
X030158Y003737D01*
X030158Y003922D01*
X030096Y003984D01*
X030034Y003984D01*
X029972Y003922D01*
X030219Y004105D02*
X030219Y004352D01*
X030158Y004474D02*
X030158Y004721D01*
X030158Y004842D02*
X029787Y004842D01*
X029787Y005089D01*
X029787Y005210D02*
X029787Y005396D01*
X029849Y005457D01*
X030096Y005457D01*
X030158Y005396D01*
X030158Y005210D01*
X029787Y005210D01*
X029972Y004965D02*
X029972Y004842D01*
X030158Y004842D02*
X030158Y005089D01*
X030158Y004474D02*
X029787Y004474D01*
X032697Y003570D02*
X033068Y003570D01*
X036268Y003421D02*
X036316Y003469D01*
X036413Y003469D01*
X036461Y003421D01*
X036461Y003372D01*
X036413Y003324D01*
X036461Y003275D01*
X036461Y003227D01*
X036413Y003179D01*
X036316Y003179D01*
X036268Y003227D01*
X036364Y003324D02*
X036413Y003324D01*
X036562Y003372D02*
X036611Y003324D01*
X036707Y003324D01*
X036756Y003275D01*
X036756Y003227D01*
X036707Y003179D01*
X036611Y003179D01*
X036562Y003227D01*
X036562Y003275D01*
X036611Y003324D01*
X036562Y003372D02*
X036562Y003421D01*
X036611Y003469D01*
X036707Y003469D01*
X036756Y003421D01*
X036756Y003372D01*
X036707Y003324D01*
X036905Y003227D02*
X036905Y003179D01*
X036954Y003179D01*
X036954Y003227D01*
X036905Y003227D01*
X036954Y003179D02*
X036857Y003082D01*
X037053Y003227D02*
X037102Y003179D01*
X037198Y003179D01*
X037247Y003227D01*
X037247Y003275D01*
X037198Y003324D01*
X037150Y003324D01*
X037198Y003324D02*
X037247Y003372D01*
X037247Y003421D01*
X037198Y003469D01*
X037102Y003469D01*
X037053Y003421D01*
X037348Y003469D02*
X037541Y003469D01*
X037541Y003421D01*
X037348Y003227D01*
X037348Y003179D01*
X037396Y004219D02*
X037493Y004219D01*
X037541Y004267D01*
X037541Y004461D01*
X037493Y004509D01*
X037396Y004509D01*
X037348Y004461D01*
X037348Y004412D01*
X037396Y004364D01*
X037541Y004364D01*
X037396Y004219D02*
X037348Y004267D01*
X037247Y004267D02*
X037198Y004219D01*
X037102Y004219D01*
X037053Y004267D01*
X036954Y004267D02*
X036905Y004267D01*
X036905Y004219D01*
X036954Y004219D01*
X036954Y004267D01*
X036954Y004219D02*
X036857Y004122D01*
X036756Y004267D02*
X036707Y004219D01*
X036611Y004219D01*
X036562Y004267D01*
X036756Y004461D01*
X036756Y004267D01*
X036756Y004461D02*
X036707Y004509D01*
X036611Y004509D01*
X036562Y004461D01*
X036562Y004267D01*
X036461Y004364D02*
X036268Y004364D01*
X036413Y004509D01*
X036413Y004219D01*
X037053Y004461D02*
X037102Y004509D01*
X037198Y004509D01*
X037247Y004461D01*
X037247Y004412D01*
X037198Y004364D01*
X037247Y004315D01*
X037247Y004267D01*
X037198Y004364D02*
X037150Y004364D01*
X036897Y005092D02*
X036994Y005189D01*
X036945Y005189D01*
X036945Y005237D01*
X036994Y005237D01*
X036994Y005189D01*
X037093Y005334D02*
X037287Y005334D01*
X037388Y005382D02*
X037485Y005479D01*
X037485Y005189D01*
X037581Y005189D02*
X037388Y005189D01*
X037238Y005189D02*
X037238Y005479D01*
X037093Y005334D01*
X036796Y005382D02*
X036796Y005431D01*
X036747Y005479D01*
X036651Y005479D01*
X036602Y005431D01*
X036501Y005334D02*
X036308Y005334D01*
X036453Y005479D01*
X036453Y005189D01*
X036602Y005189D02*
X036796Y005382D01*
X036796Y005189D02*
X036602Y005189D01*
X036897Y006092D02*
X036994Y006189D01*
X036945Y006189D01*
X036945Y006237D01*
X036994Y006237D01*
X036994Y006189D01*
X037093Y006334D02*
X037238Y006479D01*
X037238Y006189D01*
X037287Y006334D02*
X037093Y006334D01*
X036796Y006334D02*
X036602Y006334D01*
X036747Y006479D01*
X036747Y006189D01*
X036501Y006334D02*
X036308Y006334D01*
X036453Y006479D01*
X036453Y006189D01*
X037388Y006237D02*
X037436Y006189D01*
X037533Y006189D01*
X037581Y006237D01*
X037581Y006285D01*
X037533Y006334D01*
X037485Y006334D01*
X037533Y006334D02*
X037581Y006382D01*
X037581Y006431D01*
X037533Y006479D01*
X037436Y006479D01*
X037388Y006431D01*
X036897Y007092D02*
X036994Y007189D01*
X036945Y007189D01*
X036945Y007237D01*
X036994Y007237D01*
X036994Y007189D01*
X037093Y007334D02*
X037238Y007479D01*
X037238Y007189D01*
X037287Y007334D02*
X037093Y007334D01*
X037388Y007334D02*
X037485Y007382D01*
X037533Y007382D01*
X037581Y007334D01*
X037581Y007237D01*
X037533Y007189D01*
X037436Y007189D01*
X037388Y007237D01*
X037388Y007334D02*
X037388Y007479D01*
X037581Y007479D01*
X036796Y007479D02*
X036699Y007431D01*
X036602Y007334D01*
X036747Y007334D01*
X036796Y007285D01*
X036796Y007237D01*
X036747Y007189D01*
X036651Y007189D01*
X036602Y007237D01*
X036602Y007334D01*
X036501Y007334D02*
X036308Y007334D01*
X036453Y007479D01*
X036453Y007189D01*
X036453Y008189D02*
X036453Y008479D01*
X036308Y008334D01*
X036501Y008334D01*
X036602Y008382D02*
X036602Y008431D01*
X036651Y008479D01*
X036747Y008479D01*
X036796Y008431D01*
X036796Y008382D01*
X036747Y008334D01*
X036651Y008334D01*
X036602Y008382D01*
X036651Y008334D02*
X036602Y008285D01*
X036602Y008237D01*
X036651Y008189D01*
X036747Y008189D01*
X036796Y008237D01*
X036796Y008285D01*
X036747Y008334D01*
X036945Y008237D02*
X036945Y008189D01*
X036994Y008189D01*
X036994Y008237D01*
X036945Y008237D01*
X036994Y008189D02*
X036897Y008092D01*
X037093Y008334D02*
X037287Y008334D01*
X037388Y008237D02*
X037388Y008189D01*
X037388Y008237D02*
X037581Y008431D01*
X037581Y008479D01*
X037388Y008479D01*
X037238Y008479D02*
X037093Y008334D01*
X037238Y008189D02*
X037238Y008479D01*
X036897Y009092D02*
X036994Y009189D01*
X036945Y009189D01*
X036945Y009237D01*
X036994Y009237D01*
X036994Y009189D01*
X037093Y009334D02*
X037287Y009334D01*
X037388Y009382D02*
X037436Y009334D01*
X037581Y009334D01*
X037581Y009431D02*
X037533Y009479D01*
X037436Y009479D01*
X037388Y009431D01*
X037388Y009382D01*
X037388Y009237D02*
X037436Y009189D01*
X037533Y009189D01*
X037581Y009237D01*
X037581Y009431D01*
X037238Y009479D02*
X037238Y009189D01*
X037093Y009334D02*
X037238Y009479D01*
X036796Y009431D02*
X036796Y009237D01*
X036747Y009189D01*
X036651Y009189D01*
X036602Y009237D01*
X036796Y009431D01*
X036747Y009479D01*
X036651Y009479D01*
X036602Y009431D01*
X036602Y009237D01*
X036501Y009237D02*
X036453Y009189D01*
X036356Y009189D01*
X036308Y009237D01*
X036308Y009334D02*
X036404Y009382D01*
X036453Y009382D01*
X036501Y009334D01*
X036501Y009237D01*
X036308Y009334D02*
X036308Y009479D01*
X036501Y009479D01*
X036453Y010189D02*
X036356Y010189D01*
X036308Y010237D01*
X036308Y010334D02*
X036404Y010382D01*
X036453Y010382D01*
X036501Y010334D01*
X036501Y010237D01*
X036453Y010189D01*
X036602Y010189D02*
X036796Y010382D01*
X036796Y010431D01*
X036747Y010479D01*
X036651Y010479D01*
X036602Y010431D01*
X036501Y010479D02*
X036308Y010479D01*
X036308Y010334D01*
X036602Y010189D02*
X036796Y010189D01*
X036897Y010092D02*
X036994Y010189D01*
X036945Y010189D01*
X036945Y010237D01*
X036994Y010237D01*
X036994Y010189D01*
X037093Y010237D02*
X037142Y010189D01*
X037238Y010189D01*
X037287Y010237D01*
X037287Y010334D01*
X037238Y010382D01*
X037190Y010382D01*
X037093Y010334D01*
X037093Y010479D01*
X037287Y010479D01*
X037388Y010382D02*
X037485Y010479D01*
X037485Y010189D01*
X037581Y010189D02*
X037388Y010189D01*
X036897Y011092D02*
X036994Y011189D01*
X036945Y011189D01*
X036945Y011237D01*
X036994Y011237D01*
X036994Y011189D01*
X037093Y011237D02*
X037142Y011189D01*
X037238Y011189D01*
X037287Y011237D01*
X037287Y011334D01*
X037238Y011382D01*
X037190Y011382D01*
X037093Y011334D01*
X037093Y011479D01*
X037287Y011479D01*
X037388Y011431D02*
X037436Y011479D01*
X037533Y011479D01*
X037581Y011431D01*
X037581Y011382D01*
X037533Y011334D01*
X037581Y011285D01*
X037581Y011237D01*
X037533Y011189D01*
X037436Y011189D01*
X037388Y011237D01*
X037485Y011334D02*
X037533Y011334D01*
X036796Y011334D02*
X036602Y011334D01*
X036747Y011479D01*
X036747Y011189D01*
X036501Y011237D02*
X036453Y011189D01*
X036356Y011189D01*
X036308Y011237D01*
X036308Y011334D02*
X036404Y011382D01*
X036453Y011382D01*
X036501Y011334D01*
X036501Y011237D01*
X036308Y011334D02*
X036308Y011479D01*
X036501Y011479D01*
X036897Y012092D02*
X036994Y012189D01*
X036945Y012189D01*
X036945Y012237D01*
X036994Y012237D01*
X036994Y012189D01*
X037093Y012237D02*
X037142Y012189D01*
X037238Y012189D01*
X037287Y012237D01*
X037287Y012334D01*
X037238Y012382D01*
X037190Y012382D01*
X037093Y012334D01*
X037093Y012479D01*
X037287Y012479D01*
X037388Y012479D02*
X037388Y012334D01*
X037485Y012382D01*
X037533Y012382D01*
X037581Y012334D01*
X037581Y012237D01*
X037533Y012189D01*
X037436Y012189D01*
X037388Y012237D01*
X037388Y012479D02*
X037581Y012479D01*
X036796Y012479D02*
X036699Y012431D01*
X036602Y012334D01*
X036747Y012334D01*
X036796Y012285D01*
X036796Y012237D01*
X036747Y012189D01*
X036651Y012189D01*
X036602Y012237D01*
X036602Y012334D01*
X036501Y012334D02*
X036501Y012237D01*
X036453Y012189D01*
X036356Y012189D01*
X036308Y012237D01*
X036308Y012334D02*
X036404Y012382D01*
X036453Y012382D01*
X036501Y012334D01*
X036501Y012479D02*
X036308Y012479D01*
X036308Y012334D01*
X036356Y013189D02*
X036308Y013237D01*
X036356Y013189D02*
X036453Y013189D01*
X036501Y013237D01*
X036501Y013334D01*
X036453Y013382D01*
X036404Y013382D01*
X036308Y013334D01*
X036308Y013479D01*
X036501Y013479D01*
X036602Y013431D02*
X036602Y013382D01*
X036651Y013334D01*
X036747Y013334D01*
X036796Y013285D01*
X036796Y013237D01*
X036747Y013189D01*
X036651Y013189D01*
X036602Y013237D01*
X036602Y013285D01*
X036651Y013334D01*
X036747Y013334D02*
X036796Y013382D01*
X036796Y013431D01*
X036747Y013479D01*
X036651Y013479D01*
X036602Y013431D01*
X036945Y013237D02*
X036945Y013189D01*
X036994Y013189D01*
X036994Y013237D01*
X036945Y013237D01*
X036994Y013189D02*
X036897Y013092D01*
X037093Y013237D02*
X037142Y013189D01*
X037238Y013189D01*
X037287Y013237D01*
X037287Y013334D01*
X037238Y013382D01*
X037190Y013382D01*
X037093Y013334D01*
X037093Y013479D01*
X037287Y013479D01*
X037388Y013479D02*
X037581Y013479D01*
X037581Y013431D01*
X037388Y013237D01*
X037388Y013189D01*
X037436Y014189D02*
X037388Y014237D01*
X037436Y014189D02*
X037533Y014189D01*
X037581Y014237D01*
X037581Y014431D01*
X037533Y014479D01*
X037436Y014479D01*
X037388Y014431D01*
X037388Y014382D01*
X037436Y014334D01*
X037581Y014334D01*
X037287Y014334D02*
X037287Y014237D01*
X037238Y014189D01*
X037142Y014189D01*
X037093Y014237D01*
X037093Y014334D02*
X037190Y014382D01*
X037238Y014382D01*
X037287Y014334D01*
X037287Y014479D02*
X037093Y014479D01*
X037093Y014334D01*
X036994Y014237D02*
X036945Y014237D01*
X036945Y014189D01*
X036994Y014189D01*
X036994Y014237D01*
X036994Y014189D02*
X036897Y014092D01*
X036796Y014237D02*
X036747Y014189D01*
X036651Y014189D01*
X036602Y014237D01*
X036796Y014431D01*
X036796Y014237D01*
X036796Y014431D02*
X036747Y014479D01*
X036651Y014479D01*
X036602Y014431D01*
X036602Y014237D01*
X036501Y014237D02*
X036501Y014285D01*
X036453Y014334D01*
X036308Y014334D01*
X036308Y014237D01*
X036356Y014189D01*
X036453Y014189D01*
X036501Y014237D01*
X036404Y014431D02*
X036308Y014334D01*
X036404Y014431D02*
X036501Y014479D01*
X036453Y015189D02*
X036501Y015237D01*
X036501Y015285D01*
X036453Y015334D01*
X036308Y015334D01*
X036308Y015237D01*
X036356Y015189D01*
X036453Y015189D01*
X036602Y015189D02*
X036796Y015382D01*
X036796Y015431D01*
X036747Y015479D01*
X036651Y015479D01*
X036602Y015431D01*
X036501Y015479D02*
X036404Y015431D01*
X036308Y015334D01*
X036602Y015189D02*
X036796Y015189D01*
X036897Y015092D02*
X036994Y015189D01*
X036945Y015189D01*
X036945Y015237D01*
X036994Y015237D01*
X036994Y015189D01*
X037093Y015237D02*
X037142Y015189D01*
X037238Y015189D01*
X037287Y015237D01*
X037287Y015285D01*
X037238Y015334D01*
X037093Y015334D01*
X037093Y015237D01*
X037093Y015334D02*
X037190Y015431D01*
X037287Y015479D01*
X037388Y015382D02*
X037485Y015479D01*
X037485Y015189D01*
X037581Y015189D02*
X037388Y015189D01*
X036897Y016092D02*
X036994Y016189D01*
X036945Y016189D01*
X036945Y016237D01*
X036994Y016237D01*
X036994Y016189D01*
X037093Y016237D02*
X037142Y016189D01*
X037238Y016189D01*
X037287Y016237D01*
X037287Y016285D01*
X037238Y016334D01*
X037093Y016334D01*
X037093Y016237D01*
X037093Y016334D02*
X037190Y016431D01*
X037287Y016479D01*
X037388Y016431D02*
X037436Y016479D01*
X037533Y016479D01*
X037581Y016431D01*
X037581Y016382D01*
X037533Y016334D01*
X037581Y016285D01*
X037581Y016237D01*
X037533Y016189D01*
X037436Y016189D01*
X037388Y016237D01*
X037485Y016334D02*
X037533Y016334D01*
X036796Y016334D02*
X036602Y016334D01*
X036747Y016479D01*
X036747Y016189D01*
X036501Y016237D02*
X036501Y016285D01*
X036453Y016334D01*
X036308Y016334D01*
X036308Y016237D01*
X036356Y016189D01*
X036453Y016189D01*
X036501Y016237D01*
X036404Y016431D02*
X036308Y016334D01*
X036404Y016431D02*
X036501Y016479D01*
X036897Y017092D02*
X036994Y017189D01*
X036945Y017189D01*
X036945Y017237D01*
X036994Y017237D01*
X036994Y017189D01*
X037093Y017237D02*
X037142Y017189D01*
X037238Y017189D01*
X037287Y017237D01*
X037287Y017285D01*
X037238Y017334D01*
X037093Y017334D01*
X037093Y017237D01*
X037093Y017334D02*
X037190Y017431D01*
X037287Y017479D01*
X037388Y017479D02*
X037388Y017334D01*
X037485Y017382D01*
X037533Y017382D01*
X037581Y017334D01*
X037581Y017237D01*
X037533Y017189D01*
X037436Y017189D01*
X037388Y017237D01*
X037388Y017479D02*
X037581Y017479D01*
X036796Y017479D02*
X036699Y017431D01*
X036602Y017334D01*
X036747Y017334D01*
X036796Y017285D01*
X036796Y017237D01*
X036747Y017189D01*
X036651Y017189D01*
X036602Y017237D01*
X036602Y017334D01*
X036501Y017285D02*
X036453Y017334D01*
X036308Y017334D01*
X036308Y017237D01*
X036356Y017189D01*
X036453Y017189D01*
X036501Y017237D01*
X036501Y017285D01*
X036404Y017431D02*
X036308Y017334D01*
X036404Y017431D02*
X036501Y017479D01*
X036453Y018189D02*
X036501Y018237D01*
X036501Y018285D01*
X036453Y018334D01*
X036308Y018334D01*
X036308Y018237D01*
X036356Y018189D01*
X036453Y018189D01*
X036602Y018237D02*
X036602Y018285D01*
X036651Y018334D01*
X036747Y018334D01*
X036796Y018285D01*
X036796Y018237D01*
X036747Y018189D01*
X036651Y018189D01*
X036602Y018237D01*
X036651Y018334D02*
X036602Y018382D01*
X036602Y018431D01*
X036651Y018479D01*
X036747Y018479D01*
X036796Y018431D01*
X036796Y018382D01*
X036747Y018334D01*
X036945Y018237D02*
X036945Y018189D01*
X036994Y018189D01*
X036994Y018237D01*
X036945Y018237D01*
X036994Y018189D02*
X036897Y018092D01*
X037093Y018237D02*
X037093Y018334D01*
X037238Y018334D01*
X037287Y018285D01*
X037287Y018237D01*
X037238Y018189D01*
X037142Y018189D01*
X037093Y018237D01*
X037093Y018334D02*
X037190Y018431D01*
X037287Y018479D01*
X037388Y018479D02*
X037581Y018479D01*
X037581Y018431D01*
X037388Y018237D01*
X037388Y018189D01*
X036501Y018479D02*
X036404Y018431D01*
X036308Y018334D01*
X036301Y019189D02*
X036156Y019189D01*
X036108Y019237D01*
X036108Y019382D01*
X036301Y019382D02*
X036301Y019189D01*
X036402Y019189D02*
X036547Y019189D01*
X036596Y019237D01*
X036547Y019285D01*
X036451Y019285D01*
X036402Y019334D01*
X036451Y019382D01*
X036596Y019382D01*
X036697Y019382D02*
X036697Y019189D01*
X036697Y019285D02*
X036794Y019382D01*
X036842Y019382D01*
X036991Y019237D02*
X036991Y019189D01*
X037039Y019189D01*
X037039Y019237D01*
X036991Y019237D01*
X037039Y019189D02*
X036942Y019092D01*
X037139Y019237D02*
X037139Y019334D01*
X037284Y019334D01*
X037332Y019285D01*
X037332Y019237D01*
X037284Y019189D01*
X037187Y019189D01*
X037139Y019237D01*
X037139Y019334D02*
X037236Y019431D01*
X037332Y019479D01*
X037433Y019431D02*
X037433Y019382D01*
X037482Y019334D01*
X037627Y019334D01*
X037627Y019431D02*
X037579Y019479D01*
X037482Y019479D01*
X037433Y019431D01*
X037627Y019431D02*
X037627Y019237D01*
X037579Y019189D01*
X037482Y019189D01*
X037433Y019237D01*
X034594Y020229D02*
X034347Y020229D01*
X034226Y020229D02*
X033979Y020229D01*
X034102Y020229D02*
X034102Y020599D01*
X033979Y020476D01*
X034347Y020476D02*
X034471Y020599D01*
X034471Y020229D01*
X033121Y020290D02*
X033121Y020537D01*
X033059Y020599D01*
X032936Y020599D01*
X032874Y020537D01*
X032874Y020476D01*
X032936Y020414D01*
X033121Y020414D01*
X033121Y020290D02*
X033059Y020229D01*
X032936Y020229D01*
X032874Y020290D01*
X032384Y020537D02*
X032137Y020290D01*
X032137Y020229D01*
X032137Y020599D02*
X032384Y020599D01*
X032384Y020537D01*
X031279Y020599D02*
X031033Y020599D01*
X031033Y020414D01*
X031156Y020476D01*
X031218Y020476D01*
X031279Y020414D01*
X031279Y020290D01*
X031218Y020229D01*
X031094Y020229D01*
X031033Y020290D01*
X030174Y020290D02*
X030113Y020229D01*
X029989Y020229D01*
X029928Y020290D01*
X030051Y020414D02*
X030113Y020414D01*
X030174Y020352D01*
X030174Y020290D01*
X030113Y020414D02*
X030174Y020476D01*
X030174Y020537D01*
X030113Y020599D01*
X029989Y020599D01*
X029928Y020537D01*
X021896Y022289D02*
X021703Y022289D01*
X021800Y022289D02*
X021800Y021999D01*
X021602Y021999D02*
X021408Y021999D01*
X021408Y022289D01*
X021602Y022289D01*
X021505Y022144D02*
X021408Y022144D01*
X021307Y022095D02*
X021259Y022144D01*
X021162Y022144D01*
X021114Y022192D01*
X021114Y022241D01*
X021162Y022289D01*
X021259Y022289D01*
X021307Y022241D01*
X021307Y022095D02*
X021307Y022047D01*
X021259Y021999D01*
X021162Y021999D01*
X021114Y022047D01*
X021012Y021999D02*
X020819Y021999D01*
X020819Y022289D01*
X021012Y022289D01*
X020916Y022144D02*
X020819Y022144D01*
X020718Y022144D02*
X020669Y022095D01*
X020524Y022095D01*
X020524Y021999D02*
X020524Y022289D01*
X020669Y022289D01*
X020718Y022241D01*
X020718Y022144D01*
X020621Y022095D02*
X020718Y021999D01*
X020271Y022047D02*
X020223Y021999D01*
X020126Y021999D01*
X020078Y022047D01*
X019977Y022095D02*
X019977Y022289D01*
X020078Y022241D02*
X020126Y022289D01*
X020223Y022289D01*
X020271Y022241D01*
X020271Y022192D01*
X020223Y022144D01*
X020271Y022095D01*
X020271Y022047D01*
X020223Y022144D02*
X020175Y022144D01*
X019977Y022095D02*
X019880Y021999D01*
X019783Y022095D01*
X019783Y022289D01*
X019682Y022241D02*
X019682Y022192D01*
X019634Y022144D01*
X019682Y022095D01*
X019682Y022047D01*
X019634Y021999D01*
X019537Y021999D01*
X019489Y022047D01*
X019585Y022144D02*
X019634Y022144D01*
X019682Y022241D02*
X019634Y022289D01*
X019537Y022289D01*
X019489Y022241D01*
X019146Y022289D02*
X019146Y022095D01*
X019050Y021999D01*
X018953Y022095D01*
X018953Y022289D01*
X018852Y022289D02*
X018658Y022289D01*
X018658Y022144D01*
X018755Y022192D01*
X018803Y022192D01*
X018852Y022144D01*
X018852Y022047D01*
X018803Y021999D01*
X018707Y021999D01*
X018658Y022047D01*
X018396Y022047D02*
X018396Y022241D01*
X018348Y022289D01*
X018203Y022289D01*
X018203Y021999D01*
X018348Y021999D01*
X018396Y022047D01*
X018102Y021999D02*
X018102Y022289D01*
X017908Y022289D02*
X017908Y021999D01*
X017807Y022047D02*
X017807Y022144D01*
X017710Y022144D01*
X017614Y022241D02*
X017614Y022047D01*
X017662Y021999D01*
X017759Y021999D01*
X017807Y022047D01*
X017807Y022241D02*
X017759Y022289D01*
X017662Y022289D01*
X017614Y022241D01*
X017908Y022289D02*
X018102Y021999D01*
X017271Y022047D02*
X017271Y022241D01*
X017223Y022289D01*
X017078Y022289D01*
X017078Y021999D01*
X017223Y021999D01*
X017271Y022047D01*
X016977Y021999D02*
X016977Y022289D01*
X016783Y022289D02*
X016977Y021999D01*
X016783Y021999D02*
X016783Y022289D01*
X016682Y022241D02*
X016634Y022289D01*
X016537Y022289D01*
X016489Y022241D01*
X016489Y022047D01*
X016537Y021999D01*
X016634Y021999D01*
X016682Y022047D01*
X016682Y022144D01*
X016585Y022144D01*
X016271Y022144D02*
X016271Y021999D01*
X016271Y022144D02*
X016223Y022192D01*
X016078Y022192D01*
X016078Y021999D01*
X015978Y021999D02*
X015882Y021999D01*
X015930Y021999D02*
X015930Y022192D01*
X015882Y022192D01*
X015930Y022289D02*
X015930Y022337D01*
X015780Y022289D02*
X015780Y022095D01*
X015684Y021999D01*
X015587Y022095D01*
X015587Y022289D01*
X014121Y022241D02*
X014121Y022047D01*
X014073Y021999D01*
X013976Y021999D01*
X013928Y022047D01*
X014121Y022241D01*
X014073Y022289D01*
X013976Y022289D01*
X013928Y022241D01*
X013928Y022047D01*
X013121Y021999D02*
X012928Y021999D01*
X013025Y021999D02*
X013025Y022289D01*
X012928Y022192D01*
X012121Y022192D02*
X012121Y022241D01*
X012073Y022289D01*
X011976Y022289D01*
X011928Y022241D01*
X012121Y022192D02*
X011928Y021999D01*
X012121Y021999D01*
X011121Y022047D02*
X011073Y021999D01*
X010976Y021999D01*
X010928Y022047D01*
X011025Y022144D02*
X011073Y022144D01*
X011121Y022095D01*
X011121Y022047D01*
X011073Y022144D02*
X011121Y022192D01*
X011121Y022241D01*
X011073Y022289D01*
X010976Y022289D01*
X010928Y022241D01*
X010121Y022144D02*
X009928Y022144D01*
X010073Y022289D01*
X010073Y021999D01*
X009121Y022047D02*
X009073Y021999D01*
X008976Y021999D01*
X008928Y022047D01*
X008928Y022144D02*
X009025Y022192D01*
X009073Y022192D01*
X009121Y022144D01*
X009121Y022047D01*
X008928Y022144D02*
X008928Y022289D01*
X009121Y022289D01*
X010801Y020664D02*
X010705Y020567D01*
X010705Y020374D01*
X010705Y020519D02*
X010898Y020519D01*
X010898Y020567D02*
X010898Y020374D01*
X010999Y020374D02*
X010999Y020664D01*
X011193Y020374D01*
X011193Y020664D01*
X011294Y020567D02*
X011391Y020664D01*
X011487Y020567D01*
X011487Y020374D01*
X011589Y020374D02*
X011589Y020664D01*
X011487Y020519D02*
X011294Y020519D01*
X011294Y020567D02*
X011294Y020374D01*
X011589Y020374D02*
X011782Y020374D01*
X011883Y020422D02*
X011932Y020374D01*
X012028Y020374D01*
X012077Y020422D01*
X012077Y020616D01*
X012028Y020664D01*
X011932Y020664D01*
X011883Y020616D01*
X011883Y020422D01*
X012178Y020422D02*
X012178Y020616D01*
X012226Y020664D01*
X012323Y020664D01*
X012371Y020616D01*
X012371Y020519D02*
X012275Y020519D01*
X012371Y020519D02*
X012371Y020422D01*
X012323Y020374D01*
X012226Y020374D01*
X012178Y020422D01*
X010898Y020567D02*
X010801Y020664D01*
X015979Y019149D02*
X015979Y018969D01*
X016069Y018879D01*
X016159Y018969D01*
X016159Y019149D01*
X016255Y019149D02*
X016390Y019149D01*
X016435Y019104D01*
X016435Y018924D01*
X016390Y018879D01*
X016255Y018879D01*
X016255Y019149D01*
X016531Y019014D02*
X016711Y019014D01*
X016666Y019149D02*
X016531Y019014D01*
X016666Y018879D02*
X016666Y019149D01*
X016721Y018469D02*
X016541Y018469D01*
X016541Y018334D01*
X016631Y018379D01*
X016676Y018379D01*
X016721Y018334D01*
X016721Y018244D01*
X016676Y018199D01*
X016586Y018199D01*
X016541Y018244D01*
X016445Y018244D02*
X016445Y018424D01*
X016400Y018469D01*
X016265Y018469D01*
X016265Y018199D01*
X016400Y018199D01*
X016445Y018244D01*
X016169Y018289D02*
X016169Y018469D01*
X015989Y018469D02*
X015989Y018289D01*
X016079Y018199D01*
X016169Y018289D01*
X016159Y017759D02*
X016159Y017579D01*
X016069Y017489D01*
X015979Y017579D01*
X015979Y017759D01*
X016255Y017759D02*
X016390Y017759D01*
X016435Y017714D01*
X016435Y017534D01*
X016390Y017489D01*
X016255Y017489D01*
X016255Y017759D01*
X016531Y017624D02*
X016531Y017534D01*
X016576Y017489D01*
X016666Y017489D01*
X016711Y017534D01*
X016711Y017579D01*
X016666Y017624D01*
X016531Y017624D01*
X016621Y017714D01*
X016711Y017759D01*
X016721Y017039D02*
X016721Y016994D01*
X016541Y016814D01*
X016541Y016769D01*
X016445Y016814D02*
X016445Y016994D01*
X016400Y017039D01*
X016265Y017039D01*
X016265Y016769D01*
X016400Y016769D01*
X016445Y016814D01*
X016541Y017039D02*
X016721Y017039D01*
X016169Y017039D02*
X016169Y016859D01*
X016079Y016769D01*
X015989Y016859D01*
X015989Y017039D01*
X018728Y017109D02*
X018728Y016929D01*
X018818Y016839D01*
X018908Y016929D01*
X018908Y017109D01*
X019004Y017109D02*
X019139Y017109D01*
X019184Y017064D01*
X019184Y016884D01*
X019139Y016839D01*
X019004Y016839D01*
X019004Y017109D01*
X019280Y017064D02*
X019325Y017109D01*
X019415Y017109D01*
X019460Y017064D01*
X019460Y017019D01*
X019415Y016974D01*
X019460Y016929D01*
X019460Y016884D01*
X019415Y016839D01*
X019325Y016839D01*
X019280Y016884D01*
X019370Y016974D02*
X019415Y016974D01*
X019460Y017489D02*
X019280Y017489D01*
X019460Y017669D01*
X019460Y017714D01*
X019415Y017759D01*
X019325Y017759D01*
X019280Y017714D01*
X019184Y017714D02*
X019139Y017759D01*
X019004Y017759D01*
X019004Y017489D01*
X019139Y017489D01*
X019184Y017534D01*
X019184Y017714D01*
X018908Y017759D02*
X018908Y017579D01*
X018818Y017489D01*
X018728Y017579D01*
X018728Y017759D01*
X018818Y018239D02*
X018908Y018329D01*
X018908Y018509D01*
X019004Y018509D02*
X019139Y018509D01*
X019184Y018464D01*
X019184Y018284D01*
X019139Y018239D01*
X019004Y018239D01*
X019004Y018509D01*
X018728Y018509D02*
X018728Y018329D01*
X018818Y018239D01*
X019280Y018239D02*
X019460Y018239D01*
X019370Y018239D02*
X019370Y018509D01*
X019280Y018419D01*
X019335Y018959D02*
X019290Y019004D01*
X019470Y019184D01*
X019470Y019004D01*
X019425Y018959D01*
X019335Y018959D01*
X019290Y019004D02*
X019290Y019184D01*
X019335Y019229D01*
X019425Y019229D01*
X019470Y019184D01*
X019194Y019184D02*
X019149Y019229D01*
X019014Y019229D01*
X019014Y018959D01*
X019149Y018959D01*
X019194Y019004D01*
X019194Y019184D01*
X018918Y019229D02*
X018918Y019049D01*
X018828Y018959D01*
X018738Y019049D01*
X018738Y019229D01*
X018708Y020374D02*
X018902Y020374D01*
X019003Y020374D02*
X019003Y020664D01*
X019148Y020664D01*
X019196Y020616D01*
X019196Y020519D01*
X019148Y020470D01*
X019003Y020470D01*
X019100Y020470D02*
X019196Y020374D01*
X018902Y020664D02*
X018708Y020664D01*
X018708Y020374D01*
X018607Y020374D02*
X018607Y020664D01*
X018708Y020519D02*
X018805Y020519D01*
X018607Y020374D02*
X018510Y020470D01*
X018414Y020374D01*
X018414Y020664D01*
X018312Y020616D02*
X018312Y020422D01*
X018264Y020374D01*
X018167Y020374D01*
X018119Y020422D01*
X018119Y020616D01*
X018167Y020664D01*
X018264Y020664D01*
X018312Y020616D01*
X018018Y020616D02*
X018018Y020519D01*
X017969Y020470D01*
X017824Y020470D01*
X017824Y020374D02*
X017824Y020664D01*
X017969Y020664D01*
X018018Y020616D01*
X005238Y016569D02*
X005092Y016569D01*
X005044Y016520D01*
X005092Y016472D01*
X005238Y016472D01*
X005238Y016375D02*
X005044Y016375D01*
X005044Y016423D01*
X005092Y016472D01*
X005092Y016274D02*
X005044Y016226D01*
X005044Y016129D01*
X005092Y016080D01*
X005189Y016080D01*
X005238Y016129D01*
X005238Y016226D01*
X005189Y016274D01*
X005092Y016274D01*
X005044Y015979D02*
X005044Y015834D01*
X005092Y015786D01*
X005189Y015786D01*
X005238Y015834D01*
X005238Y015979D01*
X005238Y015687D02*
X005238Y015638D01*
X005189Y015638D01*
X005189Y015687D01*
X005238Y015687D01*
X005238Y015539D02*
X005189Y015490D01*
X004996Y015490D01*
X005044Y015442D02*
X005044Y015539D01*
X005092Y015341D02*
X005044Y015293D01*
X005044Y015196D01*
X005092Y015147D01*
X005189Y015147D01*
X005238Y015196D01*
X005238Y015293D01*
X005189Y015341D01*
X005092Y015341D01*
X005092Y015046D02*
X005189Y015046D01*
X005238Y014998D01*
X005238Y014853D01*
X005334Y014853D02*
X005044Y014853D01*
X005044Y014998D01*
X005092Y015046D01*
X005044Y014752D02*
X005044Y014606D01*
X005092Y014558D01*
X005141Y014606D01*
X005141Y014703D01*
X005189Y014752D01*
X005238Y014703D01*
X005238Y014558D01*
X005189Y014457D02*
X005092Y014457D01*
X005044Y014409D01*
X005044Y014263D01*
X005334Y014263D01*
X005238Y014263D02*
X005238Y014409D01*
X005189Y014457D01*
X005189Y014162D02*
X005092Y014162D01*
X005044Y014114D01*
X005044Y013969D01*
X005334Y013969D01*
X005238Y013969D02*
X005238Y014114D01*
X005189Y014162D01*
X005141Y013868D02*
X005141Y013723D01*
X005189Y013674D01*
X005238Y013723D01*
X005238Y013868D01*
X005092Y013868D01*
X005044Y013819D01*
X005044Y013723D01*
X005189Y013575D02*
X005189Y013527D01*
X005238Y013527D01*
X005238Y013575D01*
X005189Y013575D01*
X005189Y013426D02*
X005141Y013377D01*
X005141Y013281D01*
X005092Y013232D01*
X005044Y013281D01*
X005044Y013426D01*
X005189Y013426D02*
X005238Y013377D01*
X005238Y013232D01*
X005238Y013133D02*
X005189Y013084D01*
X004996Y013084D01*
X005044Y013036D02*
X005044Y013133D01*
X005044Y012888D02*
X005238Y012888D01*
X005238Y012936D02*
X005238Y012839D01*
X005238Y012738D02*
X005044Y012738D01*
X005044Y012839D02*
X005044Y012888D01*
X004947Y012888D02*
X004899Y012888D01*
X005238Y012738D02*
X005238Y012593D01*
X005189Y012545D01*
X005044Y012545D01*
X005044Y012444D02*
X005044Y012298D01*
X005092Y012250D01*
X005189Y012250D01*
X005238Y012298D01*
X005238Y012444D01*
X005044Y012150D02*
X005044Y012101D01*
X005141Y012005D01*
X005238Y012005D02*
X005044Y012005D01*
X005044Y011856D02*
X005238Y011856D01*
X005238Y011808D02*
X005238Y011905D01*
X005238Y011707D02*
X005238Y011562D01*
X005189Y011514D01*
X005092Y011514D01*
X005044Y011562D01*
X005044Y011707D01*
X005044Y011808D02*
X005044Y011856D01*
X004947Y011856D02*
X004899Y011856D01*
X004498Y011469D02*
X004498Y011345D01*
X004436Y011283D01*
X004312Y011283D02*
X004251Y011407D01*
X004251Y011469D01*
X004312Y011530D01*
X004436Y011530D01*
X004498Y011469D01*
X004312Y011283D02*
X004127Y011283D01*
X004127Y011530D01*
X003681Y011431D02*
X003681Y011382D01*
X003633Y011334D01*
X003536Y011334D01*
X003488Y011382D01*
X003488Y011431D01*
X003536Y011479D01*
X003633Y011479D01*
X003681Y011431D01*
X003633Y011334D02*
X003681Y011285D01*
X003681Y011237D01*
X003633Y011189D01*
X003536Y011189D01*
X003488Y011237D01*
X003488Y011285D01*
X003536Y011334D01*
X003387Y011189D02*
X003193Y011189D01*
X003290Y011189D02*
X003290Y011479D01*
X003193Y011382D01*
X003094Y011237D02*
X003045Y011237D01*
X003045Y011189D01*
X003094Y011189D01*
X003094Y011237D01*
X003094Y011189D02*
X002997Y011092D01*
X002896Y011237D02*
X002896Y011431D01*
X002847Y011479D01*
X002751Y011479D01*
X002702Y011431D01*
X002702Y011382D01*
X002751Y011334D01*
X002896Y011334D01*
X002896Y011237D02*
X002847Y011189D01*
X002751Y011189D01*
X002702Y011237D01*
X002601Y011189D02*
X002408Y011189D01*
X002504Y011189D02*
X002504Y011479D01*
X002408Y011382D01*
X002504Y010479D02*
X002504Y010189D01*
X002408Y010189D02*
X002601Y010189D01*
X002702Y010189D02*
X002702Y010237D01*
X002896Y010431D01*
X002896Y010479D01*
X002702Y010479D01*
X002504Y010479D02*
X002408Y010382D01*
X003045Y010237D02*
X003045Y010189D01*
X003094Y010189D01*
X003094Y010237D01*
X003045Y010237D01*
X003094Y010189D02*
X002997Y010092D01*
X003193Y010189D02*
X003387Y010189D01*
X003290Y010189D02*
X003290Y010479D01*
X003193Y010382D01*
X003488Y010334D02*
X003633Y010334D01*
X003681Y010285D01*
X003681Y010237D01*
X003633Y010189D01*
X003536Y010189D01*
X003488Y010237D01*
X003488Y010334D01*
X003585Y010431D01*
X003681Y010479D01*
X004251Y010364D02*
X004312Y010425D01*
X004498Y010425D01*
X004436Y010547D02*
X004312Y010547D01*
X004251Y010608D01*
X004251Y010732D01*
X004312Y010794D01*
X004436Y010794D01*
X004498Y010732D01*
X004498Y010608D01*
X004436Y010547D01*
X004251Y010364D02*
X004251Y010178D01*
X004498Y010178D01*
X004498Y010056D02*
X004498Y009933D01*
X004498Y009995D02*
X004251Y009995D01*
X004251Y009933D01*
X004251Y009811D02*
X004498Y009811D01*
X004498Y009626D01*
X004436Y009565D01*
X004251Y009565D01*
X004251Y009443D02*
X004251Y009319D01*
X004189Y009381D02*
X004436Y009381D01*
X004498Y009443D01*
X004498Y009198D02*
X004312Y009198D01*
X004251Y009136D01*
X004251Y009013D01*
X004312Y008951D01*
X004251Y008829D02*
X004251Y008644D01*
X004312Y008583D01*
X004436Y008583D01*
X004498Y008644D01*
X004498Y008829D01*
X004559Y008829D02*
X004251Y008829D01*
X004127Y008951D02*
X004498Y008951D01*
X004559Y008829D02*
X004621Y008768D01*
X004621Y008706D01*
X004498Y008460D02*
X004498Y008337D01*
X004498Y008399D02*
X004251Y008399D01*
X004251Y008337D01*
X004127Y008399D02*
X004066Y008399D01*
X003681Y008382D02*
X003681Y008431D01*
X003633Y008479D01*
X003536Y008479D01*
X003488Y008431D01*
X003681Y008382D02*
X003488Y008189D01*
X003681Y008189D01*
X003387Y008189D02*
X003193Y008189D01*
X003290Y008189D02*
X003290Y008479D01*
X003193Y008382D01*
X003094Y008237D02*
X003045Y008237D01*
X003045Y008189D01*
X003094Y008189D01*
X003094Y008237D01*
X003094Y008189D02*
X002997Y008092D01*
X002896Y008237D02*
X002847Y008189D01*
X002751Y008189D01*
X002702Y008237D01*
X002601Y008189D02*
X002408Y008189D01*
X002504Y008189D02*
X002504Y008479D01*
X002408Y008382D01*
X002702Y008431D02*
X002751Y008479D01*
X002847Y008479D01*
X002896Y008431D01*
X002896Y008382D01*
X002847Y008334D01*
X002896Y008285D01*
X002896Y008237D01*
X002847Y008334D02*
X002799Y008334D01*
X002997Y009092D02*
X003094Y009189D01*
X003045Y009189D01*
X003045Y009237D01*
X003094Y009237D01*
X003094Y009189D01*
X003193Y009189D02*
X003387Y009189D01*
X003290Y009189D02*
X003290Y009479D01*
X003193Y009382D01*
X003488Y009334D02*
X003681Y009334D01*
X003633Y009479D02*
X003488Y009334D01*
X003633Y009189D02*
X003633Y009479D01*
X002896Y009479D02*
X002702Y009479D01*
X002702Y009334D01*
X002799Y009382D01*
X002847Y009382D01*
X002896Y009334D01*
X002896Y009237D01*
X002847Y009189D01*
X002751Y009189D01*
X002702Y009237D01*
X002601Y009189D02*
X002408Y009189D01*
X002504Y009189D02*
X002504Y009479D01*
X002408Y009382D01*
X004066Y009995D02*
X004127Y009995D01*
X005044Y009989D02*
X005044Y009892D01*
X005092Y009844D01*
X005189Y009844D01*
X005238Y009892D01*
X005238Y009989D01*
X005189Y010037D01*
X005092Y010037D01*
X005044Y009989D01*
X005044Y010187D02*
X005044Y010284D01*
X005092Y010332D01*
X005238Y010332D01*
X005238Y010187D01*
X005189Y010139D01*
X005141Y010187D01*
X005141Y010332D01*
X005092Y010433D02*
X005044Y010481D01*
X005044Y010627D01*
X005044Y010728D02*
X005044Y010825D01*
X004996Y010776D02*
X005189Y010776D01*
X005238Y010825D01*
X005189Y010924D02*
X005092Y010924D01*
X005044Y010973D01*
X005044Y011069D01*
X005092Y011118D01*
X005141Y011118D01*
X005141Y010924D01*
X005189Y010924D02*
X005238Y010973D01*
X005238Y011069D01*
X005189Y011219D02*
X005092Y011219D01*
X005044Y011267D01*
X005044Y011412D01*
X004947Y011412D02*
X005238Y011412D01*
X005238Y011267D01*
X005189Y011219D01*
X005824Y011218D02*
X005824Y011121D01*
X005872Y011072D01*
X005969Y011072D01*
X006018Y011121D01*
X006018Y011218D01*
X005921Y011266D02*
X005921Y011072D01*
X005872Y010971D02*
X006018Y010971D01*
X005872Y010971D02*
X005824Y010923D01*
X005824Y010778D01*
X006018Y010778D01*
X005969Y010677D02*
X005872Y010677D01*
X005824Y010628D01*
X005824Y010531D01*
X005872Y010483D01*
X005969Y010483D01*
X006018Y010531D01*
X006018Y010628D01*
X005969Y010677D01*
X006018Y010383D02*
X005969Y010335D01*
X005776Y010335D01*
X005824Y010287D02*
X005824Y010383D01*
X005776Y010186D02*
X005727Y010137D01*
X005727Y010040D01*
X005776Y009992D01*
X005824Y009992D01*
X005872Y010040D01*
X005872Y010137D01*
X005921Y010186D01*
X005969Y010186D01*
X006018Y010137D01*
X006018Y010040D01*
X005969Y009992D01*
X005969Y009596D02*
X005824Y009596D01*
X005969Y009596D02*
X006018Y009548D01*
X005969Y009500D01*
X006018Y009451D01*
X005969Y009403D01*
X005824Y009403D01*
X005872Y009302D02*
X005921Y009302D01*
X005921Y009108D01*
X005969Y009108D02*
X005872Y009108D01*
X005824Y009156D01*
X005824Y009253D01*
X005872Y009302D01*
X006018Y009253D02*
X006018Y009156D01*
X005969Y009108D01*
X005824Y009008D02*
X005824Y008959D01*
X005921Y008863D01*
X006018Y008863D02*
X005824Y008863D01*
X005824Y008761D02*
X005824Y008616D01*
X005872Y008568D01*
X005969Y008568D01*
X006018Y008616D01*
X006018Y008761D01*
X005727Y008761D01*
X005872Y008467D02*
X006018Y008467D01*
X005872Y008467D02*
X005824Y008418D01*
X005824Y008273D01*
X006018Y008273D01*
X006018Y008172D02*
X005824Y008172D01*
X005727Y008075D01*
X005824Y007979D01*
X006018Y007979D01*
X005872Y007979D02*
X005872Y008172D01*
X005238Y008122D02*
X005092Y008122D01*
X005044Y008074D01*
X005044Y007977D01*
X005092Y007929D01*
X004947Y007929D02*
X005238Y007929D01*
X005189Y008272D02*
X004996Y008272D01*
X005044Y008320D02*
X005044Y008223D01*
X005189Y008272D02*
X005238Y008320D01*
X005189Y008468D02*
X004996Y008468D01*
X005044Y008420D02*
X005044Y008516D01*
X005044Y008616D02*
X005044Y008761D01*
X005092Y008810D01*
X005189Y008810D01*
X005238Y008761D01*
X005238Y008616D01*
X005334Y008616D02*
X005044Y008616D01*
X005189Y008468D02*
X005238Y008516D01*
X005238Y008911D02*
X005189Y008911D01*
X005189Y008959D01*
X005238Y008959D01*
X005238Y008911D01*
X005092Y008911D02*
X005044Y008911D01*
X005044Y008959D01*
X005092Y008959D01*
X005092Y008911D01*
X005238Y009058D02*
X004947Y009252D01*
X004947Y009546D02*
X005238Y009353D01*
X005189Y009696D02*
X004996Y009696D01*
X005044Y009744D02*
X005044Y009647D01*
X005189Y009696D02*
X005238Y009744D01*
X005238Y010433D02*
X005238Y010578D01*
X005189Y010627D01*
X005141Y010578D01*
X005141Y010481D01*
X005092Y010433D01*
X005824Y011218D02*
X005872Y011266D01*
X005921Y011266D01*
X006557Y010942D02*
X006606Y010990D01*
X006799Y010797D01*
X006848Y010845D01*
X006848Y010942D01*
X006799Y010990D01*
X006606Y010990D01*
X006557Y010942D02*
X006557Y010845D01*
X006606Y010797D01*
X006799Y010797D01*
X006848Y010696D02*
X006848Y010502D01*
X006848Y010599D02*
X006557Y010599D01*
X006654Y010502D01*
X006606Y010401D02*
X006799Y010208D01*
X006848Y010256D01*
X006848Y010353D01*
X006799Y010401D01*
X006606Y010401D01*
X006557Y010353D01*
X006557Y010256D01*
X006606Y010208D01*
X006799Y010208D01*
X006848Y010106D02*
X006848Y009913D01*
X006654Y010106D01*
X006606Y010106D01*
X006557Y010058D01*
X006557Y009961D01*
X006606Y009913D01*
X006799Y009519D02*
X006799Y009470D01*
X006848Y009470D01*
X006848Y009519D01*
X006799Y009519D01*
X006848Y009519D02*
X006944Y009422D01*
X006799Y009321D02*
X006751Y009321D01*
X006702Y009272D01*
X006702Y009127D01*
X006799Y009127D01*
X006848Y009176D01*
X006848Y009272D01*
X006799Y009321D01*
X006606Y009224D02*
X006702Y009127D01*
X006606Y009224D02*
X006557Y009321D01*
X006654Y008731D02*
X006848Y008635D01*
X006654Y008538D01*
X006702Y008437D02*
X006654Y008388D01*
X006654Y008292D01*
X006702Y008243D01*
X006799Y008243D01*
X006848Y008292D01*
X006848Y008388D01*
X006799Y008437D01*
X006702Y008437D01*
X006557Y008142D02*
X006848Y008142D01*
X006557Y007949D01*
X006848Y007949D01*
X006870Y007449D02*
X006870Y007159D01*
X006676Y007449D01*
X006676Y007159D01*
X006577Y007159D02*
X006480Y007159D01*
X006528Y007159D02*
X006528Y007449D01*
X006480Y007449D02*
X006577Y007449D01*
X006379Y007449D02*
X006379Y007159D01*
X006185Y007159D02*
X006185Y007449D01*
X006282Y007352D01*
X006379Y007449D01*
X006971Y007449D02*
X007068Y007449D01*
X007019Y007449D02*
X007019Y007159D01*
X006971Y007159D02*
X007068Y007159D01*
X006084Y007110D02*
X005891Y007110D01*
X005790Y007207D02*
X005790Y007304D01*
X005693Y007304D01*
X005790Y007401D02*
X005741Y007449D01*
X005644Y007449D01*
X005596Y007401D01*
X005596Y007207D01*
X005644Y007159D01*
X005741Y007159D01*
X005790Y007207D01*
X005495Y007159D02*
X005398Y007255D01*
X005447Y007255D02*
X005301Y007255D01*
X005301Y007159D02*
X005301Y007449D01*
X005447Y007449D01*
X005495Y007401D01*
X005495Y007304D01*
X005447Y007255D01*
X005200Y007304D02*
X005152Y007255D01*
X005007Y007255D01*
X005007Y007159D02*
X005007Y007449D01*
X005152Y007449D01*
X005200Y007401D01*
X005200Y007304D01*
X004906Y007110D02*
X004712Y007110D01*
X004514Y007159D02*
X004514Y007304D01*
X004611Y007401D01*
X004611Y007449D01*
X004514Y007304D02*
X004418Y007401D01*
X004418Y007449D01*
X004316Y007401D02*
X004268Y007449D01*
X004171Y007449D01*
X004123Y007401D01*
X004123Y007207D01*
X004171Y007159D01*
X004268Y007159D01*
X004316Y007207D01*
X003681Y007237D02*
X003681Y007431D01*
X003488Y007237D01*
X003536Y007189D01*
X003633Y007189D01*
X003681Y007237D01*
X003488Y007237D02*
X003488Y007431D01*
X003536Y007479D01*
X003633Y007479D01*
X003681Y007431D01*
X003387Y007189D02*
X003193Y007189D01*
X003290Y007189D02*
X003290Y007479D01*
X003193Y007382D01*
X003094Y007237D02*
X003045Y007237D01*
X003045Y007189D01*
X003094Y007189D01*
X003094Y007237D01*
X003094Y007189D02*
X002997Y007092D01*
X002896Y007189D02*
X002702Y007189D01*
X002799Y007189D02*
X002799Y007479D01*
X002702Y007382D01*
X002601Y007189D02*
X002408Y007189D01*
X002504Y007189D02*
X002504Y007479D01*
X002408Y007382D01*
X002456Y006479D02*
X002408Y006431D01*
X002408Y006382D01*
X002456Y006334D01*
X002601Y006334D01*
X002601Y006237D02*
X002601Y006431D01*
X002553Y006479D01*
X002456Y006479D01*
X002408Y006237D02*
X002456Y006189D01*
X002553Y006189D01*
X002601Y006237D01*
X002751Y006237D02*
X002751Y006189D01*
X002799Y006189D01*
X002799Y006237D01*
X002751Y006237D01*
X002799Y006189D02*
X002702Y006092D01*
X002899Y006237D02*
X002899Y006285D01*
X002947Y006334D01*
X003044Y006334D01*
X003092Y006285D01*
X003092Y006237D01*
X003044Y006189D01*
X002947Y006189D01*
X002899Y006237D01*
X002947Y006334D02*
X002899Y006382D01*
X002899Y006431D01*
X002947Y006479D01*
X003044Y006479D01*
X003092Y006431D01*
X003092Y006382D01*
X003044Y006334D01*
X003092Y005479D02*
X002995Y005431D01*
X002899Y005334D01*
X003044Y005334D01*
X003092Y005285D01*
X003092Y005237D01*
X003044Y005189D01*
X002947Y005189D01*
X002899Y005237D01*
X002899Y005334D01*
X002799Y005237D02*
X002751Y005237D01*
X002751Y005189D01*
X002799Y005189D01*
X002799Y005237D01*
X002799Y005189D02*
X002702Y005092D01*
X002408Y005189D02*
X002408Y005237D01*
X002601Y005431D01*
X002601Y005479D01*
X002408Y005479D01*
X002408Y004479D02*
X002408Y004334D01*
X002504Y004382D01*
X002553Y004382D01*
X002601Y004334D01*
X002601Y004237D01*
X002553Y004189D01*
X002456Y004189D01*
X002408Y004237D01*
X002408Y004479D02*
X002601Y004479D01*
X002751Y004237D02*
X002751Y004189D01*
X002799Y004189D01*
X002799Y004237D01*
X002751Y004237D01*
X002799Y004189D02*
X002702Y004092D01*
X002899Y004334D02*
X003092Y004334D01*
X003044Y004479D02*
X002899Y004334D01*
X003044Y004189D02*
X003044Y004479D01*
X003044Y003479D02*
X002947Y003479D01*
X002899Y003431D01*
X003044Y003479D02*
X003092Y003431D01*
X003092Y003382D01*
X002899Y003189D01*
X003092Y003189D01*
X002799Y003189D02*
X002751Y003189D01*
X002751Y003237D01*
X002799Y003237D01*
X002799Y003189D01*
X002702Y003092D01*
X002601Y003237D02*
X002553Y003189D01*
X002456Y003189D01*
X002408Y003237D01*
X002504Y003334D02*
X002553Y003334D01*
X002601Y003285D01*
X002601Y003237D01*
X002553Y003334D02*
X002601Y003382D01*
X002601Y003431D01*
X002553Y003479D01*
X002456Y003479D01*
X002408Y003431D01*
X002504Y002479D02*
X002504Y002189D01*
X002408Y002189D02*
X002601Y002189D01*
X002702Y002092D02*
X002799Y002189D01*
X002751Y002189D01*
X002751Y002237D01*
X002799Y002237D01*
X002799Y002189D01*
X002899Y002237D02*
X003092Y002431D01*
X003092Y002237D01*
X003044Y002189D01*
X002947Y002189D01*
X002899Y002237D01*
X002899Y002431D01*
X002947Y002479D01*
X003044Y002479D01*
X003092Y002431D01*
X002504Y002479D02*
X002408Y002382D01*
X006148Y005869D02*
X006148Y006062D01*
X006244Y006062D02*
X006293Y006062D01*
X006244Y006062D02*
X006148Y005965D01*
X006393Y005965D02*
X006587Y005965D01*
X006587Y006014D01*
X006538Y006062D01*
X006441Y006062D01*
X006393Y006014D01*
X006393Y005917D01*
X006441Y005869D01*
X006538Y005869D01*
X006688Y005869D02*
X006833Y005869D01*
X006881Y005917D01*
X006833Y005965D01*
X006736Y005965D01*
X006688Y006014D01*
X006736Y006062D01*
X006881Y006062D01*
X006982Y006014D02*
X007031Y006062D01*
X007128Y006062D01*
X007176Y006014D01*
X007176Y005965D01*
X006982Y005965D01*
X006982Y005917D02*
X006982Y006014D01*
X006982Y005917D02*
X007031Y005869D01*
X007128Y005869D01*
X007325Y005917D02*
X007325Y006111D01*
X007277Y006062D02*
X007374Y006062D01*
X007325Y005917D02*
X007374Y005869D01*
X004498Y007969D02*
X004127Y007969D01*
X004498Y007969D02*
X004498Y008216D01*
X002997Y012092D02*
X003094Y012189D01*
X003045Y012189D01*
X003045Y012237D01*
X003094Y012237D01*
X003094Y012189D01*
X003193Y012189D02*
X003387Y012382D01*
X003387Y012431D01*
X003338Y012479D01*
X003242Y012479D01*
X003193Y012431D01*
X003193Y012189D02*
X003387Y012189D01*
X003488Y012237D02*
X003681Y012431D01*
X003681Y012237D01*
X003633Y012189D01*
X003536Y012189D01*
X003488Y012237D01*
X003488Y012431D01*
X003536Y012479D01*
X003633Y012479D01*
X003681Y012431D01*
X002896Y012189D02*
X002702Y012189D01*
X002799Y012189D02*
X002799Y012479D01*
X002702Y012382D01*
X002601Y012382D02*
X002601Y012431D01*
X002553Y012479D01*
X002456Y012479D01*
X002408Y012431D01*
X002601Y012382D02*
X002408Y012189D01*
X002601Y012189D01*
X002997Y013092D02*
X003094Y013189D01*
X003045Y013189D01*
X003045Y013237D01*
X003094Y013237D01*
X003094Y013189D01*
X003193Y013189D02*
X003387Y013382D01*
X003387Y013431D01*
X003338Y013479D01*
X003242Y013479D01*
X003193Y013431D01*
X003193Y013189D02*
X003387Y013189D01*
X003488Y013189D02*
X003681Y013382D01*
X003681Y013431D01*
X003633Y013479D01*
X003536Y013479D01*
X003488Y013431D01*
X003488Y013189D02*
X003681Y013189D01*
X002896Y013237D02*
X002847Y013189D01*
X002751Y013189D01*
X002702Y013237D01*
X002601Y013189D02*
X002408Y013189D01*
X002601Y013382D01*
X002601Y013431D01*
X002553Y013479D01*
X002456Y013479D01*
X002408Y013431D01*
X002702Y013431D02*
X002751Y013479D01*
X002847Y013479D01*
X002896Y013431D01*
X002896Y013382D01*
X002847Y013334D01*
X002896Y013285D01*
X002896Y013237D01*
X002847Y013334D02*
X002799Y013334D01*
X002997Y014092D02*
X003094Y014189D01*
X003045Y014189D01*
X003045Y014237D01*
X003094Y014237D01*
X003094Y014189D01*
X003193Y014189D02*
X003387Y014382D01*
X003387Y014431D01*
X003338Y014479D01*
X003242Y014479D01*
X003193Y014431D01*
X003193Y014189D02*
X003387Y014189D01*
X003488Y014334D02*
X003681Y014334D01*
X003633Y014479D02*
X003488Y014334D01*
X003633Y014189D02*
X003633Y014479D01*
X002896Y014479D02*
X002702Y014479D01*
X002702Y014334D01*
X002799Y014382D01*
X002847Y014382D01*
X002896Y014334D01*
X002896Y014237D01*
X002847Y014189D01*
X002751Y014189D01*
X002702Y014237D01*
X002601Y014189D02*
X002408Y014189D01*
X002601Y014382D01*
X002601Y014431D01*
X002553Y014479D01*
X002456Y014479D01*
X002408Y014431D01*
X002408Y015089D02*
X002601Y015282D01*
X002601Y015331D01*
X002553Y015379D01*
X002456Y015379D01*
X002408Y015331D01*
X002408Y015089D02*
X002601Y015089D01*
X002702Y015089D02*
X002702Y015137D01*
X002896Y015331D01*
X002896Y015379D01*
X002702Y015379D01*
X003045Y015137D02*
X003045Y015089D01*
X003094Y015089D01*
X003094Y015137D01*
X003045Y015137D01*
X003094Y015089D02*
X002997Y014992D01*
X003193Y015089D02*
X003387Y015282D01*
X003387Y015331D01*
X003338Y015379D01*
X003242Y015379D01*
X003193Y015331D01*
X003193Y015089D02*
X003387Y015089D01*
X003488Y015137D02*
X003536Y015089D01*
X003633Y015089D01*
X003681Y015137D01*
X003681Y015185D01*
X003633Y015234D01*
X003488Y015234D01*
X003488Y015137D01*
X003488Y015234D02*
X003585Y015331D01*
X003681Y015379D01*
X002997Y016092D02*
X003094Y016189D01*
X003045Y016189D01*
X003045Y016237D01*
X003094Y016237D01*
X003094Y016189D01*
X003193Y016189D02*
X003387Y016382D01*
X003387Y016431D01*
X003338Y016479D01*
X003242Y016479D01*
X003193Y016431D01*
X003193Y016189D02*
X003387Y016189D01*
X003488Y016237D02*
X003488Y016285D01*
X003536Y016334D01*
X003633Y016334D01*
X003681Y016285D01*
X003681Y016237D01*
X003633Y016189D01*
X003536Y016189D01*
X003488Y016237D01*
X003536Y016334D02*
X003488Y016382D01*
X003488Y016431D01*
X003536Y016479D01*
X003633Y016479D01*
X003681Y016431D01*
X003681Y016382D01*
X003633Y016334D01*
X002896Y016334D02*
X002751Y016334D01*
X002702Y016382D01*
X002702Y016431D01*
X002751Y016479D01*
X002847Y016479D01*
X002896Y016431D01*
X002896Y016237D01*
X002847Y016189D01*
X002751Y016189D01*
X002702Y016237D01*
X002601Y016189D02*
X002408Y016189D01*
X002601Y016382D01*
X002601Y016431D01*
X002553Y016479D01*
X002456Y016479D01*
X002408Y016431D01*
X002997Y017092D02*
X003094Y017189D01*
X003045Y017189D01*
X003045Y017237D01*
X003094Y017237D01*
X003094Y017189D01*
X003193Y017237D02*
X003242Y017189D01*
X003338Y017189D01*
X003387Y017237D01*
X003387Y017285D01*
X003338Y017334D01*
X003290Y017334D01*
X003338Y017334D02*
X003387Y017382D01*
X003387Y017431D01*
X003338Y017479D01*
X003242Y017479D01*
X003193Y017431D01*
X003488Y017431D02*
X003536Y017479D01*
X003633Y017479D01*
X003681Y017431D01*
X003488Y017237D01*
X003536Y017189D01*
X003633Y017189D01*
X003681Y017237D01*
X003681Y017431D01*
X003488Y017431D02*
X003488Y017237D01*
X002896Y017189D02*
X002702Y017189D01*
X002799Y017189D02*
X002799Y017479D01*
X002702Y017382D01*
X002601Y017382D02*
X002553Y017334D01*
X002601Y017285D01*
X002601Y017237D01*
X002553Y017189D01*
X002456Y017189D01*
X002408Y017237D01*
X002504Y017334D02*
X002553Y017334D01*
X002601Y017382D02*
X002601Y017431D01*
X002553Y017479D01*
X002456Y017479D01*
X002408Y017431D01*
X002456Y018189D02*
X002408Y018237D01*
X002456Y018189D02*
X002553Y018189D01*
X002601Y018237D01*
X002601Y018285D01*
X002553Y018334D01*
X002504Y018334D01*
X002553Y018334D02*
X002601Y018382D01*
X002601Y018431D01*
X002553Y018479D01*
X002456Y018479D01*
X002408Y018431D01*
X002702Y018431D02*
X002751Y018479D01*
X002847Y018479D01*
X002896Y018431D01*
X002896Y018382D01*
X002847Y018334D01*
X002896Y018285D01*
X002896Y018237D01*
X002847Y018189D01*
X002751Y018189D01*
X002702Y018237D01*
X002799Y018334D02*
X002847Y018334D01*
X003045Y018237D02*
X003045Y018189D01*
X003094Y018189D01*
X003094Y018237D01*
X003045Y018237D01*
X003094Y018189D02*
X002997Y018092D01*
X003193Y018237D02*
X003242Y018189D01*
X003338Y018189D01*
X003387Y018237D01*
X003387Y018285D01*
X003338Y018334D01*
X003290Y018334D01*
X003338Y018334D02*
X003387Y018382D01*
X003387Y018431D01*
X003338Y018479D01*
X003242Y018479D01*
X003193Y018431D01*
X003488Y018431D02*
X003536Y018479D01*
X003633Y018479D01*
X003681Y018431D01*
X003681Y018382D01*
X003488Y018189D01*
X003681Y018189D01*
X017093Y003384D02*
X017093Y003190D01*
X016802Y003190D01*
X016899Y003089D02*
X017093Y003089D01*
X016947Y003089D02*
X016947Y002895D01*
X016899Y002895D02*
X016802Y002992D01*
X016899Y003089D01*
X016899Y002895D02*
X017093Y002895D01*
X017093Y002698D02*
X016802Y002698D01*
X016802Y002794D02*
X016802Y002601D01*
X016802Y002501D02*
X016802Y002404D01*
X016802Y002453D02*
X017093Y002453D01*
X017093Y002501D02*
X017093Y002404D01*
X017044Y002303D02*
X016947Y002303D01*
X016947Y002206D01*
X016851Y002110D02*
X016802Y002158D01*
X016802Y002255D01*
X016851Y002303D01*
X016851Y002110D02*
X017044Y002110D01*
X017093Y002158D01*
X017093Y002255D01*
X017044Y002303D01*
X017093Y002010D02*
X017093Y001913D01*
X017093Y001962D02*
X016802Y001962D01*
X016802Y002010D02*
X016802Y001913D01*
X016851Y001812D02*
X016802Y001764D01*
X016802Y001619D01*
X017093Y001619D01*
X017093Y001764D01*
X017044Y001812D01*
X016851Y001812D01*
X017626Y002974D02*
X017578Y003022D01*
X017578Y003070D01*
X017626Y003119D01*
X017723Y003119D01*
X017771Y003070D01*
X017771Y003022D01*
X017723Y002974D01*
X017626Y002974D01*
X017626Y003119D02*
X017578Y003167D01*
X017578Y003216D01*
X017626Y003264D01*
X017723Y003264D01*
X017771Y003216D01*
X017771Y003167D01*
X017723Y003119D01*
X018388Y003070D02*
X018533Y003070D01*
X018581Y003119D01*
X018581Y003216D01*
X018533Y003264D01*
X018388Y003264D01*
X018388Y002974D01*
X018703Y003022D02*
X018751Y002974D01*
X018848Y002974D01*
X018896Y003022D01*
X018896Y003216D01*
X018848Y003264D01*
X018751Y003264D01*
X018703Y003216D01*
X018703Y003167D01*
X018751Y003119D01*
X018896Y003119D01*
X019308Y003060D02*
X019453Y003060D01*
X019501Y003109D01*
X019501Y003206D01*
X019453Y003254D01*
X019308Y003254D01*
X019308Y002964D01*
X019658Y002974D02*
X019852Y002974D01*
X019755Y002974D02*
X019755Y003264D01*
X019658Y003167D01*
X019953Y003216D02*
X019953Y003022D01*
X020146Y003216D01*
X020146Y003022D01*
X020098Y002974D01*
X020001Y002974D01*
X019953Y003022D01*
X019953Y003216D02*
X020001Y003264D01*
X020098Y003264D01*
X020146Y003216D01*
X020353Y003264D02*
X020353Y002974D01*
X020353Y003070D02*
X020498Y003070D01*
X020546Y003119D01*
X020546Y003216D01*
X020498Y003264D01*
X020353Y003264D01*
X020608Y003167D02*
X020705Y003264D01*
X020705Y002974D01*
X020608Y002974D02*
X020802Y002974D01*
X020903Y002974D02*
X021096Y002974D01*
X021000Y002974D02*
X021000Y003264D01*
X020903Y003167D01*
X021533Y003167D02*
X021630Y003264D01*
X021630Y002974D01*
X021533Y002974D02*
X021727Y002974D01*
X021828Y002974D02*
X022021Y003167D01*
X022021Y003216D01*
X021973Y003264D01*
X021876Y003264D01*
X021828Y003216D01*
X021828Y002974D02*
X022021Y002974D01*
X022408Y002974D02*
X022602Y002974D01*
X022505Y002974D02*
X022505Y003264D01*
X022408Y003167D01*
X022703Y003216D02*
X022751Y003264D01*
X022848Y003264D01*
X022896Y003216D01*
X022896Y003167D01*
X022848Y003119D01*
X022896Y003070D01*
X022896Y003022D01*
X022848Y002974D01*
X022751Y002974D01*
X022703Y003022D01*
X022800Y003119D02*
X022848Y003119D01*
X023239Y003216D02*
X023239Y003022D01*
X023287Y002974D01*
X023384Y002974D01*
X023432Y003022D01*
X023432Y003119D01*
X023335Y003119D01*
X023239Y003216D02*
X023287Y003264D01*
X023384Y003264D01*
X023432Y003216D01*
X023533Y003264D02*
X023727Y002974D01*
X023727Y003264D01*
X023828Y003264D02*
X023973Y003264D01*
X024021Y003216D01*
X024021Y003022D01*
X023973Y002974D01*
X023828Y002974D01*
X023828Y003264D01*
X023533Y003264D02*
X023533Y002974D01*
X024319Y002974D02*
X024319Y003167D01*
X024416Y003264D01*
X024512Y003167D01*
X024512Y002974D01*
X024614Y002974D02*
X024614Y003264D01*
X024759Y003264D01*
X024807Y003216D01*
X024807Y003119D01*
X024759Y003070D01*
X024614Y003070D01*
X024710Y003070D02*
X024807Y002974D01*
X024908Y002974D02*
X025102Y002974D01*
X025203Y002974D02*
X025203Y003264D01*
X025396Y003264D01*
X025300Y003119D02*
X025203Y003119D01*
X025102Y003264D02*
X024908Y003264D01*
X024908Y002974D01*
X024908Y003119D02*
X025005Y003119D01*
X024512Y003119D02*
X024319Y003119D01*
X016246Y003216D02*
X016053Y003022D01*
X016053Y002974D01*
X015871Y003119D02*
X015823Y003070D01*
X015678Y003070D01*
X015678Y002974D02*
X015678Y003264D01*
X015823Y003264D01*
X015871Y003216D01*
X015871Y003119D01*
X016053Y003264D02*
X016246Y003264D01*
X016246Y003216D01*
X015121Y003264D02*
X015025Y003216D01*
X014928Y003119D01*
X015073Y003119D01*
X015121Y003070D01*
X015121Y003022D01*
X015073Y002974D01*
X014976Y002974D01*
X014928Y003022D01*
X014928Y003119D01*
X014246Y003119D02*
X014246Y003022D01*
X014198Y002974D01*
X014101Y002974D01*
X014053Y003022D01*
X014053Y003119D02*
X014150Y003167D01*
X014198Y003167D01*
X014246Y003119D01*
X014246Y003264D02*
X014053Y003264D01*
X014053Y003119D01*
X013871Y003119D02*
X013823Y003070D01*
X013678Y003070D01*
X013678Y002974D02*
X013678Y003264D01*
X013823Y003264D01*
X013871Y003216D01*
X013871Y003119D01*
X013146Y003119D02*
X012953Y003119D01*
X013098Y003264D01*
X013098Y002974D01*
X012246Y003022D02*
X012198Y002974D01*
X012101Y002974D01*
X012053Y003022D01*
X012150Y003119D02*
X012198Y003119D01*
X012246Y003070D01*
X012246Y003022D01*
X012198Y003119D02*
X012246Y003167D01*
X012246Y003216D01*
X012198Y003264D01*
X012101Y003264D01*
X012053Y003216D01*
X011871Y003216D02*
X011871Y003119D01*
X011823Y003070D01*
X011678Y003070D01*
X011678Y002974D02*
X011678Y003264D01*
X011823Y003264D01*
X011871Y003216D01*
X011121Y003216D02*
X011073Y003264D01*
X010976Y003264D01*
X010928Y003216D01*
X011121Y003216D02*
X011121Y003167D01*
X010928Y002974D01*
X011121Y002974D01*
X010496Y002974D02*
X010303Y002974D01*
X010400Y002974D02*
X010400Y003264D01*
X010303Y003167D01*
X010121Y003264D02*
X009928Y002974D01*
X010121Y002974D02*
X009928Y003264D01*
X009827Y003264D02*
X009633Y003264D01*
X009730Y003264D02*
X009730Y002974D01*
X009371Y003022D02*
X009371Y003216D01*
X009178Y003022D01*
X009226Y002974D01*
X009323Y002974D01*
X009371Y003022D01*
X009178Y003022D02*
X009178Y003216D01*
X009226Y003264D01*
X009323Y003264D01*
X009371Y003216D01*
X009096Y003264D02*
X008903Y002974D01*
X008802Y002974D02*
X008705Y003070D01*
X008753Y003070D02*
X008608Y003070D01*
X008608Y002974D02*
X008608Y003264D01*
X008753Y003264D01*
X008802Y003216D01*
X008802Y003119D01*
X008753Y003070D01*
X008903Y003264D02*
X009096Y002974D01*
D12*
X001333Y020354D02*
X001335Y020398D01*
X001341Y020442D01*
X001351Y020485D01*
X001364Y020527D01*
X001381Y020568D01*
X001402Y020607D01*
X001426Y020644D01*
X001453Y020679D01*
X001483Y020711D01*
X001516Y020741D01*
X001552Y020767D01*
X001589Y020791D01*
X001629Y020810D01*
X001670Y020827D01*
X001713Y020839D01*
X001756Y020848D01*
X001800Y020853D01*
X001844Y020854D01*
X001888Y020851D01*
X001932Y020844D01*
X001975Y020833D01*
X002017Y020819D01*
X002057Y020801D01*
X002096Y020779D01*
X002132Y020755D01*
X002166Y020727D01*
X002198Y020696D01*
X002227Y020662D01*
X002253Y020626D01*
X002275Y020588D01*
X002294Y020548D01*
X002309Y020506D01*
X002321Y020464D01*
X002329Y020420D01*
X002333Y020376D01*
X002333Y020332D01*
X002329Y020288D01*
X002321Y020244D01*
X002309Y020202D01*
X002294Y020160D01*
X002275Y020120D01*
X002253Y020082D01*
X002227Y020046D01*
X002198Y020012D01*
X002166Y019981D01*
X002132Y019953D01*
X002096Y019929D01*
X002057Y019907D01*
X002017Y019889D01*
X001975Y019875D01*
X001932Y019864D01*
X001888Y019857D01*
X001844Y019854D01*
X001800Y019855D01*
X001756Y019860D01*
X001713Y019869D01*
X001670Y019881D01*
X001629Y019898D01*
X001589Y019917D01*
X001552Y019941D01*
X001516Y019967D01*
X001483Y019997D01*
X001453Y020029D01*
X001426Y020064D01*
X001402Y020101D01*
X001381Y020140D01*
X001364Y020181D01*
X001351Y020223D01*
X001341Y020266D01*
X001335Y020310D01*
X001333Y020354D01*
X038583Y020364D02*
X038585Y020408D01*
X038591Y020452D01*
X038601Y020495D01*
X038614Y020537D01*
X038631Y020578D01*
X038652Y020617D01*
X038676Y020654D01*
X038703Y020689D01*
X038733Y020721D01*
X038766Y020751D01*
X038802Y020777D01*
X038839Y020801D01*
X038879Y020820D01*
X038920Y020837D01*
X038963Y020849D01*
X039006Y020858D01*
X039050Y020863D01*
X039094Y020864D01*
X039138Y020861D01*
X039182Y020854D01*
X039225Y020843D01*
X039267Y020829D01*
X039307Y020811D01*
X039346Y020789D01*
X039382Y020765D01*
X039416Y020737D01*
X039448Y020706D01*
X039477Y020672D01*
X039503Y020636D01*
X039525Y020598D01*
X039544Y020558D01*
X039559Y020516D01*
X039571Y020474D01*
X039579Y020430D01*
X039583Y020386D01*
X039583Y020342D01*
X039579Y020298D01*
X039571Y020254D01*
X039559Y020212D01*
X039544Y020170D01*
X039525Y020130D01*
X039503Y020092D01*
X039477Y020056D01*
X039448Y020022D01*
X039416Y019991D01*
X039382Y019963D01*
X039346Y019939D01*
X039307Y019917D01*
X039267Y019899D01*
X039225Y019885D01*
X039182Y019874D01*
X039138Y019867D01*
X039094Y019864D01*
X039050Y019865D01*
X039006Y019870D01*
X038963Y019879D01*
X038920Y019891D01*
X038879Y019908D01*
X038839Y019927D01*
X038802Y019951D01*
X038766Y019977D01*
X038733Y020007D01*
X038703Y020039D01*
X038676Y020074D01*
X038652Y020111D01*
X038631Y020150D01*
X038614Y020191D01*
X038601Y020233D01*
X038591Y020276D01*
X038585Y020320D01*
X038583Y020364D01*
D13*
X029115Y016746D02*
X029115Y014344D01*
X027914Y014344D01*
X027513Y014744D01*
X027513Y015545D01*
X027914Y015945D01*
X029115Y015945D01*
X026352Y015545D02*
X026352Y015144D01*
X024751Y015144D01*
X024751Y014744D02*
X024751Y015545D01*
X025151Y015945D01*
X025952Y015945D01*
X026352Y015545D01*
X025151Y014344D02*
X024751Y014744D01*
X025151Y014344D02*
X025952Y014344D01*
X023710Y014344D02*
X023310Y014744D01*
X023310Y016345D01*
X022910Y015945D02*
X023710Y015945D01*
X021749Y015945D02*
X020548Y015945D01*
X020147Y015545D01*
X020548Y015144D01*
X021348Y015144D01*
X021749Y014744D01*
X021348Y014344D01*
X020147Y014344D01*
X018986Y014344D02*
X017785Y014344D01*
X017385Y014744D01*
X017785Y015144D01*
X018986Y015144D01*
X018986Y015545D02*
X018986Y014344D01*
X018986Y015545D02*
X018586Y015945D01*
X017785Y015945D01*
X016224Y015545D02*
X015824Y015945D01*
X015023Y015945D01*
X014623Y015545D01*
X014623Y014744D01*
X015023Y014344D01*
X015824Y014344D01*
X016224Y014744D01*
X016224Y015545D01*
D14*
X017368Y013499D02*
X017368Y013146D01*
X017368Y012438D02*
X017015Y012438D01*
X017368Y012438D02*
X017368Y011024D01*
X017015Y011024D02*
X017722Y011024D01*
X018549Y011024D02*
X018549Y012438D01*
X018549Y011731D02*
X019256Y012438D01*
X019610Y012438D01*
X020467Y012085D02*
X020467Y011377D01*
X020821Y011024D01*
X021882Y011024D01*
X022769Y011377D02*
X023123Y011024D01*
X024184Y011024D01*
X024184Y012438D01*
X025071Y012438D02*
X025425Y012438D01*
X025425Y011024D01*
X025071Y011024D02*
X025779Y011024D01*
X026959Y011377D02*
X027313Y011024D01*
X026959Y011377D02*
X026959Y012792D01*
X026606Y012438D02*
X027313Y012438D01*
X028140Y012085D02*
X028494Y012438D01*
X029555Y012438D01*
X029201Y011731D02*
X028494Y011731D01*
X028140Y012085D01*
X029201Y011731D02*
X029555Y011377D01*
X029201Y011024D01*
X028140Y011024D01*
X025425Y013146D02*
X025425Y013499D01*
X022769Y012438D02*
X022769Y011377D01*
X021882Y012438D02*
X020821Y012438D01*
X020467Y012085D01*
X016127Y012438D02*
X015066Y012438D01*
X014713Y012085D01*
X014713Y011377D01*
X015066Y011024D01*
X016127Y011024D01*
D15*
X016214Y010035D02*
X016214Y009810D01*
X016214Y009359D02*
X016214Y008459D01*
X015989Y008459D02*
X016439Y008459D01*
X016909Y008684D02*
X017135Y008459D01*
X017810Y008459D01*
X017810Y008234D02*
X017810Y009359D01*
X017135Y009359D01*
X016909Y009134D01*
X016909Y008684D01*
X017585Y008008D02*
X017810Y008234D01*
X017585Y008008D02*
X017360Y008008D01*
X018291Y008459D02*
X018291Y009810D01*
X018516Y009359D02*
X018966Y009359D01*
X019191Y009134D01*
X019191Y008459D01*
X019897Y008684D02*
X020122Y008459D01*
X019897Y008684D02*
X019897Y009585D01*
X019672Y009359D02*
X020122Y009359D01*
X020593Y009359D02*
X020593Y008684D01*
X020818Y008459D01*
X021493Y008459D01*
X021493Y009359D01*
X021974Y009359D02*
X022199Y009359D01*
X022199Y008459D01*
X021974Y008459D02*
X022424Y008459D01*
X022894Y008459D02*
X022894Y009359D01*
X023570Y009359D01*
X023795Y009134D01*
X023795Y008459D01*
X024276Y008684D02*
X024501Y008459D01*
X024951Y008459D01*
X025176Y008684D01*
X025176Y009134D01*
X024951Y009359D01*
X024501Y009359D01*
X024276Y009134D01*
X024276Y008684D01*
X022199Y009810D02*
X022199Y010035D01*
X018516Y009359D02*
X018291Y009134D01*
X016214Y009359D02*
X015989Y009359D01*
X015508Y008459D02*
X014608Y008459D01*
X014608Y009810D01*
X027038Y009810D02*
X027038Y009134D01*
X027488Y009359D01*
X027713Y009359D01*
X027939Y009134D01*
X027939Y008684D01*
X027713Y008459D01*
X027263Y008459D01*
X027038Y008684D01*
X027038Y009810D02*
X027939Y009810D01*
D16*
X015423Y016929D02*
X011433Y016929D01*
X013428Y016929D02*
X013428Y010944D01*
D17*
X013427Y007244D02*
X012813Y006324D01*
X013887Y006477D02*
X014040Y006324D01*
X013887Y006477D02*
X013887Y007091D01*
X013734Y006938D02*
X014040Y006938D01*
X014347Y006784D02*
X014347Y006477D01*
X014501Y006324D01*
X014808Y006324D01*
X014961Y006477D01*
X014961Y006784D01*
X014808Y006938D01*
X014501Y006938D01*
X014347Y006784D01*
X015268Y006477D02*
X015422Y006324D01*
X015882Y006324D01*
X015882Y006784D01*
X015729Y006938D01*
X015422Y006938D01*
X015422Y006631D02*
X015882Y006631D01*
X016189Y006784D02*
X016342Y006938D01*
X016803Y006938D01*
X017110Y006938D02*
X017417Y006938D01*
X017263Y007091D02*
X017263Y006477D01*
X017417Y006324D01*
X017723Y006477D02*
X017723Y006784D01*
X017877Y006938D01*
X018184Y006938D01*
X018337Y006784D01*
X018337Y006631D01*
X017723Y006631D01*
X017723Y006477D02*
X017877Y006324D01*
X018184Y006324D01*
X018644Y006477D02*
X018644Y006784D01*
X018798Y006938D01*
X019258Y006938D01*
X019258Y007244D02*
X019258Y006324D01*
X018798Y006324D01*
X018644Y006477D01*
X019565Y006477D02*
X019718Y006324D01*
X020179Y006324D01*
X020486Y006324D02*
X020793Y006324D01*
X020639Y006324D02*
X020639Y006938D01*
X020486Y006938D01*
X020179Y006938D02*
X019718Y006938D01*
X019565Y006784D01*
X019565Y006477D01*
X020639Y007244D02*
X020639Y007398D01*
X021100Y006938D02*
X021100Y006324D01*
X021100Y006631D02*
X021406Y006938D01*
X021560Y006938D01*
X021867Y006784D02*
X021867Y006477D01*
X022020Y006324D01*
X022481Y006324D01*
X022788Y006477D02*
X022941Y006324D01*
X023401Y006324D01*
X023401Y006938D01*
X023708Y006938D02*
X023862Y006938D01*
X023862Y006324D01*
X024015Y006324D02*
X023708Y006324D01*
X024476Y006477D02*
X024629Y006324D01*
X024476Y006477D02*
X024476Y007091D01*
X024629Y006938D02*
X024322Y006938D01*
X024936Y006784D02*
X025089Y006938D01*
X025550Y006938D01*
X025396Y006631D02*
X025089Y006631D01*
X024936Y006784D01*
X025396Y006631D02*
X025550Y006477D01*
X025396Y006324D01*
X024936Y006324D01*
X025857Y006324D02*
X026010Y006324D01*
X026010Y006477D01*
X025857Y006477D01*
X025857Y006324D01*
X026317Y006477D02*
X026470Y006324D01*
X026931Y006324D01*
X026931Y006784D01*
X026777Y006938D01*
X026470Y006938D01*
X026470Y006631D02*
X026931Y006631D01*
X027238Y006324D02*
X027698Y006324D01*
X027852Y006477D01*
X027852Y006784D01*
X027698Y006938D01*
X027238Y006938D01*
X027238Y006017D01*
X028159Y006017D02*
X028159Y006938D01*
X028619Y006938D01*
X028772Y006784D01*
X028772Y006477D01*
X028619Y006324D01*
X028159Y006324D01*
X029079Y006324D02*
X029540Y006324D01*
X029693Y006477D01*
X029540Y006631D01*
X029233Y006631D01*
X029079Y006784D01*
X029233Y006938D01*
X029693Y006938D01*
X030000Y006938D02*
X030460Y006938D01*
X030614Y006784D01*
X030614Y006477D01*
X030460Y006324D01*
X030000Y006324D01*
X030000Y006017D02*
X030000Y006938D01*
X030921Y006784D02*
X030921Y006477D01*
X031074Y006324D01*
X031381Y006324D01*
X031535Y006477D01*
X031535Y006784D01*
X031381Y006938D01*
X031074Y006938D01*
X030921Y006784D01*
X031842Y006938D02*
X032148Y006938D01*
X031995Y007091D02*
X031995Y006477D01*
X032148Y006324D01*
X032455Y006324D02*
X032455Y006477D01*
X032609Y006477D01*
X032609Y006324D01*
X032455Y006324D01*
X032916Y006477D02*
X033069Y006324D01*
X033530Y006324D01*
X033836Y006477D02*
X033990Y006324D01*
X034297Y006324D01*
X034450Y006477D01*
X034450Y006784D01*
X034297Y006938D01*
X033990Y006938D01*
X033836Y006784D01*
X033836Y006477D01*
X033530Y006938D02*
X033069Y006938D01*
X032916Y006784D01*
X032916Y006477D01*
X034757Y006324D02*
X034757Y006938D01*
X034911Y006938D01*
X035064Y006784D01*
X035218Y006938D01*
X035371Y006784D01*
X035371Y006324D01*
X035064Y006324D02*
X035064Y006784D01*
X026470Y006631D02*
X026317Y006477D01*
X023862Y007244D02*
X023862Y007398D01*
X022788Y006938D02*
X022788Y006477D01*
X022481Y006938D02*
X022020Y006938D01*
X021867Y006784D01*
X016803Y006477D02*
X016649Y006631D01*
X016342Y006631D01*
X016189Y006784D01*
X016189Y006324D02*
X016649Y006324D01*
X016803Y006477D01*
X015422Y006631D02*
X015268Y006477D01*
X012506Y007244D02*
X011892Y006324D01*
X011585Y006324D02*
X011432Y006324D01*
X011432Y006477D01*
X011585Y006477D01*
X011585Y006324D01*
X011585Y006784D02*
X011432Y006784D01*
X011432Y006938D01*
X011585Y006938D01*
X011585Y006784D01*
X011125Y006784D02*
X011125Y006477D01*
X010971Y006324D01*
X010511Y006324D01*
X010204Y006324D02*
X010051Y006477D01*
X010051Y007091D01*
X010204Y006938D02*
X009897Y006938D01*
X009590Y006938D02*
X009283Y006938D01*
X009437Y007091D02*
X009437Y006477D01*
X009590Y006324D01*
X008976Y006324D02*
X008976Y006784D01*
X008823Y006938D01*
X008516Y006938D01*
X008363Y006784D01*
X008363Y007244D02*
X008363Y006324D01*
X010511Y006017D02*
X010511Y006938D01*
X010971Y006938D01*
X011125Y006784D01*
X006466Y017828D02*
X005836Y017828D01*
X006466Y017828D02*
X006466Y023458D01*
X003080Y023458D01*
X003080Y020328D01*
X003080Y018458D02*
X003080Y017828D01*
X003710Y017828D01*
X006833Y020854D02*
X006583Y021104D01*
X006583Y021604D01*
X006833Y021854D01*
X007333Y021854D01*
X007583Y022104D01*
X007833Y021854D01*
X008333Y021854D01*
X008583Y022104D01*
X008583Y022604D01*
X008333Y022854D01*
X007833Y022854D01*
X007583Y022604D01*
X007333Y022854D01*
X006833Y022854D01*
X006583Y022604D01*
X006583Y022104D01*
X006833Y021854D01*
X007333Y021854D01*
X007583Y021604D01*
X007833Y021854D01*
X008333Y021854D01*
X008583Y021604D01*
X008583Y021104D01*
X008333Y020854D01*
X007833Y020854D01*
X007583Y021104D01*
X007333Y020854D01*
X006833Y020854D01*
D18*
X005629Y019974D02*
X005322Y019667D01*
X005399Y019744D02*
X005629Y019514D01*
X005322Y019514D02*
X005322Y019974D01*
X005169Y019897D02*
X005092Y019974D01*
X004938Y019974D01*
X004862Y019897D01*
X004862Y019590D01*
X004938Y019514D01*
X005092Y019514D01*
X005169Y019590D01*
X004708Y019514D02*
X004708Y019821D01*
X004555Y019974D01*
X004401Y019821D01*
X004401Y019514D01*
X004401Y019744D02*
X004708Y019744D01*
X004248Y019974D02*
X004094Y019974D01*
X004171Y019974D02*
X004171Y019590D01*
X004094Y019514D01*
X004018Y019514D01*
X003941Y019590D01*
X017699Y001704D02*
X017793Y001704D01*
X017839Y001657D01*
X017839Y001611D01*
X017793Y001564D01*
X017699Y001564D01*
X017653Y001611D01*
X017653Y001657D01*
X017699Y001704D01*
X017699Y001564D02*
X017653Y001517D01*
X017653Y001470D01*
X017699Y001424D01*
X017793Y001424D01*
X017839Y001470D01*
X017839Y001517D01*
X017793Y001564D01*
X018242Y001517D02*
X018382Y001517D01*
X018429Y001564D01*
X018429Y001657D01*
X018382Y001704D01*
X018242Y001704D01*
X018242Y001424D01*
X018537Y001470D02*
X018583Y001424D01*
X018677Y001424D01*
X018723Y001470D01*
X018723Y001657D01*
X018677Y001704D01*
X018583Y001704D01*
X018537Y001657D01*
X018537Y001611D01*
X018583Y001564D01*
X018723Y001564D01*
X019126Y001517D02*
X019266Y001517D01*
X019313Y001564D01*
X019313Y001657D01*
X019266Y001704D01*
X019126Y001704D01*
X019126Y001424D01*
X019420Y001424D02*
X019607Y001424D01*
X019514Y001424D02*
X019514Y001704D01*
X019420Y001611D01*
X019715Y001657D02*
X019762Y001704D01*
X019855Y001704D01*
X019902Y001657D01*
X019715Y001470D01*
X019762Y001424D01*
X019855Y001424D01*
X019902Y001470D01*
X019902Y001657D01*
X019715Y001657D02*
X019715Y001470D01*
X020304Y001424D02*
X020304Y001704D01*
X020445Y001704D01*
X020491Y001657D01*
X020491Y001564D01*
X020445Y001517D01*
X020304Y001517D01*
X020599Y001424D02*
X020786Y001424D01*
X020692Y001424D02*
X020692Y001704D01*
X020599Y001611D01*
X020894Y001611D02*
X020987Y001704D01*
X020987Y001424D01*
X020894Y001424D02*
X021081Y001424D01*
X021483Y001424D02*
X021670Y001424D01*
X021576Y001424D02*
X021576Y001704D01*
X021483Y001611D01*
X021778Y001657D02*
X021824Y001704D01*
X021918Y001704D01*
X021964Y001657D01*
X021964Y001611D01*
X021778Y001424D01*
X021964Y001424D01*
X022662Y001424D02*
X022848Y001424D01*
X022755Y001424D02*
X022755Y001704D01*
X022662Y001611D01*
X022956Y001657D02*
X023003Y001704D01*
X023096Y001704D01*
X023143Y001657D01*
X023143Y001611D01*
X023096Y001564D01*
X023143Y001517D01*
X023143Y001470D01*
X023096Y001424D01*
X023003Y001424D01*
X022956Y001470D01*
X023050Y001564D02*
X023096Y001564D01*
X023546Y001657D02*
X023592Y001704D01*
X023686Y001704D01*
X023732Y001657D01*
X023732Y001564D02*
X023639Y001564D01*
X023732Y001564D02*
X023732Y001470D01*
X023686Y001424D01*
X023592Y001424D01*
X023546Y001470D01*
X023546Y001657D01*
X023840Y001704D02*
X023840Y001424D01*
X024027Y001424D02*
X024027Y001704D01*
X024135Y001704D02*
X024275Y001704D01*
X024322Y001657D01*
X024322Y001470D01*
X024275Y001424D01*
X024135Y001424D01*
X024135Y001704D01*
X023840Y001704D02*
X024027Y001424D01*
X024724Y001424D02*
X024724Y001611D01*
X024817Y001704D01*
X024911Y001611D01*
X024911Y001424D01*
X025019Y001424D02*
X025019Y001704D01*
X025159Y001704D01*
X025206Y001657D01*
X025206Y001564D01*
X025159Y001517D01*
X025019Y001517D01*
X025112Y001517D02*
X025206Y001424D01*
X025313Y001424D02*
X025500Y001424D01*
X025608Y001424D02*
X025608Y001704D01*
X025795Y001704D01*
X025701Y001564D02*
X025608Y001564D01*
X025500Y001704D02*
X025313Y001704D01*
X025313Y001424D01*
X025313Y001564D02*
X025407Y001564D01*
X024911Y001564D02*
X024724Y001564D01*
D19*
X038913Y001934D02*
X039083Y001604D01*
X039083Y001704D01*
X039083Y001604D02*
X039253Y001934D01*
X038913Y001934D01*
X019633Y016604D02*
X019533Y016604D01*
X019483Y016654D01*
X018583Y016654D01*
X018533Y016604D01*
X018433Y016604D01*
X018416Y016606D01*
X018399Y016610D01*
X018383Y016617D01*
X018369Y016627D01*
X018356Y016640D01*
X018346Y016654D01*
X018339Y016670D01*
X018335Y016687D01*
X018333Y016704D01*
X018333Y017204D02*
X018335Y017221D01*
X018339Y017238D01*
X018346Y017254D01*
X018356Y017268D01*
X018369Y017281D01*
X018383Y017291D01*
X018399Y017298D01*
X018416Y017302D01*
X018433Y017304D01*
X018533Y017304D01*
X018583Y017254D01*
X019483Y017254D01*
X019533Y017304D01*
X019633Y017304D01*
X019533Y017304D01*
X019483Y017354D01*
X018583Y017354D01*
X018533Y017304D01*
X018433Y017304D01*
X018416Y017306D01*
X018399Y017310D01*
X018383Y017317D01*
X018369Y017327D01*
X018356Y017340D01*
X018346Y017354D01*
X018339Y017370D01*
X018335Y017387D01*
X018333Y017404D01*
X018333Y017904D02*
X018335Y017921D01*
X018339Y017938D01*
X018346Y017954D01*
X018356Y017968D01*
X018369Y017981D01*
X018383Y017991D01*
X018399Y017998D01*
X018416Y018002D01*
X018433Y018004D01*
X018533Y018004D01*
X018583Y017954D01*
X019483Y017954D01*
X019533Y018004D01*
X019633Y018004D01*
X019533Y018004D01*
X019483Y018054D01*
X018583Y018054D01*
X018533Y018004D01*
X018433Y018004D01*
X018416Y018006D01*
X018399Y018010D01*
X018383Y018017D01*
X018369Y018027D01*
X018356Y018040D01*
X018346Y018054D01*
X018339Y018070D01*
X018335Y018087D01*
X018333Y018104D01*
X018333Y018604D02*
X018335Y018621D01*
X018339Y018638D01*
X018346Y018654D01*
X018356Y018668D01*
X018369Y018681D01*
X018383Y018691D01*
X018399Y018698D01*
X018416Y018702D01*
X018433Y018704D01*
X018533Y018704D01*
X018583Y018654D01*
X019483Y018654D01*
X019533Y018704D01*
X019633Y018704D01*
X019533Y018704D01*
X019483Y018754D01*
X018583Y018754D01*
X018533Y018704D01*
X018433Y018704D01*
X018416Y018706D01*
X018399Y018710D01*
X018383Y018717D01*
X018369Y018727D01*
X018356Y018740D01*
X018346Y018754D01*
X018339Y018770D01*
X018335Y018787D01*
X018333Y018804D01*
X018333Y019304D02*
X018335Y019321D01*
X018339Y019338D01*
X018346Y019354D01*
X018356Y019368D01*
X018369Y019381D01*
X018383Y019391D01*
X018399Y019398D01*
X018416Y019402D01*
X018433Y019404D01*
X018533Y019404D01*
X018583Y019354D01*
X019483Y019354D01*
X019533Y019404D01*
X019633Y019404D01*
X019650Y019402D01*
X019667Y019398D01*
X019683Y019391D01*
X019697Y019381D01*
X019710Y019368D01*
X019720Y019354D01*
X019727Y019338D01*
X019731Y019321D01*
X019733Y019304D01*
X019733Y018804D02*
X019731Y018787D01*
X019727Y018770D01*
X019720Y018754D01*
X019710Y018740D01*
X019697Y018727D01*
X019683Y018717D01*
X019667Y018710D01*
X019650Y018706D01*
X019633Y018704D01*
X019650Y018702D01*
X019667Y018698D01*
X019683Y018691D01*
X019697Y018681D01*
X019710Y018668D01*
X019720Y018654D01*
X019727Y018638D01*
X019731Y018621D01*
X019733Y018604D01*
X019733Y018104D02*
X019731Y018087D01*
X019727Y018070D01*
X019720Y018054D01*
X019710Y018040D01*
X019697Y018027D01*
X019683Y018017D01*
X019667Y018010D01*
X019650Y018006D01*
X019633Y018004D01*
X019650Y018002D01*
X019667Y017998D01*
X019683Y017991D01*
X019697Y017981D01*
X019710Y017968D01*
X019720Y017954D01*
X019727Y017938D01*
X019731Y017921D01*
X019733Y017904D01*
X019733Y017404D02*
X019731Y017387D01*
X019727Y017370D01*
X019720Y017354D01*
X019710Y017340D01*
X019697Y017327D01*
X019683Y017317D01*
X019667Y017310D01*
X019650Y017306D01*
X019633Y017304D01*
X019650Y017302D01*
X019667Y017298D01*
X019683Y017291D01*
X019697Y017281D01*
X019710Y017268D01*
X019720Y017254D01*
X019727Y017238D01*
X019731Y017221D01*
X019733Y017204D01*
X019733Y016704D02*
X019731Y016687D01*
X019727Y016670D01*
X019720Y016654D01*
X019710Y016640D01*
X019697Y016627D01*
X019683Y016617D01*
X019667Y016610D01*
X019650Y016606D01*
X019633Y016604D01*
X017033Y016604D02*
X016933Y016604D01*
X016883Y016654D01*
X015983Y016654D01*
X015933Y016604D01*
X015833Y016604D01*
X015816Y016606D01*
X015799Y016610D01*
X015783Y016617D01*
X015769Y016627D01*
X015756Y016640D01*
X015746Y016654D01*
X015739Y016670D01*
X015735Y016687D01*
X015733Y016704D01*
X015733Y017204D02*
X015735Y017221D01*
X015739Y017238D01*
X015746Y017254D01*
X015756Y017268D01*
X015769Y017281D01*
X015783Y017291D01*
X015799Y017298D01*
X015816Y017302D01*
X015833Y017304D01*
X015933Y017304D01*
X015983Y017254D01*
X016883Y017254D01*
X016933Y017304D01*
X017033Y017304D01*
X016933Y017304D01*
X016883Y017354D01*
X015983Y017354D01*
X015933Y017304D01*
X015833Y017304D01*
X015816Y017306D01*
X015799Y017310D01*
X015783Y017317D01*
X015769Y017327D01*
X015756Y017340D01*
X015746Y017354D01*
X015739Y017370D01*
X015735Y017387D01*
X015733Y017404D01*
X015733Y017904D02*
X015735Y017921D01*
X015739Y017938D01*
X015746Y017954D01*
X015756Y017968D01*
X015769Y017981D01*
X015783Y017991D01*
X015799Y017998D01*
X015816Y018002D01*
X015833Y018004D01*
X015933Y018004D01*
X015983Y017954D01*
X016883Y017954D01*
X016933Y018004D01*
X017033Y018004D01*
X016933Y018004D01*
X016883Y018054D01*
X015983Y018054D01*
X015933Y018004D01*
X015833Y018004D01*
X015816Y018006D01*
X015799Y018010D01*
X015783Y018017D01*
X015769Y018027D01*
X015756Y018040D01*
X015746Y018054D01*
X015739Y018070D01*
X015735Y018087D01*
X015733Y018104D01*
X015733Y018604D02*
X015735Y018621D01*
X015739Y018638D01*
X015746Y018654D01*
X015756Y018668D01*
X015769Y018681D01*
X015783Y018691D01*
X015799Y018698D01*
X015816Y018702D01*
X015833Y018704D01*
X015933Y018704D01*
X015983Y018654D01*
X016883Y018654D01*
X016933Y018704D01*
X017033Y018704D01*
X016933Y018704D01*
X016883Y018754D01*
X015983Y018754D01*
X015933Y018704D01*
X015833Y018704D01*
X015816Y018706D01*
X015799Y018710D01*
X015783Y018717D01*
X015769Y018727D01*
X015756Y018740D01*
X015746Y018754D01*
X015739Y018770D01*
X015735Y018787D01*
X015733Y018804D01*
X015733Y019304D02*
X015735Y019321D01*
X015739Y019338D01*
X015746Y019354D01*
X015756Y019368D01*
X015769Y019381D01*
X015783Y019391D01*
X015799Y019398D01*
X015816Y019402D01*
X015833Y019404D01*
X015933Y019404D01*
X015983Y019354D01*
X016883Y019354D01*
X016933Y019404D01*
X017033Y019404D01*
X017050Y019402D01*
X017067Y019398D01*
X017083Y019391D01*
X017097Y019381D01*
X017110Y019368D01*
X017120Y019354D01*
X017127Y019338D01*
X017131Y019321D01*
X017133Y019304D01*
X017133Y018804D02*
X017131Y018787D01*
X017127Y018770D01*
X017120Y018754D01*
X017110Y018740D01*
X017097Y018727D01*
X017083Y018717D01*
X017067Y018710D01*
X017050Y018706D01*
X017033Y018704D01*
X017050Y018702D01*
X017067Y018698D01*
X017083Y018691D01*
X017097Y018681D01*
X017110Y018668D01*
X017120Y018654D01*
X017127Y018638D01*
X017131Y018621D01*
X017133Y018604D01*
X017133Y018104D02*
X017131Y018087D01*
X017127Y018070D01*
X017120Y018054D01*
X017110Y018040D01*
X017097Y018027D01*
X017083Y018017D01*
X017067Y018010D01*
X017050Y018006D01*
X017033Y018004D01*
X017050Y018002D01*
X017067Y017998D01*
X017083Y017991D01*
X017097Y017981D01*
X017110Y017968D01*
X017120Y017954D01*
X017127Y017938D01*
X017131Y017921D01*
X017133Y017904D01*
X017133Y017404D02*
X017131Y017387D01*
X017127Y017370D01*
X017120Y017354D01*
X017110Y017340D01*
X017097Y017327D01*
X017083Y017317D01*
X017067Y017310D01*
X017050Y017306D01*
X017033Y017304D01*
X017050Y017302D01*
X017067Y017298D01*
X017083Y017291D01*
X017097Y017281D01*
X017110Y017268D01*
X017120Y017254D01*
X017127Y017238D01*
X017131Y017221D01*
X017133Y017204D01*
X017133Y016704D02*
X017131Y016687D01*
X017127Y016670D01*
X017120Y016654D01*
X017110Y016640D01*
X017097Y016627D01*
X017083Y016617D01*
X017067Y016610D01*
X017050Y016606D01*
X017033Y016604D01*
X015333Y020854D02*
X014833Y020854D01*
X014583Y021104D01*
X014583Y021604D01*
X014833Y021854D01*
X015333Y021854D01*
X015583Y021604D01*
X015583Y021104D01*
X015333Y020854D01*
X027283Y021764D02*
X027283Y022864D01*
X027285Y022881D01*
X027289Y022898D01*
X027296Y022914D01*
X027306Y022928D01*
X027319Y022941D01*
X027333Y022951D01*
X027349Y022958D01*
X027366Y022962D01*
X027383Y022964D01*
X027983Y022964D01*
X028000Y022962D01*
X028017Y022958D01*
X028033Y022951D01*
X028047Y022941D01*
X028060Y022928D01*
X028070Y022914D01*
X028077Y022898D01*
X028081Y022881D01*
X028083Y022864D01*
X028083Y021764D01*
X028081Y021747D01*
X028077Y021730D01*
X028070Y021714D01*
X028060Y021700D01*
X028047Y021687D01*
X028033Y021677D01*
X028017Y021670D01*
X028000Y021666D01*
X027983Y021664D01*
X027383Y021664D01*
X027366Y021666D01*
X027349Y021670D01*
X027333Y021677D01*
X027319Y021687D01*
X027306Y021700D01*
X027296Y021714D01*
X027289Y021730D01*
X027285Y021747D01*
X027283Y021764D01*
X028593Y021114D02*
X028843Y020864D01*
X029343Y020864D01*
X029593Y021114D01*
X029843Y020864D01*
X030343Y020864D01*
X030593Y021114D01*
X030843Y020864D01*
X031343Y020864D01*
X031593Y021114D01*
X031843Y020864D01*
X032343Y020864D01*
X032593Y021114D01*
X032843Y020864D01*
X033343Y020864D01*
X033593Y021114D01*
X033843Y020864D01*
X034343Y020864D01*
X034593Y021114D01*
X034843Y020864D01*
X035343Y020864D01*
X035593Y021114D01*
X035843Y020864D01*
X036343Y020864D01*
X036593Y021114D01*
X036593Y022614D01*
X036343Y022864D01*
X035843Y022864D01*
X035593Y022614D01*
X035343Y022864D01*
X034843Y022864D01*
X034593Y022614D01*
X034343Y022864D01*
X033843Y022864D01*
X033593Y022614D01*
X033343Y022864D01*
X032843Y022864D01*
X032593Y022614D01*
X032343Y022864D01*
X031843Y022864D01*
X031593Y022614D01*
X031343Y022864D01*
X030843Y022864D01*
X030593Y022614D01*
X030343Y022864D01*
X029843Y022864D01*
X029593Y022614D01*
X029343Y022864D01*
X028843Y022864D01*
X028593Y022614D01*
X028593Y021114D01*
X009586Y012588D02*
X009586Y012088D01*
X009336Y011838D01*
X007836Y011838D01*
X007586Y012088D01*
X007586Y012588D01*
X007836Y012838D01*
X009336Y012838D01*
X009586Y012588D01*
X009336Y011838D02*
X009586Y011588D01*
X009586Y011088D01*
X009336Y010838D01*
X007836Y010838D01*
X007586Y011088D01*
X007586Y011588D01*
X007836Y011838D01*
X007836Y010838D02*
X007586Y010588D01*
X007586Y010088D01*
X007836Y009838D01*
X009336Y009838D01*
X009586Y010088D01*
X009586Y010588D01*
X009336Y010838D01*
X002003Y001934D02*
X001663Y001934D01*
X001833Y001604D01*
X001833Y001704D01*
X001833Y001604D02*
X002003Y001934D01*
X004723Y001754D02*
X004723Y001220D01*
X004829Y001114D01*
X005043Y001114D01*
X005150Y001220D01*
X005150Y001754D01*
X005367Y001647D02*
X005367Y001541D01*
X005474Y001434D01*
X005687Y001434D01*
X005794Y001327D01*
X005794Y001220D01*
X005687Y001114D01*
X005474Y001114D01*
X005367Y001220D01*
X005367Y001647D02*
X005474Y001754D01*
X005687Y001754D01*
X005794Y001647D01*
X006012Y001754D02*
X006332Y001754D01*
X006439Y001647D01*
X006439Y001541D01*
X006332Y001434D01*
X006012Y001434D01*
X006332Y001434D02*
X006439Y001327D01*
X006439Y001220D01*
X006332Y001114D01*
X006012Y001114D01*
X006012Y001754D01*
D20*
X001833Y001814D03*
X039083Y001814D03*
D21*
X039158Y001889D03*
X039008Y001889D03*
X001908Y001889D03*
X001758Y001889D03*
D22*
X001833Y001734D03*
X039083Y001734D03*
D23*
X016599Y001590D02*
X016449Y001590D01*
X016524Y001590D02*
X016524Y001139D01*
X016449Y001139D02*
X016599Y001139D01*
X016289Y001214D02*
X016289Y001514D01*
X016213Y001590D01*
X015988Y001590D01*
X015988Y001139D01*
X016213Y001139D01*
X016289Y001214D01*
X015828Y001590D02*
X015528Y001590D01*
X015678Y001590D02*
X015678Y001139D01*
X015218Y001364D02*
X015068Y001364D01*
X015068Y001139D02*
X015068Y001590D01*
X015368Y001590D01*
X009098Y013083D02*
X009098Y013533D01*
X009323Y013533D01*
X009399Y013458D01*
X009399Y013308D01*
X009323Y013233D01*
X009098Y013233D01*
X008938Y013233D02*
X008938Y013158D01*
X008863Y013083D01*
X008713Y013083D01*
X008638Y013158D01*
X008478Y013158D02*
X008403Y013083D01*
X008253Y013083D01*
X008178Y013158D01*
X008178Y013458D01*
X008253Y013533D01*
X008403Y013533D01*
X008478Y013458D01*
X008638Y013458D02*
X008638Y013383D01*
X008713Y013308D01*
X008863Y013308D01*
X008938Y013233D01*
X008938Y013458D02*
X008863Y013533D01*
X008713Y013533D01*
X008638Y013458D01*
X008021Y013533D02*
X007871Y013533D01*
X007946Y013533D02*
X007946Y013083D01*
X007871Y013083D02*
X008021Y013083D01*
X028918Y020239D02*
X029218Y020239D01*
X029068Y020239D02*
X029068Y020689D01*
X028918Y020539D01*
X029533Y019349D02*
X029458Y019274D01*
X029458Y019199D01*
X029533Y019124D01*
X029683Y019124D01*
X029758Y019049D01*
X029758Y018974D01*
X029683Y018899D01*
X029533Y018899D01*
X029458Y018974D01*
X029758Y019274D02*
X029683Y019349D01*
X029533Y019349D01*
X029918Y019124D02*
X029918Y018974D01*
X029993Y018899D01*
X030143Y018899D01*
X030218Y018974D01*
X030218Y019124D01*
X030143Y019199D01*
X029993Y019199D01*
X029918Y019124D01*
X030378Y019199D02*
X030378Y018974D01*
X030453Y018899D01*
X030679Y018899D01*
X030679Y019199D01*
X030839Y019199D02*
X030839Y018899D01*
X030839Y019049D02*
X030989Y019199D01*
X031064Y019199D01*
X031222Y019124D02*
X031222Y018974D01*
X031297Y018899D01*
X031523Y018899D01*
X031683Y018974D02*
X031683Y019124D01*
X031758Y019199D01*
X031908Y019199D01*
X031983Y019124D01*
X031983Y019049D01*
X031683Y019049D01*
X031683Y018974D02*
X031758Y018899D01*
X031908Y018899D01*
X031523Y019199D02*
X031297Y019199D01*
X031222Y019124D01*
X032603Y019124D02*
X032603Y018974D01*
X032678Y018899D01*
X032904Y018899D01*
X032904Y019349D01*
X032904Y019199D02*
X032678Y019199D01*
X032603Y019124D01*
X033064Y019199D02*
X033064Y018899D01*
X033064Y019049D02*
X033214Y019199D01*
X033289Y019199D01*
X033447Y019199D02*
X033522Y019199D01*
X033522Y018899D01*
X033447Y018899D02*
X033597Y018899D01*
X033904Y018899D02*
X033754Y019199D01*
X033522Y019349D02*
X033522Y019424D01*
X034054Y019199D02*
X033904Y018899D01*
X034215Y018974D02*
X034215Y019124D01*
X034290Y019199D01*
X034440Y019199D01*
X034515Y019124D01*
X034515Y019049D01*
X034215Y019049D01*
X034215Y018974D02*
X034290Y018899D01*
X034440Y018899D01*
X034675Y018899D02*
X034675Y019199D01*
X034825Y019199D02*
X034900Y019199D01*
X034825Y019199D02*
X034675Y019049D01*
X035618Y023039D02*
X035918Y023039D01*
X035768Y023039D02*
X035768Y023489D01*
X035618Y023339D01*
X036078Y023264D02*
X036303Y023264D01*
X036378Y023189D01*
X036378Y023114D01*
X036303Y023039D01*
X036153Y023039D01*
X036078Y023114D01*
X036078Y023264D01*
X036228Y023414D01*
X036378Y023489D01*
D24*
X033153Y001582D03*
X032612Y001582D03*
X031653Y001582D03*
X031112Y001582D03*
X030243Y001562D03*
X029702Y001562D03*
D25*
X029973Y001715D03*
X031383Y001735D03*
X032883Y001735D03*
M02*
