G75*
G70*
%OFA0B0*%
%FSLAX24Y24*%
%IPPOS*%
%LPD*%
%AMOC8*
5,1,8,0,0,1.08239X$1,22.5*
%
%ADD10R,0.0316X0.0946*%
%ADD11R,0.0946X0.0316*%
%ADD12OC8,0.0580*%
%ADD13C,0.1340*%
%ADD14R,0.0540X0.0710*%
%ADD15C,0.0620*%
%ADD16OC8,0.0620*%
%ADD17C,0.0867*%
%ADD18R,0.0474X0.0513*%
%ADD19R,0.0513X0.0474*%
%ADD20C,0.0099*%
%ADD21R,0.1280X0.1280*%
%ADD22OC8,0.0680*%
%ADD23OC8,0.0740*%
%ADD24R,0.0900X0.1580*%
%ADD25R,0.4580X0.3580*%
%ADD26C,0.0680*%
%ADD27OC8,0.0560*%
%ADD28OC8,0.0434*%
%ADD29R,0.0580X0.0330*%
%ADD30R,0.0500X0.0300*%
%ADD31R,0.0671X0.0474*%
%ADD32R,0.0592X0.0493*%
%ADD33C,0.0552*%
%ADD34OC8,0.0552*%
%ADD35R,0.0060X0.0720*%
%ADD36R,0.0710X0.0540*%
%ADD37R,0.0720X0.0060*%
%ADD38C,0.0198*%
%ADD39R,0.0198X0.0375*%
%ADD40C,0.0095*%
%ADD41R,0.0370X0.0190*%
%ADD42C,0.0057*%
%ADD43R,0.0375X0.0198*%
%ADD44R,0.0867X0.1064*%
%ADD45C,0.0474*%
%ADD46R,0.0277X0.0867*%
%ADD47OC8,0.0480*%
%ADD48R,0.0530X0.0330*%
%ADD49R,0.0474X0.0631*%
%ADD50R,0.0671X0.0592*%
D10*
X013043Y007815D03*
X013543Y007815D03*
X014043Y007815D03*
X014543Y007815D03*
X015043Y007815D03*
X015543Y007815D03*
X016043Y007815D03*
X016543Y007815D03*
X017043Y007815D03*
X017543Y007815D03*
X018043Y007815D03*
X018043Y014193D03*
X017543Y014193D03*
X017043Y014193D03*
X016543Y014193D03*
X016043Y014193D03*
X015543Y014193D03*
X015043Y014193D03*
X014543Y014193D03*
X014043Y014193D03*
X013543Y014193D03*
X013043Y014193D03*
X029333Y013043D03*
X029833Y013043D03*
X030333Y013043D03*
X030833Y013043D03*
X031333Y013043D03*
X031833Y013043D03*
X032333Y013043D03*
X032833Y013043D03*
X033333Y013043D03*
X033833Y013043D03*
X034333Y013043D03*
X034333Y006665D03*
X033833Y006665D03*
X033333Y006665D03*
X032833Y006665D03*
X032333Y006665D03*
X031833Y006665D03*
X031333Y006665D03*
X030833Y006665D03*
X030333Y006665D03*
X029833Y006665D03*
X029333Y006665D03*
D11*
X028644Y007354D03*
X028644Y007854D03*
X028644Y008354D03*
X028644Y008854D03*
X028644Y009354D03*
X028644Y009854D03*
X028644Y010354D03*
X028644Y010854D03*
X028644Y011354D03*
X028644Y011854D03*
X028644Y012354D03*
X024446Y010204D03*
X024446Y009704D03*
X024446Y009204D03*
X024446Y008704D03*
X022399Y008704D03*
X022399Y009204D03*
X022399Y009704D03*
X022399Y010204D03*
X018732Y010004D03*
X018732Y010504D03*
X018732Y011004D03*
X018732Y011504D03*
X018732Y012004D03*
X018732Y012504D03*
X018732Y013004D03*
X018732Y013504D03*
X012354Y013504D03*
X012354Y013004D03*
X012354Y012504D03*
X012354Y012004D03*
X012354Y011504D03*
X012354Y011004D03*
X012354Y010504D03*
X012354Y010004D03*
X012354Y009504D03*
X012354Y009004D03*
X012354Y008504D03*
X018732Y008504D03*
X018732Y009004D03*
X018732Y009504D03*
X027772Y015834D03*
X027772Y016334D03*
X027772Y016834D03*
X027772Y017334D03*
X027772Y017834D03*
X027772Y018334D03*
X027772Y018834D03*
X027772Y019334D03*
X031394Y019334D03*
X031394Y018834D03*
X031394Y018334D03*
X031394Y017834D03*
X031394Y017334D03*
X031394Y016834D03*
X031394Y016334D03*
X031394Y015834D03*
X033152Y015844D03*
X033152Y016344D03*
X033152Y016844D03*
X033152Y017344D03*
X033152Y017844D03*
X033152Y018344D03*
X033152Y018844D03*
X033152Y019344D03*
X036774Y019344D03*
X036774Y018844D03*
X036774Y018344D03*
X036774Y017844D03*
X036774Y017344D03*
X036774Y016844D03*
X036774Y016344D03*
X036774Y015844D03*
X035022Y012354D03*
X035022Y011854D03*
X035022Y011354D03*
X035022Y010854D03*
X035022Y010354D03*
X035022Y009854D03*
X035022Y009354D03*
X035022Y008854D03*
X035022Y008354D03*
X035022Y007854D03*
X035022Y007354D03*
D12*
X024833Y002354D03*
X023833Y002354D03*
X022833Y002354D03*
X021833Y002354D03*
X020833Y002354D03*
X019833Y002354D03*
X018833Y002354D03*
X017833Y002354D03*
X016083Y002354D03*
X015083Y002354D03*
X014083Y002354D03*
X013083Y002354D03*
X012083Y002354D03*
X011083Y002354D03*
X010083Y002354D03*
X009083Y002354D03*
X009083Y021354D03*
X010083Y021354D03*
X011083Y021354D03*
X012083Y021354D03*
X013083Y021354D03*
X014083Y021354D03*
X016083Y021354D03*
X017083Y021354D03*
X018083Y021354D03*
X019083Y021354D03*
X020083Y021354D03*
X021083Y021354D03*
D13*
X008083Y019354D03*
X008083Y008354D03*
X028083Y002354D03*
D14*
X008403Y018054D03*
X007803Y018054D03*
X013283Y020324D03*
X013883Y020324D03*
X016633Y020324D03*
X017233Y020324D03*
X017833Y020324D03*
D15*
X001833Y002354D03*
X039083Y002354D03*
D16*
X000833Y002354D03*
X000833Y003354D03*
X001833Y003354D03*
X001833Y004354D03*
X000833Y004354D03*
X000833Y005354D03*
X001833Y005354D03*
X001833Y006354D03*
X000833Y006354D03*
X000833Y007354D03*
X001833Y007354D03*
X001833Y008354D03*
X000833Y008354D03*
X000833Y009354D03*
X001833Y009354D03*
X001833Y010354D03*
X000833Y010354D03*
X000833Y011354D03*
X001833Y011354D03*
X001833Y012354D03*
X000833Y012354D03*
X000833Y013354D03*
X001833Y013354D03*
X001833Y014354D03*
X000833Y014354D03*
X000833Y015354D03*
X001833Y015354D03*
X001833Y016354D03*
X000833Y016354D03*
X000833Y017354D03*
X001833Y017354D03*
X001833Y018354D03*
X000833Y018354D03*
X000833Y019354D03*
X001833Y019354D03*
X001833Y020354D03*
X000833Y020354D03*
X000833Y021354D03*
X001833Y021354D03*
X038083Y021354D03*
X039083Y021354D03*
X039083Y020354D03*
X038083Y020354D03*
X038083Y019354D03*
X039083Y019354D03*
X039083Y018354D03*
X038083Y018354D03*
X038083Y017354D03*
X039083Y017354D03*
X039083Y016354D03*
X038083Y016354D03*
X038083Y015354D03*
X039083Y015354D03*
X039083Y014354D03*
X038083Y014354D03*
X038083Y013354D03*
X039083Y013354D03*
X039083Y012354D03*
X038083Y012354D03*
X038083Y011354D03*
X039083Y011354D03*
X039083Y010354D03*
X038083Y010354D03*
X038083Y009354D03*
X039083Y009354D03*
X039083Y008354D03*
X038083Y008354D03*
X038083Y007354D03*
X039083Y007354D03*
X039083Y006354D03*
X038083Y006354D03*
X038083Y005354D03*
X039083Y005354D03*
X039083Y004354D03*
X038083Y004354D03*
X038083Y003354D03*
X039083Y003354D03*
X038083Y002354D03*
D17*
X005166Y018143D02*
X004379Y018143D01*
X002883Y018970D02*
X002883Y019757D01*
X004379Y020545D02*
X005166Y020545D01*
D18*
X016118Y016914D03*
X016787Y016914D03*
X023353Y019859D03*
X023353Y020528D03*
X025593Y020518D03*
X025593Y019849D03*
X024143Y011768D03*
X024143Y011099D03*
X025753Y010858D03*
X025753Y010189D03*
X026333Y006258D03*
X026333Y005589D03*
X026343Y004978D03*
X026343Y004309D03*
X025123Y005589D03*
X025123Y006258D03*
X021113Y005608D03*
X021113Y004939D03*
X010183Y009939D03*
X010183Y010608D03*
X006587Y005614D03*
X005918Y005614D03*
X004983Y005588D03*
X004983Y004919D03*
X005918Y004714D03*
X006587Y004714D03*
X034093Y004578D03*
X034093Y003909D03*
D19*
X035333Y003889D03*
X035333Y004558D03*
X032843Y004598D03*
X032843Y003929D03*
X031363Y003909D03*
X031363Y004578D03*
X029953Y004588D03*
X029953Y003919D03*
X022467Y011184D03*
X021798Y011184D03*
X023763Y012519D03*
X023763Y013188D03*
X010173Y012338D03*
X010173Y011669D03*
X006353Y010468D03*
X006353Y009799D03*
X006247Y007584D03*
X005578Y007584D03*
D20*
X021978Y006093D02*
X022236Y006093D01*
X022236Y005993D01*
X021978Y005993D01*
X021978Y006093D01*
X021978Y006091D02*
X022236Y006091D01*
X022294Y006408D02*
X022394Y006408D01*
X022394Y006150D01*
X022294Y006150D01*
X022294Y006408D01*
X022294Y006248D02*
X022394Y006248D01*
X022394Y006346D02*
X022294Y006346D01*
X022490Y006408D02*
X022590Y006408D01*
X022590Y006150D01*
X022490Y006150D01*
X022490Y006408D01*
X022490Y006248D02*
X022590Y006248D01*
X022590Y006346D02*
X022490Y006346D01*
X022687Y006408D02*
X022787Y006408D01*
X022787Y006150D01*
X022687Y006150D01*
X022687Y006408D01*
X022687Y006248D02*
X022787Y006248D01*
X022787Y006346D02*
X022687Y006346D01*
X022884Y006408D02*
X022984Y006408D01*
X022984Y006150D01*
X022884Y006150D01*
X022884Y006408D01*
X022884Y006248D02*
X022984Y006248D01*
X022984Y006346D02*
X022884Y006346D01*
X023081Y006408D02*
X023181Y006408D01*
X023181Y006150D01*
X023081Y006150D01*
X023081Y006408D01*
X023081Y006248D02*
X023181Y006248D01*
X023181Y006346D02*
X023081Y006346D01*
X023278Y006408D02*
X023378Y006408D01*
X023378Y006150D01*
X023278Y006150D01*
X023278Y006408D01*
X023278Y006248D02*
X023378Y006248D01*
X023378Y006346D02*
X023278Y006346D01*
X023475Y006408D02*
X023575Y006408D01*
X023575Y006150D01*
X023475Y006150D01*
X023475Y006408D01*
X023475Y006248D02*
X023575Y006248D01*
X023575Y006346D02*
X023475Y006346D01*
X023672Y006408D02*
X023772Y006408D01*
X023772Y006150D01*
X023672Y006150D01*
X023672Y006408D01*
X023672Y006248D02*
X023772Y006248D01*
X023772Y006346D02*
X023672Y006346D01*
X023829Y006093D02*
X024087Y006093D01*
X024087Y005993D01*
X023829Y005993D01*
X023829Y006093D01*
X023829Y006091D02*
X024087Y006091D01*
X024087Y005896D02*
X023829Y005896D01*
X024087Y005896D02*
X024087Y005796D01*
X023829Y005796D01*
X023829Y005896D01*
X023829Y005894D02*
X024087Y005894D01*
X024087Y005699D02*
X023829Y005699D01*
X024087Y005699D02*
X024087Y005599D01*
X023829Y005599D01*
X023829Y005699D01*
X023829Y005697D02*
X024087Y005697D01*
X024087Y005502D02*
X023829Y005502D01*
X024087Y005502D02*
X024087Y005402D01*
X023829Y005402D01*
X023829Y005502D01*
X023829Y005500D02*
X024087Y005500D01*
X024087Y005305D02*
X023829Y005305D01*
X024087Y005305D02*
X024087Y005205D01*
X023829Y005205D01*
X023829Y005305D01*
X023829Y005303D02*
X024087Y005303D01*
X024087Y005108D02*
X023829Y005108D01*
X024087Y005108D02*
X024087Y005008D01*
X023829Y005008D01*
X023829Y005108D01*
X023829Y005106D02*
X024087Y005106D01*
X024087Y004912D02*
X023829Y004912D01*
X024087Y004912D02*
X024087Y004812D01*
X023829Y004812D01*
X023829Y004912D01*
X023829Y004910D02*
X024087Y004910D01*
X024087Y004715D02*
X023829Y004715D01*
X024087Y004715D02*
X024087Y004615D01*
X023829Y004615D01*
X023829Y004715D01*
X023829Y004713D02*
X024087Y004713D01*
X023772Y004558D02*
X023672Y004558D01*
X023772Y004558D02*
X023772Y004300D01*
X023672Y004300D01*
X023672Y004558D01*
X023672Y004398D02*
X023772Y004398D01*
X023772Y004496D02*
X023672Y004496D01*
X023575Y004558D02*
X023475Y004558D01*
X023575Y004558D02*
X023575Y004300D01*
X023475Y004300D01*
X023475Y004558D01*
X023475Y004398D02*
X023575Y004398D01*
X023575Y004496D02*
X023475Y004496D01*
X023378Y004558D02*
X023278Y004558D01*
X023378Y004558D02*
X023378Y004300D01*
X023278Y004300D01*
X023278Y004558D01*
X023278Y004398D02*
X023378Y004398D01*
X023378Y004496D02*
X023278Y004496D01*
X023181Y004558D02*
X023081Y004558D01*
X023181Y004558D02*
X023181Y004300D01*
X023081Y004300D01*
X023081Y004558D01*
X023081Y004398D02*
X023181Y004398D01*
X023181Y004496D02*
X023081Y004496D01*
X022984Y004558D02*
X022884Y004558D01*
X022984Y004558D02*
X022984Y004300D01*
X022884Y004300D01*
X022884Y004558D01*
X022884Y004398D02*
X022984Y004398D01*
X022984Y004496D02*
X022884Y004496D01*
X022787Y004558D02*
X022687Y004558D01*
X022787Y004558D02*
X022787Y004300D01*
X022687Y004300D01*
X022687Y004558D01*
X022687Y004398D02*
X022787Y004398D01*
X022787Y004496D02*
X022687Y004496D01*
X022590Y004558D02*
X022490Y004558D01*
X022590Y004558D02*
X022590Y004300D01*
X022490Y004300D01*
X022490Y004558D01*
X022490Y004398D02*
X022590Y004398D01*
X022590Y004496D02*
X022490Y004496D01*
X022394Y004558D02*
X022294Y004558D01*
X022394Y004558D02*
X022394Y004300D01*
X022294Y004300D01*
X022294Y004558D01*
X022294Y004398D02*
X022394Y004398D01*
X022394Y004496D02*
X022294Y004496D01*
X022236Y004715D02*
X021978Y004715D01*
X022236Y004715D02*
X022236Y004615D01*
X021978Y004615D01*
X021978Y004715D01*
X021978Y004713D02*
X022236Y004713D01*
X022236Y004912D02*
X021978Y004912D01*
X022236Y004912D02*
X022236Y004812D01*
X021978Y004812D01*
X021978Y004912D01*
X021978Y004910D02*
X022236Y004910D01*
X022236Y005108D02*
X021978Y005108D01*
X022236Y005108D02*
X022236Y005008D01*
X021978Y005008D01*
X021978Y005108D01*
X021978Y005106D02*
X022236Y005106D01*
X022236Y005305D02*
X021978Y005305D01*
X022236Y005305D02*
X022236Y005205D01*
X021978Y005205D01*
X021978Y005305D01*
X021978Y005303D02*
X022236Y005303D01*
X022236Y005502D02*
X021978Y005502D01*
X022236Y005502D02*
X022236Y005402D01*
X021978Y005402D01*
X021978Y005502D01*
X021978Y005500D02*
X022236Y005500D01*
X022236Y005699D02*
X021978Y005699D01*
X022236Y005699D02*
X022236Y005599D01*
X021978Y005599D01*
X021978Y005699D01*
X021978Y005697D02*
X022236Y005697D01*
X022236Y005896D02*
X021978Y005896D01*
X022236Y005896D02*
X022236Y005796D01*
X021978Y005796D01*
X021978Y005896D01*
X021978Y005894D02*
X022236Y005894D01*
D21*
X023033Y005354D03*
D22*
X014083Y001354D03*
X013083Y001354D03*
X012083Y001354D03*
X011083Y001354D03*
X010083Y001354D03*
X009083Y001354D03*
X006543Y006604D03*
X005543Y006604D03*
X004543Y006604D03*
X015083Y021354D03*
X029093Y021364D03*
X030093Y021364D03*
X031093Y021364D03*
X032093Y021364D03*
X033093Y021364D03*
X034093Y021364D03*
X035093Y021364D03*
X036093Y021364D03*
X036093Y022364D03*
X035093Y022364D03*
X034093Y022364D03*
X033093Y022364D03*
X032093Y022364D03*
X031093Y022364D03*
X030093Y022364D03*
X029093Y022364D03*
D23*
X009086Y012338D03*
X008086Y012338D03*
X008086Y011338D03*
X009086Y011338D03*
X009086Y010338D03*
X008086Y010338D03*
D24*
X022763Y013034D03*
X024763Y013034D03*
D25*
X023763Y017534D03*
D26*
X008083Y021354D03*
X007083Y021354D03*
X007083Y022354D03*
X008083Y022354D03*
D27*
X015433Y019054D03*
X015433Y018354D03*
X015433Y017654D03*
X015433Y016954D03*
X017433Y016954D03*
X018033Y016954D03*
X018033Y017654D03*
X017433Y017654D03*
X017433Y018354D03*
X018033Y018354D03*
X018033Y019054D03*
X017433Y019054D03*
X020033Y019054D03*
X020033Y018354D03*
X020033Y017654D03*
X020033Y016954D03*
D28*
X009453Y017064D03*
X006323Y015534D03*
X016333Y005384D03*
X017333Y005384D03*
X018333Y005384D03*
X019333Y005384D03*
X025183Y010194D03*
D29*
X019333Y005884D03*
X018333Y005884D03*
X017333Y005884D03*
X016333Y005884D03*
X016333Y004884D03*
X017333Y004884D03*
X018333Y004884D03*
X019333Y004884D03*
D30*
X019333Y005154D03*
X019333Y005654D03*
X018333Y005654D03*
X018333Y005154D03*
X017333Y005144D03*
X017333Y005644D03*
X016333Y005634D03*
X016333Y005134D03*
D31*
X030399Y002058D03*
X030399Y001389D03*
X032446Y001389D03*
X032446Y002058D03*
D32*
X025563Y004165D03*
X025563Y004894D03*
X024657Y004894D03*
X024657Y004165D03*
D33*
X034083Y002354D03*
D34*
X035083Y002354D03*
X036083Y002354D03*
D35*
X008103Y018054D03*
X013583Y020324D03*
D36*
X027723Y022034D03*
X027723Y022634D03*
D37*
X027723Y022334D03*
D38*
X008308Y004710D02*
X008308Y004534D01*
D39*
X008111Y004622D03*
X007914Y004622D03*
X007914Y005705D03*
X008111Y005705D03*
D40*
X007765Y005843D02*
X007765Y005567D01*
X007669Y005567D01*
X007669Y005843D01*
X007765Y005843D01*
X007765Y005661D02*
X007669Y005661D01*
X007669Y005755D02*
X007765Y005755D01*
X007609Y005507D02*
X007609Y005411D01*
X007333Y005411D01*
X007333Y005507D01*
X007609Y005507D01*
X007609Y005505D02*
X007333Y005505D01*
X007609Y004916D02*
X007609Y004820D01*
X007333Y004820D01*
X007333Y004916D01*
X007609Y004916D01*
X007609Y004914D02*
X007333Y004914D01*
X007765Y004760D02*
X007765Y004484D01*
X007669Y004484D01*
X007669Y004760D01*
X007765Y004760D01*
X007765Y004578D02*
X007669Y004578D01*
X007669Y004672D02*
X007765Y004672D01*
D41*
X007471Y005065D03*
X007471Y005262D03*
D42*
X008375Y005548D02*
X008375Y005862D01*
X008375Y005548D02*
X008241Y005548D01*
X008241Y005862D01*
X008375Y005862D01*
X008375Y005604D02*
X008241Y005604D01*
X008241Y005660D02*
X008375Y005660D01*
X008375Y005716D02*
X008241Y005716D01*
X008241Y005772D02*
X008375Y005772D01*
X008375Y005828D02*
X008241Y005828D01*
X008711Y005526D02*
X008711Y005392D01*
X008397Y005392D01*
X008397Y005526D01*
X008711Y005526D01*
X008711Y005448D02*
X008397Y005448D01*
X008397Y005504D02*
X008711Y005504D01*
X008711Y004935D02*
X008711Y004801D01*
X008397Y004801D01*
X008397Y004935D01*
X008711Y004935D01*
X008711Y004857D02*
X008397Y004857D01*
X008397Y004913D02*
X008711Y004913D01*
D43*
X008554Y005065D03*
X008554Y005262D03*
D44*
X007226Y003421D03*
X007226Y001295D03*
X003919Y001295D03*
X003919Y003421D03*
D45*
X004726Y002437D03*
X006419Y002437D03*
D46*
X006203Y003520D03*
X005888Y003520D03*
X005573Y003520D03*
X005258Y003520D03*
X004943Y003520D03*
D47*
X003713Y004384D03*
X010013Y004034D03*
X010763Y004034D03*
X011513Y004034D03*
X012263Y004034D03*
X013013Y004034D03*
X013763Y004034D03*
X014513Y004034D03*
X015263Y004034D03*
X016013Y004034D03*
X016763Y004034D03*
X017513Y004034D03*
X018263Y004034D03*
X019013Y004034D03*
X019763Y004034D03*
X014333Y005384D03*
X013333Y005384D03*
X012333Y005384D03*
X011333Y005384D03*
X010333Y005384D03*
D48*
X010333Y005814D03*
X011333Y005814D03*
X012333Y005814D03*
X013333Y005814D03*
X013333Y004914D03*
X014333Y004914D03*
X012333Y004914D03*
X011333Y004914D03*
X010333Y004914D03*
X003713Y004854D03*
D49*
X005179Y008611D03*
X005927Y008611D03*
X005553Y009477D03*
D50*
X026093Y013480D03*
X026093Y014228D03*
M02*
