G75*
G70*
%OFA0B0*%
%FSLAX24Y24*%
%IPPOS*%
%LPD*%
%AMOC8*
5,1,8,0,0,1.08239X$1,22.5*
%
%ADD10C,0.0000*%
%ADD11OC8,0.0500*%
%ADD12C,0.0540*%
%ADD13OC8,0.0540*%
%ADD14C,0.0787*%
%ADD15R,0.0354X0.0276*%
%ADD16R,0.0236X0.0276*%
%ADD17OC8,0.0600*%
%ADD18OC8,0.0660*%
%ADD19R,0.0591X0.0591*%
%ADD20C,0.0600*%
%ADD21OC8,0.0480*%
%ADD22OC8,0.0354*%
%ADD23C,0.0472*%
%ADD24OC8,0.0472*%
%ADD25R,0.0630X0.0460*%
%ADD26OC8,0.0400*%
%ADD27C,0.0200*%
%ADD28OC8,0.0236*%
%ADD29C,0.0080*%
%ADD30C,0.0120*%
%ADD31C,0.0060*%
%ADD32C,0.0320*%
%ADD33C,0.0100*%
%ADD34C,0.0240*%
%ADD35C,0.0400*%
%ADD36C,0.0160*%
D10*
X000333Y000604D02*
X000333Y023100D01*
X039703Y023100D01*
X039703Y000604D01*
X000333Y000604D01*
X004529Y002437D02*
X004531Y002464D01*
X004537Y002491D01*
X004546Y002517D01*
X004559Y002541D01*
X004575Y002564D01*
X004594Y002583D01*
X004616Y002600D01*
X004640Y002614D01*
X004665Y002624D01*
X004692Y002631D01*
X004719Y002634D01*
X004747Y002633D01*
X004774Y002628D01*
X004800Y002620D01*
X004824Y002608D01*
X004847Y002592D01*
X004868Y002574D01*
X004885Y002553D01*
X004900Y002529D01*
X004911Y002504D01*
X004919Y002478D01*
X004923Y002451D01*
X004923Y002423D01*
X004919Y002396D01*
X004911Y002370D01*
X004900Y002345D01*
X004885Y002321D01*
X004868Y002300D01*
X004847Y002282D01*
X004825Y002266D01*
X004800Y002254D01*
X004774Y002246D01*
X004747Y002241D01*
X004719Y002240D01*
X004692Y002243D01*
X004665Y002250D01*
X004640Y002260D01*
X004616Y002274D01*
X004594Y002291D01*
X004575Y002310D01*
X004559Y002333D01*
X004546Y002357D01*
X004537Y002383D01*
X004531Y002410D01*
X004529Y002437D01*
X006222Y002437D02*
X006224Y002464D01*
X006230Y002491D01*
X006239Y002517D01*
X006252Y002541D01*
X006268Y002564D01*
X006287Y002583D01*
X006309Y002600D01*
X006333Y002614D01*
X006358Y002624D01*
X006385Y002631D01*
X006412Y002634D01*
X006440Y002633D01*
X006467Y002628D01*
X006493Y002620D01*
X006517Y002608D01*
X006540Y002592D01*
X006561Y002574D01*
X006578Y002553D01*
X006593Y002529D01*
X006604Y002504D01*
X006612Y002478D01*
X006616Y002451D01*
X006616Y002423D01*
X006612Y002396D01*
X006604Y002370D01*
X006593Y002345D01*
X006578Y002321D01*
X006561Y002300D01*
X006540Y002282D01*
X006518Y002266D01*
X006493Y002254D01*
X006467Y002246D01*
X006440Y002241D01*
X006412Y002240D01*
X006385Y002243D01*
X006358Y002250D01*
X006333Y002260D01*
X006309Y002274D01*
X006287Y002291D01*
X006268Y002310D01*
X006252Y002333D01*
X006239Y002357D01*
X006230Y002383D01*
X006224Y002410D01*
X006222Y002437D01*
X007453Y008354D02*
X007455Y008404D01*
X007461Y008454D01*
X007471Y008503D01*
X007485Y008551D01*
X007502Y008598D01*
X007523Y008643D01*
X007548Y008687D01*
X007576Y008728D01*
X007608Y008767D01*
X007642Y008804D01*
X007679Y008838D01*
X007719Y008868D01*
X007761Y008895D01*
X007805Y008919D01*
X007851Y008940D01*
X007898Y008956D01*
X007946Y008969D01*
X007996Y008978D01*
X008045Y008983D01*
X008096Y008984D01*
X008146Y008981D01*
X008195Y008974D01*
X008244Y008963D01*
X008292Y008948D01*
X008338Y008930D01*
X008383Y008908D01*
X008426Y008882D01*
X008467Y008853D01*
X008506Y008821D01*
X008542Y008786D01*
X008574Y008748D01*
X008604Y008708D01*
X008631Y008665D01*
X008654Y008621D01*
X008673Y008575D01*
X008689Y008527D01*
X008701Y008478D01*
X008709Y008429D01*
X008713Y008379D01*
X008713Y008329D01*
X008709Y008279D01*
X008701Y008230D01*
X008689Y008181D01*
X008673Y008133D01*
X008654Y008087D01*
X008631Y008043D01*
X008604Y008000D01*
X008574Y007960D01*
X008542Y007922D01*
X008506Y007887D01*
X008467Y007855D01*
X008426Y007826D01*
X008383Y007800D01*
X008338Y007778D01*
X008292Y007760D01*
X008244Y007745D01*
X008195Y007734D01*
X008146Y007727D01*
X008096Y007724D01*
X008045Y007725D01*
X007996Y007730D01*
X007946Y007739D01*
X007898Y007752D01*
X007851Y007768D01*
X007805Y007789D01*
X007761Y007813D01*
X007719Y007840D01*
X007679Y007870D01*
X007642Y007904D01*
X007608Y007941D01*
X007576Y007980D01*
X007548Y008021D01*
X007523Y008065D01*
X007502Y008110D01*
X007485Y008157D01*
X007471Y008205D01*
X007461Y008254D01*
X007455Y008304D01*
X007453Y008354D01*
X007453Y019354D02*
X007455Y019404D01*
X007461Y019454D01*
X007471Y019503D01*
X007485Y019551D01*
X007502Y019598D01*
X007523Y019643D01*
X007548Y019687D01*
X007576Y019728D01*
X007608Y019767D01*
X007642Y019804D01*
X007679Y019838D01*
X007719Y019868D01*
X007761Y019895D01*
X007805Y019919D01*
X007851Y019940D01*
X007898Y019956D01*
X007946Y019969D01*
X007996Y019978D01*
X008045Y019983D01*
X008096Y019984D01*
X008146Y019981D01*
X008195Y019974D01*
X008244Y019963D01*
X008292Y019948D01*
X008338Y019930D01*
X008383Y019908D01*
X008426Y019882D01*
X008467Y019853D01*
X008506Y019821D01*
X008542Y019786D01*
X008574Y019748D01*
X008604Y019708D01*
X008631Y019665D01*
X008654Y019621D01*
X008673Y019575D01*
X008689Y019527D01*
X008701Y019478D01*
X008709Y019429D01*
X008713Y019379D01*
X008713Y019329D01*
X008709Y019279D01*
X008701Y019230D01*
X008689Y019181D01*
X008673Y019133D01*
X008654Y019087D01*
X008631Y019043D01*
X008604Y019000D01*
X008574Y018960D01*
X008542Y018922D01*
X008506Y018887D01*
X008467Y018855D01*
X008426Y018826D01*
X008383Y018800D01*
X008338Y018778D01*
X008292Y018760D01*
X008244Y018745D01*
X008195Y018734D01*
X008146Y018727D01*
X008096Y018724D01*
X008045Y018725D01*
X007996Y018730D01*
X007946Y018739D01*
X007898Y018752D01*
X007851Y018768D01*
X007805Y018789D01*
X007761Y018813D01*
X007719Y018840D01*
X007679Y018870D01*
X007642Y018904D01*
X007608Y018941D01*
X007576Y018980D01*
X007548Y019021D01*
X007523Y019065D01*
X007502Y019110D01*
X007485Y019157D01*
X007471Y019205D01*
X007461Y019254D01*
X007455Y019304D01*
X007453Y019354D01*
X027453Y002354D02*
X027455Y002404D01*
X027461Y002454D01*
X027471Y002503D01*
X027485Y002551D01*
X027502Y002598D01*
X027523Y002643D01*
X027548Y002687D01*
X027576Y002728D01*
X027608Y002767D01*
X027642Y002804D01*
X027679Y002838D01*
X027719Y002868D01*
X027761Y002895D01*
X027805Y002919D01*
X027851Y002940D01*
X027898Y002956D01*
X027946Y002969D01*
X027996Y002978D01*
X028045Y002983D01*
X028096Y002984D01*
X028146Y002981D01*
X028195Y002974D01*
X028244Y002963D01*
X028292Y002948D01*
X028338Y002930D01*
X028383Y002908D01*
X028426Y002882D01*
X028467Y002853D01*
X028506Y002821D01*
X028542Y002786D01*
X028574Y002748D01*
X028604Y002708D01*
X028631Y002665D01*
X028654Y002621D01*
X028673Y002575D01*
X028689Y002527D01*
X028701Y002478D01*
X028709Y002429D01*
X028713Y002379D01*
X028713Y002329D01*
X028709Y002279D01*
X028701Y002230D01*
X028689Y002181D01*
X028673Y002133D01*
X028654Y002087D01*
X028631Y002043D01*
X028604Y002000D01*
X028574Y001960D01*
X028542Y001922D01*
X028506Y001887D01*
X028467Y001855D01*
X028426Y001826D01*
X028383Y001800D01*
X028338Y001778D01*
X028292Y001760D01*
X028244Y001745D01*
X028195Y001734D01*
X028146Y001727D01*
X028096Y001724D01*
X028045Y001725D01*
X027996Y001730D01*
X027946Y001739D01*
X027898Y001752D01*
X027851Y001768D01*
X027805Y001789D01*
X027761Y001813D01*
X027719Y001840D01*
X027679Y001870D01*
X027642Y001904D01*
X027608Y001941D01*
X027576Y001980D01*
X027548Y002021D01*
X027523Y002065D01*
X027502Y002110D01*
X027485Y002157D01*
X027471Y002205D01*
X027461Y002254D01*
X027455Y002304D01*
X027453Y002354D01*
D11*
X024833Y002354D03*
X023833Y002354D03*
X022833Y002354D03*
X021833Y002354D03*
X020833Y002354D03*
X019833Y002354D03*
X018833Y002354D03*
X017833Y002354D03*
X016083Y002354D03*
X015083Y002354D03*
X014083Y002354D03*
X013083Y002354D03*
X012083Y002354D03*
X011083Y002354D03*
X010083Y002354D03*
X009083Y002354D03*
X009083Y021354D03*
X010083Y021354D03*
X011083Y021354D03*
X012083Y021354D03*
X013083Y021354D03*
X014083Y021354D03*
X016083Y021354D03*
X017083Y021354D03*
X018083Y021354D03*
X019083Y021354D03*
X020083Y021354D03*
X021083Y021354D03*
D12*
X039083Y002354D03*
X001833Y002354D03*
D13*
X000833Y002354D03*
X000833Y003354D03*
X001833Y003354D03*
X001833Y004354D03*
X000833Y004354D03*
X000833Y005354D03*
X001833Y005354D03*
X001833Y006354D03*
X000833Y006354D03*
X000833Y007354D03*
X001833Y007354D03*
X001833Y008354D03*
X000833Y008354D03*
X000833Y009354D03*
X001833Y009354D03*
X001833Y010354D03*
X000833Y010354D03*
X000833Y011354D03*
X001833Y011354D03*
X001833Y012354D03*
X000833Y012354D03*
X000833Y013354D03*
X001833Y013354D03*
X001833Y014354D03*
X000833Y014354D03*
X000833Y015354D03*
X001833Y015354D03*
X001833Y016354D03*
X000833Y016354D03*
X000833Y017354D03*
X001833Y017354D03*
X001833Y018354D03*
X000833Y018354D03*
X000833Y019354D03*
X001833Y019354D03*
X001833Y020354D03*
X000833Y020354D03*
X000833Y021354D03*
X001833Y021354D03*
X038083Y021354D03*
X039083Y021354D03*
X039083Y020354D03*
X038083Y020354D03*
X038083Y019354D03*
X039083Y019354D03*
X039083Y018354D03*
X038083Y018354D03*
X038083Y017354D03*
X039083Y017354D03*
X039083Y016354D03*
X038083Y016354D03*
X038083Y015354D03*
X039083Y015354D03*
X039083Y014354D03*
X038083Y014354D03*
X038083Y013354D03*
X039083Y013354D03*
X039083Y012354D03*
X038083Y012354D03*
X038083Y011354D03*
X039083Y011354D03*
X039083Y010354D03*
X038083Y010354D03*
X038083Y009354D03*
X039083Y009354D03*
X039083Y008354D03*
X038083Y008354D03*
X038083Y007354D03*
X039083Y007354D03*
X039083Y006354D03*
X038083Y006354D03*
X038083Y005354D03*
X039083Y005354D03*
X039083Y004354D03*
X038083Y004354D03*
X038083Y003354D03*
X039083Y003354D03*
X038083Y002354D03*
D14*
X005166Y018143D02*
X004379Y018143D01*
X002883Y018970D02*
X002883Y019757D01*
X004379Y020545D02*
X005166Y020545D01*
D15*
X023393Y022186D03*
X024743Y022416D03*
X026093Y022166D03*
D16*
X024999Y021471D03*
X024487Y021471D03*
X023649Y021241D03*
X023137Y021241D03*
X025837Y021221D03*
X026349Y021221D03*
D17*
X029093Y021364D03*
X030093Y021364D03*
X031093Y021364D03*
X032093Y021364D03*
X033093Y021364D03*
X034093Y021364D03*
X035093Y021364D03*
X036093Y021364D03*
X036093Y022364D03*
X035093Y022364D03*
X034093Y022364D03*
X033093Y022364D03*
X032093Y022364D03*
X031093Y022364D03*
X030093Y022364D03*
X029093Y022364D03*
X015083Y021354D03*
X006543Y006604D03*
X005543Y006604D03*
X004543Y006604D03*
X009083Y001354D03*
X010083Y001354D03*
X011083Y001354D03*
X012083Y001354D03*
X013083Y001354D03*
X014083Y001354D03*
D18*
X009086Y010338D03*
X008086Y010338D03*
X008086Y011338D03*
X009086Y011338D03*
X009086Y012338D03*
X008086Y012338D03*
D19*
X029973Y002473D03*
X031383Y002493D03*
X032883Y002493D03*
X032883Y001115D03*
X031383Y001115D03*
X029973Y001095D03*
D20*
X008083Y021354D03*
X007083Y021354D03*
X007083Y022354D03*
X008083Y022354D03*
D21*
X015433Y019054D03*
X015433Y018354D03*
X015433Y017654D03*
X015433Y016954D03*
X017433Y016954D03*
X018033Y016954D03*
X018033Y017654D03*
X017433Y017654D03*
X017433Y018354D03*
X018033Y018354D03*
X018033Y019054D03*
X017433Y019054D03*
X020033Y019054D03*
X020033Y018354D03*
X020033Y017654D03*
X020033Y016954D03*
D22*
X009453Y017064D03*
X006323Y015534D03*
X016333Y005384D03*
X017333Y005384D03*
X018333Y005384D03*
X019333Y005384D03*
X025183Y010194D03*
D23*
X034083Y002354D03*
D24*
X035083Y002354D03*
X036083Y002354D03*
D25*
X027683Y022014D03*
X027683Y022614D03*
D26*
X014333Y005384D03*
X013333Y005384D03*
X012333Y005384D03*
X011333Y005384D03*
X010333Y005384D03*
X010013Y004034D03*
X010763Y004034D03*
X011513Y004034D03*
X012263Y004034D03*
X013013Y004034D03*
X013763Y004034D03*
X014513Y004034D03*
X015263Y004034D03*
X016013Y004034D03*
X016763Y004034D03*
X017513Y004034D03*
X018263Y004034D03*
X019013Y004034D03*
X019763Y004034D03*
X003713Y004384D03*
D27*
X005513Y005144D02*
X006733Y005134D01*
X007123Y004894D01*
X006923Y011454D02*
X006993Y011584D01*
X007049Y011513D01*
X014823Y016824D02*
X016023Y015624D01*
X014823Y016824D02*
X014823Y019664D01*
X013263Y022024D02*
X013983Y022744D01*
X026243Y022734D01*
X026853Y022034D01*
X027683Y022014D01*
X027663Y021994D01*
X027663Y021424D01*
X024513Y021454D02*
X024513Y020974D01*
X024513Y021454D02*
X024487Y021471D01*
X021673Y022194D02*
X021663Y019624D01*
X025443Y015004D02*
X026813Y016244D01*
X026453Y015064D02*
X028703Y017344D01*
X028693Y017344D01*
X032313Y017344D02*
X036093Y017344D01*
X025183Y011194D02*
X022993Y011194D01*
X023833Y002354D02*
X023943Y002314D01*
X025113Y001144D01*
X029883Y001144D01*
X029973Y001095D01*
X029973Y001114D01*
X031383Y001114D01*
X031383Y001115D01*
X031473Y001114D01*
X032883Y001114D01*
X032883Y001115D01*
X032973Y001144D01*
X007590Y020489D02*
X007603Y020524D01*
X009123Y022024D02*
X013263Y022024D01*
X013383Y022594D02*
X013163Y022934D01*
X006133Y022934D01*
X005733Y022584D01*
X004053Y022594D01*
D28*
X004053Y022594D03*
X003303Y021334D03*
X006783Y019394D03*
X007603Y020524D03*
X009583Y020874D03*
X009863Y020234D03*
X010383Y020254D03*
X010023Y019674D03*
X012033Y018604D03*
X013293Y019294D03*
X013563Y021874D03*
X013383Y022594D03*
X012543Y022334D03*
X014823Y021874D03*
X017703Y020884D03*
X019603Y020914D03*
X020873Y019984D03*
X021663Y019624D03*
X022893Y020134D03*
X024513Y020974D03*
X025163Y020954D03*
X025143Y020164D03*
X023403Y021624D03*
X023963Y022204D03*
X025523Y022134D03*
X025673Y022414D03*
X026993Y022544D03*
X027663Y021424D03*
X029823Y020344D03*
X032073Y018724D03*
X032073Y018334D03*
X032283Y018094D03*
X032463Y017824D03*
X032313Y017344D03*
X032073Y016444D03*
X030693Y016624D03*
X029643Y015544D03*
X028473Y016324D03*
X028713Y016594D03*
X028693Y017344D03*
X027103Y016934D03*
X027103Y016504D03*
X026813Y016244D03*
X025293Y015304D03*
X025113Y015544D03*
X025443Y015004D03*
X026453Y015064D03*
X024273Y014484D03*
X021223Y013874D03*
X020943Y013014D03*
X020343Y012224D03*
X020153Y011544D03*
X020423Y010204D03*
X019933Y009374D03*
X021233Y008444D03*
X022033Y008124D03*
X021423Y007244D03*
X021193Y007004D03*
X021543Y006684D03*
X021753Y006424D03*
X020773Y006464D03*
X020703Y005974D03*
X019903Y005874D03*
X020623Y005254D03*
X021563Y005434D03*
X021573Y004834D03*
X021873Y004324D03*
X021453Y004204D03*
X022083Y003874D03*
X022353Y004024D03*
X022683Y003604D03*
X023103Y003694D03*
X023343Y004024D03*
X023643Y003964D03*
X023703Y003394D03*
X024573Y003574D03*
X025963Y003124D03*
X025533Y002614D03*
X025413Y001984D03*
X025413Y001654D03*
X022083Y001174D03*
X021753Y001144D03*
X022233Y002824D03*
X020793Y003184D03*
X018993Y003144D03*
X018643Y003644D03*
X018333Y004574D03*
X016833Y005174D03*
X015623Y005914D03*
X015193Y006124D03*
X015043Y007104D03*
X014433Y007104D03*
X013833Y006644D03*
X013353Y006134D03*
X012313Y006224D03*
X011313Y006234D03*
X012123Y007104D03*
X010913Y007204D03*
X010233Y007514D03*
X010133Y008204D03*
X009383Y008484D03*
X009373Y008844D03*
X009643Y009104D03*
X009333Y009384D03*
X008583Y009834D03*
X006373Y009364D03*
X006373Y008974D03*
X006383Y008564D03*
X005853Y008074D03*
X006513Y007144D03*
X007723Y007314D03*
X008203Y007274D03*
X007833Y006154D03*
X007483Y006124D03*
X007863Y005314D03*
X008163Y005314D03*
X009123Y005464D03*
X009353Y005204D03*
X009603Y004854D03*
X009323Y004614D03*
X008613Y004444D03*
X008773Y003604D03*
X008023Y003754D03*
X007053Y004214D03*
X006543Y003844D03*
X006423Y004174D03*
X007123Y004874D03*
X005513Y005144D03*
X005483Y005514D03*
X004813Y006084D03*
X004953Y007254D03*
X004543Y007254D03*
X004373Y009124D03*
X004013Y009114D03*
X002783Y009114D03*
X003563Y010444D03*
X003953Y011004D03*
X005013Y011614D03*
X005493Y011524D03*
X006543Y011164D03*
X005793Y010444D03*
X003563Y011994D03*
X003813Y012304D03*
X004473Y012514D03*
X005913Y013294D03*
X006393Y013834D03*
X006093Y014644D03*
X005493Y015244D03*
X005073Y015334D03*
X003703Y014914D03*
X003343Y014234D03*
X003903Y014044D03*
X003093Y013594D03*
X002843Y012864D03*
X000513Y013864D03*
X002713Y015704D03*
X003273Y015694D03*
X004023Y016804D03*
X003213Y017614D03*
X006333Y016594D03*
X008253Y016574D03*
X010083Y015744D03*
X010293Y015424D03*
X010803Y016164D03*
X011463Y016294D03*
X010203Y017074D03*
X013173Y014884D03*
X013593Y015484D03*
X014853Y015034D03*
X016023Y015624D03*
X016123Y016254D03*
X014883Y016104D03*
X012153Y014194D03*
X011253Y013624D03*
X010833Y013374D03*
X009813Y012934D03*
X009513Y012934D03*
X008613Y012904D03*
X007193Y013014D03*
X008583Y011854D03*
X010173Y011194D03*
X010883Y011314D03*
X011113Y011594D03*
X010733Y011674D03*
X011523Y012004D03*
X011543Y011134D03*
X013743Y010504D03*
X014673Y011134D03*
X014463Y011884D03*
X014473Y012294D03*
X013893Y011674D03*
X014313Y013054D03*
X014543Y013384D03*
X014803Y013064D03*
X015153Y013074D03*
X015733Y013084D03*
X015733Y013424D03*
X016863Y013504D03*
X016113Y012424D03*
X016663Y011534D03*
X017013Y011394D03*
X017743Y011394D03*
X017753Y011024D03*
X016213Y011324D03*
X014883Y010384D03*
X015223Y009904D03*
X015473Y009444D03*
X016253Y009364D03*
X017003Y008634D03*
X017453Y009064D03*
X017683Y009934D03*
X014953Y008684D03*
X013533Y009664D03*
X011523Y008204D03*
X012133Y007864D03*
X017313Y006314D03*
X018153Y006234D03*
X018903Y006574D03*
X019143Y006824D03*
X019063Y007264D03*
X018603Y007744D03*
X018053Y007004D03*
X020823Y007374D03*
X022763Y007234D03*
X023133Y007134D03*
X023313Y006824D03*
X023733Y007234D03*
X024803Y006724D03*
X024383Y006324D03*
X024443Y005904D03*
X025773Y007024D03*
X026673Y006724D03*
X027523Y006394D03*
X028403Y005974D03*
X028573Y004574D03*
X028973Y004034D03*
X029463Y003404D03*
X029953Y003404D03*
X031363Y003404D03*
X032833Y003384D03*
X032823Y007494D03*
X031283Y008314D03*
X029633Y008434D03*
X030063Y009364D03*
X031123Y009494D03*
X031693Y009324D03*
X031873Y010034D03*
X032713Y010354D03*
X033063Y010144D03*
X033913Y010444D03*
X034163Y009914D03*
X033483Y011274D03*
X033333Y011864D03*
X033813Y011884D03*
X032163Y011524D03*
X031863Y012154D03*
X031773Y013744D03*
X031563Y013954D03*
X031833Y014164D03*
X031083Y014374D03*
X030693Y014614D03*
X032043Y014554D03*
X032683Y014374D03*
X033043Y014374D03*
X034633Y014184D03*
X035413Y013974D03*
X035533Y014854D03*
X036153Y015154D03*
X036093Y015844D03*
X035633Y016354D03*
X036093Y017344D03*
X036063Y018304D03*
X035793Y019564D03*
X034563Y020824D03*
X033363Y020644D03*
X032373Y019044D03*
X036753Y022264D03*
X037473Y016834D03*
X037033Y014374D03*
X038583Y010814D03*
X036763Y010654D03*
X036783Y010314D03*
X036423Y010684D03*
X029853Y007424D03*
X027253Y009614D03*
X026673Y010174D03*
X029403Y011374D03*
X022993Y011194D03*
X020023Y015094D03*
X020863Y018184D03*
X019533Y019084D03*
X021673Y022194D03*
X009123Y022024D03*
X013143Y013334D03*
X011853Y004564D03*
X014143Y003464D03*
X014883Y003234D03*
X015683Y003574D03*
X015323Y004484D03*
X017113Y003484D03*
X016973Y001964D03*
X015613Y001444D03*
X013573Y002074D03*
X009603Y002894D03*
X008083Y002354D03*
X008013Y001104D03*
X008593Y000954D03*
X005253Y004134D03*
X004433Y004564D03*
X019083Y001744D03*
D29*
X020733Y001744D01*
X021183Y002194D01*
X021183Y002434D01*
X022773Y004024D01*
X023343Y004024D01*
X023643Y003964D02*
X023643Y003874D01*
X022203Y002434D01*
X022203Y002224D01*
X021243Y001264D01*
X016173Y001264D01*
X015083Y002354D01*
X014493Y002944D01*
X014493Y004024D01*
X014513Y004034D01*
X014883Y004444D02*
X014883Y003234D01*
X015273Y003034D02*
X015933Y002374D01*
X016083Y002374D01*
X016083Y002354D01*
X016973Y001964D02*
X015683Y003574D01*
X016023Y003744D02*
X016023Y004024D01*
X016013Y004034D01*
X016023Y003744D02*
X017393Y002364D01*
X017823Y002374D01*
X017833Y002354D01*
X017313Y002704D02*
X018483Y002704D01*
X018833Y002354D01*
X018843Y002344D01*
X018843Y001654D01*
X018993Y001504D01*
X020703Y001504D01*
X021333Y002134D01*
X021333Y002374D01*
X022563Y003604D01*
X022683Y003604D01*
X022353Y003814D02*
X020913Y002374D01*
X020853Y002374D01*
X020833Y002354D01*
X020313Y002374D02*
X019833Y002374D01*
X019393Y002374D01*
X018893Y002874D01*
X017393Y002874D01*
X016793Y003474D01*
X016793Y003584D01*
X016923Y003714D01*
X017193Y003714D01*
X017513Y004034D01*
X017373Y003934D01*
X016833Y004474D01*
X016813Y004484D01*
X015323Y004484D01*
X015153Y004724D02*
X014883Y004444D01*
X015153Y004724D02*
X017583Y004724D01*
X018243Y004114D01*
X018243Y004054D01*
X018263Y004034D01*
X017523Y004024D02*
X017513Y004034D01*
X016763Y004034D02*
X016743Y004024D01*
X016743Y003934D01*
X016563Y003754D01*
X016533Y003744D01*
X016533Y003474D01*
X017313Y002704D01*
X018993Y003144D02*
X020793Y003184D01*
X020313Y002374D02*
X021813Y003874D01*
X022083Y003874D01*
X022113Y003874D01*
X022353Y003814D02*
X022353Y004024D01*
X023103Y003694D02*
X022233Y002824D01*
X019833Y002374D02*
X019833Y002354D01*
X015273Y003034D02*
X015273Y004024D01*
X015263Y004034D01*
X013773Y004024D02*
X013763Y004034D01*
X013773Y004024D02*
X013773Y002674D01*
X014073Y002374D01*
X014083Y002354D01*
X011943Y005404D02*
X011343Y005404D01*
X011333Y005384D01*
X011943Y005404D02*
X011943Y005434D01*
X012363Y005854D01*
X013743Y005854D01*
X013983Y006094D01*
X014003Y006124D01*
X015193Y006124D01*
X014618Y006649D02*
X014613Y006649D01*
X014613Y006664D01*
X015033Y007084D01*
X015043Y007104D01*
X015093Y007114D01*
X017853Y007114D01*
X018003Y007264D01*
X019053Y007264D01*
X019063Y007264D01*
X018413Y006714D02*
X018053Y007004D01*
X018413Y006714D02*
X018403Y006414D01*
X018403Y006024D01*
X017603Y005614D01*
X017332Y005418D01*
X017343Y005404D01*
X017333Y005384D01*
X017313Y005404D02*
X017332Y005418D01*
X019333Y005384D02*
X019353Y005404D01*
X019373Y005434D01*
X019923Y005434D01*
X020143Y005434D01*
X020263Y005554D01*
X021153Y005554D01*
X021283Y005694D01*
X022743Y005694D01*
X024683Y007614D01*
X025833Y008764D01*
X025863Y008764D01*
X028853Y011744D01*
X028853Y014374D01*
X030693Y016264D01*
X030723Y016264D01*
X031473Y015514D01*
X036093Y015514D01*
X037413Y016834D01*
X037473Y016834D01*
X030693Y016624D02*
X030693Y016264D01*
X029643Y016774D02*
X029643Y015544D01*
X028713Y016204D02*
X028713Y016594D01*
X028713Y016204D02*
X028563Y016054D01*
X028563Y011734D01*
X022743Y005914D01*
X020853Y005914D01*
X020793Y005974D01*
X020703Y005974D01*
X024573Y003574D02*
X025533Y002614D01*
X025413Y001984D02*
X028153Y004724D01*
X028153Y005974D01*
X028403Y005974D01*
X027523Y006394D02*
X025113Y006394D01*
X024803Y006724D01*
X030683Y008284D02*
X030683Y009304D01*
X030683Y009894D01*
X030693Y014614D01*
X029643Y016774D02*
X026253Y020164D01*
X025837Y020580D01*
X025837Y021221D01*
X025833Y021214D01*
X026253Y020164D02*
X025143Y020164D01*
X023137Y021241D02*
X022893Y020997D01*
X022893Y020134D01*
X023137Y021241D02*
X023133Y021244D01*
X026673Y016954D02*
X026658Y016929D01*
X025263Y015544D01*
X025113Y015544D01*
X025293Y015304D02*
X025343Y015304D01*
X026603Y016504D01*
X027103Y016504D01*
X026873Y016944D02*
X026853Y016954D01*
X026673Y016954D01*
X021223Y013874D02*
X017683Y009934D01*
X015063Y007114D02*
X015043Y007104D01*
X014433Y007104D02*
X012123Y007104D01*
X013833Y006644D02*
X014613Y006649D01*
X006643Y007684D02*
X005553Y006604D01*
X005543Y006604D01*
X004823Y006074D02*
X004813Y006084D01*
X004823Y006074D02*
X005043Y004714D01*
X006123Y004514D01*
X006423Y004174D01*
X006643Y007684D02*
X006643Y009454D01*
X006543Y009544D01*
X006543Y011164D01*
X030683Y008284D02*
X031473Y007494D01*
X032823Y007494D01*
D30*
X026673Y006724D02*
X026253Y006724D01*
X025863Y007114D01*
X025753Y007144D01*
X025723Y007114D02*
X025773Y007024D01*
X021573Y004894D02*
X021573Y004834D01*
X016281Y009330D02*
X016253Y009364D01*
X010173Y010844D02*
X010173Y011194D01*
X005053Y007154D02*
X005053Y006384D01*
X005223Y004894D01*
X005613Y004824D01*
X006493Y004704D01*
X006693Y004294D01*
X006693Y003994D01*
X006543Y003844D01*
X005053Y007154D02*
X004953Y007254D01*
X009503Y019314D02*
X008473Y020164D01*
X006143Y020164D01*
X005653Y019754D01*
X004023Y019744D01*
X002933Y020784D01*
X001263Y020794D01*
X000843Y020374D01*
X000833Y020354D01*
X001833Y021354D02*
X001833Y021364D01*
X002593Y021344D01*
X003103Y021844D01*
X007483Y021854D01*
X008613Y021904D01*
X009033Y022324D01*
X012543Y022334D01*
X013563Y021874D02*
X014823Y021874D01*
X015083Y021354D02*
X016203Y022474D01*
X024193Y022484D01*
X024363Y022124D01*
X025153Y022124D01*
X025403Y021874D01*
X026463Y021874D01*
X027813Y020524D01*
X027813Y020314D01*
X031293Y016834D01*
X036303Y016834D01*
X037083Y017614D01*
X037083Y018244D01*
X038073Y019234D01*
X038073Y019354D01*
X038083Y019354D01*
X038493Y019174D02*
X038493Y019534D01*
X038103Y019924D01*
X038103Y020344D01*
X038083Y020354D01*
X038073Y020944D02*
X036873Y019744D01*
X036873Y017704D01*
X036213Y017044D01*
X032133Y017044D01*
X028443Y020734D01*
X028443Y022024D01*
X027873Y022594D01*
X027693Y022594D01*
X027683Y022614D01*
X027633Y022594D01*
X027033Y022594D01*
X027003Y022564D01*
X026993Y022544D01*
X026493Y021544D02*
X025433Y021544D01*
X025163Y021814D01*
X024223Y021814D01*
X023963Y022074D01*
X023963Y022204D01*
X026493Y021544D02*
X027603Y020434D01*
X027603Y020224D01*
X032133Y015694D01*
X035463Y015694D01*
X037293Y017524D01*
X037293Y018154D01*
X037923Y018784D01*
X038103Y018784D01*
X038493Y019174D01*
X036333Y018184D02*
X036333Y021124D01*
X036093Y021364D01*
X035643Y021184D02*
X035643Y021904D01*
X036093Y022354D01*
X036093Y022364D01*
X036303Y022804D02*
X033513Y022804D01*
X033093Y022384D01*
X033093Y022364D01*
X034093Y022364D02*
X034113Y022354D01*
X034533Y021934D01*
X034533Y021274D01*
X035793Y020014D01*
X035793Y019564D01*
X036063Y020764D02*
X035643Y021184D01*
X036063Y020764D02*
X036063Y018304D01*
X036333Y018184D02*
X035973Y017824D01*
X032463Y017824D01*
X032223Y018094D02*
X032193Y018064D01*
X031413Y018064D01*
X028653Y020824D01*
X028653Y021934D01*
X029073Y022354D01*
X029093Y022364D01*
X029553Y021814D02*
X030093Y022354D01*
X030093Y022364D01*
X029553Y021814D02*
X029553Y020224D01*
X031053Y018724D01*
X032073Y018724D01*
X032073Y018334D02*
X034563Y020824D01*
X034093Y021364D02*
X034083Y021364D01*
X033363Y020644D01*
X032373Y020324D02*
X031533Y021274D01*
X031533Y021934D01*
X031113Y022354D01*
X031093Y022364D01*
X031083Y021364D02*
X031093Y021364D01*
X031083Y021364D02*
X030063Y020344D01*
X029823Y020344D01*
X032373Y020324D02*
X032373Y019044D01*
X032283Y018094D02*
X032223Y018094D01*
X032073Y016444D02*
X032163Y016354D01*
X035633Y016354D01*
X028473Y016324D02*
X026083Y013944D01*
X025243Y013944D01*
X025183Y013984D01*
X016083Y021334D02*
X014733Y019984D01*
X010263Y019984D01*
X010163Y020034D01*
X009863Y020234D01*
X009093Y020594D02*
X014413Y020644D01*
X015083Y021354D01*
X016083Y021334D02*
X016083Y021354D01*
X013293Y019294D02*
X009503Y019314D01*
X009093Y020594D02*
X008613Y020824D01*
X006573Y020854D01*
X006113Y021354D01*
X003303Y021334D01*
X036303Y022804D02*
X036753Y022354D01*
X036753Y022264D01*
X038073Y020944D02*
X038673Y020944D01*
X039083Y021354D01*
D31*
X038083Y018354D02*
X038073Y018334D01*
X038073Y018034D01*
X036093Y016054D01*
X036093Y015844D01*
X036153Y015154D02*
X035003Y015154D01*
X034983Y015154D01*
X034503Y015154D01*
X034473Y015184D01*
X034453Y015204D01*
X030343Y015204D01*
X029633Y013794D01*
X029633Y008434D01*
X029334Y008467D02*
X027513Y008467D01*
X027513Y008409D02*
X029332Y008409D01*
X029331Y008350D02*
X027513Y008350D01*
X027513Y008292D02*
X029329Y008292D01*
X029328Y008233D02*
X027513Y008233D01*
X027513Y008175D02*
X029326Y008175D01*
X029324Y008116D02*
X027513Y008116D01*
X027513Y008058D02*
X029323Y008058D01*
X029321Y007999D02*
X027513Y007999D01*
X027513Y007941D02*
X029320Y007941D01*
X029318Y007882D02*
X027513Y007882D01*
X027513Y007823D02*
X029317Y007823D01*
X029315Y007765D02*
X027551Y007765D01*
X027513Y007804D02*
X027513Y010024D01*
X028533Y011044D01*
X029403Y011044D01*
X029313Y007674D01*
X029303Y007664D01*
X029303Y007424D01*
X029733Y006994D01*
X029883Y006994D01*
X030413Y007524D01*
X030413Y008154D01*
X031263Y007304D01*
X032463Y007304D01*
X033033Y006734D01*
X033033Y004214D01*
X032763Y003944D01*
X029703Y003944D01*
X029243Y004404D01*
X029243Y006074D01*
X027513Y007804D01*
X027610Y007706D02*
X029314Y007706D01*
X029303Y007648D02*
X027669Y007648D01*
X027727Y007589D02*
X029303Y007589D01*
X029303Y007531D02*
X027786Y007531D01*
X027844Y007472D02*
X029303Y007472D01*
X029313Y007414D02*
X027903Y007414D01*
X027961Y007355D02*
X029371Y007355D01*
X029430Y007297D02*
X028020Y007297D01*
X028078Y007238D02*
X029488Y007238D01*
X029547Y007179D02*
X028137Y007179D01*
X028195Y007121D02*
X029605Y007121D01*
X029664Y007062D02*
X028254Y007062D01*
X028312Y007004D02*
X029722Y007004D01*
X029893Y007004D02*
X032762Y007004D01*
X032704Y007062D02*
X029951Y007062D01*
X030010Y007121D02*
X032645Y007121D01*
X032587Y007179D02*
X030068Y007179D01*
X030127Y007238D02*
X032528Y007238D01*
X032470Y007297D02*
X030185Y007297D01*
X030244Y007355D02*
X031211Y007355D01*
X031153Y007414D02*
X030303Y007414D01*
X030361Y007472D02*
X031094Y007472D01*
X031036Y007531D02*
X030413Y007531D01*
X030413Y007589D02*
X030977Y007589D01*
X030919Y007648D02*
X030413Y007648D01*
X030413Y007706D02*
X030860Y007706D01*
X030801Y007765D02*
X030413Y007765D01*
X030413Y007823D02*
X030743Y007823D01*
X030684Y007882D02*
X030413Y007882D01*
X030413Y007941D02*
X030626Y007941D01*
X030567Y007999D02*
X030413Y007999D01*
X030413Y008058D02*
X030509Y008058D01*
X030450Y008116D02*
X030413Y008116D01*
X031283Y008314D02*
X032133Y009214D01*
X033063Y010144D01*
X033383Y010354D02*
X032713Y010354D01*
X033383Y010354D02*
X033823Y010784D01*
X035523Y010794D01*
X037583Y008744D01*
X039213Y008754D01*
X039573Y009114D01*
X039573Y014854D01*
X039093Y015334D01*
X039083Y015354D01*
X038643Y015204D02*
X038643Y015774D01*
X038583Y016424D01*
X038103Y017344D01*
X038083Y017354D01*
X037893Y015824D02*
X038283Y015824D01*
X038523Y015584D01*
X038523Y014914D01*
X038703Y014734D01*
X039083Y014354D01*
X039453Y014494D02*
X039123Y014824D01*
X038873Y014824D01*
X038643Y015204D01*
X038083Y015354D02*
X038063Y015354D01*
X037483Y014744D01*
X035993Y014604D01*
X033403Y014594D01*
X032743Y014744D01*
X030793Y014864D01*
X030513Y014864D01*
X030353Y014544D01*
X030063Y013844D01*
X030063Y009364D01*
X029359Y009404D02*
X027513Y009404D01*
X027513Y009346D02*
X029357Y009346D01*
X029356Y009287D02*
X027513Y009287D01*
X027513Y009228D02*
X029354Y009228D01*
X029353Y009170D02*
X027513Y009170D01*
X027513Y009111D02*
X029351Y009111D01*
X029349Y009053D02*
X027513Y009053D01*
X027513Y008994D02*
X029348Y008994D01*
X029346Y008936D02*
X027513Y008936D01*
X027513Y008877D02*
X029345Y008877D01*
X029343Y008819D02*
X027513Y008819D01*
X027513Y008760D02*
X029342Y008760D01*
X029340Y008702D02*
X027513Y008702D01*
X027513Y008643D02*
X029339Y008643D01*
X029337Y008584D02*
X027513Y008584D01*
X027513Y008526D02*
X029335Y008526D01*
X029360Y009463D02*
X027513Y009463D01*
X027513Y009521D02*
X029362Y009521D01*
X029364Y009580D02*
X027513Y009580D01*
X027513Y009638D02*
X029365Y009638D01*
X029367Y009697D02*
X027513Y009697D01*
X027513Y009755D02*
X029368Y009755D01*
X029370Y009814D02*
X027513Y009814D01*
X027513Y009872D02*
X029371Y009872D01*
X029373Y009931D02*
X027513Y009931D01*
X027513Y009990D02*
X029374Y009990D01*
X029376Y010048D02*
X027537Y010048D01*
X027596Y010107D02*
X029378Y010107D01*
X029379Y010165D02*
X027654Y010165D01*
X027713Y010224D02*
X029381Y010224D01*
X029382Y010282D02*
X027771Y010282D01*
X027830Y010341D02*
X029384Y010341D01*
X029385Y010399D02*
X027888Y010399D01*
X027947Y010458D02*
X029387Y010458D01*
X029389Y010516D02*
X028005Y010516D01*
X028064Y010575D02*
X029390Y010575D01*
X029392Y010634D02*
X028122Y010634D01*
X028181Y010692D02*
X029393Y010692D01*
X029395Y010751D02*
X028239Y010751D01*
X028298Y010809D02*
X029396Y010809D01*
X029398Y010868D02*
X028357Y010868D01*
X028415Y010926D02*
X029399Y010926D01*
X029401Y010985D02*
X028474Y010985D01*
X028532Y011043D02*
X029403Y011043D01*
X029403Y011374D02*
X029433Y013864D01*
X030243Y015364D01*
X037433Y015364D01*
X037563Y015494D01*
X037893Y015824D01*
X038083Y014354D02*
X038073Y014344D01*
X037323Y014344D01*
X036663Y013684D01*
X036213Y013684D01*
X036203Y013684D01*
X033483Y013684D01*
X033243Y013794D01*
X032683Y014374D01*
X033043Y014374D02*
X033453Y013974D01*
X035413Y013974D01*
X034633Y014184D02*
X036733Y014184D01*
X037033Y014374D01*
X037613Y013844D02*
X037183Y013414D01*
X036813Y013414D01*
X036803Y013414D01*
X033273Y013414D01*
X032133Y014554D01*
X032043Y014554D01*
X031923Y014374D02*
X032433Y013864D01*
X032433Y013654D01*
X033003Y013084D01*
X037803Y013084D01*
X038073Y013354D01*
X038083Y013354D01*
X038303Y013844D02*
X037613Y013844D01*
X038303Y013844D02*
X038813Y013354D01*
X039063Y013354D01*
X039083Y013354D01*
X038613Y012814D02*
X039063Y012364D01*
X039083Y012354D01*
X039183Y011974D02*
X039213Y011974D01*
X039453Y012214D01*
X039453Y014494D01*
X038613Y012814D02*
X033093Y012814D01*
X032313Y013594D01*
X032313Y013684D01*
X031833Y014164D01*
X031863Y013954D02*
X031563Y013954D01*
X031773Y013744D02*
X033093Y012424D01*
X037023Y012424D01*
X038073Y011374D01*
X038083Y011354D01*
X038583Y011374D02*
X039183Y011974D01*
X038583Y011374D02*
X038583Y010814D01*
X038083Y010354D02*
X038073Y010354D01*
X036123Y012304D01*
X033513Y012304D01*
X032073Y012304D01*
X031863Y012154D01*
X033033Y012694D02*
X037743Y012694D01*
X038083Y012354D01*
X036763Y010654D02*
X035893Y011534D01*
X032163Y011524D01*
X032513Y011274D02*
X033483Y011274D01*
X033333Y011864D02*
X033563Y012104D01*
X035833Y012104D01*
X038043Y009874D01*
X038043Y009394D01*
X038083Y009354D01*
X037653Y009104D02*
X037823Y008894D01*
X038673Y008894D01*
X039063Y009364D01*
X039083Y009354D01*
X037653Y009104D02*
X037653Y010074D01*
X037613Y010114D01*
X035853Y011884D01*
X033813Y011884D01*
X032793Y011044D02*
X035853Y011044D01*
X036023Y011034D01*
X036423Y010684D01*
X036143Y010484D02*
X036783Y010314D01*
X036143Y010484D02*
X035703Y010924D01*
X032853Y010924D01*
X031688Y009339D01*
X031653Y009304D01*
X031693Y009324D01*
X031123Y009494D02*
X032513Y011274D01*
X032793Y011044D02*
X031883Y010034D01*
X031873Y010034D01*
X033116Y009287D02*
X035142Y009287D01*
X035201Y009228D02*
X033057Y009228D01*
X032999Y009170D02*
X035261Y009170D01*
X035320Y009111D02*
X032940Y009111D01*
X032882Y009053D02*
X035379Y009053D01*
X035439Y008994D02*
X032823Y008994D01*
X032765Y008936D02*
X035498Y008936D01*
X035557Y008877D02*
X032706Y008877D01*
X032648Y008819D02*
X035616Y008819D01*
X035676Y008760D02*
X032589Y008760D01*
X032530Y008702D02*
X035735Y008702D01*
X035794Y008643D02*
X032472Y008643D01*
X032413Y008584D02*
X035854Y008584D01*
X035913Y008526D02*
X032355Y008526D01*
X032296Y008467D02*
X035972Y008467D01*
X036032Y008409D02*
X032238Y008409D01*
X032179Y008350D02*
X036091Y008350D01*
X036150Y008292D02*
X032121Y008292D01*
X032103Y008274D02*
X033313Y009484D01*
X034943Y009484D01*
X037223Y007234D01*
X037223Y004484D01*
X035953Y003214D01*
X034273Y003214D01*
X033323Y004164D01*
X033323Y007514D01*
X032933Y007904D01*
X032123Y007904D01*
X032103Y007924D01*
X032103Y008274D01*
X032103Y008233D02*
X036210Y008233D01*
X036269Y008175D02*
X032103Y008175D01*
X032103Y008116D02*
X036328Y008116D01*
X036388Y008058D02*
X032103Y008058D01*
X032103Y007999D02*
X036447Y007999D01*
X036506Y007941D02*
X032103Y007941D01*
X032954Y007882D02*
X036566Y007882D01*
X036625Y007823D02*
X033013Y007823D01*
X033071Y007765D02*
X036684Y007765D01*
X036744Y007706D02*
X033130Y007706D01*
X033189Y007648D02*
X036803Y007648D01*
X036862Y007589D02*
X033247Y007589D01*
X033306Y007531D02*
X036922Y007531D01*
X036981Y007472D02*
X033323Y007472D01*
X033323Y007414D02*
X037040Y007414D01*
X037100Y007355D02*
X033323Y007355D01*
X033323Y007297D02*
X037159Y007297D01*
X037218Y007238D02*
X033323Y007238D01*
X033323Y007179D02*
X037223Y007179D01*
X037223Y007121D02*
X033323Y007121D01*
X033323Y007062D02*
X037223Y007062D01*
X037223Y007004D02*
X033323Y007004D01*
X033323Y006945D02*
X037223Y006945D01*
X037223Y006887D02*
X033323Y006887D01*
X033323Y006828D02*
X037223Y006828D01*
X037223Y006770D02*
X033323Y006770D01*
X033323Y006711D02*
X037223Y006711D01*
X037223Y006653D02*
X033323Y006653D01*
X033323Y006594D02*
X037223Y006594D01*
X037223Y006535D02*
X033323Y006535D01*
X033323Y006477D02*
X037223Y006477D01*
X037223Y006418D02*
X033323Y006418D01*
X033323Y006360D02*
X037223Y006360D01*
X037223Y006301D02*
X033323Y006301D01*
X033323Y006243D02*
X037223Y006243D01*
X037223Y006184D02*
X033323Y006184D01*
X033323Y006126D02*
X037223Y006126D01*
X037223Y006067D02*
X033323Y006067D01*
X033323Y006009D02*
X037223Y006009D01*
X037223Y005950D02*
X033323Y005950D01*
X033323Y005891D02*
X037223Y005891D01*
X037223Y005833D02*
X033323Y005833D01*
X033323Y005774D02*
X037223Y005774D01*
X037223Y005716D02*
X033323Y005716D01*
X033323Y005657D02*
X037223Y005657D01*
X037223Y005599D02*
X033323Y005599D01*
X033323Y005540D02*
X037223Y005540D01*
X037223Y005482D02*
X033323Y005482D01*
X033323Y005423D02*
X037223Y005423D01*
X037223Y005365D02*
X033323Y005365D01*
X033323Y005306D02*
X037223Y005306D01*
X037223Y005248D02*
X033323Y005248D01*
X033323Y005189D02*
X037223Y005189D01*
X037223Y005130D02*
X033323Y005130D01*
X033323Y005072D02*
X037223Y005072D01*
X037223Y005013D02*
X033323Y005013D01*
X033323Y004955D02*
X037223Y004955D01*
X037223Y004896D02*
X033323Y004896D01*
X033323Y004838D02*
X037223Y004838D01*
X037223Y004779D02*
X033323Y004779D01*
X033323Y004721D02*
X037223Y004721D01*
X037223Y004662D02*
X033323Y004662D01*
X033323Y004604D02*
X037223Y004604D01*
X037223Y004545D02*
X033323Y004545D01*
X033323Y004486D02*
X037223Y004486D01*
X037167Y004428D02*
X033323Y004428D01*
X033323Y004369D02*
X037108Y004369D01*
X037050Y004311D02*
X033323Y004311D01*
X033323Y004252D02*
X036991Y004252D01*
X036933Y004194D02*
X033323Y004194D01*
X033351Y004135D02*
X036874Y004135D01*
X036816Y004077D02*
X033410Y004077D01*
X033468Y004018D02*
X036757Y004018D01*
X036698Y003960D02*
X033527Y003960D01*
X033585Y003901D02*
X036640Y003901D01*
X036581Y003842D02*
X033644Y003842D01*
X033702Y003784D02*
X036523Y003784D01*
X036464Y003725D02*
X033761Y003725D01*
X033819Y003667D02*
X036406Y003667D01*
X036347Y003608D02*
X033878Y003608D01*
X033937Y003550D02*
X036289Y003550D01*
X036230Y003491D02*
X033995Y003491D01*
X034054Y003433D02*
X036172Y003433D01*
X036113Y003374D02*
X034112Y003374D01*
X034171Y003316D02*
X036054Y003316D01*
X035996Y003257D02*
X034229Y003257D01*
X032833Y003384D02*
X032843Y003034D01*
X032843Y002494D01*
X032883Y002493D01*
X031383Y002493D02*
X031353Y002504D01*
X031363Y002954D01*
X031363Y003404D01*
X029953Y003404D02*
X029943Y002974D01*
X029963Y002494D01*
X029973Y002473D01*
X029463Y003404D02*
X027463Y003404D01*
X025503Y001444D01*
X025233Y001444D01*
X024213Y002464D01*
X024213Y002494D01*
X023973Y002734D01*
X023703Y002734D01*
X023703Y003394D01*
X023703Y002734D02*
X023193Y002734D01*
X022833Y002374D01*
X022833Y002354D01*
X022833Y002044D01*
X022083Y001294D01*
X022083Y001174D01*
X021753Y001144D02*
X022353Y001744D01*
X022353Y002374D01*
X024063Y004084D01*
X025533Y004084D01*
X025753Y004304D01*
X025753Y004854D01*
X024703Y005904D01*
X024443Y005904D01*
X024663Y005684D02*
X025513Y004834D01*
X025513Y004464D01*
X025413Y004364D01*
X022343Y004364D01*
X023673Y005694D01*
X024673Y005694D01*
X024663Y005684D01*
X024689Y005657D02*
X023636Y005657D01*
X023578Y005599D02*
X024748Y005599D01*
X024806Y005540D02*
X023519Y005540D01*
X023461Y005482D02*
X024865Y005482D01*
X024923Y005423D02*
X023402Y005423D01*
X023344Y005365D02*
X024982Y005365D01*
X025040Y005306D02*
X023285Y005306D01*
X023226Y005248D02*
X025099Y005248D01*
X025157Y005189D02*
X023168Y005189D01*
X023109Y005130D02*
X025216Y005130D01*
X025274Y005072D02*
X023051Y005072D01*
X022992Y005013D02*
X025333Y005013D01*
X025391Y004955D02*
X022934Y004955D01*
X022875Y004896D02*
X025450Y004896D01*
X025509Y004838D02*
X022817Y004838D01*
X022758Y004779D02*
X025513Y004779D01*
X025513Y004721D02*
X022700Y004721D01*
X022641Y004662D02*
X025513Y004662D01*
X025513Y004604D02*
X022582Y004604D01*
X022524Y004545D02*
X025513Y004545D01*
X025513Y004486D02*
X022465Y004486D01*
X022407Y004428D02*
X025477Y004428D01*
X025418Y004369D02*
X022348Y004369D01*
X021873Y004324D02*
X021633Y004324D01*
X021543Y004414D01*
X019383Y004414D01*
X019023Y004054D01*
X019013Y004034D01*
X018993Y003994D01*
X018993Y003694D01*
X018723Y003424D01*
X018543Y003424D01*
X018483Y003484D01*
X017133Y003484D01*
X017113Y003484D01*
X018643Y003644D02*
X018653Y003574D01*
X018653Y003564D01*
X018643Y003894D01*
X018633Y005744D01*
X018903Y006034D01*
X018903Y006574D01*
X019143Y006824D02*
X018583Y006804D01*
X018583Y005984D01*
X018323Y005724D01*
X018243Y005724D01*
X018243Y005704D01*
X017673Y005134D01*
X017583Y005134D01*
X017583Y005114D01*
X017193Y005114D01*
X016613Y005694D01*
X014803Y005694D01*
X014663Y005844D01*
X014163Y005844D01*
X013873Y005544D01*
X013873Y005284D01*
X013633Y004774D01*
X013623Y004774D01*
X011763Y004774D01*
X011523Y004534D01*
X011523Y004054D01*
X011513Y004034D01*
X011493Y004024D01*
X011493Y002764D01*
X011083Y002354D01*
X010753Y003134D02*
X010083Y002354D01*
X009603Y002894D02*
X009858Y003139D01*
X009903Y003184D01*
X009903Y003364D01*
X009993Y003454D01*
X009993Y004024D01*
X010013Y004034D01*
X010743Y004024D02*
X010763Y004034D01*
X010773Y004054D01*
X010743Y004024D02*
X010753Y003134D01*
X009858Y003139D02*
X009093Y002374D01*
X009083Y002354D01*
X008833Y001854D02*
X008513Y002174D01*
X008513Y002964D01*
X008703Y003474D01*
X008773Y003604D01*
X008613Y003754D02*
X008793Y003934D01*
X008853Y003934D01*
X008883Y003964D01*
X009513Y004594D01*
X009512Y004615D01*
X010863Y004624D01*
X011213Y004924D01*
X013463Y004924D01*
X013653Y005274D01*
X013653Y005524D01*
X014033Y005894D01*
X014103Y005964D01*
X014923Y005964D01*
X014973Y005914D01*
X015623Y005914D01*
X014843Y006374D02*
X017273Y006374D01*
X017313Y006314D01*
X017613Y006544D02*
X017723Y006484D01*
X018153Y006234D01*
X017613Y006544D02*
X015083Y006544D01*
X014783Y006544D01*
X014663Y006424D01*
X013923Y006424D01*
X013703Y006424D01*
X013573Y006554D01*
X011613Y006554D01*
X011313Y006234D01*
X011283Y006244D01*
X010593Y006244D01*
X009813Y005464D01*
X009123Y005464D01*
X008823Y005464D02*
X008833Y004104D01*
X008823Y004084D01*
X008043Y004084D01*
X007773Y003814D01*
X007773Y002674D01*
X007754Y002653D01*
X007753Y002654D01*
X007754Y002653D02*
X008083Y002354D01*
X008833Y001854D02*
X014253Y001854D01*
X014713Y001454D01*
X015613Y001444D01*
X014713Y001454D02*
X014713Y001474D01*
X013573Y002074D02*
X013483Y001984D01*
X012803Y001984D01*
X012733Y001984D01*
X012583Y002124D01*
X012583Y003364D01*
X012643Y003564D01*
X012643Y004254D01*
X012333Y004564D01*
X011853Y004564D01*
X012243Y004024D02*
X012263Y004034D01*
X012243Y004024D02*
X012243Y002524D01*
X012093Y002374D01*
X012083Y002354D01*
X013023Y002434D02*
X013083Y002374D01*
X013083Y002354D01*
X013023Y002434D02*
X013023Y004024D01*
X013013Y004034D01*
X013013Y004504D01*
X013703Y004504D01*
X014023Y004894D01*
X014023Y005514D01*
X014223Y005714D01*
X014483Y005714D01*
X014703Y005544D01*
X016093Y005064D01*
X016623Y005064D01*
X016733Y005174D01*
X016833Y005174D01*
X019033Y005124D02*
X019033Y005544D01*
X019073Y005624D01*
X019713Y006264D01*
X019713Y007324D01*
X017013Y010024D01*
X017013Y010054D01*
X017013Y011374D01*
X017013Y011394D01*
X016683Y011554D02*
X016663Y011534D01*
X016683Y011554D02*
X016863Y011734D01*
X016863Y012214D01*
X016863Y013504D01*
X017623Y013502D02*
X019373Y013502D01*
X019373Y013444D02*
X017623Y013444D01*
X017623Y013385D02*
X019344Y013385D01*
X019373Y013414D02*
X017873Y011914D01*
X017623Y011914D01*
X017623Y015314D01*
X016833Y016104D01*
X017073Y016104D01*
X017083Y016094D01*
X017313Y016074D01*
X018293Y016074D01*
X019373Y014994D01*
X019373Y013414D01*
X019285Y013326D02*
X017623Y013326D01*
X017623Y013268D02*
X019227Y013268D01*
X019168Y013209D02*
X017623Y013209D01*
X017623Y013151D02*
X019110Y013151D01*
X019051Y013092D02*
X017623Y013092D01*
X017623Y013034D02*
X018993Y013034D01*
X018934Y012975D02*
X017623Y012975D01*
X017623Y012917D02*
X018876Y012917D01*
X018817Y012858D02*
X017623Y012858D01*
X017623Y012800D02*
X018759Y012800D01*
X018700Y012741D02*
X017623Y012741D01*
X017623Y012683D02*
X018641Y012683D01*
X018583Y012624D02*
X017623Y012624D01*
X017623Y012565D02*
X018524Y012565D01*
X018466Y012507D02*
X017623Y012507D01*
X017623Y012448D02*
X018407Y012448D01*
X018349Y012390D02*
X017623Y012390D01*
X017623Y012331D02*
X018290Y012331D01*
X018232Y012273D02*
X017623Y012273D01*
X017623Y012214D02*
X018173Y012214D01*
X018115Y012156D02*
X017623Y012156D01*
X017623Y012097D02*
X018056Y012097D01*
X017997Y012039D02*
X017623Y012039D01*
X017623Y011980D02*
X017939Y011980D01*
X017880Y011921D02*
X017623Y011921D01*
X017913Y011614D02*
X019573Y013354D01*
X019583Y015084D01*
X018423Y016244D01*
X017313Y016244D01*
X015573Y017644D01*
X015453Y017644D01*
X015433Y017654D01*
X015433Y018354D02*
X017343Y016424D01*
X018493Y016424D01*
X020023Y015094D01*
X019373Y014966D02*
X017623Y014966D01*
X017623Y015024D02*
X019342Y015024D01*
X019284Y015083D02*
X017623Y015083D01*
X017623Y015141D02*
X019225Y015141D01*
X019166Y015200D02*
X017623Y015200D01*
X017623Y015258D02*
X019108Y015258D01*
X019049Y015317D02*
X017619Y015317D01*
X017561Y015376D02*
X018991Y015376D01*
X018932Y015434D02*
X017502Y015434D01*
X017444Y015493D02*
X018874Y015493D01*
X018815Y015551D02*
X017385Y015551D01*
X017327Y015610D02*
X018757Y015610D01*
X018698Y015668D02*
X017268Y015668D01*
X017210Y015727D02*
X018640Y015727D01*
X018581Y015785D02*
X017151Y015785D01*
X017092Y015844D02*
X018522Y015844D01*
X018464Y015902D02*
X017034Y015902D01*
X016975Y015961D02*
X018405Y015961D01*
X018347Y016019D02*
X016917Y016019D01*
X016858Y016078D02*
X017263Y016078D01*
X017373Y015224D02*
X016123Y016254D01*
X014883Y016104D02*
X014453Y016444D01*
X012483Y018384D01*
X006673Y018384D01*
X006093Y018964D01*
X003763Y018974D01*
X003183Y018364D01*
X001833Y018364D01*
X001833Y018354D01*
X001203Y017974D02*
X000843Y018334D01*
X000833Y018354D01*
X001203Y017974D02*
X003033Y017974D01*
X003873Y018804D01*
X005743Y018794D01*
X006353Y018174D01*
X010413Y018164D01*
X012393Y018164D01*
X012423Y018154D01*
X012433Y018144D01*
X015343Y015244D01*
X016003Y014594D01*
X016023Y014614D01*
X016503Y014134D01*
X016523Y014114D01*
X016523Y011924D01*
X016503Y011914D01*
X016233Y011644D01*
X016233Y011344D01*
X016213Y011324D01*
X016053Y011674D02*
X016323Y011944D01*
X016333Y011954D01*
X016343Y014054D01*
X012403Y017974D01*
X005733Y017974D01*
X005133Y017374D01*
X001833Y017374D01*
X001833Y017354D01*
X002103Y017614D02*
X001983Y017734D01*
X000693Y017734D01*
X000453Y017494D01*
X000453Y013924D01*
X000513Y013864D01*
X000783Y013834D02*
X000453Y013504D01*
X000453Y012724D01*
X000813Y012364D01*
X000833Y012354D01*
X001203Y012454D02*
X001203Y012994D01*
X000843Y013354D01*
X000833Y013354D01*
X000783Y013834D02*
X003993Y013834D01*
X004473Y014314D01*
X011403Y014314D01*
X011523Y014194D01*
X012153Y014194D01*
X012603Y014434D02*
X004293Y014434D01*
X003903Y014044D01*
X003663Y014554D02*
X003343Y014234D01*
X003663Y014554D02*
X004473Y014554D01*
X004773Y014854D01*
X010563Y014854D01*
X010803Y015094D01*
X014103Y015094D01*
X015663Y013534D01*
X015733Y013424D01*
X015153Y013414D02*
X013683Y014884D01*
X013173Y014884D01*
X013743Y014644D02*
X006093Y014644D01*
X005523Y015214D02*
X005493Y015244D01*
X005523Y015214D02*
X010503Y015214D01*
X010783Y015494D01*
X013593Y015484D01*
X014163Y015214D02*
X010743Y015214D01*
X010503Y014974D01*
X004713Y014974D01*
X004653Y014914D01*
X003703Y014914D01*
X004203Y015124D02*
X005013Y015934D01*
X006513Y017434D01*
X010143Y017434D01*
X010803Y016764D01*
X010803Y016164D01*
X011463Y016294D02*
X010203Y017554D01*
X006093Y017554D01*
X004203Y015664D01*
X003303Y015664D01*
X003273Y015694D01*
X002713Y015704D02*
X001743Y014734D01*
X001203Y014734D01*
X000843Y014374D01*
X000833Y014354D01*
X001833Y014354D02*
X001833Y014374D01*
X002583Y015124D01*
X004203Y015124D01*
X005073Y015334D02*
X006333Y016594D01*
X008253Y016574D02*
X008253Y016564D01*
X008433Y016564D01*
X009543Y015454D01*
X009563Y015434D01*
X010293Y015424D01*
X010083Y015744D02*
X010203Y015864D01*
X010203Y017074D01*
X012033Y018544D02*
X012003Y018584D01*
X012063Y018544D01*
X012033Y018544D02*
X012033Y018604D01*
X012003Y018584D02*
X007603Y018574D01*
X006783Y019394D01*
X008833Y020974D02*
X008963Y020884D01*
X009583Y020874D01*
X008833Y020974D02*
X008493Y021224D01*
X008163Y021374D01*
X008103Y021364D01*
X008083Y021354D01*
X010383Y020254D02*
X014583Y020254D01*
X015513Y021184D01*
X015513Y021304D01*
X016263Y022054D01*
X020173Y022054D01*
X020863Y021364D01*
X020883Y021364D01*
X021083Y021354D01*
X021063Y021364D01*
X020883Y021364D01*
X020873Y019984D01*
X021877Y019298D02*
X023343Y019298D01*
X023343Y019356D02*
X021933Y019356D01*
X021933Y019354D02*
X021573Y018994D01*
X021503Y018994D01*
X023343Y015704D01*
X023343Y019474D01*
X024333Y020464D01*
X023983Y020904D01*
X023273Y020874D01*
X023273Y019904D01*
X022923Y019644D01*
X022443Y020014D01*
X022443Y021234D01*
X022623Y021414D01*
X022623Y021994D01*
X022393Y022224D01*
X022113Y022224D01*
X021933Y022034D01*
X021933Y019354D01*
X021933Y019415D02*
X023343Y019415D01*
X023343Y019474D02*
X021933Y019474D01*
X021933Y019532D02*
X023401Y019532D01*
X023460Y019591D02*
X021933Y019591D01*
X021933Y019649D02*
X022915Y019649D01*
X022930Y019649D02*
X023518Y019649D01*
X023577Y019708D02*
X023009Y019708D01*
X023088Y019766D02*
X023635Y019766D01*
X023694Y019825D02*
X023166Y019825D01*
X023245Y019883D02*
X023752Y019883D01*
X023811Y019942D02*
X023273Y019942D01*
X023273Y020000D02*
X023869Y020000D01*
X023928Y020059D02*
X023273Y020059D01*
X023273Y020118D02*
X023986Y020118D01*
X024045Y020176D02*
X023273Y020176D01*
X023273Y020235D02*
X024104Y020235D01*
X024162Y020293D02*
X023273Y020293D01*
X023273Y020352D02*
X024221Y020352D01*
X024279Y020410D02*
X023273Y020410D01*
X023273Y020469D02*
X024329Y020469D01*
X024282Y020527D02*
X023273Y020527D01*
X023273Y020586D02*
X024235Y020586D01*
X024189Y020644D02*
X023273Y020644D01*
X023273Y020703D02*
X024142Y020703D01*
X024096Y020761D02*
X023273Y020761D01*
X023273Y020820D02*
X024049Y020820D01*
X024003Y020879D02*
X023388Y020879D01*
X022614Y021405D02*
X021933Y021405D01*
X021933Y021347D02*
X022556Y021347D01*
X022497Y021288D02*
X021933Y021288D01*
X021933Y021230D02*
X022443Y021230D01*
X022443Y021171D02*
X021933Y021171D01*
X021933Y021113D02*
X022443Y021113D01*
X022443Y021054D02*
X021933Y021054D01*
X021933Y020996D02*
X022443Y020996D01*
X022443Y020937D02*
X021933Y020937D01*
X021933Y020879D02*
X022443Y020879D01*
X022443Y020820D02*
X021933Y020820D01*
X021933Y020761D02*
X022443Y020761D01*
X022443Y020703D02*
X021933Y020703D01*
X021933Y020644D02*
X022443Y020644D01*
X022443Y020586D02*
X021933Y020586D01*
X021933Y020527D02*
X022443Y020527D01*
X022443Y020469D02*
X021933Y020469D01*
X021933Y020410D02*
X022443Y020410D01*
X022443Y020352D02*
X021933Y020352D01*
X021933Y020293D02*
X022443Y020293D01*
X022443Y020235D02*
X021933Y020235D01*
X021933Y020176D02*
X022443Y020176D01*
X022443Y020118D02*
X021933Y020118D01*
X021933Y020059D02*
X022443Y020059D01*
X022460Y020000D02*
X021933Y020000D01*
X021933Y019942D02*
X022536Y019942D01*
X022612Y019883D02*
X021933Y019883D01*
X021933Y019825D02*
X022688Y019825D01*
X022764Y019766D02*
X021933Y019766D01*
X021933Y019708D02*
X022840Y019708D01*
X023343Y019239D02*
X021818Y019239D01*
X021760Y019181D02*
X023343Y019181D01*
X023343Y019122D02*
X021701Y019122D01*
X021643Y019064D02*
X023343Y019064D01*
X023343Y019005D02*
X021584Y019005D01*
X021529Y018947D02*
X023343Y018947D01*
X023343Y018888D02*
X021562Y018888D01*
X021594Y018830D02*
X023343Y018830D01*
X023343Y018771D02*
X021627Y018771D01*
X021660Y018712D02*
X023343Y018712D01*
X023343Y018654D02*
X021693Y018654D01*
X021725Y018595D02*
X023343Y018595D01*
X023343Y018537D02*
X021758Y018537D01*
X021791Y018478D02*
X023343Y018478D01*
X023343Y018420D02*
X021824Y018420D01*
X021856Y018361D02*
X023343Y018361D01*
X023343Y018303D02*
X021889Y018303D01*
X021922Y018244D02*
X023343Y018244D01*
X023343Y018186D02*
X021955Y018186D01*
X021987Y018127D02*
X023343Y018127D01*
X023343Y018069D02*
X022020Y018069D01*
X022053Y018010D02*
X023343Y018010D01*
X023343Y017951D02*
X022086Y017951D01*
X022118Y017893D02*
X023343Y017893D01*
X023343Y017834D02*
X022151Y017834D01*
X022184Y017776D02*
X023343Y017776D01*
X023343Y017717D02*
X022216Y017717D01*
X022249Y017659D02*
X023343Y017659D01*
X023343Y017600D02*
X022282Y017600D01*
X022315Y017542D02*
X023343Y017542D01*
X023343Y017483D02*
X022347Y017483D01*
X022380Y017425D02*
X023343Y017425D01*
X023343Y017366D02*
X022413Y017366D01*
X022446Y017307D02*
X023343Y017307D01*
X023343Y017249D02*
X022478Y017249D01*
X022511Y017190D02*
X023343Y017190D01*
X023343Y017132D02*
X022544Y017132D01*
X022577Y017073D02*
X023343Y017073D01*
X023343Y017015D02*
X022609Y017015D01*
X022642Y016956D02*
X023343Y016956D01*
X023343Y016898D02*
X022675Y016898D01*
X022708Y016839D02*
X023343Y016839D01*
X023343Y016781D02*
X022740Y016781D01*
X022773Y016722D02*
X023343Y016722D01*
X023343Y016663D02*
X022806Y016663D01*
X022839Y016605D02*
X023343Y016605D01*
X023343Y016546D02*
X022871Y016546D01*
X022904Y016488D02*
X023343Y016488D01*
X023343Y016429D02*
X022937Y016429D01*
X022970Y016371D02*
X023343Y016371D01*
X023343Y016312D02*
X023002Y016312D01*
X023035Y016254D02*
X023343Y016254D01*
X023343Y016195D02*
X023068Y016195D01*
X023101Y016137D02*
X023343Y016137D01*
X023343Y016078D02*
X023133Y016078D01*
X023166Y016019D02*
X023343Y016019D01*
X023343Y015961D02*
X023199Y015961D01*
X023231Y015902D02*
X023343Y015902D01*
X023343Y015844D02*
X023264Y015844D01*
X023297Y015785D02*
X023343Y015785D01*
X023343Y015727D02*
X023330Y015727D01*
X023613Y015514D02*
X024273Y014854D01*
X024273Y014524D01*
X024273Y014484D01*
X024353Y015204D02*
X023843Y015714D01*
X023843Y019364D01*
X024013Y019494D01*
X024263Y019694D01*
X024443Y019854D01*
X024883Y019854D01*
X026073Y019844D01*
X027953Y017964D01*
X027993Y017964D01*
X028003Y017484D01*
X026893Y017474D01*
X025183Y015874D01*
X024903Y015874D01*
X024353Y015324D01*
X024353Y015204D01*
X024353Y015258D02*
X024298Y015258D01*
X024353Y015317D02*
X024239Y015317D01*
X024181Y015376D02*
X024404Y015376D01*
X024463Y015434D02*
X024122Y015434D01*
X024064Y015493D02*
X024521Y015493D01*
X024580Y015551D02*
X024005Y015551D01*
X023947Y015610D02*
X024639Y015610D01*
X024697Y015668D02*
X023888Y015668D01*
X023843Y015727D02*
X024756Y015727D01*
X024814Y015785D02*
X023843Y015785D01*
X023843Y015844D02*
X024873Y015844D01*
X025213Y015902D02*
X023843Y015902D01*
X023843Y015961D02*
X025276Y015961D01*
X025338Y016019D02*
X023843Y016019D01*
X023843Y016078D02*
X025401Y016078D01*
X025464Y016137D02*
X023843Y016137D01*
X023843Y016195D02*
X025526Y016195D01*
X025589Y016254D02*
X023843Y016254D01*
X023843Y016312D02*
X025651Y016312D01*
X025714Y016371D02*
X023843Y016371D01*
X023843Y016429D02*
X025776Y016429D01*
X025839Y016488D02*
X023843Y016488D01*
X023843Y016546D02*
X025902Y016546D01*
X025964Y016605D02*
X023843Y016605D01*
X023843Y016663D02*
X026027Y016663D01*
X026089Y016722D02*
X023843Y016722D01*
X023843Y016781D02*
X026152Y016781D01*
X026214Y016839D02*
X023843Y016839D01*
X023843Y016898D02*
X026277Y016898D01*
X026340Y016956D02*
X023843Y016956D01*
X023843Y017015D02*
X026402Y017015D01*
X026465Y017073D02*
X023843Y017073D01*
X023843Y017132D02*
X026527Y017132D01*
X026590Y017190D02*
X023843Y017190D01*
X023843Y017249D02*
X026652Y017249D01*
X026715Y017307D02*
X023843Y017307D01*
X023843Y017366D02*
X026777Y017366D01*
X026840Y017425D02*
X023843Y017425D01*
X023843Y017483D02*
X027933Y017483D01*
X028001Y017542D02*
X023843Y017542D01*
X023843Y017600D02*
X028000Y017600D01*
X027999Y017659D02*
X023843Y017659D01*
X023843Y017717D02*
X027998Y017717D01*
X027996Y017776D02*
X023843Y017776D01*
X023843Y017834D02*
X027995Y017834D01*
X027994Y017893D02*
X023843Y017893D01*
X023843Y017951D02*
X027993Y017951D01*
X027906Y018010D02*
X023843Y018010D01*
X023843Y018069D02*
X027848Y018069D01*
X027789Y018127D02*
X023843Y018127D01*
X023843Y018186D02*
X027731Y018186D01*
X027672Y018244D02*
X023843Y018244D01*
X023843Y018303D02*
X027614Y018303D01*
X027555Y018361D02*
X023843Y018361D01*
X023843Y018420D02*
X027497Y018420D01*
X027438Y018478D02*
X023843Y018478D01*
X023843Y018537D02*
X027379Y018537D01*
X027321Y018595D02*
X023843Y018595D01*
X023843Y018654D02*
X027262Y018654D01*
X027204Y018712D02*
X023843Y018712D01*
X023843Y018771D02*
X027145Y018771D01*
X027087Y018830D02*
X023843Y018830D01*
X023843Y018888D02*
X027028Y018888D01*
X026970Y018947D02*
X023843Y018947D01*
X023843Y019005D02*
X026911Y019005D01*
X026853Y019064D02*
X023843Y019064D01*
X023843Y019122D02*
X026794Y019122D01*
X026735Y019181D02*
X023843Y019181D01*
X023843Y019239D02*
X026677Y019239D01*
X026618Y019298D02*
X023843Y019298D01*
X023843Y019356D02*
X026560Y019356D01*
X026501Y019415D02*
X023910Y019415D01*
X023986Y019474D02*
X026443Y019474D01*
X026384Y019532D02*
X024061Y019532D01*
X024134Y019591D02*
X026326Y019591D01*
X026267Y019649D02*
X024207Y019649D01*
X024278Y019708D02*
X026209Y019708D01*
X026150Y019766D02*
X024344Y019766D01*
X024410Y019825D02*
X026091Y019825D01*
X025163Y020954D02*
X025143Y020944D01*
X023613Y019414D01*
X023613Y015514D01*
X022743Y014734D02*
X021873Y015604D01*
X021873Y016844D01*
X020913Y018124D01*
X020863Y018184D01*
X020493Y017914D02*
X020493Y018544D01*
X020043Y018994D01*
X020033Y019054D01*
X020043Y019054D01*
X020043Y018994D01*
X020163Y018694D02*
X020373Y018484D01*
X020363Y013764D01*
X017753Y011024D01*
X017743Y011394D02*
X017913Y011614D01*
X016053Y011674D02*
X014463Y011674D01*
X014453Y011674D01*
X013893Y011674D01*
X013653Y011884D02*
X013293Y012244D01*
X013283Y012254D01*
X011623Y012254D01*
X011373Y012254D01*
X010973Y012254D01*
X010513Y012714D01*
X009953Y013274D01*
X007583Y013274D01*
X007103Y013274D01*
X006063Y012184D01*
X005943Y012054D01*
X005493Y011524D01*
X005193Y011764D02*
X006843Y013414D01*
X006963Y013414D01*
X006973Y013414D01*
X010003Y013414D01*
X010553Y012854D01*
X010563Y012844D01*
X010923Y012484D01*
X013233Y012484D01*
X013413Y012304D01*
X014463Y012304D01*
X014473Y012294D01*
X014743Y012544D02*
X013473Y012544D01*
X013403Y012614D01*
X012933Y012614D01*
X012823Y012724D01*
X011853Y012724D01*
X011463Y013114D01*
X010633Y013114D01*
X010153Y013554D01*
X006763Y013554D01*
X006123Y012904D01*
X005773Y012904D01*
X003953Y011004D01*
X003563Y010444D02*
X005793Y010444D01*
X006103Y009364D02*
X006373Y009364D01*
X006103Y009364D02*
X003183Y009364D01*
X002503Y009364D01*
X001993Y008854D01*
X001653Y008854D01*
X001543Y008924D01*
X001223Y008924D01*
X000833Y009354D01*
X000453Y009214D02*
X000933Y008734D01*
X001473Y008734D01*
X001833Y008374D01*
X001833Y008354D01*
X002783Y008264D02*
X001833Y007354D01*
X002783Y008264D02*
X002783Y009114D01*
X001983Y009364D02*
X002763Y010144D01*
X005913Y013294D01*
X005463Y013504D02*
X006543Y013504D01*
X006713Y013674D01*
X010263Y013674D01*
X010823Y013364D01*
X010833Y013374D01*
X011053Y013804D02*
X011253Y013614D01*
X011253Y013624D01*
X011463Y013714D02*
X011253Y013924D01*
X006483Y013924D01*
X006393Y013834D01*
X006483Y013624D02*
X006673Y013804D01*
X011053Y013804D01*
X011313Y014044D02*
X005103Y014044D01*
X004443Y013384D01*
X002803Y013384D01*
X002473Y013054D01*
X002463Y013054D01*
X001833Y012424D01*
X001833Y012364D01*
X001833Y012354D01*
X001833Y012364D01*
X001983Y011974D02*
X002613Y012604D01*
X002613Y012934D01*
X002943Y013264D01*
X004803Y013264D01*
X005163Y013624D01*
X006483Y013624D01*
X007193Y013014D02*
X007343Y013134D01*
X009903Y013144D01*
X011043Y012004D01*
X011523Y012004D01*
X011113Y011594D02*
X009813Y012934D01*
X009513Y012934D02*
X010733Y011674D01*
X010653Y011384D02*
X009163Y012904D01*
X008613Y012904D01*
X008583Y011854D02*
X009903Y011854D01*
X010663Y011094D01*
X011123Y011094D01*
X011143Y011094D01*
X011403Y011344D01*
X014883Y011344D01*
X014883Y011094D01*
X015983Y009994D01*
X016523Y009644D01*
X016873Y009644D01*
X017453Y009054D01*
X017463Y009054D01*
X017453Y009064D01*
X017003Y008634D02*
X016983Y008644D01*
X016653Y008644D01*
X016633Y008634D01*
X016623Y008634D01*
X015543Y008934D01*
X014573Y008934D01*
X013783Y008494D01*
X009383Y008484D01*
X009373Y008844D02*
X009773Y008844D01*
X009863Y008934D01*
X013803Y008934D01*
X014313Y009444D01*
X015473Y009444D01*
X015223Y009904D02*
X015213Y009904D01*
X015033Y009904D01*
X015023Y009904D01*
X014533Y009904D01*
X013743Y009104D01*
X009643Y009104D01*
X009333Y009384D02*
X012853Y009364D01*
X013473Y010054D01*
X013743Y010324D01*
X013743Y010504D01*
X013403Y010516D02*
X009913Y010516D01*
X009933Y010554D02*
X009953Y010534D01*
X013403Y010534D01*
X013403Y010354D01*
X012623Y009574D01*
X009933Y009574D01*
X009913Y009594D01*
X009913Y010564D01*
X009933Y010554D01*
X009913Y010458D02*
X013403Y010458D01*
X013403Y010399D02*
X009913Y010399D01*
X009913Y010341D02*
X013390Y010341D01*
X013331Y010282D02*
X009913Y010282D01*
X009913Y010224D02*
X013273Y010224D01*
X013214Y010165D02*
X009913Y010165D01*
X009913Y010107D02*
X013156Y010107D01*
X013097Y010048D02*
X009913Y010048D01*
X009913Y009990D02*
X013038Y009990D01*
X012980Y009931D02*
X009913Y009931D01*
X009913Y009872D02*
X012921Y009872D01*
X012863Y009814D02*
X009913Y009814D01*
X009913Y009755D02*
X012804Y009755D01*
X012746Y009697D02*
X009913Y009697D01*
X009913Y009638D02*
X012687Y009638D01*
X012629Y009580D02*
X009927Y009580D01*
X008863Y009574D02*
X008583Y009834D01*
X008863Y009574D02*
X008873Y007654D01*
X008733Y007514D01*
X007893Y007494D01*
X007723Y007324D01*
X007723Y007314D01*
X008203Y007274D02*
X007843Y006824D01*
X007833Y006154D01*
X008043Y006064D02*
X007863Y005884D01*
X007863Y005314D01*
X008163Y005314D02*
X008163Y005014D01*
X008163Y004834D01*
X008433Y004444D01*
X008613Y004444D01*
X008593Y004704D02*
X008473Y004704D01*
X008323Y004854D01*
X008323Y005014D01*
X008453Y005144D01*
X008453Y005394D01*
X008363Y005484D01*
X008363Y006574D01*
X008383Y006564D01*
X008393Y006554D01*
X009173Y006554D01*
X009503Y006884D01*
X010033Y006884D01*
X008713Y005564D01*
X008713Y005523D01*
X008703Y005513D01*
X008702Y005513D01*
X008703Y005464D01*
X008703Y005414D01*
X008707Y004818D01*
X008593Y004704D01*
X008610Y004721D02*
X008456Y004721D01*
X008397Y004779D02*
X008668Y004779D01*
X008707Y004838D02*
X008339Y004838D01*
X008323Y004896D02*
X008707Y004896D01*
X008706Y004955D02*
X008323Y004955D01*
X008323Y005013D02*
X008706Y005013D01*
X008705Y005072D02*
X008381Y005072D01*
X008439Y005130D02*
X008705Y005130D01*
X008705Y005189D02*
X008453Y005189D01*
X008453Y005248D02*
X008704Y005248D01*
X008704Y005306D02*
X008453Y005306D01*
X008453Y005365D02*
X008703Y005365D01*
X008703Y005414D02*
X008703Y005414D01*
X008703Y005423D02*
X008423Y005423D01*
X008365Y005482D02*
X008702Y005482D01*
X008703Y005513D02*
X008703Y005513D01*
X008713Y005540D02*
X008363Y005540D01*
X008363Y005599D02*
X008748Y005599D01*
X008806Y005657D02*
X008363Y005657D01*
X008363Y005716D02*
X008865Y005716D01*
X008923Y005774D02*
X008363Y005774D01*
X008363Y005833D02*
X008982Y005833D01*
X009040Y005891D02*
X008363Y005891D01*
X008363Y005950D02*
X009099Y005950D01*
X009157Y006009D02*
X008363Y006009D01*
X008363Y006067D02*
X009216Y006067D01*
X009275Y006126D02*
X008363Y006126D01*
X008363Y006184D02*
X009333Y006184D01*
X009392Y006243D02*
X008363Y006243D01*
X008363Y006301D02*
X009450Y006301D01*
X009509Y006360D02*
X008363Y006360D01*
X008363Y006418D02*
X009567Y006418D01*
X009626Y006477D02*
X008363Y006477D01*
X008363Y006535D02*
X009684Y006535D01*
X009743Y006594D02*
X009213Y006594D01*
X009271Y006653D02*
X009801Y006653D01*
X009860Y006711D02*
X009330Y006711D01*
X009389Y006770D02*
X009919Y006770D01*
X009977Y006828D02*
X009447Y006828D01*
X010233Y006874D02*
X008823Y005464D01*
X009353Y005204D02*
X009363Y005224D01*
X009753Y005224D01*
X010533Y006004D01*
X012003Y006004D01*
X012213Y006214D01*
X012303Y006214D01*
X012313Y006224D01*
X012333Y006244D01*
X012453Y006364D01*
X013263Y006364D01*
X013283Y006374D01*
X013533Y006374D01*
X013613Y006294D01*
X014763Y006294D01*
X014843Y006374D01*
X014523Y006874D02*
X010233Y006874D01*
X010913Y007204D02*
X010923Y007204D01*
X011913Y007204D01*
X013053Y008344D01*
X014613Y008344D01*
X014943Y008674D01*
X014953Y008684D01*
X015363Y007744D02*
X014643Y007024D01*
X014643Y006994D01*
X014523Y006874D01*
X013353Y006134D02*
X013353Y006124D01*
X012513Y006124D01*
X012393Y006004D01*
X012183Y006004D01*
X011943Y005764D01*
X011933Y005764D01*
X011203Y005764D01*
X010283Y004844D01*
X009643Y004844D01*
X009623Y004854D01*
X009603Y004854D02*
X009643Y004844D01*
X009512Y004615D02*
X009323Y004614D01*
X008163Y005314D02*
X008163Y006754D01*
X009063Y007654D01*
X009063Y010324D01*
X009086Y010338D01*
X010653Y011384D02*
X010883Y011314D01*
X011543Y011134D02*
X014673Y011134D01*
X014463Y011884D02*
X013653Y011884D01*
X014743Y012544D02*
X014863Y012424D01*
X016113Y012424D01*
X015733Y013084D02*
X015353Y012784D01*
X014713Y012784D01*
X013243Y012784D01*
X011963Y013184D01*
X011933Y013244D01*
X011463Y013714D01*
X011553Y013984D02*
X011373Y014164D01*
X004503Y014164D01*
X004053Y013714D01*
X003203Y013714D01*
X003093Y013594D01*
X002843Y012864D02*
X003693Y012864D01*
X004823Y012864D01*
X005223Y013274D01*
X005463Y013504D01*
X004473Y012514D02*
X004173Y012514D01*
X003153Y012514D01*
X002433Y011794D01*
X001323Y011794D01*
X000843Y011374D01*
X000833Y011354D01*
X000783Y010834D02*
X000453Y010504D01*
X000453Y009214D01*
X001833Y009354D02*
X001833Y009364D01*
X001983Y009364D01*
X000843Y010354D02*
X000833Y010354D01*
X000843Y010354D02*
X001203Y010714D01*
X001893Y010714D01*
X003153Y011974D01*
X003563Y011994D01*
X003813Y012304D02*
X003303Y012304D01*
X001833Y010834D01*
X000783Y010834D01*
X001683Y011974D02*
X001203Y012454D01*
X001683Y011974D02*
X001983Y011974D01*
X005013Y011614D02*
X005193Y011764D01*
X004373Y009174D02*
X004373Y009124D01*
X004353Y009124D01*
X004353Y008164D01*
X002193Y006004D01*
X002193Y005644D01*
X002193Y004714D01*
X001833Y004354D01*
X002083Y003864D02*
X002323Y004104D01*
X002323Y005594D01*
X005703Y008974D01*
X006373Y008974D01*
X006383Y008564D02*
X005923Y008564D01*
X005463Y008564D01*
X002453Y005524D01*
X002473Y003774D01*
X001833Y003364D01*
X001833Y003354D01*
X002083Y003864D02*
X001323Y003864D01*
X000833Y004354D01*
X000813Y004354D01*
X000833Y003354D02*
X000843Y003334D01*
X001573Y002844D01*
X002113Y002844D01*
X003853Y001104D01*
X008013Y001104D01*
X008593Y000954D02*
X007113Y002074D01*
X007083Y002074D01*
X005583Y002074D01*
X003423Y004234D01*
X003423Y004534D01*
X004143Y005254D01*
X004143Y005524D01*
X004143Y005544D01*
X004143Y005554D01*
X004533Y005944D01*
X004533Y006604D01*
X004543Y006604D01*
X004543Y007254D02*
X005353Y008074D01*
X005853Y008074D01*
X006333Y007144D02*
X006513Y007144D01*
X006333Y007144D02*
X006063Y006874D01*
X006073Y006104D01*
X005483Y005514D01*
X004533Y004564D02*
X004723Y004374D01*
X005323Y004374D01*
X006093Y003604D01*
X006633Y003604D01*
X007053Y004024D01*
X007053Y004204D01*
X007053Y004214D01*
X008023Y003754D02*
X008473Y003754D01*
X008493Y003754D01*
X008613Y003754D01*
X008043Y006064D02*
X008043Y006814D01*
X008733Y007514D01*
X010233Y007514D02*
X010233Y007534D01*
X010563Y007864D01*
X012123Y007864D01*
X012133Y007864D01*
X011523Y008204D02*
X010133Y008204D01*
X013533Y009664D02*
X014173Y010384D01*
X014883Y010384D01*
X017433Y009814D02*
X017443Y009804D01*
X017463Y009784D01*
X019803Y007444D01*
X020763Y006484D01*
X020773Y006464D01*
X020793Y006184D02*
X020493Y006184D01*
X019903Y005874D01*
X019883Y005254D02*
X019733Y005104D01*
X019053Y005104D01*
X019033Y005104D01*
X019033Y005124D01*
X019033Y005104D01*
X019883Y005254D02*
X020613Y005254D01*
X020623Y005254D01*
X020913Y006064D02*
X020793Y006184D01*
X020913Y006064D02*
X022143Y006064D01*
X022743Y006664D01*
X023313Y006824D01*
X023133Y007134D02*
X023133Y010714D01*
X023943Y009904D01*
X025323Y009904D01*
X025593Y010174D01*
X026673Y010174D01*
X026243Y009704D02*
X024383Y007844D01*
X023363Y008864D01*
X023363Y009974D01*
X023383Y009944D01*
X023383Y009964D01*
X023623Y009704D01*
X026243Y009704D01*
X026236Y009697D02*
X023363Y009697D01*
X023363Y009755D02*
X023575Y009755D01*
X023521Y009814D02*
X023363Y009814D01*
X023363Y009872D02*
X023467Y009872D01*
X023413Y009931D02*
X023363Y009931D01*
X023363Y009638D02*
X026177Y009638D01*
X026119Y009580D02*
X023363Y009580D01*
X023363Y009521D02*
X026060Y009521D01*
X026002Y009463D02*
X023363Y009463D01*
X023363Y009404D02*
X025943Y009404D01*
X025884Y009346D02*
X023363Y009346D01*
X023363Y009287D02*
X025826Y009287D01*
X025767Y009228D02*
X023363Y009228D01*
X023363Y009170D02*
X025709Y009170D01*
X025650Y009111D02*
X023363Y009111D01*
X023363Y009053D02*
X025592Y009053D01*
X025533Y008994D02*
X023363Y008994D01*
X023363Y008936D02*
X025475Y008936D01*
X025416Y008877D02*
X023363Y008877D01*
X023408Y008819D02*
X025358Y008819D01*
X025299Y008760D02*
X023466Y008760D01*
X023525Y008702D02*
X025240Y008702D01*
X025182Y008643D02*
X023583Y008643D01*
X023642Y008584D02*
X025123Y008584D01*
X025065Y008526D02*
X023700Y008526D01*
X023759Y008467D02*
X025006Y008467D01*
X024948Y008409D02*
X023817Y008409D01*
X023876Y008350D02*
X024889Y008350D01*
X024831Y008292D02*
X023935Y008292D01*
X023993Y008233D02*
X024772Y008233D01*
X024714Y008175D02*
X024052Y008175D01*
X024110Y008116D02*
X024655Y008116D01*
X024596Y008058D02*
X024169Y008058D01*
X024227Y007999D02*
X024538Y007999D01*
X024479Y007941D02*
X024286Y007941D01*
X024344Y007882D02*
X024421Y007882D01*
X024693Y007434D02*
X024723Y007444D01*
X026973Y007444D01*
X027963Y006454D01*
X027963Y004744D01*
X025593Y002374D01*
X024843Y002374D01*
X024833Y002354D01*
X025413Y001654D02*
X027773Y004034D01*
X028143Y004404D01*
X028143Y004414D01*
X028293Y004564D01*
X028563Y004564D01*
X028573Y004574D01*
X028953Y004054D02*
X028973Y004034D01*
X029394Y004252D02*
X033033Y004252D01*
X033033Y004311D02*
X029335Y004311D01*
X029277Y004369D02*
X033033Y004369D01*
X033033Y004428D02*
X029243Y004428D01*
X029243Y004486D02*
X033033Y004486D01*
X033033Y004545D02*
X029243Y004545D01*
X029243Y004604D02*
X033033Y004604D01*
X033033Y004662D02*
X029243Y004662D01*
X029243Y004721D02*
X033033Y004721D01*
X033033Y004779D02*
X029243Y004779D01*
X029243Y004838D02*
X033033Y004838D01*
X033033Y004896D02*
X029243Y004896D01*
X029243Y004955D02*
X033033Y004955D01*
X033033Y005013D02*
X029243Y005013D01*
X029243Y005072D02*
X033033Y005072D01*
X033033Y005130D02*
X029243Y005130D01*
X029243Y005189D02*
X033033Y005189D01*
X033033Y005248D02*
X029243Y005248D01*
X029243Y005306D02*
X033033Y005306D01*
X033033Y005365D02*
X029243Y005365D01*
X029243Y005423D02*
X033033Y005423D01*
X033033Y005482D02*
X029243Y005482D01*
X029243Y005540D02*
X033033Y005540D01*
X033033Y005599D02*
X029243Y005599D01*
X029243Y005657D02*
X033033Y005657D01*
X033033Y005716D02*
X029243Y005716D01*
X029243Y005774D02*
X033033Y005774D01*
X033033Y005833D02*
X029243Y005833D01*
X029243Y005891D02*
X033033Y005891D01*
X033033Y005950D02*
X029243Y005950D01*
X029243Y006009D02*
X033033Y006009D01*
X033033Y006067D02*
X029243Y006067D01*
X029191Y006126D02*
X033033Y006126D01*
X033033Y006184D02*
X029132Y006184D01*
X029074Y006243D02*
X033033Y006243D01*
X033033Y006301D02*
X029015Y006301D01*
X028956Y006360D02*
X033033Y006360D01*
X033033Y006418D02*
X028898Y006418D01*
X028839Y006477D02*
X033033Y006477D01*
X033033Y006535D02*
X028781Y006535D01*
X028722Y006594D02*
X033033Y006594D01*
X033033Y006653D02*
X028664Y006653D01*
X028605Y006711D02*
X033033Y006711D01*
X032997Y006770D02*
X028547Y006770D01*
X028488Y006828D02*
X032938Y006828D01*
X032880Y006887D02*
X028430Y006887D01*
X028371Y006945D02*
X032821Y006945D01*
X029853Y007424D02*
X029853Y013864D01*
X030413Y015054D01*
X032273Y015044D01*
X032553Y015044D01*
X033593Y014894D01*
X034203Y014844D01*
X035533Y014854D01*
X033033Y012694D02*
X032193Y013534D01*
X032193Y013624D01*
X031863Y013954D01*
X031923Y014374D02*
X031083Y014374D01*
X033913Y010444D02*
X035443Y010434D01*
X038193Y007714D01*
X038703Y007714D01*
X039063Y007354D01*
X039083Y007354D01*
X038703Y006724D02*
X039063Y006364D01*
X039083Y006354D01*
X038703Y006724D02*
X038193Y006724D01*
X034993Y009894D01*
X034163Y009914D01*
X034964Y009463D02*
X033292Y009463D01*
X033233Y009404D02*
X035023Y009404D01*
X035083Y009346D02*
X033174Y009346D01*
X028683Y006214D02*
X028663Y006214D01*
X028683Y006184D01*
X025953Y004924D02*
X024573Y006304D01*
X024573Y006324D01*
X024383Y006324D01*
X022763Y007234D02*
X022033Y008124D01*
X022246Y008350D02*
X022963Y008350D01*
X022963Y008292D02*
X022305Y008292D01*
X022363Y008233D02*
X022963Y008233D01*
X022963Y008175D02*
X022422Y008175D01*
X022480Y008116D02*
X022963Y008116D01*
X022963Y008058D02*
X022539Y008058D01*
X022597Y007999D02*
X022963Y007999D01*
X022963Y007941D02*
X022656Y007941D01*
X022714Y007882D02*
X022963Y007882D01*
X022963Y007823D02*
X022773Y007823D01*
X022831Y007765D02*
X022963Y007765D01*
X022963Y007706D02*
X022890Y007706D01*
X022949Y007648D02*
X022963Y007648D01*
X022963Y007634D02*
X021973Y008624D01*
X021973Y012774D01*
X021993Y012754D01*
X021993Y013644D01*
X022423Y013214D01*
X022423Y011084D01*
X022963Y010544D01*
X022963Y007634D01*
X022963Y008409D02*
X022187Y008409D01*
X022129Y008467D02*
X022963Y008467D01*
X022963Y008526D02*
X022070Y008526D01*
X022012Y008584D02*
X022963Y008584D01*
X022963Y008643D02*
X021973Y008643D01*
X021973Y008702D02*
X022963Y008702D01*
X022963Y008760D02*
X021973Y008760D01*
X021973Y008819D02*
X022963Y008819D01*
X022963Y008877D02*
X021973Y008877D01*
X021973Y008936D02*
X022963Y008936D01*
X022963Y008994D02*
X021973Y008994D01*
X021973Y009053D02*
X022963Y009053D01*
X022963Y009111D02*
X021973Y009111D01*
X021973Y009170D02*
X022963Y009170D01*
X022963Y009228D02*
X021973Y009228D01*
X021973Y009287D02*
X022963Y009287D01*
X022963Y009346D02*
X021973Y009346D01*
X021973Y009404D02*
X022963Y009404D01*
X022963Y009463D02*
X021973Y009463D01*
X021973Y009521D02*
X022963Y009521D01*
X022963Y009580D02*
X021973Y009580D01*
X021973Y009638D02*
X022963Y009638D01*
X022963Y009697D02*
X021973Y009697D01*
X021973Y009755D02*
X022963Y009755D01*
X022963Y009814D02*
X021973Y009814D01*
X021973Y009872D02*
X022963Y009872D01*
X022963Y009931D02*
X021973Y009931D01*
X021973Y009990D02*
X022963Y009990D01*
X022963Y010048D02*
X021973Y010048D01*
X021973Y010107D02*
X022963Y010107D01*
X022963Y010165D02*
X021973Y010165D01*
X021973Y010224D02*
X022963Y010224D01*
X022963Y010282D02*
X021973Y010282D01*
X021973Y010341D02*
X022963Y010341D01*
X022963Y010399D02*
X021973Y010399D01*
X021973Y010458D02*
X022963Y010458D01*
X022963Y010516D02*
X021973Y010516D01*
X021973Y010575D02*
X022931Y010575D01*
X022873Y010634D02*
X021973Y010634D01*
X021973Y010692D02*
X022814Y010692D01*
X022756Y010751D02*
X021973Y010751D01*
X021973Y010809D02*
X022697Y010809D01*
X022639Y010868D02*
X021973Y010868D01*
X021973Y010926D02*
X022580Y010926D01*
X022522Y010985D02*
X021973Y010985D01*
X021973Y011043D02*
X022463Y011043D01*
X022423Y011102D02*
X021973Y011102D01*
X021973Y011160D02*
X022423Y011160D01*
X022423Y011219D02*
X021973Y011219D01*
X021973Y011277D02*
X022423Y011277D01*
X022423Y011336D02*
X021973Y011336D01*
X021973Y011395D02*
X022423Y011395D01*
X022423Y011453D02*
X021973Y011453D01*
X021973Y011512D02*
X022423Y011512D01*
X022423Y011570D02*
X021973Y011570D01*
X021973Y011629D02*
X022423Y011629D01*
X022423Y011687D02*
X021973Y011687D01*
X021973Y011746D02*
X022423Y011746D01*
X022423Y011804D02*
X021973Y011804D01*
X021973Y011863D02*
X022423Y011863D01*
X022423Y011921D02*
X021973Y011921D01*
X021973Y011980D02*
X022423Y011980D01*
X022423Y012039D02*
X021973Y012039D01*
X021973Y012097D02*
X022423Y012097D01*
X022423Y012156D02*
X021973Y012156D01*
X021973Y012214D02*
X022423Y012214D01*
X022423Y012273D02*
X021973Y012273D01*
X021973Y012331D02*
X022423Y012331D01*
X022423Y012390D02*
X021973Y012390D01*
X021973Y012448D02*
X022423Y012448D01*
X022423Y012507D02*
X021973Y012507D01*
X021973Y012565D02*
X022423Y012565D01*
X022423Y012624D02*
X021973Y012624D01*
X021973Y012683D02*
X022423Y012683D01*
X022423Y012741D02*
X021973Y012741D01*
X021993Y012800D02*
X022423Y012800D01*
X022423Y012858D02*
X021993Y012858D01*
X021993Y012917D02*
X022423Y012917D01*
X022423Y012975D02*
X021993Y012975D01*
X021993Y013034D02*
X022423Y013034D01*
X022423Y013092D02*
X021993Y013092D01*
X021993Y013151D02*
X022423Y013151D01*
X022423Y013209D02*
X021993Y013209D01*
X021993Y013268D02*
X022368Y013268D01*
X022310Y013326D02*
X021993Y013326D01*
X021993Y013385D02*
X022251Y013385D01*
X022193Y013444D02*
X021993Y013444D01*
X021993Y013502D02*
X022134Y013502D01*
X022076Y013561D02*
X021993Y013561D01*
X021993Y013619D02*
X022017Y013619D01*
X020943Y013014D02*
X021633Y012364D01*
X021633Y006964D01*
X021543Y006874D01*
X021543Y006684D01*
X021193Y007004D02*
X021203Y007414D01*
X021203Y007974D01*
X021183Y007984D01*
X021183Y008194D01*
X020433Y008944D01*
X020433Y010204D01*
X020423Y010204D01*
X021233Y010724D02*
X020153Y011544D01*
X020343Y012214D02*
X020343Y012224D01*
X020343Y012214D02*
X021453Y011104D01*
X021453Y008344D01*
X021423Y008314D01*
X021423Y007244D01*
X020823Y007374D02*
X020823Y007384D01*
X020823Y007714D01*
X019953Y008584D01*
X019953Y008594D01*
X019953Y009364D01*
X019933Y009374D01*
X021233Y008444D02*
X021233Y010724D01*
X022743Y011104D02*
X022743Y014734D01*
X021753Y016654D02*
X020493Y017914D01*
X020163Y018694D02*
X019923Y018694D01*
X019533Y019084D01*
X019603Y020914D02*
X019593Y020924D01*
X019593Y021654D01*
X019473Y021774D01*
X018943Y021774D01*
X018753Y021614D01*
X018583Y021444D01*
X018583Y021224D01*
X018233Y020884D01*
X017703Y020884D01*
X020863Y021364D02*
X020883Y021364D01*
X020863Y021364D01*
X021933Y021464D02*
X022623Y021464D01*
X022623Y021523D02*
X021933Y021523D01*
X021933Y021581D02*
X022623Y021581D01*
X022623Y021640D02*
X021933Y021640D01*
X021933Y021698D02*
X022623Y021698D01*
X022623Y021757D02*
X021933Y021757D01*
X021933Y021815D02*
X022623Y021815D01*
X022623Y021874D02*
X021933Y021874D01*
X021933Y021932D02*
X022623Y021932D01*
X022623Y021991D02*
X021933Y021991D01*
X021947Y022049D02*
X022567Y022049D01*
X022508Y022108D02*
X022003Y022108D01*
X022058Y022167D02*
X022450Y022167D01*
X023393Y022186D02*
X023403Y022174D01*
X023403Y021624D01*
X024743Y022416D02*
X024753Y022414D01*
X025673Y022414D01*
X025523Y022134D02*
X026073Y022144D01*
X026093Y022166D01*
X020033Y016954D02*
X020013Y016954D01*
X021753Y016654D02*
X021753Y006424D01*
X021563Y005434D02*
X022693Y005434D01*
X024693Y007434D01*
X021573Y005424D02*
X021563Y005434D01*
X021453Y004204D02*
X019923Y004204D01*
X019773Y004054D01*
X019763Y004034D01*
X019013Y004034D02*
X018993Y004024D01*
X014223Y003944D02*
X014213Y003754D01*
X014143Y003464D01*
X014223Y003944D02*
X014223Y004824D01*
X014223Y004834D01*
X014333Y005374D01*
X014333Y005384D01*
X015363Y007744D02*
X018603Y007744D01*
X017433Y009814D02*
X017433Y015184D01*
X017403Y015214D01*
X017373Y015224D01*
X017623Y014907D02*
X019373Y014907D01*
X019373Y014849D02*
X017623Y014849D01*
X017623Y014790D02*
X019373Y014790D01*
X019373Y014732D02*
X017623Y014732D01*
X017623Y014673D02*
X019373Y014673D01*
X019373Y014614D02*
X017623Y014614D01*
X017623Y014556D02*
X019373Y014556D01*
X019373Y014497D02*
X017623Y014497D01*
X017623Y014439D02*
X019373Y014439D01*
X019373Y014380D02*
X017623Y014380D01*
X017623Y014322D02*
X019373Y014322D01*
X019373Y014263D02*
X017623Y014263D01*
X017623Y014205D02*
X019373Y014205D01*
X019373Y014146D02*
X017623Y014146D01*
X017623Y014088D02*
X019373Y014088D01*
X019373Y014029D02*
X017623Y014029D01*
X017623Y013970D02*
X019373Y013970D01*
X019373Y013912D02*
X017623Y013912D01*
X017623Y013853D02*
X019373Y013853D01*
X019373Y013795D02*
X017623Y013795D01*
X017623Y013736D02*
X019373Y013736D01*
X019373Y013678D02*
X017623Y013678D01*
X017623Y013619D02*
X019373Y013619D01*
X019373Y013561D02*
X017623Y013561D01*
X015153Y013414D02*
X015153Y013074D01*
X014803Y013064D02*
X014803Y013594D01*
X013743Y014644D01*
X014163Y015214D02*
X014343Y015034D01*
X014853Y015034D01*
X013563Y013294D02*
X012873Y013984D01*
X011553Y013984D01*
X011313Y014044D02*
X012033Y013344D01*
X013143Y013334D01*
X013563Y013294D02*
X014313Y013054D01*
X014543Y013384D02*
X013533Y013504D01*
X012603Y014434D01*
X004023Y016804D02*
X003263Y016804D01*
X002333Y015854D01*
X001833Y015364D01*
X001833Y015354D01*
X003263Y016804D02*
X003493Y016804D01*
X003263Y016804D01*
X003213Y017614D02*
X002103Y017614D01*
X004013Y009114D02*
X004023Y009064D01*
X004023Y008014D01*
X001863Y005854D01*
X001863Y005614D01*
X001833Y005354D01*
X001853Y005614D01*
X004433Y004564D02*
X004443Y004564D01*
X004533Y004564D01*
X004023Y009074D02*
X004013Y009114D01*
X004373Y009124D02*
X004373Y009174D01*
X022743Y011104D02*
X023133Y010714D01*
X025953Y004924D02*
X025953Y003124D01*
X025963Y003124D01*
X029453Y004194D02*
X033013Y004194D01*
X032954Y004135D02*
X029511Y004135D01*
X029570Y004077D02*
X032896Y004077D01*
X032837Y004018D02*
X029628Y004018D01*
X029687Y003960D02*
X032778Y003960D01*
D32*
X010083Y001354D02*
X009083Y001354D01*
X008622Y001354D01*
X007423Y002244D01*
X007423Y004524D01*
X007123Y004894D01*
X007123Y007054D01*
X006923Y007524D01*
X006923Y011454D01*
X009743Y019664D02*
X014823Y019664D01*
X017083Y021354D01*
X018083Y021354D01*
X010133Y019674D02*
X010023Y019674D01*
X009743Y019664D02*
X008591Y020482D01*
X007986Y020482D01*
X007590Y020489D01*
X004773Y020545D01*
D33*
X026873Y016944D02*
X027103Y016934D01*
X027253Y009614D02*
X027263Y007614D01*
X028663Y006214D01*
X028683Y006184D02*
X028953Y005914D01*
X028953Y004054D01*
X018333Y004574D02*
X018003Y004904D01*
X015013Y004904D01*
X014513Y004404D01*
X014513Y004034D01*
X007123Y004874D02*
X007123Y004894D01*
X005253Y004134D02*
X003963Y004134D01*
X003713Y004384D01*
D34*
X010083Y001354D02*
X010083Y001344D01*
X010543Y000814D01*
X022243Y000814D01*
X023833Y002354D01*
X022493Y004894D02*
X021573Y004894D01*
X019893Y004894D01*
X022493Y004894D02*
X024713Y007114D01*
X025723Y007114D01*
X025753Y007144D01*
X025183Y010194D02*
X025183Y011194D01*
X025183Y013984D01*
X024713Y014094D01*
X023923Y014094D01*
X023313Y015154D01*
X020743Y019574D01*
X018603Y019574D01*
X018033Y019054D01*
X018033Y018364D01*
X018013Y018344D01*
X018033Y018354D02*
X018033Y017654D01*
X018033Y016954D01*
X017433Y016954D02*
X017433Y019054D01*
X018033Y019054D02*
X018033Y020304D01*
X019083Y021354D01*
X035083Y002354D02*
X035083Y001764D01*
X034463Y001144D01*
X032973Y001144D01*
X032912Y001144D01*
D35*
X008086Y012338D02*
X007049Y011513D01*
X006963Y011445D01*
X006323Y015534D02*
X006323Y015824D01*
X007603Y017004D01*
X009383Y016994D01*
X009453Y017064D01*
D36*
X010173Y010844D02*
X008591Y010844D01*
X008086Y010338D01*
X008086Y009687D01*
X007243Y008844D01*
X007243Y007594D01*
X007483Y007104D01*
X007483Y006124D01*
X010173Y010844D02*
X014833Y010844D01*
X016281Y009330D01*
X016853Y009214D01*
X017303Y008754D01*
X017993Y008754D01*
X019493Y007244D01*
X019493Y006334D01*
X018833Y005664D01*
X018833Y004894D01*
X019893Y004894D01*
M02*
