G75*
G70*
%OFA0B0*%
%FSLAX24Y24*%
%IPPOS*%
%LPD*%
%AMOC8*
5,1,8,0,0,1.08239X$1,22.5*
%
%ADD10R,0.0236X0.0866*%
%ADD11R,0.0866X0.0236*%
%ADD12OC8,0.0500*%
%ADD13R,0.0460X0.0630*%
%ADD14C,0.0540*%
%ADD15OC8,0.0540*%
%ADD16C,0.0787*%
%ADD17R,0.0394X0.0433*%
%ADD18R,0.0433X0.0394*%
%ADD19C,0.0059*%
%ADD20R,0.1200X0.1200*%
%ADD21OC8,0.0600*%
%ADD22OC8,0.0660*%
%ADD23R,0.0820X0.1500*%
%ADD24R,0.4500X0.3500*%
%ADD25C,0.0600*%
%ADD26OC8,0.0480*%
%ADD27OC8,0.0354*%
%ADD28R,0.0500X0.0250*%
%ADD29R,0.0591X0.0394*%
%ADD30R,0.0512X0.0413*%
%ADD31C,0.0472*%
%ADD32OC8,0.0472*%
%ADD33R,0.0630X0.0460*%
%ADD34C,0.0118*%
%ADD35R,0.0118X0.0295*%
%ADD36C,0.0055*%
%ADD37R,0.0290X0.0110*%
%ADD38C,0.0033*%
%ADD39R,0.0295X0.0118*%
%ADD40R,0.0787X0.0984*%
%ADD41R,0.0197X0.0787*%
%ADD42OC8,0.0400*%
%ADD43R,0.0450X0.0250*%
%ADD44R,0.0394X0.0551*%
%ADD45R,0.0591X0.0512*%
%ADD46C,0.0200*%
%ADD47C,0.0300*%
%ADD48C,0.0250*%
%ADD49OC8,0.0236*%
%ADD50C,0.0080*%
%ADD51C,0.0120*%
%ADD52C,0.0060*%
%ADD53C,0.0150*%
%ADD54C,0.0100*%
%ADD55C,0.0320*%
%ADD56C,0.0240*%
%ADD57C,0.0400*%
%ADD58C,0.0160*%
D10*
X013043Y007815D03*
X013543Y007815D03*
X014043Y007815D03*
X014543Y007815D03*
X015043Y007815D03*
X015543Y007815D03*
X016043Y007815D03*
X016543Y007815D03*
X017043Y007815D03*
X017543Y007815D03*
X018043Y007815D03*
X018043Y014193D03*
X017543Y014193D03*
X017043Y014193D03*
X016543Y014193D03*
X016043Y014193D03*
X015543Y014193D03*
X015043Y014193D03*
X014543Y014193D03*
X014043Y014193D03*
X013543Y014193D03*
X013043Y014193D03*
X029333Y013043D03*
X029833Y013043D03*
X030333Y013043D03*
X030833Y013043D03*
X031333Y013043D03*
X031833Y013043D03*
X032333Y013043D03*
X032833Y013043D03*
X033333Y013043D03*
X033833Y013043D03*
X034333Y013043D03*
X034333Y006665D03*
X033833Y006665D03*
X033333Y006665D03*
X032833Y006665D03*
X032333Y006665D03*
X031833Y006665D03*
X031333Y006665D03*
X030833Y006665D03*
X030333Y006665D03*
X029833Y006665D03*
X029333Y006665D03*
D11*
X028644Y007354D03*
X028644Y007854D03*
X028644Y008354D03*
X028644Y008854D03*
X028644Y009354D03*
X028644Y009854D03*
X028644Y010354D03*
X028644Y010854D03*
X028644Y011354D03*
X028644Y011854D03*
X028644Y012354D03*
X024446Y010204D03*
X024446Y009704D03*
X024446Y009204D03*
X024446Y008704D03*
X022399Y008704D03*
X022399Y009204D03*
X022399Y009704D03*
X022399Y010204D03*
X018732Y010004D03*
X018732Y010504D03*
X018732Y011004D03*
X018732Y011504D03*
X018732Y012004D03*
X018732Y012504D03*
X018732Y013004D03*
X018732Y013504D03*
X012354Y013504D03*
X012354Y013004D03*
X012354Y012504D03*
X012354Y012004D03*
X012354Y011504D03*
X012354Y011004D03*
X012354Y010504D03*
X012354Y010004D03*
X012354Y009504D03*
X012354Y009004D03*
X012354Y008504D03*
X018732Y008504D03*
X018732Y009004D03*
X018732Y009504D03*
X027772Y015834D03*
X027772Y016334D03*
X027772Y016834D03*
X027772Y017334D03*
X027772Y017834D03*
X027772Y018334D03*
X027772Y018834D03*
X027772Y019334D03*
X031394Y019334D03*
X031394Y018834D03*
X031394Y018334D03*
X031394Y017834D03*
X031394Y017334D03*
X031394Y016834D03*
X031394Y016334D03*
X031394Y015834D03*
X033152Y015844D03*
X033152Y016344D03*
X033152Y016844D03*
X033152Y017344D03*
X033152Y017844D03*
X033152Y018344D03*
X033152Y018844D03*
X033152Y019344D03*
X036774Y019344D03*
X036774Y018844D03*
X036774Y018344D03*
X036774Y017844D03*
X036774Y017344D03*
X036774Y016844D03*
X036774Y016344D03*
X036774Y015844D03*
X035022Y012354D03*
X035022Y011854D03*
X035022Y011354D03*
X035022Y010854D03*
X035022Y010354D03*
X035022Y009854D03*
X035022Y009354D03*
X035022Y008854D03*
X035022Y008354D03*
X035022Y007854D03*
X035022Y007354D03*
D12*
X024833Y002354D03*
X023833Y002354D03*
X022833Y002354D03*
X021833Y002354D03*
X020833Y002354D03*
X019833Y002354D03*
X018833Y002354D03*
X017833Y002354D03*
X016083Y002354D03*
X015083Y002354D03*
X014083Y002354D03*
X013083Y002354D03*
X012083Y002354D03*
X011083Y002354D03*
X010083Y002354D03*
X009083Y002354D03*
X009083Y021354D03*
X010083Y021354D03*
X011083Y021354D03*
X012083Y021354D03*
X013083Y021354D03*
X014083Y021354D03*
X016083Y021354D03*
X017083Y021354D03*
X018083Y021354D03*
X019083Y021354D03*
X020083Y021354D03*
X021083Y021354D03*
D13*
X017833Y020324D03*
X017233Y020324D03*
X016633Y020324D03*
X013883Y020324D03*
X013283Y020324D03*
X008403Y018054D03*
X007803Y018054D03*
D14*
X001833Y002354D03*
X039083Y002354D03*
D15*
X000833Y002354D03*
X000833Y003354D03*
X001833Y003354D03*
X001833Y004354D03*
X000833Y004354D03*
X000833Y005354D03*
X001833Y005354D03*
X001833Y006354D03*
X000833Y006354D03*
X000833Y007354D03*
X001833Y007354D03*
X001833Y008354D03*
X000833Y008354D03*
X000833Y009354D03*
X001833Y009354D03*
X001833Y010354D03*
X000833Y010354D03*
X000833Y011354D03*
X001833Y011354D03*
X001833Y012354D03*
X000833Y012354D03*
X000833Y013354D03*
X001833Y013354D03*
X001833Y014354D03*
X000833Y014354D03*
X000833Y015354D03*
X001833Y015354D03*
X001833Y016354D03*
X000833Y016354D03*
X000833Y017354D03*
X001833Y017354D03*
X001833Y018354D03*
X000833Y018354D03*
X000833Y019354D03*
X001833Y019354D03*
X001833Y020354D03*
X000833Y020354D03*
X000833Y021354D03*
X001833Y021354D03*
X038083Y021354D03*
X039083Y021354D03*
X039083Y020354D03*
X038083Y020354D03*
X038083Y019354D03*
X039083Y019354D03*
X039083Y018354D03*
X038083Y018354D03*
X038083Y017354D03*
X039083Y017354D03*
X039083Y016354D03*
X038083Y016354D03*
X038083Y015354D03*
X039083Y015354D03*
X039083Y014354D03*
X038083Y014354D03*
X038083Y013354D03*
X039083Y013354D03*
X039083Y012354D03*
X038083Y012354D03*
X038083Y011354D03*
X039083Y011354D03*
X039083Y010354D03*
X038083Y010354D03*
X038083Y009354D03*
X039083Y009354D03*
X039083Y008354D03*
X038083Y008354D03*
X038083Y007354D03*
X039083Y007354D03*
X039083Y006354D03*
X038083Y006354D03*
X038083Y005354D03*
X039083Y005354D03*
X039083Y004354D03*
X038083Y004354D03*
X038083Y003354D03*
X039083Y003354D03*
X038083Y002354D03*
D16*
X005166Y018143D02*
X004379Y018143D01*
X002883Y018970D02*
X002883Y019757D01*
X004379Y020545D02*
X005166Y020545D01*
D17*
X016118Y016914D03*
X016787Y016914D03*
X023353Y019859D03*
X023353Y020528D03*
X025593Y020518D03*
X025593Y019849D03*
X024143Y011768D03*
X024143Y011099D03*
X025753Y010858D03*
X025753Y010189D03*
X026333Y006258D03*
X026333Y005589D03*
X026343Y004978D03*
X026343Y004309D03*
X025123Y005589D03*
X025123Y006258D03*
X021113Y005608D03*
X021113Y004939D03*
X010183Y009939D03*
X010183Y010608D03*
X006587Y005614D03*
X005918Y005614D03*
X004983Y005588D03*
X004983Y004919D03*
X005918Y004714D03*
X006587Y004714D03*
X034093Y004578D03*
X034093Y003909D03*
D18*
X035333Y003889D03*
X035333Y004558D03*
X032843Y004598D03*
X032843Y003929D03*
X031363Y003909D03*
X031363Y004578D03*
X029953Y004588D03*
X029953Y003919D03*
X022467Y011184D03*
X021798Y011184D03*
X023763Y012519D03*
X023763Y013188D03*
X010173Y012338D03*
X010173Y011669D03*
X006353Y010468D03*
X006353Y009799D03*
X006247Y007584D03*
X005578Y007584D03*
D19*
X021998Y006073D02*
X022216Y006073D01*
X022216Y006013D01*
X021998Y006013D01*
X021998Y006073D01*
X021998Y006071D02*
X022216Y006071D01*
X022314Y006388D02*
X022374Y006388D01*
X022374Y006170D01*
X022314Y006170D01*
X022314Y006388D01*
X022314Y006228D02*
X022374Y006228D01*
X022374Y006286D02*
X022314Y006286D01*
X022314Y006344D02*
X022374Y006344D01*
X022510Y006388D02*
X022570Y006388D01*
X022570Y006170D01*
X022510Y006170D01*
X022510Y006388D01*
X022510Y006228D02*
X022570Y006228D01*
X022570Y006286D02*
X022510Y006286D01*
X022510Y006344D02*
X022570Y006344D01*
X022707Y006388D02*
X022767Y006388D01*
X022767Y006170D01*
X022707Y006170D01*
X022707Y006388D01*
X022707Y006228D02*
X022767Y006228D01*
X022767Y006286D02*
X022707Y006286D01*
X022707Y006344D02*
X022767Y006344D01*
X022904Y006388D02*
X022964Y006388D01*
X022964Y006170D01*
X022904Y006170D01*
X022904Y006388D01*
X022904Y006228D02*
X022964Y006228D01*
X022964Y006286D02*
X022904Y006286D01*
X022904Y006344D02*
X022964Y006344D01*
X023101Y006388D02*
X023161Y006388D01*
X023161Y006170D01*
X023101Y006170D01*
X023101Y006388D01*
X023101Y006228D02*
X023161Y006228D01*
X023161Y006286D02*
X023101Y006286D01*
X023101Y006344D02*
X023161Y006344D01*
X023298Y006388D02*
X023358Y006388D01*
X023358Y006170D01*
X023298Y006170D01*
X023298Y006388D01*
X023298Y006228D02*
X023358Y006228D01*
X023358Y006286D02*
X023298Y006286D01*
X023298Y006344D02*
X023358Y006344D01*
X023495Y006388D02*
X023555Y006388D01*
X023555Y006170D01*
X023495Y006170D01*
X023495Y006388D01*
X023495Y006228D02*
X023555Y006228D01*
X023555Y006286D02*
X023495Y006286D01*
X023495Y006344D02*
X023555Y006344D01*
X023692Y006388D02*
X023752Y006388D01*
X023752Y006170D01*
X023692Y006170D01*
X023692Y006388D01*
X023692Y006228D02*
X023752Y006228D01*
X023752Y006286D02*
X023692Y006286D01*
X023692Y006344D02*
X023752Y006344D01*
X023849Y006073D02*
X024067Y006073D01*
X024067Y006013D01*
X023849Y006013D01*
X023849Y006073D01*
X023849Y006071D02*
X024067Y006071D01*
X024067Y005876D02*
X023849Y005876D01*
X024067Y005876D02*
X024067Y005816D01*
X023849Y005816D01*
X023849Y005876D01*
X023849Y005874D02*
X024067Y005874D01*
X024067Y005679D02*
X023849Y005679D01*
X024067Y005679D02*
X024067Y005619D01*
X023849Y005619D01*
X023849Y005679D01*
X023849Y005677D02*
X024067Y005677D01*
X024067Y005482D02*
X023849Y005482D01*
X024067Y005482D02*
X024067Y005422D01*
X023849Y005422D01*
X023849Y005482D01*
X023849Y005480D02*
X024067Y005480D01*
X024067Y005285D02*
X023849Y005285D01*
X024067Y005285D02*
X024067Y005225D01*
X023849Y005225D01*
X023849Y005285D01*
X023849Y005283D02*
X024067Y005283D01*
X024067Y005088D02*
X023849Y005088D01*
X024067Y005088D02*
X024067Y005028D01*
X023849Y005028D01*
X023849Y005088D01*
X023849Y005086D02*
X024067Y005086D01*
X024067Y004892D02*
X023849Y004892D01*
X024067Y004892D02*
X024067Y004832D01*
X023849Y004832D01*
X023849Y004892D01*
X023849Y004890D02*
X024067Y004890D01*
X024067Y004695D02*
X023849Y004695D01*
X024067Y004695D02*
X024067Y004635D01*
X023849Y004635D01*
X023849Y004695D01*
X023849Y004693D02*
X024067Y004693D01*
X023752Y004538D02*
X023692Y004538D01*
X023752Y004538D02*
X023752Y004320D01*
X023692Y004320D01*
X023692Y004538D01*
X023692Y004378D02*
X023752Y004378D01*
X023752Y004436D02*
X023692Y004436D01*
X023692Y004494D02*
X023752Y004494D01*
X023555Y004538D02*
X023495Y004538D01*
X023555Y004538D02*
X023555Y004320D01*
X023495Y004320D01*
X023495Y004538D01*
X023495Y004378D02*
X023555Y004378D01*
X023555Y004436D02*
X023495Y004436D01*
X023495Y004494D02*
X023555Y004494D01*
X023358Y004538D02*
X023298Y004538D01*
X023358Y004538D02*
X023358Y004320D01*
X023298Y004320D01*
X023298Y004538D01*
X023298Y004378D02*
X023358Y004378D01*
X023358Y004436D02*
X023298Y004436D01*
X023298Y004494D02*
X023358Y004494D01*
X023161Y004538D02*
X023101Y004538D01*
X023161Y004538D02*
X023161Y004320D01*
X023101Y004320D01*
X023101Y004538D01*
X023101Y004378D02*
X023161Y004378D01*
X023161Y004436D02*
X023101Y004436D01*
X023101Y004494D02*
X023161Y004494D01*
X022964Y004538D02*
X022904Y004538D01*
X022964Y004538D02*
X022964Y004320D01*
X022904Y004320D01*
X022904Y004538D01*
X022904Y004378D02*
X022964Y004378D01*
X022964Y004436D02*
X022904Y004436D01*
X022904Y004494D02*
X022964Y004494D01*
X022767Y004538D02*
X022707Y004538D01*
X022767Y004538D02*
X022767Y004320D01*
X022707Y004320D01*
X022707Y004538D01*
X022707Y004378D02*
X022767Y004378D01*
X022767Y004436D02*
X022707Y004436D01*
X022707Y004494D02*
X022767Y004494D01*
X022570Y004538D02*
X022510Y004538D01*
X022570Y004538D02*
X022570Y004320D01*
X022510Y004320D01*
X022510Y004538D01*
X022510Y004378D02*
X022570Y004378D01*
X022570Y004436D02*
X022510Y004436D01*
X022510Y004494D02*
X022570Y004494D01*
X022374Y004538D02*
X022314Y004538D01*
X022374Y004538D02*
X022374Y004320D01*
X022314Y004320D01*
X022314Y004538D01*
X022314Y004378D02*
X022374Y004378D01*
X022374Y004436D02*
X022314Y004436D01*
X022314Y004494D02*
X022374Y004494D01*
X022216Y004695D02*
X021998Y004695D01*
X022216Y004695D02*
X022216Y004635D01*
X021998Y004635D01*
X021998Y004695D01*
X021998Y004693D02*
X022216Y004693D01*
X022216Y004892D02*
X021998Y004892D01*
X022216Y004892D02*
X022216Y004832D01*
X021998Y004832D01*
X021998Y004892D01*
X021998Y004890D02*
X022216Y004890D01*
X022216Y005088D02*
X021998Y005088D01*
X022216Y005088D02*
X022216Y005028D01*
X021998Y005028D01*
X021998Y005088D01*
X021998Y005086D02*
X022216Y005086D01*
X022216Y005285D02*
X021998Y005285D01*
X022216Y005285D02*
X022216Y005225D01*
X021998Y005225D01*
X021998Y005285D01*
X021998Y005283D02*
X022216Y005283D01*
X022216Y005482D02*
X021998Y005482D01*
X022216Y005482D02*
X022216Y005422D01*
X021998Y005422D01*
X021998Y005482D01*
X021998Y005480D02*
X022216Y005480D01*
X022216Y005679D02*
X021998Y005679D01*
X022216Y005679D02*
X022216Y005619D01*
X021998Y005619D01*
X021998Y005679D01*
X021998Y005677D02*
X022216Y005677D01*
X022216Y005876D02*
X021998Y005876D01*
X022216Y005876D02*
X022216Y005816D01*
X021998Y005816D01*
X021998Y005876D01*
X021998Y005874D02*
X022216Y005874D01*
D20*
X023033Y005354D03*
D21*
X014083Y001354D03*
X013083Y001354D03*
X012083Y001354D03*
X011083Y001354D03*
X010083Y001354D03*
X009083Y001354D03*
X006543Y006604D03*
X005543Y006604D03*
X004543Y006604D03*
X015083Y021354D03*
X029093Y021364D03*
X030093Y021364D03*
X031093Y021364D03*
X032093Y021364D03*
X033093Y021364D03*
X034093Y021364D03*
X035093Y021364D03*
X036093Y021364D03*
X036093Y022364D03*
X035093Y022364D03*
X034093Y022364D03*
X033093Y022364D03*
X032093Y022364D03*
X031093Y022364D03*
X030093Y022364D03*
X029093Y022364D03*
D22*
X009086Y012338D03*
X008086Y012338D03*
X008086Y011338D03*
X009086Y011338D03*
X009086Y010338D03*
X008086Y010338D03*
D23*
X022763Y013034D03*
X024763Y013034D03*
D24*
X023763Y017534D03*
D25*
X008083Y021354D03*
X007083Y021354D03*
X007083Y022354D03*
X008083Y022354D03*
D26*
X015433Y019054D03*
X015433Y018354D03*
X015433Y017654D03*
X015433Y016954D03*
X017433Y016954D03*
X018033Y016954D03*
X018033Y017654D03*
X017433Y017654D03*
X017433Y018354D03*
X018033Y018354D03*
X018033Y019054D03*
X017433Y019054D03*
X020033Y019054D03*
X020033Y018354D03*
X020033Y017654D03*
X020033Y016954D03*
D27*
X009453Y017064D03*
X006323Y015534D03*
X016333Y005384D03*
X017333Y005384D03*
X018333Y005384D03*
X019333Y005384D03*
X025183Y010194D03*
D28*
X019333Y005884D03*
X018333Y005884D03*
X017333Y005884D03*
X016333Y005884D03*
X016333Y004884D03*
X017333Y004884D03*
X018333Y004884D03*
X019333Y004884D03*
D29*
X030399Y002058D03*
X030399Y001389D03*
X032446Y001389D03*
X032446Y002058D03*
D30*
X025563Y004165D03*
X025563Y004894D03*
X024657Y004894D03*
X024657Y004165D03*
D31*
X034083Y002354D03*
D32*
X035083Y002354D03*
X036083Y002354D03*
D33*
X027723Y022034D03*
X027723Y022634D03*
D34*
X008308Y004710D02*
X008308Y004534D01*
D35*
X008111Y004622D03*
X007914Y004622D03*
X007914Y005705D03*
X008111Y005705D03*
D36*
X007745Y005823D02*
X007745Y005587D01*
X007689Y005587D01*
X007689Y005823D01*
X007745Y005823D01*
X007745Y005641D02*
X007689Y005641D01*
X007689Y005695D02*
X007745Y005695D01*
X007745Y005749D02*
X007689Y005749D01*
X007689Y005803D02*
X007745Y005803D01*
X007589Y005487D02*
X007589Y005431D01*
X007353Y005431D01*
X007353Y005487D01*
X007589Y005487D01*
X007589Y005485D02*
X007353Y005485D01*
X007589Y004896D02*
X007589Y004840D01*
X007353Y004840D01*
X007353Y004896D01*
X007589Y004896D01*
X007589Y004894D02*
X007353Y004894D01*
X007745Y004740D02*
X007745Y004504D01*
X007689Y004504D01*
X007689Y004740D01*
X007745Y004740D01*
X007745Y004558D02*
X007689Y004558D01*
X007689Y004612D02*
X007745Y004612D01*
X007745Y004666D02*
X007689Y004666D01*
X007689Y004720D02*
X007745Y004720D01*
D37*
X007471Y005065D03*
X007471Y005262D03*
D38*
X008347Y005576D02*
X008347Y005834D01*
X008347Y005576D02*
X008269Y005576D01*
X008269Y005834D01*
X008347Y005834D01*
X008347Y005608D02*
X008269Y005608D01*
X008269Y005640D02*
X008347Y005640D01*
X008347Y005672D02*
X008269Y005672D01*
X008269Y005704D02*
X008347Y005704D01*
X008347Y005736D02*
X008269Y005736D01*
X008269Y005768D02*
X008347Y005768D01*
X008347Y005800D02*
X008269Y005800D01*
X008269Y005832D02*
X008347Y005832D01*
X008683Y005498D02*
X008683Y005420D01*
X008425Y005420D01*
X008425Y005498D01*
X008683Y005498D01*
X008683Y005452D02*
X008425Y005452D01*
X008425Y005484D02*
X008683Y005484D01*
X008683Y004907D02*
X008683Y004829D01*
X008425Y004829D01*
X008425Y004907D01*
X008683Y004907D01*
X008683Y004861D02*
X008425Y004861D01*
X008425Y004893D02*
X008683Y004893D01*
D39*
X008554Y005065D03*
X008554Y005262D03*
D40*
X007226Y003421D03*
X007226Y001295D03*
X003919Y001295D03*
X003919Y003421D03*
D41*
X004943Y003520D03*
X005258Y003520D03*
X005573Y003520D03*
X005888Y003520D03*
X006203Y003520D03*
D42*
X003713Y004384D03*
X010013Y004034D03*
X010763Y004034D03*
X011513Y004034D03*
X012263Y004034D03*
X013013Y004034D03*
X013763Y004034D03*
X014513Y004034D03*
X015263Y004034D03*
X016013Y004034D03*
X016763Y004034D03*
X017513Y004034D03*
X018263Y004034D03*
X019013Y004034D03*
X019763Y004034D03*
X014333Y005384D03*
X013333Y005384D03*
X012333Y005384D03*
X011333Y005384D03*
X010333Y005384D03*
D43*
X010333Y005814D03*
X011333Y005814D03*
X012333Y005814D03*
X013333Y005814D03*
X013333Y004914D03*
X014333Y004914D03*
X012333Y004914D03*
X011333Y004914D03*
X010333Y004914D03*
X003713Y004854D03*
D44*
X005179Y008611D03*
X005927Y008611D03*
X005553Y009477D03*
D45*
X026093Y013480D03*
X026093Y014228D03*
D46*
X026093Y013480D02*
X026103Y013474D01*
X026793Y013474D02*
X026926Y013466D01*
X025443Y015004D02*
X024363Y015004D01*
X022803Y013444D01*
X022803Y013114D01*
X022763Y013034D01*
X022773Y013024D01*
X022583Y012814D01*
X023973Y011704D02*
X024143Y011768D01*
X024073Y011774D01*
X022993Y011194D02*
X022473Y011194D01*
X021723Y011124D02*
X021723Y009904D01*
X022143Y009704D01*
X022399Y010204D02*
X022473Y010204D01*
X016043Y014193D02*
X016023Y014194D01*
X016013Y015601D01*
X016023Y015604D01*
X016023Y015624D01*
X016013Y015624D02*
X016013Y015601D01*
X017343Y019114D02*
X016893Y019564D01*
X016633Y019824D01*
X016633Y020324D01*
X013383Y022594D02*
X021263Y022594D01*
X021673Y022194D01*
X023343Y020554D02*
X023343Y020534D01*
X023353Y020528D02*
X023343Y020554D01*
X024513Y020534D02*
X024513Y020974D01*
X026073Y020374D02*
X027723Y022024D01*
X027723Y022034D01*
X027663Y021424D02*
X026793Y020584D01*
X026793Y016254D01*
X026813Y016244D01*
X026933Y015824D02*
X027093Y015844D01*
X027753Y015844D01*
X027772Y015834D01*
X027873Y015844D01*
X029793Y015844D01*
X030543Y015094D01*
X032253Y015094D01*
X032343Y015064D01*
X033123Y015844D01*
X033152Y015844D01*
X032343Y015064D02*
X032343Y013054D01*
X032333Y013043D01*
X032313Y017344D02*
X031413Y017344D01*
X031323Y017344D02*
X028693Y017344D01*
X036093Y017344D02*
X036774Y017344D01*
X037163Y017364D02*
X037493Y017644D01*
X037493Y019544D01*
X037803Y019864D01*
X038363Y019864D01*
X038833Y020354D01*
X038103Y021364D02*
X038083Y021354D01*
X038103Y021364D02*
X036603Y022864D01*
X028893Y022864D01*
X028683Y022654D01*
X027723Y022654D01*
X027723Y022634D01*
X027633Y022684D01*
X027393Y022924D01*
X002763Y022924D01*
X001203Y021364D01*
X000843Y021364D01*
X000833Y021354D01*
X001833Y020374D02*
X004053Y022594D01*
X007593Y021544D02*
X007603Y020524D01*
X007173Y019854D02*
X008623Y020744D01*
X008643Y021544D01*
X009123Y022024D01*
X008073Y022024D02*
X007593Y021544D01*
X008073Y022024D02*
X008073Y022354D01*
X008083Y022354D01*
X007173Y019854D02*
X007173Y018054D01*
X007803Y018064D01*
X007803Y018054D01*
X007173Y018054D02*
X004833Y018064D01*
X004773Y018124D01*
X004773Y018143D01*
X005513Y005144D02*
X005073Y004894D01*
X004983Y004919D01*
X004983Y004414D01*
X004943Y004314D01*
X004943Y003574D01*
X004943Y003544D01*
X004943Y003520D01*
X024657Y004165D02*
X024663Y004144D01*
X025143Y003664D01*
X025143Y003554D01*
X025563Y004894D02*
X026313Y004894D01*
X026343Y004978D01*
X026343Y004984D01*
X027433Y004984D01*
X030123Y001444D02*
X030303Y001444D01*
X030399Y001389D01*
X032446Y001389D02*
X032703Y001384D01*
X032703Y001394D01*
X032643Y001444D02*
X032553Y001444D01*
X032446Y001389D01*
X034083Y003304D02*
X034083Y003394D01*
X034083Y003899D02*
X034083Y003934D01*
X034093Y003909D01*
X034093Y003904D01*
D47*
X024073Y011774D02*
X023553Y011774D01*
X026103Y013474D02*
X026793Y013474D01*
X026013Y014224D02*
X026013Y015064D01*
X026453Y015064D01*
X026013Y015064D02*
X026013Y015514D01*
X023793Y017464D01*
X023763Y017524D02*
X021663Y019624D01*
X038833Y020354D02*
X039063Y020354D01*
D48*
X023973Y011704D02*
X022473Y010204D01*
X023553Y011774D02*
X022583Y012814D01*
D49*
X020943Y013014D03*
X020343Y012224D03*
X020153Y011544D03*
X020423Y010204D03*
X019933Y009374D03*
X021233Y008444D03*
X022033Y008124D03*
X021423Y007244D03*
X021193Y007004D03*
X021543Y006684D03*
X021753Y006424D03*
X020773Y006464D03*
X020703Y005974D03*
X019903Y005874D03*
X020623Y005254D03*
X021563Y005434D03*
X021573Y004834D03*
X021873Y004324D03*
X021453Y004204D03*
X022083Y003874D03*
X022353Y004024D03*
X022683Y003604D03*
X023103Y003694D03*
X023343Y004024D03*
X023643Y003964D03*
X023703Y003394D03*
X024573Y003574D03*
X025963Y003124D03*
X025533Y002614D03*
X025413Y001984D03*
X025413Y001654D03*
X022083Y001174D03*
X021753Y001144D03*
X022233Y002824D03*
X020793Y003184D03*
X018993Y003144D03*
X018643Y003644D03*
X018333Y004574D03*
X016833Y005174D03*
X015623Y005914D03*
X015193Y006124D03*
X015043Y007104D03*
X014433Y007104D03*
X013833Y006644D03*
X013353Y006134D03*
X012313Y006224D03*
X011313Y006234D03*
X012123Y007104D03*
X010913Y007204D03*
X010233Y007514D03*
X010133Y008204D03*
X009383Y008484D03*
X009373Y008844D03*
X009643Y009104D03*
X009333Y009384D03*
X008583Y009834D03*
X006373Y009364D03*
X006373Y008974D03*
X006383Y008564D03*
X005853Y008074D03*
X006513Y007144D03*
X007723Y007314D03*
X008203Y007274D03*
X007833Y006154D03*
X007483Y006124D03*
X007863Y005314D03*
X008163Y005314D03*
X009123Y005464D03*
X009353Y005204D03*
X009603Y004854D03*
X009323Y004614D03*
X008613Y004444D03*
X008773Y003604D03*
X008023Y003754D03*
X007053Y004214D03*
X006543Y003844D03*
X006423Y004174D03*
X007123Y004874D03*
X005513Y005144D03*
X005483Y005514D03*
X004813Y006084D03*
X004953Y007254D03*
X004543Y007254D03*
X004373Y009124D03*
X004013Y009114D03*
X002783Y009114D03*
X003563Y010444D03*
X003953Y011004D03*
X005013Y011614D03*
X005493Y011524D03*
X006543Y011164D03*
X005793Y010444D03*
X003563Y011994D03*
X003813Y012304D03*
X004473Y012514D03*
X005913Y013294D03*
X006393Y013834D03*
X006093Y014644D03*
X005493Y015244D03*
X005073Y015334D03*
X003703Y014914D03*
X003343Y014234D03*
X003903Y014044D03*
X003093Y013594D03*
X002843Y012864D03*
X000513Y013864D03*
X002713Y015704D03*
X003273Y015694D03*
X004023Y016804D03*
X003213Y017614D03*
X006333Y016594D03*
X008253Y016574D03*
X010083Y015744D03*
X010293Y015424D03*
X010803Y016164D03*
X011463Y016294D03*
X010203Y017074D03*
X012033Y018604D03*
X013293Y019294D03*
X010383Y020254D03*
X009863Y020234D03*
X009583Y020874D03*
X009123Y022024D03*
X007603Y020524D03*
X006783Y019394D03*
X010023Y019674D03*
X013563Y021874D03*
X013383Y022594D03*
X012543Y022334D03*
X014823Y021874D03*
X017703Y020884D03*
X019603Y020914D03*
X020873Y019984D03*
X021663Y019624D03*
X022893Y020134D03*
X024513Y020974D03*
X025163Y020954D03*
X025143Y020164D03*
X023403Y021624D03*
X023963Y022204D03*
X025523Y022134D03*
X025673Y022414D03*
X026993Y022544D03*
X027663Y021424D03*
X029823Y020344D03*
X032073Y018724D03*
X032073Y018334D03*
X032283Y018094D03*
X032463Y017824D03*
X032313Y017344D03*
X032073Y016444D03*
X030693Y016624D03*
X029643Y015544D03*
X028473Y016324D03*
X028713Y016594D03*
X028693Y017344D03*
X027103Y016934D03*
X027103Y016504D03*
X026813Y016244D03*
X025293Y015304D03*
X025113Y015544D03*
X025443Y015004D03*
X026453Y015064D03*
X024273Y014484D03*
X021223Y013874D03*
X020023Y015094D03*
X016863Y013504D03*
X015733Y013424D03*
X015733Y013084D03*
X015153Y013074D03*
X014803Y013064D03*
X014543Y013384D03*
X014313Y013054D03*
X013143Y013334D03*
X012153Y014194D03*
X011253Y013624D03*
X010833Y013374D03*
X009813Y012934D03*
X009513Y012934D03*
X008613Y012904D03*
X007193Y013014D03*
X008583Y011854D03*
X010173Y011194D03*
X010883Y011314D03*
X011113Y011594D03*
X010733Y011674D03*
X011523Y012004D03*
X011543Y011134D03*
X013743Y010504D03*
X014673Y011134D03*
X014463Y011884D03*
X014473Y012294D03*
X013893Y011674D03*
X014883Y010384D03*
X015223Y009904D03*
X015473Y009444D03*
X016253Y009364D03*
X017003Y008634D03*
X017453Y009064D03*
X017683Y009934D03*
X017753Y011024D03*
X017743Y011394D03*
X017013Y011394D03*
X016663Y011534D03*
X016213Y011324D03*
X016113Y012424D03*
X013173Y014884D03*
X013593Y015484D03*
X014853Y015034D03*
X016023Y015624D03*
X016123Y016254D03*
X014883Y016104D03*
X019533Y019084D03*
X020863Y018184D03*
X021673Y022194D03*
X032373Y019044D03*
X033363Y020644D03*
X034563Y020824D03*
X035793Y019564D03*
X036063Y018304D03*
X036093Y017344D03*
X035633Y016354D03*
X036093Y015844D03*
X036153Y015154D03*
X035533Y014854D03*
X034633Y014184D03*
X035413Y013974D03*
X037033Y014374D03*
X037473Y016834D03*
X033043Y014374D03*
X032683Y014374D03*
X032043Y014554D03*
X031833Y014164D03*
X031563Y013954D03*
X031773Y013744D03*
X031083Y014374D03*
X030693Y014614D03*
X031863Y012154D03*
X032163Y011524D03*
X033333Y011864D03*
X033813Y011884D03*
X033483Y011274D03*
X033913Y010444D03*
X034163Y009914D03*
X033063Y010144D03*
X032713Y010354D03*
X031873Y010034D03*
X031693Y009324D03*
X031123Y009494D03*
X030063Y009364D03*
X029633Y008434D03*
X029853Y007424D03*
X031283Y008314D03*
X032823Y007494D03*
X028403Y005974D03*
X027523Y006394D03*
X026673Y006724D03*
X025773Y007024D03*
X024803Y006724D03*
X024383Y006324D03*
X024443Y005904D03*
X023313Y006824D03*
X023133Y007134D03*
X022763Y007234D03*
X023733Y007234D03*
X020823Y007374D03*
X019143Y006824D03*
X018903Y006574D03*
X018153Y006234D03*
X017313Y006314D03*
X018053Y007004D03*
X019063Y007264D03*
X018603Y007744D03*
X014953Y008684D03*
X013533Y009664D03*
X011523Y008204D03*
X012133Y007864D03*
X011853Y004564D03*
X014143Y003464D03*
X014883Y003234D03*
X015683Y003574D03*
X015323Y004484D03*
X017113Y003484D03*
X016973Y001964D03*
X015613Y001444D03*
X013573Y002074D03*
X009603Y002894D03*
X008083Y002354D03*
X008013Y001104D03*
X008593Y000954D03*
X005253Y004134D03*
X004433Y004564D03*
X019083Y001744D03*
X028573Y004574D03*
X028973Y004034D03*
X029463Y003404D03*
X029953Y003404D03*
X031363Y003404D03*
X032833Y003384D03*
X027253Y009614D03*
X026673Y010174D03*
X029403Y011374D03*
X022993Y011194D03*
X036423Y010684D03*
X036763Y010654D03*
X036783Y010314D03*
X038583Y010814D03*
X036753Y022264D03*
X004053Y022594D03*
X003303Y021334D03*
D50*
X006933Y011314D02*
X006543Y011164D01*
X006933Y011314D02*
X008073Y011314D01*
X008086Y011338D01*
X014523Y007804D02*
X014523Y007594D01*
X014523Y007394D01*
X014523Y007194D01*
X014433Y007104D01*
X015043Y007104D02*
X015033Y007804D01*
X015043Y007815D01*
X014543Y007815D02*
X014523Y007804D01*
X013833Y006644D02*
X013833Y005404D01*
X013353Y005404D01*
X013333Y005384D01*
X013333Y004914D02*
X013353Y004894D01*
X013593Y004894D01*
X014093Y004524D01*
X014773Y004524D01*
X015263Y004034D01*
X015643Y004064D02*
X015643Y003734D01*
X015683Y003574D01*
X016013Y004034D02*
X016333Y004364D01*
X016333Y004884D01*
X016333Y005384D02*
X016353Y005404D01*
X016383Y005404D01*
X016793Y005654D01*
X017073Y006654D01*
X018103Y006654D01*
X021433Y009984D01*
X021453Y013054D01*
X022183Y014014D01*
X022893Y014014D01*
X024183Y015304D01*
X025293Y015304D01*
X025113Y015544D02*
X024063Y015534D01*
X022783Y014234D01*
X022123Y014234D01*
X022113Y014244D01*
X021543Y013774D01*
X021223Y013874D02*
X021213Y018094D01*
X021303Y018274D01*
X021303Y019714D01*
X021723Y020134D01*
X022893Y020134D01*
X023073Y020134D01*
X023343Y019864D01*
X023353Y019859D01*
X025143Y020164D02*
X025293Y020164D01*
X025593Y019864D01*
X025593Y019849D01*
X027772Y017334D02*
X027783Y017314D01*
X028023Y017074D01*
X028503Y017074D01*
X028518Y017059D01*
X028533Y017074D01*
X032583Y017074D01*
X032853Y017344D01*
X033152Y017344D01*
X033152Y016344D02*
X033123Y016324D01*
X032613Y016324D01*
X031863Y015574D01*
X030393Y015574D01*
X029883Y016084D01*
X027993Y016084D01*
X027783Y016294D01*
X027772Y016334D01*
X027753Y016354D01*
X027543Y016354D01*
X027103Y016504D01*
X027772Y016834D02*
X027783Y016834D01*
X027843Y016774D01*
X028518Y017059D02*
X028713Y016864D01*
X028713Y016594D01*
X029643Y015544D02*
X030693Y014614D01*
X030693Y016624D02*
X031173Y016624D01*
X031383Y016834D01*
X031394Y016834D01*
X036774Y016844D02*
X036783Y016834D01*
X037473Y016834D01*
X024783Y007114D02*
X022953Y008944D01*
X020753Y008944D01*
X019063Y007264D01*
X018393Y007164D02*
X018363Y007144D01*
X018183Y007144D01*
X018063Y007024D01*
X018053Y007004D01*
X018393Y007164D02*
X020263Y009044D01*
X020923Y010114D01*
X017683Y009934D02*
X016563Y008464D01*
X016563Y007834D01*
X016543Y007815D01*
X018733Y006344D02*
X019123Y006344D01*
X020333Y006344D01*
X020703Y005974D01*
X018733Y005664D02*
X018723Y005584D01*
X018333Y005404D01*
X018333Y005384D01*
X018733Y005664D02*
X018733Y006344D01*
X015643Y004754D02*
X015643Y004414D01*
X015643Y004064D01*
X015323Y004484D02*
X014893Y004914D01*
X014333Y004914D01*
X013923Y004384D02*
X014493Y004054D01*
X014513Y004034D01*
X013923Y004384D02*
X012743Y004384D01*
X012423Y004704D01*
X012333Y004894D01*
X012333Y004914D01*
X012333Y005384D02*
X012333Y005404D01*
X012423Y005404D01*
X012693Y005674D01*
X012693Y006364D01*
X012123Y007104D01*
X015193Y006124D02*
X015193Y005204D01*
X015643Y004754D01*
X013763Y004034D02*
X013283Y003674D01*
X011133Y003674D01*
X011133Y004324D01*
X010353Y004894D01*
X010333Y004914D01*
X008293Y003844D02*
X007713Y004424D01*
X007713Y004594D01*
X007717Y004622D01*
X007713Y004594D02*
X007023Y004594D01*
X006603Y004174D01*
X006423Y004174D01*
X004993Y006084D02*
X005523Y006604D01*
X005543Y006604D01*
X004993Y006084D02*
X004813Y006084D01*
X014083Y002354D02*
X014133Y002344D01*
X014433Y002344D01*
X014883Y001894D01*
X014883Y001654D01*
X014913Y001634D01*
X015353Y001194D01*
X015843Y001194D01*
X015953Y001304D01*
X019363Y001304D01*
X019503Y001444D01*
X021753Y001444D01*
X021783Y001414D01*
X025503Y001414D01*
X025653Y001564D01*
X025653Y002074D01*
X025653Y002494D01*
X025533Y002614D01*
X025413Y001984D02*
X016973Y001964D01*
X016683Y001744D02*
X016083Y002344D01*
X016083Y002354D01*
X016683Y001744D02*
X019083Y001744D01*
X019833Y002354D02*
X019833Y002374D01*
X019893Y002704D02*
X020493Y002704D01*
X020823Y002374D01*
X020833Y002354D01*
X021153Y002824D02*
X020793Y003184D01*
X021153Y002824D02*
X022233Y002824D01*
X022683Y003604D02*
X022683Y003664D01*
X022923Y003904D01*
X022923Y004414D01*
X022934Y004429D01*
X023103Y004414D02*
X023131Y004429D01*
X023103Y004414D02*
X023103Y003694D01*
X023343Y004024D02*
X023343Y004414D01*
X023328Y004429D01*
X023525Y004429D02*
X023553Y004414D01*
X023553Y004144D01*
X023643Y004054D01*
X023643Y003964D01*
X023733Y004414D02*
X023722Y004429D01*
X023733Y004414D02*
X024573Y003574D01*
X022713Y004054D02*
X022443Y003784D01*
X022173Y003784D01*
X022083Y003874D01*
X022353Y004024D02*
X022533Y004204D01*
X022533Y004414D01*
X022540Y004429D01*
X022713Y004414D02*
X022713Y004054D01*
X022713Y004414D02*
X022737Y004429D01*
X019893Y002704D02*
X018573Y004024D01*
X018273Y004024D01*
X018263Y004034D01*
X018993Y003144D02*
X017833Y002354D01*
X014103Y002344D02*
X014083Y002354D01*
X024803Y006724D02*
X024783Y007114D01*
X027523Y006394D02*
X028203Y005714D01*
X030823Y005714D01*
X031323Y006214D01*
X031323Y006664D01*
X031333Y006665D01*
X030833Y006665D02*
X030813Y006664D01*
X030813Y006424D01*
X030363Y005974D01*
X028403Y005974D01*
X032823Y006694D02*
X032833Y006665D01*
X032823Y006694D02*
X032823Y007494D01*
D51*
X032333Y006665D02*
X032313Y006664D01*
X032313Y006394D01*
X032313Y005494D01*
X031363Y005494D01*
X031353Y005494D01*
X031363Y005494D01*
X027903Y005494D01*
X026673Y006724D01*
X024446Y009704D02*
X024453Y009724D01*
X024453Y009994D01*
X024452Y010188D01*
X024453Y010188D02*
X024453Y010204D01*
X024446Y010204D01*
X022473Y011194D02*
X022467Y011184D01*
X016253Y009364D02*
X016063Y009174D01*
X016053Y007834D01*
X016043Y007815D01*
X021573Y004862D02*
X021573Y004834D01*
X031363Y004578D02*
X031363Y005494D01*
X032313Y005494D01*
X034243Y005494D01*
X035163Y004564D01*
X035323Y004564D01*
X035333Y004558D01*
X032313Y005494D02*
X031363Y005494D01*
X031394Y015834D02*
X031413Y015844D01*
X031863Y015844D01*
X032853Y016834D01*
X033123Y016834D01*
X033152Y016844D01*
X032073Y016444D02*
X031533Y016444D01*
X031443Y016354D01*
X031394Y016334D01*
X031383Y016324D01*
X028473Y016324D01*
X027772Y017834D02*
X027753Y017854D01*
X027483Y017854D01*
X027063Y018274D01*
X027063Y020434D01*
X027993Y021364D01*
X029093Y021364D01*
X029643Y021274D02*
X029643Y021544D01*
X029913Y021814D01*
X031623Y021814D01*
X032073Y021364D01*
X032093Y021364D01*
X032553Y021904D02*
X032093Y022364D01*
X032553Y021904D02*
X033183Y021904D01*
X033633Y021454D01*
X033633Y020524D01*
X033153Y020044D01*
X033153Y019354D01*
X033152Y019344D01*
X033152Y018844D02*
X032883Y018844D01*
X032373Y019044D01*
X032193Y019354D02*
X032193Y019474D01*
X033363Y020644D01*
X033093Y021364D02*
X031413Y019684D01*
X031413Y019354D01*
X031394Y019334D01*
X031413Y018844D02*
X031394Y018834D01*
X031413Y018844D02*
X031683Y018844D01*
X032193Y019354D01*
X032073Y018724D02*
X032433Y018364D01*
X033123Y018364D01*
X033152Y018344D01*
X033123Y017854D02*
X032823Y017854D01*
X032583Y018094D01*
X032283Y018094D01*
X032073Y018334D02*
X031394Y018334D01*
X031394Y017834D02*
X031413Y017824D01*
X032463Y017824D01*
X033123Y017854D02*
X033152Y017844D01*
X035633Y016354D02*
X036753Y016354D01*
X036774Y016344D01*
X036774Y017844D02*
X036753Y017854D01*
X036513Y017854D01*
X036063Y018304D01*
X036483Y018364D02*
X035523Y019324D01*
X035523Y021154D01*
X035553Y021184D01*
X035553Y021904D01*
X035093Y022364D01*
X035103Y021364D02*
X035093Y021364D01*
X035103Y021364D02*
X034563Y020824D01*
X035793Y019564D02*
X036513Y018844D01*
X036774Y018844D01*
X036753Y018364D02*
X036483Y018364D01*
X036753Y018364D02*
X036774Y018344D01*
X036774Y019344D02*
X036753Y019354D01*
X036753Y022264D01*
X030093Y021364D02*
X030093Y020224D01*
X028203Y018334D01*
X027772Y018334D01*
X027772Y018834D02*
X027783Y018844D01*
X028323Y018844D01*
X029823Y020344D01*
X029643Y021274D02*
X027783Y019414D01*
X027783Y019354D01*
X027772Y019334D01*
X024683Y021934D02*
X025293Y022674D01*
X026483Y022674D01*
X026653Y022534D01*
X026953Y022534D01*
X026993Y022544D01*
X024683Y021934D02*
X022513Y021934D01*
X021983Y021684D01*
X021353Y021684D01*
X021173Y021864D01*
X018553Y021864D01*
X018123Y021874D01*
X014823Y021874D01*
X014313Y022144D02*
X013473Y021304D01*
X013473Y020554D01*
X013293Y020374D01*
X013283Y020324D01*
X013293Y020314D01*
X013293Y019294D01*
X016633Y020324D02*
X016683Y020224D01*
X017343Y019114D02*
X017433Y019054D01*
X017433Y017654D02*
X017463Y017644D01*
X017448Y017629D01*
X013563Y021874D02*
X012543Y022334D01*
X014313Y022144D02*
X021233Y022154D01*
X021483Y021904D01*
X021893Y021904D01*
X022193Y022204D01*
X023963Y022204D01*
X009863Y020234D02*
X008403Y018304D01*
X008403Y018054D01*
X003303Y021334D02*
X002283Y019924D01*
X001623Y019924D01*
X001053Y019354D01*
X000833Y019354D01*
X010173Y011669D02*
X010173Y011194D01*
X005613Y009454D02*
X005553Y009477D01*
X005563Y009414D02*
X005613Y009454D01*
X005563Y009414D02*
X005563Y007584D01*
X005578Y007584D01*
X004953Y007254D02*
X004953Y008174D01*
X005183Y008584D01*
X005223Y008584D01*
X005179Y008611D01*
X007173Y006124D02*
X007483Y006124D01*
X007173Y006124D02*
X007173Y005464D01*
X007471Y005459D01*
X006543Y003844D02*
X006213Y003514D01*
X006203Y003520D01*
X006213Y003454D01*
X006213Y003334D01*
X006813Y002654D01*
X007923Y002654D01*
X008233Y002864D01*
X009203Y002874D01*
X009593Y002504D01*
X009603Y002184D01*
X009883Y001854D01*
X010343Y001854D01*
X010813Y001384D01*
X011073Y001384D01*
X011083Y001354D01*
D52*
X011593Y001194D02*
X011913Y000964D01*
X012423Y000964D01*
X012813Y001354D01*
X013083Y001354D01*
X012713Y001724D01*
X012713Y002474D01*
X012973Y002734D01*
X017533Y002734D01*
X017863Y003064D01*
X018113Y003064D01*
X018613Y003564D01*
X018643Y003644D01*
X019013Y004034D02*
X019323Y003724D01*
X019953Y003724D01*
X021303Y002374D01*
X021813Y002374D01*
X021833Y002354D01*
X022263Y003394D02*
X023703Y003394D01*
X022263Y003394D02*
X021873Y003784D01*
X021873Y003814D01*
X021483Y004204D01*
X021453Y004204D01*
X021903Y004654D01*
X022083Y004654D01*
X022107Y004665D01*
X021963Y004414D02*
X021873Y004324D01*
X021963Y004414D02*
X022323Y004414D01*
X022344Y004429D01*
X022107Y005058D02*
X021633Y005064D01*
X021423Y005274D01*
X020793Y005274D01*
X020633Y005254D01*
X020623Y005254D01*
X020753Y005274D02*
X020793Y005274D01*
X021563Y005434D02*
X021741Y005255D01*
X022107Y005255D01*
X022107Y005649D02*
X022083Y005674D01*
X021963Y005674D01*
X021183Y006454D01*
X020793Y006454D01*
X020773Y006464D01*
X021193Y007004D02*
X022023Y007004D01*
X022333Y006694D01*
X022323Y006304D01*
X022344Y006279D01*
X022533Y006304D02*
X022540Y006279D01*
X022533Y006304D02*
X022533Y006724D01*
X022023Y007244D01*
X021423Y007244D01*
X020913Y007474D02*
X020823Y007384D01*
X020823Y007374D01*
X020913Y007474D02*
X021993Y007474D01*
X022623Y006844D01*
X022743Y006724D01*
X022743Y006304D01*
X022737Y006279D01*
X022923Y006304D02*
X022934Y006279D01*
X022923Y006304D02*
X022923Y006964D01*
X022763Y007234D01*
X023133Y007134D02*
X023133Y007024D01*
X023063Y006954D01*
X023063Y006624D01*
X023133Y006554D01*
X023133Y006279D01*
X023131Y006279D01*
X023313Y006304D02*
X023328Y006279D01*
X023313Y006304D02*
X023313Y006484D01*
X023313Y006824D01*
X023523Y007104D02*
X023133Y007634D01*
X020423Y007634D01*
X019363Y006574D01*
X018903Y006574D01*
X019143Y006814D02*
X019163Y006814D01*
X019463Y007114D01*
X020183Y007784D01*
X023303Y007784D01*
X023733Y007234D01*
X023733Y006324D01*
X024383Y006324D01*
X024293Y006114D02*
X024233Y006054D01*
X023969Y006054D01*
X023958Y006043D01*
X023943Y006064D01*
X023973Y005854D02*
X023958Y005846D01*
X023973Y005854D02*
X024123Y005854D01*
X024393Y005854D01*
X024406Y005856D01*
X024418Y005861D01*
X024428Y005869D01*
X024436Y005879D01*
X024441Y005891D01*
X024443Y005904D01*
X024513Y006114D02*
X024293Y006114D01*
X024513Y006114D02*
X024653Y006254D01*
X024653Y006454D01*
X024633Y006454D01*
X024633Y006574D01*
X023943Y007264D01*
X023943Y007414D01*
X023463Y007894D01*
X023453Y007914D01*
X020063Y007914D01*
X019183Y007034D01*
X018703Y007034D01*
X018133Y006464D01*
X017923Y006464D01*
X017838Y006379D01*
X017833Y005744D01*
X017833Y004894D01*
X017853Y004894D01*
X017133Y004174D01*
X017133Y003854D01*
X017343Y003644D01*
X017343Y003364D01*
X017103Y003124D01*
X015513Y003124D01*
X015393Y003004D01*
X012733Y003004D01*
X012103Y002374D01*
X012093Y002374D01*
X012083Y002354D01*
X012483Y002254D02*
X012483Y002554D01*
X012813Y002884D01*
X017343Y002884D01*
X017893Y003444D01*
X017893Y003944D01*
X017893Y004144D01*
X018103Y004354D01*
X018563Y004354D01*
X018893Y004354D01*
X018893Y006134D01*
X019763Y006134D01*
X019903Y005874D01*
X018333Y005884D02*
X018333Y006004D01*
X018153Y006234D01*
X017313Y006314D02*
X017313Y005894D01*
X017333Y005884D01*
X016333Y005884D02*
X016303Y005914D01*
X015623Y005914D01*
X016833Y005174D02*
X017143Y004884D01*
X017333Y004884D01*
X015513Y003334D02*
X015153Y003694D01*
X015123Y003694D01*
X014043Y003694D01*
X013863Y003514D01*
X013843Y003504D01*
X009283Y003494D01*
X008613Y004444D01*
X008799Y004624D02*
X008554Y004868D01*
X008583Y005044D02*
X008554Y005065D01*
X008583Y005044D02*
X008823Y005044D01*
X009603Y004854D01*
X009323Y004614D02*
X008799Y004624D01*
X008308Y004622D02*
X008308Y004388D01*
X008613Y004084D01*
X008773Y003924D01*
X008773Y003604D01*
X008563Y003444D02*
X008653Y003344D01*
X014023Y003344D01*
X014143Y003464D01*
X013013Y004034D02*
X012753Y004034D01*
X012753Y004054D01*
X012483Y004324D01*
X011793Y004324D01*
X011343Y004774D01*
X011343Y004894D01*
X011333Y004914D01*
X011853Y004564D02*
X011853Y007444D01*
X011733Y007564D01*
X010203Y009094D01*
X010203Y009934D01*
X010183Y009939D01*
X009623Y009614D02*
X009643Y009554D01*
X009643Y009104D01*
X009373Y008844D02*
X009183Y008844D01*
X008673Y009274D01*
X006923Y009264D01*
X006373Y008974D01*
X006383Y008564D02*
X006953Y009114D01*
X007563Y009114D01*
X008613Y009114D01*
X009023Y008684D01*
X009383Y008484D01*
X009873Y008494D02*
X009873Y010294D01*
X010173Y010594D01*
X010183Y010608D01*
X010173Y010624D01*
X009893Y010624D01*
X009703Y011314D01*
X009453Y012334D01*
X010083Y012334D01*
X010173Y012338D01*
X010173Y012334D01*
X010083Y012334D01*
X010083Y015744D01*
X009813Y015634D02*
X009483Y015964D01*
X007363Y015964D01*
X006973Y016224D01*
X004633Y016234D01*
X004343Y016524D01*
X004323Y016534D01*
X002433Y016534D01*
X002253Y016354D01*
X001833Y016354D01*
X001603Y015944D02*
X001303Y016244D01*
X001303Y016884D01*
X000833Y017354D01*
X000833Y016354D02*
X001293Y015804D01*
X002363Y015804D01*
X002903Y016224D01*
X004163Y016224D01*
X004533Y015864D01*
X006903Y015864D01*
X008613Y014174D01*
X008613Y012904D01*
X009513Y012934D02*
X009513Y015634D01*
X007383Y015634D01*
X006953Y016064D01*
X004523Y016064D01*
X004173Y016414D01*
X002613Y016414D01*
X002143Y015944D01*
X001603Y015944D01*
X002713Y015704D02*
X003093Y016084D01*
X004083Y016084D01*
X004453Y015724D01*
X005323Y015724D01*
X007193Y013904D01*
X007193Y013014D01*
X006393Y013774D02*
X005913Y013294D01*
X005703Y013384D02*
X005703Y011134D01*
X004023Y009454D01*
X004023Y009124D01*
X004013Y009114D01*
X004373Y009124D02*
X004383Y009124D01*
X004383Y009394D01*
X006843Y011854D01*
X008583Y011854D01*
X009086Y012338D02*
X009093Y012334D01*
X009453Y012334D01*
X009813Y012934D02*
X009813Y015634D01*
X010293Y015424D02*
X010503Y015214D01*
X010503Y012544D01*
X011553Y011494D01*
X011543Y011134D01*
X011273Y011414D02*
X011273Y010394D01*
X011633Y010024D01*
X012153Y010024D01*
X012333Y010024D01*
X012354Y010004D01*
X012333Y009514D02*
X011853Y009524D01*
X011083Y010274D01*
X011083Y010974D01*
X010883Y011314D01*
X010653Y011134D02*
X010653Y011594D01*
X010733Y011674D01*
X011113Y011594D02*
X011113Y011574D01*
X011273Y011414D01*
X011703Y011524D02*
X010623Y012604D01*
X010623Y015564D01*
X010063Y016124D01*
X010073Y016124D01*
X010063Y016124D01*
X009743Y016124D01*
X007613Y016124D01*
X007333Y016374D01*
X005343Y016364D01*
X004913Y016794D01*
X004023Y016804D01*
X003513Y017014D02*
X007263Y017014D01*
X007683Y016594D01*
X008253Y016594D01*
X008253Y016574D01*
X007833Y016344D02*
X010043Y016344D01*
X010633Y016594D01*
X011463Y016594D01*
X013173Y014884D01*
X013593Y015484D02*
X014043Y015044D01*
X014043Y014374D01*
X014043Y014193D01*
X014523Y014164D02*
X014543Y014193D01*
X014523Y014164D02*
X014523Y013744D01*
X014313Y013534D01*
X014313Y013054D01*
X014543Y013384D02*
X014743Y013394D01*
X015313Y013374D01*
X015553Y012864D01*
X015563Y012864D01*
X016583Y012864D01*
X016593Y012864D01*
X017993Y013504D01*
X018723Y013504D01*
X018732Y013504D01*
X018732Y013004D02*
X018723Y012994D01*
X018463Y013054D01*
X018133Y013054D01*
X017113Y012664D01*
X017103Y012664D01*
X015543Y012664D01*
X015153Y013054D01*
X015153Y013074D01*
X014803Y013064D02*
X015323Y012194D01*
X017813Y012194D01*
X017943Y012274D01*
X019143Y012274D01*
X019263Y012154D01*
X019263Y010354D01*
X018933Y010024D01*
X018753Y010024D01*
X018732Y010004D01*
X018732Y010504D02*
X016563Y010504D01*
X015223Y009904D01*
X014943Y010084D02*
X014953Y008684D01*
X014673Y009424D02*
X014043Y008794D01*
X014043Y008194D01*
X014043Y007815D01*
X013543Y007815D02*
X013533Y007834D01*
X013533Y008164D01*
X013533Y009044D01*
X013533Y009224D01*
X013533Y009664D01*
X013053Y009514D02*
X013053Y010834D01*
X013893Y011674D01*
X014103Y011584D02*
X014103Y013564D01*
X014253Y013714D01*
X014253Y015124D01*
X014253Y015284D01*
X014503Y015674D01*
X014883Y016104D01*
X014893Y016424D02*
X014463Y016864D01*
X010463Y016864D01*
X010033Y016564D01*
X009333Y016564D01*
X007833Y017614D01*
X003213Y017614D01*
X003513Y017014D02*
X002193Y018334D01*
X002193Y018994D01*
X001833Y019354D01*
X001473Y019444D02*
X001473Y019504D01*
X001683Y019714D01*
X002553Y019714D01*
X002883Y019384D01*
X002883Y019364D01*
X001473Y019444D02*
X000993Y018964D01*
X000933Y018964D01*
X000453Y018484D01*
X000453Y015214D01*
X000693Y014974D01*
X000723Y014974D01*
X001203Y014494D01*
X001203Y010064D01*
X001393Y009864D01*
X002023Y009864D01*
X002293Y010134D01*
X002603Y010444D01*
X003453Y010444D01*
X003563Y010444D01*
X003953Y010365D02*
X003938Y010251D01*
X002783Y009204D01*
X002793Y009234D01*
X002773Y009224D01*
X002783Y009114D01*
X003053Y008864D02*
X003053Y007954D01*
X001983Y006884D01*
X001353Y006884D01*
X000833Y006354D01*
X001353Y005884D02*
X002273Y005884D01*
X004653Y008294D01*
X004663Y009364D01*
X004683Y009364D01*
X004803Y009364D01*
X005553Y010114D01*
X005703Y010114D01*
X005723Y010134D01*
X007073Y010134D01*
X007633Y009614D01*
X009623Y009614D01*
X009333Y009384D02*
X009263Y009444D01*
X007153Y009444D01*
X006373Y009364D01*
X006223Y009604D02*
X006003Y009274D01*
X006003Y008614D01*
X005927Y008611D01*
X005853Y008074D02*
X006453Y008074D01*
X006473Y008080D01*
X007963Y007504D01*
X007963Y006944D01*
X008403Y006944D01*
X010133Y008204D01*
X009873Y008494D02*
X008203Y007274D01*
X007723Y007314D02*
X007153Y007314D01*
X006583Y007894D01*
X005973Y007894D01*
X005913Y007834D01*
X005913Y007324D01*
X005853Y007264D01*
X005643Y007264D01*
X004983Y006604D01*
X004543Y006604D01*
X004533Y006604D01*
X004443Y007144D02*
X004173Y007144D01*
X002463Y005434D01*
X002463Y003334D01*
X002443Y003314D01*
X001993Y002864D01*
X001303Y002864D01*
X000843Y002374D01*
X000833Y002354D01*
X001833Y002354D02*
X001833Y002374D01*
X001833Y002524D01*
X003363Y004054D01*
X003363Y005254D01*
X003373Y005254D01*
X004743Y005254D01*
X005223Y005254D01*
X005483Y005514D01*
X005918Y005614D02*
X005943Y005614D01*
X005943Y005254D01*
X006213Y004984D01*
X006213Y004204D01*
X005913Y003904D01*
X005913Y003544D01*
X005888Y003520D01*
X005583Y003544D02*
X005573Y003520D01*
X005583Y003544D02*
X005583Y003844D01*
X005913Y004174D01*
X005913Y004714D01*
X005918Y004714D01*
X006587Y004714D02*
X006603Y004714D01*
X006993Y005104D01*
X007233Y005104D01*
X007263Y005074D01*
X007443Y005074D01*
X007471Y005065D01*
X007471Y005262D02*
X007443Y005284D01*
X006933Y005284D01*
X006603Y005614D01*
X006587Y005614D01*
X007717Y005705D02*
X007743Y005704D01*
X007743Y005434D01*
X007863Y005314D01*
X007923Y005074D02*
X008163Y005314D01*
X007923Y005074D02*
X007923Y004624D01*
X007914Y004622D01*
X008103Y004594D02*
X008103Y004384D01*
X008563Y003924D01*
X008563Y003444D01*
X008023Y003754D02*
X007963Y003914D01*
X007663Y004214D01*
X007633Y004214D01*
X007053Y004214D01*
X008103Y004594D02*
X008111Y004622D01*
X008554Y005262D02*
X008583Y005254D01*
X008913Y005254D01*
X009353Y005204D01*
X009123Y005464D02*
X008583Y005464D01*
X008554Y005459D01*
X008308Y005705D02*
X008313Y005734D01*
X008313Y006004D01*
X009773Y006014D01*
X010223Y006014D01*
X010333Y005814D01*
X010353Y005404D02*
X010333Y005384D01*
X010353Y005404D02*
X010413Y005404D01*
X010893Y005884D01*
X010893Y007204D01*
X010913Y007204D01*
X010233Y007514D02*
X008883Y006814D01*
X008213Y006814D01*
X007823Y006814D01*
X007323Y007144D01*
X006513Y007144D01*
X006543Y006604D02*
X007683Y006604D01*
X008103Y006184D01*
X008103Y005734D01*
X008111Y005705D01*
X007914Y005705D02*
X007893Y005734D01*
X007893Y006094D01*
X007833Y006154D01*
X006473Y008080D02*
X006473Y008084D01*
X004543Y007254D02*
X004533Y007234D01*
X004443Y007144D01*
X003433Y007944D02*
X002903Y007424D01*
X001833Y006354D01*
X001353Y005884D02*
X000843Y005374D01*
X000833Y005354D01*
X003713Y004854D02*
X003993Y004854D01*
X004433Y004564D01*
X008083Y002354D02*
X008083Y001184D01*
X008013Y001104D01*
X008593Y000954D02*
X009483Y000754D01*
X009486Y000752D01*
X009490Y000752D01*
X009493Y000754D01*
X021723Y000754D01*
X022083Y001174D01*
X021753Y001144D02*
X018963Y001144D01*
X018753Y000934D01*
X013773Y000924D01*
X013583Y001114D01*
X013583Y001574D01*
X013083Y002074D01*
X013083Y002354D01*
X012483Y002254D02*
X012093Y001864D01*
X012093Y001834D01*
X011033Y002894D01*
X009603Y002894D01*
X010083Y002354D02*
X010083Y002344D01*
X010683Y001914D01*
X011283Y001914D01*
X011593Y001604D01*
X011593Y001194D01*
X012083Y001354D02*
X012093Y001384D01*
X012093Y001834D01*
X013083Y001354D02*
X013083Y001354D01*
X013573Y001914D02*
X014103Y001384D01*
X014083Y001354D01*
X013573Y001914D02*
X013573Y002074D01*
X015613Y001444D02*
X019083Y001454D01*
X019293Y001654D01*
X025413Y001654D01*
X025963Y003124D02*
X027503Y001014D01*
X029793Y001014D01*
X034063Y001004D01*
X034083Y001024D01*
X034083Y002344D01*
X034083Y002354D01*
X032833Y003384D02*
X032833Y003904D01*
X032843Y003929D01*
X032353Y003984D02*
X032353Y004244D01*
X032703Y004594D01*
X032833Y004594D01*
X032843Y004598D01*
X032353Y003984D02*
X031673Y003124D01*
X029763Y003124D01*
X029463Y003424D01*
X029463Y003404D01*
X029953Y003404D02*
X029953Y003904D01*
X029953Y003919D01*
X029953Y004564D02*
X029953Y004588D01*
X029953Y004564D02*
X028573Y004574D01*
X026343Y004309D02*
X026313Y004294D01*
X025413Y004294D01*
X025563Y004165D01*
X025533Y004174D01*
X025413Y004294D01*
X025173Y004534D01*
X024393Y004534D01*
X024273Y004654D01*
X023973Y004654D01*
X023958Y004665D01*
X024657Y004894D02*
X024693Y004894D01*
X025053Y005254D01*
X025413Y005254D01*
X025713Y005554D01*
X026313Y005554D01*
X026333Y005589D01*
X023733Y006304D02*
X023722Y006279D01*
X023733Y006304D02*
X023733Y006324D01*
X023523Y006304D02*
X023525Y006279D01*
X023523Y006304D02*
X023523Y007104D01*
X022083Y006504D02*
X022083Y006064D01*
X022107Y006043D01*
X022083Y005854D02*
X022107Y005846D01*
X022083Y005854D02*
X021963Y005854D01*
X021753Y006064D01*
X021753Y006424D01*
X021893Y006684D02*
X022083Y006504D01*
X021893Y006684D02*
X021543Y006684D01*
X021543Y008124D02*
X021233Y008444D01*
X021543Y008124D02*
X022033Y008124D01*
X022399Y009204D02*
X022413Y009214D01*
X022413Y009694D01*
X022399Y009704D01*
X022383Y009724D01*
X022143Y009704D01*
X020433Y010204D02*
X020433Y010514D01*
X020633Y010714D01*
X020643Y015484D01*
X020493Y015634D01*
X020493Y017164D01*
X020473Y017174D01*
X020013Y017644D01*
X020033Y017654D01*
X020013Y017674D01*
X020013Y017764D01*
X018553Y018004D01*
X017183Y018004D01*
X017043Y018204D01*
X016963Y018354D01*
X015723Y019594D01*
X015333Y019594D01*
X015218Y019509D01*
X014643Y018934D01*
X013143Y018934D01*
X012093Y019984D01*
X012093Y021334D01*
X012083Y021354D01*
X013083Y021354D02*
X013083Y020854D01*
X012933Y020704D01*
X012933Y019324D01*
X013203Y019054D01*
X014583Y019054D01*
X015293Y019764D01*
X015338Y019799D01*
X015363Y019804D01*
X015763Y019804D01*
X016263Y019294D01*
X016863Y018704D01*
X018463Y018704D01*
X019953Y018364D01*
X020013Y018364D01*
X020033Y018354D01*
X020043Y018304D01*
X020763Y017584D01*
X020763Y013264D01*
X020763Y013184D01*
X020933Y013024D01*
X020943Y013014D01*
X020343Y012224D02*
X020343Y015474D01*
X020053Y015764D01*
X020053Y016944D01*
X020043Y016954D01*
X020033Y016954D01*
X020013Y016954D01*
X019683Y017284D01*
X018423Y017284D01*
X018423Y017304D01*
X017053Y017304D01*
X016813Y017924D01*
X016803Y017944D01*
X016803Y018334D01*
X015753Y019384D01*
X015273Y019384D01*
X014703Y018814D01*
X013083Y018814D01*
X011103Y020794D01*
X011103Y021334D01*
X011083Y021354D01*
X010983Y020944D02*
X010983Y020734D01*
X013353Y018364D01*
X015423Y018364D01*
X015433Y018354D01*
X015303Y018004D02*
X015063Y018244D01*
X013293Y018244D01*
X010203Y021334D01*
X010083Y021334D01*
X010083Y021354D01*
X009933Y021694D02*
X009603Y021364D01*
X009093Y021364D01*
X009083Y021354D01*
X009583Y020874D02*
X010313Y020874D01*
X013063Y018124D01*
X014973Y018124D01*
X015423Y017674D01*
X015433Y017654D01*
X015303Y018004D02*
X016413Y018004D01*
X016413Y016714D01*
X017153Y015974D01*
X018413Y015974D01*
X019833Y014594D01*
X019833Y014314D01*
X019813Y014294D01*
X019813Y010054D01*
X019813Y009494D01*
X019933Y009374D01*
X020423Y010204D02*
X020433Y010204D01*
X021723Y011124D02*
X021798Y011184D01*
X020153Y011544D02*
X020153Y011894D01*
X020023Y012034D01*
X020023Y015094D01*
X017973Y014614D02*
X018033Y014194D01*
X018043Y014193D01*
X017543Y014193D02*
X017523Y014164D01*
X017523Y013864D01*
X017033Y013274D01*
X016643Y013084D01*
X016323Y013084D01*
X015733Y013084D01*
X015733Y013424D02*
X016283Y013424D01*
X016533Y013954D01*
X016533Y014164D01*
X016543Y014193D01*
X017043Y014193D02*
X017043Y013684D01*
X016863Y013504D01*
X016213Y012424D02*
X016203Y012424D01*
X016113Y012424D01*
X016213Y012424D02*
X017623Y012424D01*
X017693Y012494D01*
X018723Y012494D01*
X018723Y012514D01*
X018732Y012504D01*
X018732Y012004D02*
X018033Y012004D01*
X017843Y012054D01*
X014853Y012054D01*
X014473Y012294D01*
X014463Y011884D02*
X017883Y011884D01*
X018333Y011524D01*
X018723Y011524D01*
X018732Y011504D01*
X017743Y011394D02*
X017013Y011394D01*
X016663Y011534D02*
X016653Y011554D01*
X016323Y011554D01*
X014793Y011554D01*
X013743Y010504D01*
X013263Y010714D02*
X013248Y010729D01*
X014103Y011584D01*
X014673Y011134D02*
X014673Y009424D01*
X015473Y009444D02*
X016663Y010184D01*
X017113Y010184D01*
X017473Y010184D01*
X017833Y010184D01*
X017823Y010184D01*
X018093Y009854D01*
X018093Y009544D01*
X018123Y009514D01*
X018723Y009514D01*
X018732Y009504D01*
X018732Y009004D02*
X018333Y009004D01*
X017453Y009064D01*
X017553Y008494D02*
X017003Y008634D01*
X017553Y008494D02*
X018033Y008014D01*
X018033Y007834D01*
X018043Y007815D01*
X018063Y007834D01*
X017543Y007815D02*
X017523Y007804D01*
X017523Y007594D01*
X017523Y007264D01*
X017463Y007214D01*
X017453Y007224D01*
X017233Y007064D01*
X016753Y006704D01*
X014163Y006694D01*
X013903Y006954D01*
X012593Y006954D01*
X011523Y008204D01*
X012133Y007864D02*
X012903Y007094D01*
X013543Y007094D01*
X014053Y007094D01*
X014303Y006874D01*
X015093Y006854D01*
X015413Y006914D01*
X016583Y006904D01*
X017043Y007624D01*
X017043Y007815D01*
X018723Y008494D02*
X018732Y008504D01*
X019143Y006824D02*
X019143Y006814D01*
X017113Y003484D02*
X016023Y003484D01*
X015873Y003334D01*
X015513Y003334D01*
X013353Y005824D02*
X013333Y005814D01*
X013353Y005824D02*
X013353Y006134D01*
X012323Y005984D02*
X012333Y005824D01*
X012333Y005814D01*
X012323Y005984D02*
X012313Y006224D01*
X011313Y006234D02*
X011313Y005794D01*
X011333Y005814D01*
X013043Y007815D02*
X013053Y007834D01*
X013053Y008554D01*
X013263Y008764D01*
X013263Y008774D01*
X013263Y008794D01*
X013263Y010714D01*
X012903Y010864D02*
X012903Y012154D01*
X012783Y012274D01*
X011883Y012274D01*
X010833Y013374D01*
X010813Y013754D02*
X010802Y013759D01*
X010803Y016164D01*
X011463Y016294D02*
X011463Y014584D01*
X012333Y013714D01*
X012333Y013504D01*
X012354Y013504D01*
X012333Y013024D02*
X011853Y013024D01*
X011253Y013624D01*
X010813Y013754D02*
X011643Y012854D01*
X012333Y012514D01*
X012354Y012504D01*
X012363Y012484D01*
X012753Y012484D01*
X012354Y012004D02*
X011523Y012004D01*
X011703Y011524D02*
X012333Y011524D01*
X012354Y011504D01*
X012903Y010864D02*
X012543Y010504D01*
X012354Y010504D01*
X010833Y010954D02*
X010833Y009844D01*
X012153Y008524D01*
X012333Y008524D01*
X012354Y008504D01*
X012354Y009004D02*
X012543Y009004D01*
X013053Y009514D01*
X012354Y009504D02*
X012333Y009514D01*
X013023Y007834D02*
X013043Y007815D01*
X014943Y010084D02*
X015873Y011024D01*
X017753Y011024D01*
X016213Y011324D02*
X016203Y011314D01*
X015813Y011314D01*
X014883Y010384D01*
X010833Y010954D02*
X010653Y011134D01*
X009086Y011338D02*
X009063Y011314D01*
X008593Y010874D01*
X008583Y009834D01*
X006353Y009799D02*
X006333Y009784D01*
X006223Y009604D01*
X006333Y010444D02*
X005793Y010444D01*
X006333Y010444D02*
X006353Y010468D01*
X005493Y011284D02*
X005133Y010924D01*
X005133Y010744D01*
X003433Y009044D01*
X003433Y007944D01*
X003053Y008864D02*
X005013Y010834D01*
X005013Y011614D01*
X005493Y011524D02*
X005493Y011284D01*
X003953Y011004D02*
X003953Y010365D01*
X004173Y010174D02*
X001833Y007834D01*
X001323Y007834D01*
X000843Y007354D01*
X000833Y007354D01*
X000833Y008354D02*
X000453Y008734D01*
X000453Y013504D01*
X000513Y013564D01*
X000513Y013864D01*
X001323Y013354D02*
X001323Y014854D01*
X000843Y015334D01*
X000833Y015354D01*
X002193Y014494D02*
X002193Y013714D01*
X001833Y013354D01*
X001323Y013354D02*
X001523Y012864D01*
X001943Y012864D01*
X002223Y012864D01*
X002843Y012864D01*
X003093Y012634D02*
X001833Y011374D01*
X001833Y011354D01*
X001833Y010354D02*
X003343Y011894D01*
X003343Y014234D01*
X003563Y014484D02*
X003563Y011994D01*
X003813Y012304D02*
X003903Y012384D01*
X003903Y013014D01*
X003903Y013204D01*
X003903Y014044D01*
X004173Y014434D02*
X005073Y015334D01*
X005493Y015244D02*
X005493Y014134D01*
X005493Y013704D01*
X005493Y013524D01*
X004773Y012814D01*
X004473Y012514D01*
X004173Y012244D02*
X004173Y014434D01*
X003563Y014484D02*
X003563Y014784D01*
X003703Y014914D01*
X003273Y015574D02*
X002193Y014494D01*
X003093Y013594D02*
X003093Y012634D01*
X004173Y012244D02*
X004173Y010174D01*
X005703Y013384D02*
X006093Y013774D01*
X006093Y014644D01*
X006393Y013834D02*
X006393Y013774D01*
X003273Y015574D02*
X003273Y015694D01*
X006333Y016594D02*
X007443Y016604D01*
X007833Y016344D01*
X010203Y017074D02*
X010203Y018934D01*
X010383Y019114D01*
X010383Y020254D01*
X010983Y020944D02*
X010233Y021694D01*
X009933Y021694D01*
X007083Y021354D02*
X006773Y020974D01*
X006783Y019394D01*
X012033Y018604D02*
X012033Y018574D01*
X012033Y018581D01*
X015433Y019054D02*
X015453Y019054D01*
X016413Y018094D01*
X016413Y018004D01*
X016023Y016954D02*
X015433Y016954D01*
X015553Y016424D02*
X014893Y016424D01*
X015553Y016424D02*
X016713Y015274D01*
X016773Y015214D01*
X017373Y015214D01*
X017973Y014614D01*
X016123Y016254D02*
X016113Y016894D01*
X016118Y016914D01*
X016083Y016894D01*
X016023Y016954D01*
X014853Y015034D02*
X015033Y014464D01*
X015033Y014194D01*
X015043Y014193D01*
X013543Y014193D02*
X013533Y014164D01*
X013533Y013984D01*
X013143Y013334D01*
X012354Y013004D02*
X012333Y013024D01*
X012153Y014194D02*
X013023Y014194D01*
X013043Y014193D01*
X020043Y018334D02*
X020033Y018354D01*
X020863Y018184D02*
X020873Y019984D01*
X020033Y019054D02*
X019863Y019054D01*
X017823Y021094D01*
X017613Y021094D01*
X017463Y020944D01*
X014913Y020944D01*
X014523Y021334D01*
X014103Y021334D01*
X014083Y021354D01*
X017253Y020434D02*
X017703Y020884D01*
X017833Y020324D02*
X017853Y020314D01*
X018303Y020314D01*
X019533Y019084D01*
X017253Y020344D02*
X017233Y020324D01*
X017253Y020344D02*
X017253Y020434D01*
X019603Y020914D02*
X019723Y020834D01*
X021623Y020824D01*
X022563Y021634D01*
X023403Y021634D01*
X023403Y021624D01*
X024673Y021624D01*
X024693Y021634D01*
X025173Y022114D01*
X025503Y022114D01*
X025523Y022134D01*
X025773Y022324D02*
X025773Y021684D01*
X025513Y021244D01*
X025183Y020974D01*
X025193Y020964D01*
X025163Y020954D01*
X025773Y022324D02*
X025673Y022414D01*
X034923Y015994D02*
X035913Y016984D01*
X035913Y017074D01*
X035933Y017074D01*
X037293Y017074D01*
X038193Y017974D01*
X038223Y017974D01*
X038703Y018454D01*
X038703Y018994D01*
X039063Y019354D01*
X039083Y019354D01*
X039083Y018354D02*
X038703Y017974D01*
X038703Y017464D01*
X038223Y016984D01*
X038193Y016984D01*
X037323Y016114D01*
X036063Y016114D01*
X035073Y015094D01*
X035073Y014274D01*
X034563Y013764D01*
X034295Y013764D01*
X034267Y013762D01*
X034240Y013757D01*
X034214Y013748D01*
X034189Y013736D01*
X034166Y013720D01*
X034145Y013702D01*
X034127Y013681D01*
X034111Y013658D01*
X034099Y013633D01*
X034090Y013607D01*
X034085Y013580D01*
X034083Y013552D01*
X034083Y012144D01*
X034093Y011344D01*
X033643Y010844D01*
X033313Y009954D01*
X032373Y009014D01*
X030873Y008694D01*
X029343Y007294D01*
X029343Y006694D01*
X029333Y006665D01*
X029313Y006664D01*
X029833Y006665D02*
X029853Y006694D01*
X029853Y007424D01*
X029103Y007354D02*
X030783Y008894D01*
X030903Y008944D01*
X031693Y009324D01*
X031123Y009494D02*
X031113Y009514D01*
X029463Y007864D01*
X028863Y007864D01*
X028644Y007854D01*
X028653Y007864D01*
X028863Y007864D01*
X028863Y008374D02*
X028653Y008374D01*
X028644Y008354D01*
X029553Y008354D01*
X029633Y008434D01*
X029773Y008884D02*
X030003Y009114D01*
X030163Y009114D01*
X031083Y010034D01*
X031873Y010034D01*
X032713Y010354D02*
X028644Y010354D01*
X028644Y010854D02*
X028653Y010864D01*
X031833Y010864D01*
X032613Y011644D01*
X032613Y013714D01*
X032683Y014374D01*
X032853Y014184D02*
X033043Y014374D01*
X032853Y014184D02*
X032853Y013054D01*
X032833Y013043D01*
X033333Y013043D02*
X033333Y012364D01*
X033333Y011864D01*
X033603Y011904D02*
X033603Y012654D01*
X033603Y013754D01*
X034033Y014184D01*
X034633Y014184D01*
X035403Y013974D02*
X036213Y013164D01*
X036203Y010504D01*
X036933Y009774D01*
X038553Y009784D01*
X039063Y010294D01*
X039063Y010354D01*
X039083Y010354D01*
X038583Y010814D02*
X038473Y010774D01*
X037973Y010774D01*
X036783Y010314D01*
X036763Y010654D02*
X037303Y011854D01*
X038523Y011854D01*
X039063Y011344D01*
X039083Y011354D01*
X036423Y011194D02*
X036423Y010684D01*
X036063Y010384D02*
X038073Y008374D01*
X038083Y008354D01*
X037923Y007984D02*
X038703Y007984D01*
X039063Y008344D01*
X039083Y008354D01*
X037923Y007984D02*
X035943Y009964D01*
X035943Y011614D01*
X035223Y012334D01*
X035043Y012334D01*
X035022Y012354D01*
X035022Y011854D02*
X035223Y011854D01*
X035823Y011254D01*
X035823Y009604D01*
X038073Y007354D01*
X038083Y007354D01*
X037413Y007324D02*
X037413Y006904D01*
X037953Y006364D01*
X038073Y006364D01*
X038083Y006354D01*
X037293Y006154D02*
X038073Y005374D01*
X038083Y005354D01*
X037973Y004844D02*
X036993Y005824D01*
X036993Y007114D01*
X035223Y008854D01*
X035022Y008854D01*
X035043Y009334D02*
X035022Y009354D01*
X035043Y009334D02*
X035223Y009334D01*
X037293Y007264D01*
X037293Y006154D01*
X036393Y005974D02*
X038073Y004354D01*
X038083Y004354D01*
X037973Y004844D02*
X038443Y004844D01*
X038953Y005354D01*
X039083Y005354D01*
X039063Y004354D02*
X039083Y004354D01*
X039063Y004354D02*
X038683Y003864D01*
X037903Y003864D01*
X035893Y005904D01*
X035863Y007474D01*
X035863Y007624D01*
X035593Y007864D01*
X034803Y007834D01*
X035013Y007834D01*
X035022Y007854D01*
X035043Y008344D02*
X035022Y008354D01*
X035043Y008344D02*
X035433Y008344D01*
X036373Y007384D01*
X036393Y005974D01*
X035043Y006384D02*
X037803Y003624D01*
X038073Y003364D01*
X038083Y003354D01*
X037803Y002864D02*
X037533Y003134D01*
X037533Y003624D01*
X034753Y006404D01*
X034493Y006404D01*
X034263Y006404D01*
X034353Y006664D01*
X034333Y006665D01*
X033843Y006664D02*
X033843Y006454D01*
X034003Y005994D01*
X034883Y005994D01*
X037133Y003724D01*
X037133Y003294D01*
X037303Y003124D01*
X038073Y002374D01*
X038083Y002354D01*
X037783Y001864D02*
X037773Y001864D01*
X037773Y001854D01*
X036033Y003594D01*
X036033Y004594D01*
X036013Y004614D01*
X034853Y005764D01*
X033523Y005754D01*
X033333Y006665D01*
X033833Y006665D02*
X033843Y006664D01*
X035022Y007354D02*
X035043Y007354D01*
X035043Y006384D01*
X037413Y007324D02*
X035703Y009034D01*
X035703Y010354D01*
X035223Y010834D01*
X035043Y010834D01*
X035022Y010854D01*
X034833Y011344D02*
X034353Y010864D01*
X033913Y010444D01*
X034163Y009914D02*
X034593Y010354D01*
X035022Y010354D01*
X036063Y010384D02*
X036063Y012374D01*
X035383Y013054D01*
X035373Y013054D01*
X034383Y013054D01*
X034333Y013043D01*
X034353Y013054D01*
X033833Y013043D02*
X033813Y013024D01*
X033813Y011884D01*
X033603Y011904D02*
X033483Y011274D01*
X034833Y011344D02*
X035013Y011344D01*
X035022Y011354D01*
X036423Y011194D02*
X036423Y011184D01*
X036423Y011164D01*
X036423Y011194D01*
X036423Y013484D01*
X036423Y013494D01*
X036423Y014124D01*
X037263Y015244D01*
X038013Y015994D01*
X038703Y015994D01*
X039063Y016354D01*
X039083Y016354D01*
X039453Y016204D02*
X039453Y016984D01*
X039083Y017354D01*
X039453Y016204D02*
X039123Y015874D01*
X038073Y015874D01*
X037473Y015274D01*
X037033Y014374D01*
X037193Y015394D02*
X036153Y015154D01*
X036093Y015814D02*
X035533Y014854D01*
X035413Y013974D02*
X035403Y013974D01*
X036423Y013494D02*
X036423Y013484D01*
X036423Y013494D01*
X037193Y015394D02*
X038073Y016354D01*
X038083Y016354D01*
X036093Y015844D02*
X036093Y015814D01*
X034923Y015784D02*
X034923Y015994D01*
X034923Y015784D02*
X033063Y013924D01*
X033063Y010144D01*
X032163Y011524D02*
X030843Y012844D01*
X030843Y013024D01*
X030833Y013043D01*
X031333Y013043D02*
X031353Y013024D01*
X031353Y012664D01*
X031863Y012154D01*
X030333Y013043D02*
X030333Y013414D01*
X030663Y013744D01*
X031773Y013744D01*
X031563Y013954D02*
X031473Y013864D01*
X029973Y013864D01*
X029343Y013234D01*
X029343Y013054D01*
X029333Y013043D01*
X029823Y013024D02*
X029823Y012844D01*
X029493Y012514D01*
X029163Y012514D01*
X029103Y012574D01*
X029103Y013504D01*
X029583Y013984D01*
X031293Y013984D01*
X031473Y014164D01*
X031833Y014164D01*
X031683Y014554D02*
X031293Y014164D01*
X029583Y014164D01*
X028653Y013234D01*
X028653Y012364D01*
X028644Y012354D01*
X028233Y011854D02*
X027993Y012094D01*
X027993Y012904D01*
X027997Y012937D01*
X029223Y014374D01*
X031083Y014374D01*
X031683Y014554D02*
X032043Y014554D01*
X029833Y013043D02*
X029823Y013024D01*
X027997Y012937D02*
X027983Y012924D01*
X028233Y011854D02*
X028644Y011854D01*
X028653Y011374D02*
X028644Y011354D01*
X028653Y011374D02*
X029403Y011374D01*
X027243Y009634D02*
X026703Y010174D01*
X026673Y010174D01*
X027243Y009634D02*
X027253Y009614D01*
X028443Y008854D02*
X028473Y008884D01*
X029773Y008884D01*
X030063Y009364D02*
X028653Y009364D01*
X028644Y009354D01*
X028644Y008854D02*
X028443Y008854D01*
X028644Y007354D02*
X029103Y007354D01*
X030333Y007354D02*
X030333Y006665D01*
X030333Y007354D02*
X031283Y008314D01*
X034093Y004578D02*
X034093Y004564D01*
X035203Y003904D02*
X035323Y003904D01*
X035333Y003889D01*
X035353Y003874D01*
X037803Y002864D02*
X038583Y002854D01*
X039083Y003354D01*
X039083Y002354D02*
X039063Y002344D01*
X038563Y001864D01*
X037783Y001864D01*
X031363Y003404D02*
X031363Y003904D01*
X031363Y003909D01*
X030399Y002058D02*
X030375Y002034D01*
X023763Y012519D02*
X023763Y012544D01*
X023763Y012574D01*
X024213Y013024D01*
X024753Y013024D01*
X024763Y013034D01*
X023763Y012544D02*
X023363Y012924D01*
X023363Y013554D01*
X023363Y013594D01*
X024273Y014484D01*
D53*
X024543Y014224D02*
X026013Y014224D01*
X026073Y014224D01*
X026093Y014228D01*
X026013Y015064D02*
X026013Y015514D01*
X024543Y014224D02*
X023763Y013444D01*
X023763Y013188D01*
X023793Y017464D02*
X023763Y017534D01*
X023763Y017524D01*
X031323Y017344D02*
X031394Y017334D01*
X031413Y017344D01*
X036774Y017344D02*
X036843Y017374D01*
X037163Y017364D01*
X039063Y020354D02*
X039083Y020354D01*
X001833Y020354D02*
X001833Y020374D01*
D54*
X007083Y021354D02*
X007083Y022354D01*
X012033Y018581D02*
X012750Y017864D01*
X014323Y017864D01*
X015233Y016954D01*
X015433Y016954D01*
X021203Y013434D02*
X021543Y013774D01*
X021203Y013434D02*
X021203Y011904D01*
X020923Y011624D01*
X020923Y010114D01*
X018723Y008494D02*
X018723Y008044D01*
X018603Y007744D01*
X021173Y005694D02*
X021658Y005698D01*
X021913Y005444D01*
X022099Y005444D01*
X022107Y005452D01*
X022934Y005452D01*
X023033Y005354D01*
X023413Y005354D01*
X023413Y005254D01*
X023958Y005254D01*
X023958Y005255D01*
X023958Y005064D02*
X024253Y005064D01*
X024253Y005452D01*
X024371Y005462D01*
X024983Y005464D01*
X025038Y005674D01*
X025123Y005589D01*
X024713Y005644D02*
X024708Y005984D01*
X025123Y006258D01*
X024713Y005644D02*
X024288Y005649D01*
X023958Y005649D01*
X023328Y005649D01*
X023033Y005354D01*
X022107Y004862D02*
X021573Y004862D01*
X021023Y004862D01*
X021113Y004939D01*
X021113Y005608D02*
X021173Y005608D01*
X021173Y005694D01*
X023958Y005452D02*
X024371Y005462D01*
X023958Y005064D02*
X023958Y005058D01*
X023958Y004862D02*
X024625Y004862D01*
X024657Y004894D01*
X028973Y004034D02*
X028973Y004014D01*
X028973Y003474D01*
X030375Y002062D01*
X030375Y002034D01*
X034093Y004578D02*
X034097Y004574D01*
X034363Y004574D01*
X034683Y004254D01*
X034693Y004254D01*
X035043Y003904D01*
X035203Y003904D01*
X035333Y003889D02*
X035393Y003829D01*
X035393Y003034D01*
X036073Y002354D01*
X036083Y002354D01*
X018333Y004574D02*
X018333Y004884D01*
X014883Y003234D02*
X014881Y003221D01*
X014877Y003208D01*
X014870Y003197D01*
X014860Y003187D01*
X014849Y003180D01*
X014836Y003176D01*
X014823Y003174D01*
X014613Y003174D01*
X008453Y003174D01*
X008293Y003334D01*
X008293Y003844D01*
X007471Y004868D02*
X007118Y004868D01*
X007123Y004874D01*
X005253Y004134D02*
X005258Y004089D01*
X005258Y003520D01*
X027103Y016934D02*
X027413Y016834D01*
X027772Y016834D01*
D55*
X026933Y015824D02*
X026413Y015874D01*
X026413Y019994D01*
X026073Y020374D01*
X025928Y020518D01*
X025593Y020518D01*
X025577Y020534D01*
X024513Y020534D01*
X023343Y020534D01*
X018833Y020534D01*
X018083Y021284D01*
X018083Y021354D01*
X010023Y019674D02*
X009443Y019094D01*
X009443Y019024D01*
X023653Y010609D02*
X023653Y009334D01*
X024073Y008914D01*
X024463Y008914D01*
X024446Y008897D01*
X024446Y008704D01*
X024606Y008591D02*
X024606Y009044D01*
X024446Y009204D01*
X025753Y010189D02*
X025753Y007094D01*
X025773Y007074D01*
X023653Y010609D02*
X024143Y011099D01*
X025527Y011099D01*
X025753Y010874D01*
X025753Y010858D01*
X025753Y010874D02*
X026923Y012034D01*
X026926Y013466D01*
X026933Y015824D01*
D56*
X026263Y010814D02*
X025797Y010814D01*
X025753Y010858D01*
X026263Y010814D02*
X026333Y010744D01*
X026333Y006258D01*
X026337Y006254D01*
X026663Y006254D01*
X027433Y005484D01*
X027433Y004984D01*
X027433Y004024D01*
X027433Y003624D01*
X027503Y003554D01*
X028413Y003554D01*
X029233Y002734D01*
X029233Y002004D01*
X029793Y001444D01*
X030123Y001444D01*
X030399Y001389D02*
X032446Y001389D01*
X032443Y001394D02*
X032703Y001394D01*
X033083Y001394D01*
X033453Y001764D01*
X033453Y002674D01*
X034083Y003304D01*
X034083Y003314D02*
X034083Y003394D01*
X034083Y003899D01*
X034083Y003314D02*
X035043Y002354D01*
X032446Y002058D02*
X030399Y002058D01*
X027433Y003544D02*
X027433Y003624D01*
X027433Y003544D02*
X025818Y003544D01*
X025818Y003554D02*
X025143Y003554D01*
X025033Y003554D01*
X023833Y002354D01*
X023833Y002394D01*
X023083Y003144D01*
X021743Y003144D01*
X020253Y004634D01*
X020263Y004644D01*
X020263Y004894D01*
X020263Y005504D01*
X020367Y005608D01*
X021113Y005608D01*
X025123Y006258D02*
X025123Y008227D01*
X024606Y008591D01*
X024446Y008704D01*
X024167Y010184D02*
X025173Y010184D01*
X025183Y010194D01*
X018033Y016954D02*
X017433Y016954D01*
X017433Y016964D01*
X016833Y016964D01*
X016833Y016914D01*
X016787Y016914D01*
X017448Y017629D02*
X017453Y017624D01*
X017448Y017629D02*
X017433Y017644D01*
X017433Y017654D02*
X018033Y017654D01*
X018033Y018354D02*
X017433Y018354D01*
X017433Y019054D02*
X018033Y019054D01*
X016633Y020324D02*
X015603Y020304D01*
X013883Y020324D01*
X006247Y007584D02*
X006043Y006869D01*
X006043Y006274D01*
X005993Y006218D01*
X005853Y006064D01*
X005413Y006064D01*
X004983Y005634D01*
X004983Y005588D01*
X005043Y005588D01*
D57*
X008086Y012338D02*
X008086Y013771D01*
X006323Y015534D01*
X009453Y017064D02*
X009443Y019024D01*
X024167Y010184D02*
X024423Y010184D01*
X024423Y010188D01*
X024452Y010188D01*
X024453Y010188D01*
X025753Y010189D01*
D58*
X025773Y007074D02*
X025773Y007024D01*
X025773Y006764D01*
X025663Y006654D01*
X025663Y005804D01*
X025553Y005694D01*
X025227Y005694D01*
X025123Y005589D01*
X020263Y004894D02*
X019343Y004894D01*
X019333Y004884D01*
X007483Y006124D02*
X007173Y006124D01*
X005937Y006124D01*
X005993Y006218D01*
M02*
