G75*
G70*
%OFA0B0*%
%FSLAX24Y24*%
%IPPOS*%
%LPD*%
%AMOC8*
5,1,8,0,0,1.08239X$1,22.5*
%
%ADD10OC8,0.0580*%
%ADD11C,0.1340*%
%ADD12C,0.0620*%
%ADD13OC8,0.0620*%
%ADD14C,0.0867*%
%ADD15R,0.0434X0.0356*%
%ADD16R,0.0316X0.0356*%
%ADD17OC8,0.0680*%
%ADD18OC8,0.0740*%
%ADD19R,0.0671X0.0671*%
%ADD20C,0.0680*%
%ADD21OC8,0.0560*%
%ADD22OC8,0.0434*%
%ADD23C,0.0552*%
%ADD24OC8,0.0552*%
%ADD25R,0.0710X0.0540*%
%ADD26R,0.0720X0.0060*%
%ADD27C,0.0474*%
%ADD28OC8,0.0480*%
%ADD29R,0.0500X0.0300*%
D10*
X009083Y002354D03*
X010083Y002354D03*
X011083Y002354D03*
X012083Y002354D03*
X013083Y002354D03*
X014083Y002354D03*
X015083Y002354D03*
X016083Y002354D03*
X017833Y002354D03*
X018833Y002354D03*
X019833Y002354D03*
X020833Y002354D03*
X021833Y002354D03*
X022833Y002354D03*
X023833Y002354D03*
X024833Y002354D03*
X021083Y021354D03*
X020083Y021354D03*
X019083Y021354D03*
X018083Y021354D03*
X017083Y021354D03*
X016083Y021354D03*
X014083Y021354D03*
X013083Y021354D03*
X012083Y021354D03*
X011083Y021354D03*
X010083Y021354D03*
X009083Y021354D03*
D11*
X008083Y019354D03*
X008083Y008354D03*
X028083Y002354D03*
D12*
X039083Y002354D03*
X001833Y002354D03*
D13*
X000833Y002354D03*
X000833Y003354D03*
X001833Y003354D03*
X001833Y004354D03*
X000833Y004354D03*
X000833Y005354D03*
X001833Y005354D03*
X001833Y006354D03*
X000833Y006354D03*
X000833Y007354D03*
X001833Y007354D03*
X001833Y008354D03*
X000833Y008354D03*
X000833Y009354D03*
X001833Y009354D03*
X001833Y010354D03*
X000833Y010354D03*
X000833Y011354D03*
X001833Y011354D03*
X001833Y012354D03*
X000833Y012354D03*
X000833Y013354D03*
X001833Y013354D03*
X001833Y014354D03*
X000833Y014354D03*
X000833Y015354D03*
X001833Y015354D03*
X001833Y016354D03*
X000833Y016354D03*
X000833Y017354D03*
X001833Y017354D03*
X001833Y018354D03*
X000833Y018354D03*
X000833Y019354D03*
X001833Y019354D03*
X001833Y020354D03*
X000833Y020354D03*
X000833Y021354D03*
X001833Y021354D03*
X038083Y021354D03*
X039083Y021354D03*
X039083Y020354D03*
X038083Y020354D03*
X038083Y019354D03*
X039083Y019354D03*
X039083Y018354D03*
X038083Y018354D03*
X038083Y017354D03*
X039083Y017354D03*
X039083Y016354D03*
X038083Y016354D03*
X038083Y015354D03*
X039083Y015354D03*
X039083Y014354D03*
X038083Y014354D03*
X038083Y013354D03*
X039083Y013354D03*
X039083Y012354D03*
X038083Y012354D03*
X038083Y011354D03*
X039083Y011354D03*
X039083Y010354D03*
X038083Y010354D03*
X038083Y009354D03*
X039083Y009354D03*
X039083Y008354D03*
X038083Y008354D03*
X038083Y007354D03*
X039083Y007354D03*
X039083Y006354D03*
X038083Y006354D03*
X038083Y005354D03*
X039083Y005354D03*
X039083Y004354D03*
X038083Y004354D03*
X038083Y003354D03*
X039083Y003354D03*
X038083Y002354D03*
D14*
X005166Y018143D02*
X004379Y018143D01*
X002883Y018970D02*
X002883Y019757D01*
X004379Y020545D02*
X005166Y020545D01*
D15*
X023393Y022186D03*
X024743Y022416D03*
X026093Y022166D03*
D16*
X024999Y021471D03*
X024487Y021471D03*
X023649Y021241D03*
X023137Y021241D03*
X025837Y021221D03*
X026349Y021221D03*
D17*
X029093Y021364D03*
X030093Y021364D03*
X031093Y021364D03*
X032093Y021364D03*
X033093Y021364D03*
X034093Y021364D03*
X035093Y021364D03*
X036093Y021364D03*
X036093Y022364D03*
X035093Y022364D03*
X034093Y022364D03*
X033093Y022364D03*
X032093Y022364D03*
X031093Y022364D03*
X030093Y022364D03*
X029093Y022364D03*
X015083Y021354D03*
X006543Y006604D03*
X005543Y006604D03*
X004543Y006604D03*
X009083Y001354D03*
X010083Y001354D03*
X011083Y001354D03*
X012083Y001354D03*
X013083Y001354D03*
X014083Y001354D03*
D18*
X009086Y010338D03*
X008086Y010338D03*
X008086Y011338D03*
X009086Y011338D03*
X009086Y012338D03*
X008086Y012338D03*
D19*
X029973Y002473D03*
X031383Y002493D03*
X032883Y002493D03*
X032883Y001115D03*
X031383Y001115D03*
X029973Y001095D03*
D20*
X008083Y021354D03*
X007083Y021354D03*
X007083Y022354D03*
X008083Y022354D03*
D21*
X015433Y019054D03*
X015433Y018354D03*
X015433Y017654D03*
X015433Y016954D03*
X017433Y016954D03*
X018033Y016954D03*
X018033Y017654D03*
X017433Y017654D03*
X017433Y018354D03*
X018033Y018354D03*
X018033Y019054D03*
X017433Y019054D03*
X020033Y019054D03*
X020033Y018354D03*
X020033Y017654D03*
X020033Y016954D03*
D22*
X009453Y017064D03*
X006323Y015534D03*
X016333Y005384D03*
X017333Y005384D03*
X018333Y005384D03*
X019333Y005384D03*
X025183Y010194D03*
D23*
X034083Y002354D03*
D24*
X035083Y002354D03*
X036083Y002354D03*
D25*
X027683Y022014D03*
X027683Y022614D03*
D26*
X027683Y022314D03*
D27*
X006419Y002437D03*
X004726Y002437D03*
D28*
X003713Y004384D03*
X010013Y004034D03*
X010763Y004034D03*
X011513Y004034D03*
X012263Y004034D03*
X013013Y004034D03*
X013763Y004034D03*
X014513Y004034D03*
X015263Y004034D03*
X016013Y004034D03*
X016763Y004034D03*
X017513Y004034D03*
X018263Y004034D03*
X019013Y004034D03*
X019763Y004034D03*
X014333Y005384D03*
X013333Y005384D03*
X012333Y005384D03*
X011333Y005384D03*
X010333Y005384D03*
D29*
X010333Y005634D03*
X010333Y005134D03*
X011333Y005134D03*
X011333Y005634D03*
X012333Y005634D03*
X012333Y005134D03*
X013333Y005134D03*
X013333Y005634D03*
X014333Y005134D03*
X003713Y004634D03*
M02*
