G75*
G70*
%OFA0B0*%
%FSLAX24Y24*%
%IPPOS*%
%LPD*%
%AMOC8*
5,1,8,0,0,1.08239X$1,22.5*
%
%ADD10C,0.0020*%
%ADD11C,0.0100*%
%ADD12C,0.0030*%
%ADD13C,0.0160*%
%ADD14C,0.0050*%
%ADD15C,0.0060*%
%ADD16R,0.0560X0.0980*%
%ADD17C,0.0040*%
%ADD18C,0.0010*%
D10*
X003213Y000914D02*
X003433Y000914D01*
X003359Y000987D01*
X003433Y001060D01*
X003213Y001060D01*
X003213Y001135D02*
X003213Y001208D01*
X003213Y001171D02*
X003433Y001171D01*
X003433Y001135D02*
X003433Y001208D01*
X003433Y001282D02*
X003213Y001429D01*
X003433Y001429D01*
X003433Y001503D02*
X003433Y001576D01*
X003433Y001540D02*
X003213Y001540D01*
X003213Y001576D02*
X003213Y001503D01*
X003323Y001650D02*
X003323Y001797D01*
X003249Y001871D02*
X003213Y001908D01*
X003213Y001981D01*
X003249Y002018D01*
X003433Y002018D01*
X003396Y002092D02*
X003359Y002092D01*
X003323Y002129D01*
X003323Y002202D01*
X003286Y002239D01*
X003249Y002239D01*
X003213Y002202D01*
X003213Y002129D01*
X003249Y002092D01*
X003396Y002092D02*
X003433Y002129D01*
X003433Y002202D01*
X003396Y002239D01*
X003433Y002313D02*
X003433Y002423D01*
X003396Y002460D01*
X003359Y002460D01*
X003323Y002423D01*
X003323Y002313D01*
X003213Y002313D02*
X003433Y002313D01*
X003323Y002423D02*
X003286Y002460D01*
X003249Y002460D01*
X003213Y002423D01*
X003213Y002313D01*
X003323Y002534D02*
X003323Y002681D01*
X003359Y002755D02*
X003323Y002792D01*
X003323Y002865D01*
X003286Y002902D01*
X003249Y002902D01*
X003213Y002865D01*
X003213Y002792D01*
X003249Y002755D01*
X003359Y002755D02*
X003396Y002755D01*
X003433Y002792D01*
X003433Y002865D01*
X003396Y002902D01*
X003359Y002976D02*
X003433Y003050D01*
X003359Y003123D01*
X003213Y003123D01*
X003213Y003197D02*
X003433Y003197D01*
X003359Y003271D01*
X003433Y003344D01*
X003213Y003344D01*
X003213Y003492D02*
X003433Y003492D01*
X003433Y003565D02*
X003433Y003418D01*
X003433Y003639D02*
X003213Y003639D01*
X003213Y003786D01*
X003249Y003860D02*
X003213Y003897D01*
X003213Y003970D01*
X003249Y004007D01*
X003249Y003860D02*
X003396Y003860D01*
X003433Y003897D01*
X003433Y003970D01*
X003396Y004007D01*
X003433Y003786D02*
X003433Y003639D01*
X003323Y003639D02*
X003323Y003713D01*
X003323Y003123D02*
X003323Y002976D01*
X003359Y002976D02*
X003213Y002976D01*
X003249Y001871D02*
X003433Y001871D01*
X003433Y001282D02*
X003213Y001282D01*
X007733Y001660D02*
X007733Y001734D01*
X007769Y001770D01*
X007953Y001770D01*
X007916Y001845D02*
X007879Y001845D01*
X007843Y001881D01*
X007843Y001955D01*
X007806Y001991D01*
X007769Y001991D01*
X007733Y001955D01*
X007733Y001881D01*
X007769Y001845D01*
X007916Y001845D02*
X007953Y001881D01*
X007953Y001955D01*
X007916Y001991D01*
X007953Y002066D02*
X007953Y002176D01*
X007916Y002212D01*
X007879Y002212D01*
X007843Y002176D01*
X007843Y002066D01*
X007733Y002066D02*
X007953Y002066D01*
X007843Y002176D02*
X007806Y002212D01*
X007769Y002212D01*
X007733Y002176D01*
X007733Y002066D01*
X007696Y002287D02*
X007696Y002433D01*
X007769Y002508D02*
X007733Y002544D01*
X007733Y002618D01*
X007769Y002654D01*
X007769Y002729D02*
X007733Y002765D01*
X007733Y002839D01*
X007769Y002875D01*
X007916Y002875D01*
X007953Y002839D01*
X007953Y002765D01*
X007916Y002729D01*
X007769Y002729D01*
X007916Y002654D02*
X007953Y002618D01*
X007953Y002544D01*
X007916Y002508D01*
X007769Y002508D01*
X007733Y002950D02*
X007953Y002950D01*
X007733Y003096D01*
X007953Y003096D01*
X009664Y003430D02*
X009701Y003394D01*
X009774Y003394D01*
X009811Y003430D01*
X009664Y003577D01*
X009664Y003430D01*
X009811Y003430D02*
X009811Y003577D01*
X009774Y003614D01*
X009701Y003614D01*
X009664Y003577D01*
X009885Y003614D02*
X010032Y003394D01*
X010106Y003394D02*
X010179Y003467D01*
X010143Y003467D02*
X010253Y003467D01*
X010253Y003394D02*
X010253Y003614D01*
X010143Y003614D01*
X010106Y003577D01*
X010106Y003504D01*
X010143Y003467D01*
X010032Y003614D02*
X009885Y003394D01*
X010474Y003394D02*
X010621Y003394D01*
X010547Y003394D02*
X010547Y003614D01*
X010621Y003540D01*
X010695Y003614D02*
X010842Y003394D01*
X010695Y003394D02*
X010842Y003614D01*
X010916Y003614D02*
X011063Y003614D01*
X010989Y003614D02*
X010989Y003394D01*
X011308Y003394D02*
X011454Y003394D01*
X011308Y003540D01*
X011308Y003577D01*
X011344Y003614D01*
X011418Y003614D01*
X011454Y003577D01*
X011529Y003577D02*
X011529Y003504D01*
X011565Y003467D01*
X011675Y003467D01*
X011602Y003467D02*
X011529Y003394D01*
X011675Y003394D02*
X011675Y003614D01*
X011565Y003614D01*
X011529Y003577D01*
X011749Y003614D02*
X011823Y003614D01*
X011786Y003614D02*
X011786Y003394D01*
X011823Y003394D02*
X011749Y003394D01*
X012095Y003430D02*
X012132Y003394D01*
X012205Y003394D01*
X012242Y003430D01*
X012168Y003504D02*
X012132Y003504D01*
X012095Y003467D01*
X012095Y003430D01*
X012132Y003504D02*
X012095Y003540D01*
X012095Y003577D01*
X012132Y003614D01*
X012205Y003614D01*
X012242Y003577D01*
X012316Y003577D02*
X012316Y003504D01*
X012353Y003467D01*
X012463Y003467D01*
X012463Y003394D02*
X012463Y003614D01*
X012353Y003614D01*
X012316Y003577D01*
X012916Y003514D02*
X013063Y003514D01*
X012953Y003624D01*
X012953Y003404D01*
X013555Y003430D02*
X013592Y003394D01*
X013665Y003394D01*
X013702Y003430D01*
X013702Y003504D02*
X013628Y003540D01*
X013592Y003540D01*
X013555Y003504D01*
X013555Y003430D01*
X013702Y003504D02*
X013702Y003614D01*
X013555Y003614D01*
X013776Y003577D02*
X013776Y003504D01*
X013813Y003467D01*
X013923Y003467D01*
X013923Y003394D02*
X013923Y003614D01*
X013813Y003614D01*
X013776Y003577D01*
X014325Y003614D02*
X014398Y003577D01*
X014472Y003504D01*
X014362Y003504D01*
X014325Y003467D01*
X014325Y003430D01*
X014362Y003394D01*
X014435Y003394D01*
X014472Y003430D01*
X014472Y003504D01*
X014546Y003504D02*
X014583Y003467D01*
X014693Y003467D01*
X014693Y003394D02*
X014693Y003614D01*
X014583Y003614D01*
X014546Y003577D01*
X014546Y003504D01*
X015106Y003577D02*
X015253Y003430D01*
X015253Y003394D01*
X015253Y003614D02*
X015106Y003614D01*
X015106Y003577D01*
X015906Y003577D02*
X015906Y003540D01*
X015943Y003504D01*
X016016Y003504D01*
X016053Y003540D01*
X016053Y003577D01*
X016016Y003614D01*
X015943Y003614D01*
X015906Y003577D01*
X015943Y003504D02*
X015906Y003467D01*
X015906Y003430D01*
X015943Y003394D01*
X016016Y003394D01*
X016053Y003430D01*
X016053Y003467D01*
X016016Y003504D01*
X016485Y003504D02*
X016595Y003504D01*
X016632Y003540D01*
X016632Y003577D01*
X016595Y003614D01*
X016522Y003614D01*
X016485Y003577D01*
X016485Y003430D01*
X016522Y003394D01*
X016595Y003394D01*
X016632Y003430D01*
X016706Y003504D02*
X016743Y003467D01*
X016853Y003467D01*
X016853Y003394D02*
X016853Y003614D01*
X016743Y003614D01*
X016706Y003577D01*
X016706Y003504D01*
X017325Y003550D02*
X017362Y003514D01*
X017435Y003514D01*
X017472Y003550D01*
X017546Y003550D02*
X017546Y003587D01*
X017583Y003624D01*
X017656Y003624D01*
X017693Y003660D01*
X017693Y003697D01*
X017656Y003734D01*
X017583Y003734D01*
X017546Y003697D01*
X017472Y003697D02*
X017472Y003660D01*
X017435Y003624D01*
X017362Y003624D01*
X017325Y003587D01*
X017325Y003550D01*
X017382Y003464D02*
X017345Y003427D01*
X017492Y003280D01*
X017455Y003244D01*
X017382Y003244D01*
X017345Y003280D01*
X017345Y003427D01*
X017382Y003464D02*
X017455Y003464D01*
X017492Y003427D01*
X017492Y003280D01*
X017566Y003244D02*
X017713Y003244D01*
X017639Y003244D02*
X017639Y003464D01*
X017713Y003390D01*
X017656Y003514D02*
X017693Y003550D01*
X017656Y003514D02*
X017583Y003514D01*
X017546Y003550D01*
X017472Y003697D02*
X017435Y003734D01*
X017362Y003734D01*
X017325Y003697D01*
X017876Y003734D02*
X017950Y003734D01*
X017913Y003734D02*
X017913Y003514D01*
X017950Y003514D02*
X017876Y003514D01*
X018024Y003550D02*
X018024Y003587D01*
X018061Y003624D01*
X018134Y003624D01*
X018171Y003660D01*
X018171Y003697D01*
X018134Y003734D01*
X018061Y003734D01*
X018024Y003697D01*
X018024Y003550D02*
X018061Y003514D01*
X018134Y003514D01*
X018171Y003550D01*
X018245Y003550D02*
X018245Y003697D01*
X018282Y003734D01*
X018355Y003734D01*
X018392Y003697D01*
X018392Y003550D01*
X018355Y003514D01*
X018282Y003514D01*
X018245Y003550D01*
X018158Y003454D02*
X018158Y003234D01*
X018085Y003234D02*
X018232Y003234D01*
X018306Y003234D02*
X018453Y003234D01*
X018379Y003234D02*
X018379Y003454D01*
X018453Y003380D01*
X018466Y003514D02*
X018466Y003734D01*
X018539Y003660D01*
X018613Y003734D01*
X018613Y003514D01*
X018747Y003570D02*
X018747Y003717D01*
X018783Y003754D01*
X018857Y003754D01*
X018893Y003717D01*
X018893Y003570D01*
X018857Y003534D01*
X018783Y003534D01*
X018747Y003570D01*
X018845Y003437D02*
X018882Y003474D01*
X018955Y003474D01*
X018992Y003437D01*
X019004Y003534D02*
X019078Y003534D01*
X019114Y003570D01*
X019078Y003644D02*
X019114Y003680D01*
X019114Y003717D01*
X019078Y003754D01*
X019004Y003754D01*
X018968Y003717D01*
X019004Y003644D02*
X018968Y003607D01*
X018968Y003570D01*
X019004Y003534D01*
X019004Y003644D02*
X019078Y003644D01*
X019188Y003754D02*
X019262Y003754D01*
X019225Y003754D02*
X019225Y003534D01*
X019262Y003534D02*
X019188Y003534D01*
X019139Y003474D02*
X019139Y003254D01*
X019066Y003254D02*
X019213Y003254D01*
X019213Y003400D02*
X019139Y003474D01*
X019336Y003534D02*
X019336Y003754D01*
X019409Y003680D01*
X019483Y003754D01*
X019483Y003534D01*
X019643Y003524D02*
X019753Y003634D01*
X019790Y003597D02*
X019643Y003744D01*
X019790Y003744D02*
X019790Y003524D01*
X019745Y003474D02*
X019672Y003474D01*
X019635Y003437D01*
X019635Y003400D01*
X019672Y003364D01*
X019635Y003327D01*
X019635Y003290D01*
X019672Y003254D01*
X019745Y003254D01*
X019782Y003290D01*
X019856Y003254D02*
X020003Y003254D01*
X019929Y003254D02*
X019929Y003474D01*
X020003Y003400D01*
X020011Y003524D02*
X019864Y003524D01*
X019782Y003437D02*
X019745Y003474D01*
X019708Y003364D02*
X019672Y003364D01*
X020011Y003524D02*
X020011Y003744D01*
X020085Y003707D02*
X020122Y003744D01*
X020195Y003744D01*
X020232Y003707D01*
X020232Y003560D01*
X020195Y003524D01*
X020122Y003524D01*
X020085Y003560D01*
X020306Y003560D02*
X020343Y003524D01*
X020416Y003524D01*
X020453Y003560D01*
X020416Y003634D02*
X020343Y003634D01*
X020306Y003597D01*
X020306Y003560D01*
X020416Y003634D02*
X020453Y003670D01*
X020453Y003707D01*
X020416Y003744D01*
X020343Y003744D01*
X020306Y003707D01*
X020264Y004414D02*
X020300Y004450D01*
X020300Y004524D01*
X020264Y004560D01*
X020190Y004560D01*
X020153Y004524D01*
X020153Y004450D01*
X020190Y004414D01*
X020264Y004414D01*
X020374Y004450D02*
X020411Y004414D01*
X020484Y004414D01*
X020521Y004450D01*
X020484Y004524D02*
X020411Y004524D01*
X020374Y004487D01*
X020374Y004450D01*
X020484Y004524D02*
X020521Y004560D01*
X020521Y004597D01*
X020484Y004634D01*
X020411Y004634D01*
X020374Y004597D01*
X020079Y004560D02*
X020079Y004450D01*
X020043Y004414D01*
X019932Y004414D01*
X019932Y004560D01*
X019858Y004560D02*
X019858Y004414D01*
X019858Y004487D02*
X019785Y004560D01*
X019748Y004560D01*
X019674Y004524D02*
X019674Y004450D01*
X019637Y004414D01*
X019527Y004414D01*
X019453Y004450D02*
X019453Y004524D01*
X019416Y004560D01*
X019343Y004560D01*
X019306Y004524D01*
X019306Y004487D01*
X019453Y004487D01*
X019453Y004450D02*
X019416Y004414D01*
X019343Y004414D01*
X019527Y004560D02*
X019637Y004560D01*
X019674Y004524D01*
X019011Y004634D02*
X019011Y004414D01*
X018901Y004414D01*
X018864Y004450D01*
X018864Y004597D01*
X018901Y004634D01*
X019011Y004634D01*
X018790Y004560D02*
X018790Y004414D01*
X018790Y004487D02*
X018717Y004560D01*
X018680Y004560D01*
X018606Y004560D02*
X018569Y004560D01*
X018569Y004414D01*
X018533Y004414D02*
X018606Y004414D01*
X018459Y004560D02*
X018385Y004414D01*
X018312Y004560D01*
X018238Y004524D02*
X018201Y004560D01*
X018128Y004560D01*
X018091Y004524D01*
X018091Y004487D01*
X018238Y004487D01*
X018238Y004450D02*
X018238Y004524D01*
X018238Y004450D02*
X018201Y004414D01*
X018128Y004414D01*
X018017Y004414D02*
X018017Y004560D01*
X018017Y004487D02*
X017943Y004560D01*
X017907Y004560D01*
X017612Y004487D02*
X017502Y004487D01*
X017465Y004524D01*
X017465Y004597D01*
X017502Y004634D01*
X017612Y004634D01*
X017612Y004414D01*
X017391Y004414D02*
X017317Y004414D01*
X017354Y004414D02*
X017354Y004560D01*
X017391Y004560D01*
X017354Y004634D02*
X017354Y004671D01*
X017243Y004560D02*
X017133Y004560D01*
X017097Y004524D01*
X017097Y004414D01*
X017243Y004414D02*
X017243Y004560D01*
X016801Y004560D02*
X016765Y004524D01*
X016691Y004524D01*
X016655Y004487D01*
X016655Y004450D01*
X016691Y004414D01*
X016765Y004414D01*
X016801Y004450D01*
X016801Y004560D02*
X016801Y004597D01*
X016765Y004634D01*
X016691Y004634D01*
X016655Y004597D01*
X016580Y004524D02*
X016544Y004560D01*
X016470Y004560D01*
X016434Y004524D01*
X016434Y004487D01*
X016580Y004487D01*
X016580Y004450D02*
X016580Y004524D01*
X016580Y004450D02*
X016544Y004414D01*
X016470Y004414D01*
X016359Y004414D02*
X016286Y004414D01*
X016323Y004414D02*
X016323Y004634D01*
X016359Y004634D01*
X016212Y004524D02*
X016212Y004450D01*
X016175Y004414D01*
X016102Y004414D01*
X016065Y004487D02*
X016212Y004487D01*
X016212Y004524D02*
X016175Y004560D01*
X016102Y004560D01*
X016065Y004524D01*
X016065Y004487D01*
X015991Y004450D02*
X015954Y004414D01*
X015844Y004414D01*
X015733Y004450D02*
X015697Y004414D01*
X015733Y004450D02*
X015733Y004597D01*
X015697Y004560D02*
X015770Y004560D01*
X015844Y004560D02*
X015954Y004560D01*
X015991Y004524D01*
X015991Y004450D01*
X018158Y003454D02*
X018232Y003380D01*
X018845Y003400D02*
X018992Y003254D01*
X018845Y003254D01*
X018845Y003400D02*
X018845Y003437D01*
X018569Y004634D02*
X018569Y004671D01*
X018880Y006016D02*
X018970Y006040D01*
X019003Y006098D01*
X018979Y006188D01*
X018922Y006221D01*
X018831Y006197D01*
X018798Y006139D01*
X018810Y006094D01*
X018991Y006143D01*
X019103Y006076D02*
X019193Y006100D01*
X019148Y006088D02*
X019075Y006359D01*
X019120Y006371D01*
X019186Y006394D02*
X019050Y006358D01*
X018993Y006391D01*
X019026Y006448D01*
X019116Y006472D01*
X019149Y006529D01*
X019092Y006563D01*
X018957Y006526D01*
X018870Y006503D02*
X018780Y006479D01*
X018813Y006536D02*
X018862Y006356D01*
X018829Y006299D01*
X018741Y006275D02*
X018693Y006455D01*
X018717Y006365D02*
X018602Y006431D01*
X018557Y006419D01*
X018482Y006351D02*
X018507Y006260D01*
X018474Y006203D01*
X018383Y006179D01*
X018326Y006212D01*
X018302Y006302D01*
X018335Y006360D01*
X018425Y006384D01*
X018482Y006351D01*
X018204Y006324D02*
X018068Y006288D01*
X018035Y006231D01*
X018059Y006141D01*
X018117Y006108D01*
X018252Y006144D01*
X018179Y006415D01*
X017914Y006418D02*
X017890Y006508D01*
X017833Y006541D01*
X017698Y006505D01*
X017673Y006595D02*
X017746Y006325D01*
X017881Y006361D01*
X017914Y006418D01*
X017892Y006241D02*
X017801Y006217D01*
X017768Y006159D01*
X017781Y006114D01*
X017961Y006163D01*
X017949Y006208D02*
X017973Y006117D01*
X017940Y006060D01*
X017850Y006036D01*
X017949Y006208D02*
X017892Y006241D01*
X017648Y006347D02*
X017590Y006380D01*
X017455Y006343D01*
X017443Y006389D02*
X017479Y006253D01*
X017614Y006290D01*
X017648Y006347D01*
X017566Y006470D02*
X017476Y006446D01*
X017443Y006389D01*
X017344Y006411D02*
X017254Y006386D01*
X017287Y006444D02*
X017336Y006263D01*
X017303Y006206D01*
X017203Y006228D02*
X017146Y006261D01*
X017010Y006224D01*
X016998Y006269D02*
X017035Y006134D01*
X017170Y006170D01*
X017203Y006228D01*
X017122Y006351D02*
X017031Y006327D01*
X016998Y006269D01*
X016653Y006365D02*
X016629Y006455D01*
X016572Y006488D01*
X016436Y006452D01*
X016326Y006519D02*
X016281Y006507D01*
X016353Y006236D01*
X016398Y006248D02*
X016308Y006224D01*
X016220Y006201D02*
X016148Y006471D01*
X016037Y006345D02*
X016196Y006291D01*
X016085Y006164D01*
X016485Y006271D02*
X016620Y006308D01*
X016653Y006365D01*
X014913Y006330D02*
X014876Y006294D01*
X014803Y006294D01*
X014766Y006330D01*
X014766Y006514D01*
X014692Y006477D02*
X014692Y006440D01*
X014655Y006404D01*
X014582Y006404D01*
X014545Y006367D01*
X014545Y006330D01*
X014582Y006294D01*
X014655Y006294D01*
X014692Y006330D01*
X014692Y006477D02*
X014655Y006514D01*
X014582Y006514D01*
X014545Y006477D01*
X014471Y006514D02*
X014361Y006514D01*
X014324Y006477D01*
X014324Y006440D01*
X014361Y006404D01*
X014471Y006404D01*
X014471Y006294D02*
X014471Y006514D01*
X014361Y006404D02*
X014324Y006367D01*
X014324Y006330D01*
X014361Y006294D01*
X014471Y006294D01*
X014592Y006144D02*
X014665Y006144D01*
X014702Y006107D01*
X014702Y006070D01*
X014665Y006034D01*
X014592Y006034D01*
X014555Y005997D01*
X014555Y005960D01*
X014592Y005924D01*
X014665Y005924D01*
X014702Y005960D01*
X014776Y005960D02*
X014813Y005924D01*
X014886Y005924D01*
X014923Y005960D01*
X014886Y006034D02*
X014813Y006034D01*
X014776Y005997D01*
X014776Y005960D01*
X014886Y006034D02*
X014923Y006070D01*
X014923Y006107D01*
X014886Y006144D01*
X014813Y006144D01*
X014776Y006107D01*
X014592Y006144D02*
X014555Y006107D01*
X014913Y006330D02*
X014913Y006514D01*
X013573Y006244D02*
X013573Y006170D01*
X013536Y006134D01*
X013426Y006134D01*
X013352Y006134D02*
X013278Y006134D01*
X013315Y006134D02*
X013315Y006354D01*
X013352Y006354D01*
X013426Y006280D02*
X013536Y006280D01*
X013573Y006244D01*
X013204Y006207D02*
X013094Y006280D01*
X013204Y006207D02*
X013094Y006134D01*
X013204Y006134D02*
X013204Y006354D01*
X012653Y006354D02*
X012616Y006354D01*
X012616Y006134D01*
X012653Y006134D02*
X012579Y006134D01*
X012505Y006170D02*
X012505Y006244D01*
X012469Y006280D01*
X012395Y006280D01*
X012359Y006244D01*
X012359Y006207D01*
X012505Y006207D01*
X012505Y006170D02*
X012469Y006134D01*
X012395Y006134D01*
X012248Y006134D02*
X012248Y006317D01*
X012211Y006354D01*
X012137Y006280D02*
X012064Y006280D01*
X012100Y006317D02*
X012100Y006170D01*
X012064Y006134D01*
X012211Y006244D02*
X012284Y006244D01*
X011773Y006217D02*
X011699Y006290D01*
X011663Y006290D01*
X011588Y006290D02*
X011552Y006290D01*
X011552Y006144D01*
X011588Y006144D02*
X011515Y006144D01*
X011441Y006180D02*
X011404Y006144D01*
X011294Y006144D01*
X011294Y006107D02*
X011294Y006290D01*
X011404Y006290D01*
X011441Y006254D01*
X011441Y006180D01*
X011368Y006070D02*
X011331Y006070D01*
X011294Y006107D01*
X011220Y006144D02*
X011220Y006364D01*
X011183Y006290D02*
X011110Y006290D01*
X011073Y006254D01*
X011073Y006144D01*
X010962Y006180D02*
X010926Y006144D01*
X010962Y006180D02*
X010962Y006327D01*
X010926Y006290D02*
X010999Y006290D01*
X011183Y006290D02*
X011220Y006254D01*
X011552Y006364D02*
X011552Y006401D01*
X011773Y006290D02*
X011773Y006144D01*
X010673Y006124D02*
X010563Y006124D01*
X010526Y006160D01*
X010526Y006234D01*
X010563Y006270D01*
X010673Y006270D01*
X010673Y006344D02*
X010673Y006124D01*
X010452Y006124D02*
X010452Y006270D01*
X010452Y006197D02*
X010378Y006270D01*
X010342Y006270D01*
X010267Y006270D02*
X010231Y006270D01*
X010231Y006124D01*
X010267Y006124D02*
X010194Y006124D01*
X010120Y006160D02*
X010083Y006124D01*
X009973Y006124D01*
X009973Y006087D02*
X009973Y006270D01*
X010083Y006270D01*
X010120Y006234D01*
X010120Y006160D01*
X010047Y006050D02*
X010010Y006050D01*
X009973Y006087D01*
X009899Y006124D02*
X009899Y006344D01*
X009862Y006270D02*
X009789Y006270D01*
X009752Y006234D01*
X009752Y006124D01*
X009641Y006160D02*
X009605Y006124D01*
X009641Y006160D02*
X009641Y006307D01*
X009605Y006270D02*
X009678Y006270D01*
X009862Y006270D02*
X009899Y006234D01*
X010231Y006344D02*
X010231Y006381D01*
X009806Y005904D02*
X009843Y005867D01*
X009843Y005720D01*
X009806Y005684D01*
X009733Y005684D01*
X009696Y005720D01*
X009696Y005867D02*
X009733Y005904D01*
X009806Y005904D01*
X009622Y005904D02*
X009622Y005867D01*
X009548Y005794D01*
X009548Y005684D01*
X009548Y005794D02*
X009475Y005867D01*
X009475Y005904D01*
X009401Y005904D02*
X009254Y005904D01*
X009254Y005867D01*
X009401Y005720D01*
X009401Y005684D01*
X009180Y005720D02*
X009143Y005684D01*
X009070Y005684D01*
X009033Y005720D01*
X009180Y005720D02*
X009180Y005867D01*
X009143Y005904D01*
X009070Y005904D01*
X009033Y005867D01*
X008343Y005396D02*
X008343Y005349D01*
X008319Y005326D01*
X008226Y005326D01*
X008203Y005349D01*
X008203Y005396D01*
X008226Y005419D01*
X008319Y005419D02*
X008343Y005396D01*
X008343Y005272D02*
X008319Y005272D01*
X008226Y005178D01*
X008203Y005178D01*
X008203Y005078D02*
X008273Y005078D01*
X008319Y005124D01*
X008343Y005124D01*
X008343Y005178D02*
X008343Y005272D01*
X008273Y005078D02*
X008319Y005031D01*
X008343Y005031D01*
X008319Y004977D02*
X008343Y004954D01*
X008343Y004907D01*
X008319Y004884D01*
X008226Y004884D01*
X008203Y004907D01*
X008203Y004954D01*
X008226Y004977D01*
X009244Y004967D02*
X009244Y004894D01*
X009281Y004857D01*
X009391Y004857D01*
X009391Y004784D02*
X009391Y005004D01*
X009281Y005004D01*
X009244Y004967D01*
X009317Y004857D02*
X009244Y004784D01*
X009465Y004857D02*
X009465Y005004D01*
X009612Y005004D02*
X009612Y004857D01*
X009538Y004784D01*
X009465Y004857D01*
X009686Y004894D02*
X009833Y004894D01*
X009833Y004930D02*
X009759Y005004D01*
X009686Y004930D01*
X009686Y004784D01*
X009833Y004784D02*
X009833Y004930D01*
X010050Y004604D02*
X010050Y004384D01*
X010086Y004384D02*
X010013Y004384D01*
X009939Y004420D02*
X009939Y004494D01*
X009902Y004530D01*
X009829Y004530D01*
X009792Y004494D01*
X009792Y004457D01*
X009939Y004457D01*
X009939Y004420D02*
X009902Y004384D01*
X009829Y004384D01*
X009718Y004420D02*
X009681Y004384D01*
X009571Y004384D01*
X009460Y004420D02*
X009460Y004567D01*
X009424Y004530D02*
X009497Y004530D01*
X009571Y004530D02*
X009681Y004530D01*
X009718Y004494D01*
X009718Y004420D01*
X009460Y004420D02*
X009424Y004384D01*
X010050Y004604D02*
X010086Y004604D01*
X010197Y004530D02*
X010161Y004494D01*
X010161Y004457D01*
X010307Y004457D01*
X010307Y004420D02*
X010307Y004494D01*
X010271Y004530D01*
X010197Y004530D01*
X010197Y004384D02*
X010271Y004384D01*
X010307Y004420D01*
X010382Y004420D02*
X010418Y004384D01*
X010492Y004384D01*
X010528Y004420D01*
X010492Y004494D02*
X010418Y004494D01*
X010382Y004457D01*
X010382Y004420D01*
X010492Y004494D02*
X010528Y004530D01*
X010528Y004567D01*
X010492Y004604D01*
X010418Y004604D01*
X010382Y004567D01*
X010824Y004494D02*
X010824Y004384D01*
X010824Y004494D02*
X010860Y004530D01*
X010970Y004530D01*
X010970Y004384D01*
X011044Y004384D02*
X011118Y004384D01*
X011081Y004384D02*
X011081Y004530D01*
X011118Y004530D01*
X011192Y004494D02*
X011229Y004457D01*
X011339Y004457D01*
X011339Y004384D02*
X011339Y004604D01*
X011229Y004604D01*
X011192Y004567D01*
X011192Y004494D01*
X011081Y004604D02*
X011081Y004641D01*
X011634Y004530D02*
X011670Y004530D01*
X011744Y004457D01*
X011744Y004384D02*
X011744Y004530D01*
X011818Y004494D02*
X011855Y004530D01*
X011928Y004530D01*
X011965Y004494D01*
X011965Y004420D01*
X011928Y004384D01*
X011855Y004384D01*
X011818Y004457D02*
X011965Y004457D01*
X012039Y004530D02*
X012112Y004384D01*
X012186Y004530D01*
X012296Y004530D02*
X012296Y004384D01*
X012260Y004384D02*
X012333Y004384D01*
X012333Y004530D02*
X012296Y004530D01*
X012296Y004604D02*
X012296Y004641D01*
X012407Y004530D02*
X012444Y004530D01*
X012517Y004457D01*
X012517Y004384D02*
X012517Y004530D01*
X012591Y004567D02*
X012628Y004604D01*
X012738Y004604D01*
X012738Y004384D01*
X012628Y004384D01*
X012591Y004420D01*
X012591Y004567D01*
X013033Y004530D02*
X013143Y004457D01*
X013033Y004384D01*
X013143Y004384D02*
X013143Y004604D01*
X013254Y004530D02*
X013218Y004494D01*
X013218Y004384D01*
X013364Y004384D02*
X013364Y004530D01*
X013254Y004530D01*
X013475Y004530D02*
X013475Y004384D01*
X013512Y004384D02*
X013438Y004384D01*
X013475Y004530D02*
X013512Y004530D01*
X013475Y004604D02*
X013475Y004641D01*
X013586Y004567D02*
X013623Y004604D01*
X013696Y004604D01*
X013733Y004567D01*
X013733Y004530D01*
X013696Y004494D01*
X013623Y004494D01*
X013586Y004457D01*
X013586Y004420D01*
X013623Y004384D01*
X013696Y004384D01*
X013733Y004420D01*
X011818Y004457D02*
X011818Y004494D01*
X007953Y001624D02*
X007769Y001624D01*
X007733Y001660D01*
X003903Y005144D02*
X003809Y005144D01*
X003856Y005144D02*
X003856Y005424D01*
X003903Y005424D02*
X003809Y005424D01*
X003718Y005424D02*
X003578Y005424D01*
X003532Y005377D01*
X003532Y005190D01*
X003578Y005144D01*
X003718Y005144D01*
X003718Y005424D01*
X004889Y008024D02*
X005036Y008024D01*
X005036Y008244D01*
X004889Y008244D01*
X004962Y008134D02*
X005036Y008134D01*
X005110Y008097D02*
X005110Y008060D01*
X005147Y008024D01*
X005220Y008024D01*
X005257Y008060D01*
X005331Y008060D02*
X005331Y008244D01*
X005257Y008207D02*
X005257Y008170D01*
X005220Y008134D01*
X005147Y008134D01*
X005110Y008097D01*
X005110Y008207D02*
X005147Y008244D01*
X005220Y008244D01*
X005257Y008207D01*
X005331Y008060D02*
X005368Y008024D01*
X005441Y008024D01*
X005478Y008060D01*
X005478Y008244D01*
X005552Y008244D02*
X005699Y008244D01*
X005699Y008024D01*
X005773Y007987D02*
X005920Y007987D01*
X005994Y008060D02*
X005994Y008097D01*
X006031Y008134D01*
X006141Y008134D01*
X006215Y008097D02*
X006215Y008060D01*
X006252Y008024D01*
X006325Y008024D01*
X006362Y008060D01*
X006436Y008060D02*
X006436Y008244D01*
X006362Y008207D02*
X006362Y008170D01*
X006325Y008134D01*
X006252Y008134D01*
X006215Y008097D01*
X006141Y008024D02*
X006141Y008244D01*
X006031Y008244D01*
X005994Y008207D01*
X005994Y008170D01*
X006031Y008134D01*
X005994Y008060D02*
X006031Y008024D01*
X006141Y008024D01*
X006215Y008207D02*
X006252Y008244D01*
X006325Y008244D01*
X006362Y008207D01*
X006436Y008060D02*
X006473Y008024D01*
X006546Y008024D01*
X006583Y008060D01*
X006583Y008244D01*
X005699Y008134D02*
X005625Y008134D01*
X005683Y009824D02*
X005646Y009860D01*
X005646Y010044D01*
X005572Y010007D02*
X005572Y009970D01*
X005535Y009934D01*
X005462Y009934D01*
X005425Y009897D01*
X005425Y009860D01*
X005462Y009824D01*
X005535Y009824D01*
X005572Y009860D01*
X005683Y009824D02*
X005756Y009824D01*
X005793Y009860D01*
X005793Y010044D01*
X005572Y010007D02*
X005535Y010044D01*
X005462Y010044D01*
X005425Y010007D01*
X005351Y010044D02*
X005241Y010044D01*
X005204Y010007D01*
X005204Y009970D01*
X005241Y009934D01*
X005351Y009934D01*
X005351Y009824D02*
X005351Y010044D01*
X005241Y009934D02*
X005204Y009897D01*
X005204Y009860D01*
X005241Y009824D01*
X005351Y009824D01*
X005130Y009824D02*
X005130Y010044D01*
X005020Y010044D01*
X004983Y010007D01*
X004983Y009934D01*
X005020Y009897D01*
X005130Y009897D01*
X004909Y009824D02*
X004835Y009897D01*
X004762Y009824D01*
X004762Y010044D01*
X004688Y010044D02*
X004578Y010044D01*
X004541Y010007D01*
X004541Y009934D01*
X004578Y009897D01*
X004688Y009897D01*
X004688Y009824D02*
X004688Y010044D01*
X004614Y009897D02*
X004541Y009824D01*
X004467Y009860D02*
X004430Y009824D01*
X004357Y009824D01*
X004320Y009860D01*
X004320Y009897D01*
X004357Y009934D01*
X004430Y009934D01*
X004467Y009970D01*
X004467Y010007D01*
X004430Y010044D01*
X004357Y010044D01*
X004320Y010007D01*
X004246Y010044D02*
X004246Y009824D01*
X004172Y009897D01*
X004099Y009824D01*
X004099Y010044D01*
X004909Y010044D02*
X004909Y009824D01*
X009793Y009574D02*
X009980Y009574D01*
X009980Y009294D01*
X010070Y009294D02*
X010070Y009434D01*
X010116Y009481D01*
X010256Y009481D01*
X010256Y009294D01*
X010346Y009294D02*
X010533Y009294D01*
X010439Y009294D02*
X010439Y009574D01*
X010533Y009481D01*
X010653Y009406D02*
X010933Y009406D01*
X010933Y009546D01*
X010886Y009593D01*
X010793Y009593D01*
X010746Y009546D01*
X010746Y009406D01*
X010746Y009500D02*
X010653Y009593D01*
X010699Y009683D02*
X010653Y009729D01*
X010653Y009823D01*
X010699Y009869D01*
X010746Y009869D01*
X010793Y009823D01*
X010793Y009729D01*
X010839Y009683D01*
X010886Y009683D01*
X010933Y009729D01*
X010933Y009823D01*
X010886Y009869D01*
X010933Y009959D02*
X010933Y010146D01*
X010933Y010052D02*
X010653Y010052D01*
X010699Y010235D02*
X010653Y010282D01*
X010653Y010375D01*
X010699Y010422D01*
X010653Y010511D02*
X010839Y010511D01*
X010933Y010605D01*
X010839Y010698D01*
X010653Y010698D01*
X010653Y010787D02*
X010933Y010787D01*
X010933Y010928D01*
X010886Y010974D01*
X010793Y010974D01*
X010746Y010928D01*
X010746Y010787D01*
X010793Y010698D02*
X010793Y010511D01*
X010886Y010422D02*
X010933Y010375D01*
X010933Y010282D01*
X010886Y010235D01*
X010699Y010235D01*
X009980Y009434D02*
X009887Y009434D01*
X010623Y011353D02*
X010903Y011353D01*
X010903Y011493D01*
X010856Y011539D01*
X010763Y011539D01*
X010716Y011493D01*
X010716Y011353D01*
X010716Y011446D02*
X010623Y011539D01*
X010669Y011629D02*
X010623Y011675D01*
X010623Y011769D01*
X010669Y011816D01*
X010716Y011816D01*
X010763Y011769D01*
X010763Y011675D01*
X010809Y011629D01*
X010856Y011629D01*
X010903Y011675D01*
X010903Y011769D01*
X010856Y011816D01*
X010903Y011905D02*
X010903Y012092D01*
X010903Y011998D02*
X010623Y011998D01*
X010576Y012181D02*
X010576Y012368D01*
X010623Y012457D02*
X010903Y012457D01*
X010903Y012598D01*
X010856Y012644D01*
X010763Y012644D01*
X010716Y012598D01*
X010716Y012457D01*
X010716Y012551D02*
X010623Y012644D01*
X010513Y012674D02*
X010326Y012674D01*
X010419Y012674D02*
X010419Y012954D01*
X010513Y012861D01*
X010236Y012907D02*
X010236Y012720D01*
X010050Y012907D01*
X010050Y012720D01*
X010096Y012674D01*
X010190Y012674D01*
X010236Y012720D01*
X010236Y012907D02*
X010190Y012954D01*
X010096Y012954D01*
X010050Y012907D01*
X009960Y012954D02*
X009960Y012674D01*
X009960Y012767D02*
X009773Y012954D01*
X009913Y012814D02*
X009773Y012674D01*
X013763Y013317D02*
X013910Y013317D01*
X013836Y013317D02*
X013836Y013537D01*
X013910Y013464D01*
X013984Y013427D02*
X013984Y013354D01*
X014021Y013317D01*
X014094Y013317D01*
X014131Y013354D01*
X014131Y013427D02*
X014057Y013464D01*
X014021Y013464D01*
X013984Y013427D01*
X013984Y013537D02*
X014131Y013537D01*
X014131Y013427D01*
X014205Y013427D02*
X014352Y013427D01*
X014242Y013537D01*
X014242Y013317D01*
X014426Y013354D02*
X014463Y013317D01*
X014536Y013317D01*
X014573Y013354D01*
X014573Y013427D02*
X014499Y013464D01*
X014463Y013464D01*
X014426Y013427D01*
X014426Y013354D01*
X014573Y013427D02*
X014573Y013537D01*
X014426Y013537D01*
X014647Y013537D02*
X014647Y013317D01*
X014794Y013317D02*
X014794Y013537D01*
X014720Y013464D01*
X014647Y013537D01*
X014868Y013427D02*
X015015Y013427D01*
X015089Y013537D02*
X015236Y013537D01*
X015162Y013537D02*
X015162Y013317D01*
X015310Y013354D02*
X015347Y013317D01*
X015420Y013317D01*
X015457Y013354D01*
X015420Y013427D02*
X015347Y013427D01*
X015310Y013390D01*
X015310Y013354D01*
X015420Y013427D02*
X015457Y013464D01*
X015457Y013500D01*
X015420Y013537D01*
X015347Y013537D01*
X015310Y013500D01*
X015531Y013280D02*
X015678Y013280D01*
X015752Y013317D02*
X015899Y013317D01*
X015899Y013537D01*
X015752Y013537D01*
X015825Y013427D02*
X015899Y013427D01*
X015973Y013317D02*
X015973Y013537D01*
X016120Y013537D02*
X015973Y013317D01*
X016120Y013317D02*
X016120Y013537D01*
X016194Y013500D02*
X016231Y013537D01*
X016304Y013537D01*
X016341Y013500D01*
X016341Y013354D01*
X016304Y013317D01*
X016231Y013317D01*
X016194Y013354D01*
X016194Y013500D01*
X016415Y013537D02*
X016562Y013537D01*
X016488Y013537D02*
X016488Y013317D01*
X016636Y013354D02*
X016673Y013317D01*
X016746Y013317D01*
X016783Y013354D01*
X016746Y013427D02*
X016673Y013427D01*
X016636Y013390D01*
X016636Y013354D01*
X016746Y013427D02*
X016783Y013464D01*
X016783Y013500D01*
X016746Y013537D01*
X016673Y013537D01*
X016636Y013500D01*
X019844Y011937D02*
X019844Y011844D01*
X019890Y011797D01*
X020030Y011797D01*
X020030Y011704D02*
X020030Y011984D01*
X019890Y011984D01*
X019844Y011937D01*
X020120Y011891D02*
X020120Y011704D01*
X020120Y011844D02*
X020307Y011844D01*
X020307Y011891D02*
X020213Y011984D01*
X020120Y011891D01*
X020307Y011891D02*
X020307Y011704D01*
X020396Y011750D02*
X020443Y011704D01*
X020536Y011704D01*
X020583Y011750D01*
X020583Y011937D01*
X020536Y011984D01*
X020443Y011984D01*
X020396Y011937D01*
X020672Y011937D02*
X020672Y011891D01*
X020719Y011844D01*
X020859Y011844D01*
X020948Y011844D02*
X021135Y011844D01*
X021135Y011891D02*
X021042Y011984D01*
X020948Y011891D01*
X020948Y011704D01*
X020859Y011704D02*
X020719Y011704D01*
X020672Y011750D01*
X020672Y011797D01*
X020719Y011844D01*
X020672Y011937D02*
X020719Y011984D01*
X020859Y011984D01*
X020859Y011704D01*
X020905Y011444D02*
X020905Y011164D01*
X020998Y011164D02*
X020811Y011164D01*
X020722Y011210D02*
X020675Y011164D01*
X020535Y011164D01*
X020535Y011351D01*
X020446Y011304D02*
X020352Y011304D01*
X020446Y011444D02*
X020259Y011444D01*
X020446Y011444D02*
X020446Y011164D01*
X020722Y011210D02*
X020722Y011351D01*
X020905Y011444D02*
X020998Y011351D01*
X021088Y011397D02*
X021274Y011210D01*
X021228Y011164D01*
X021134Y011164D01*
X021088Y011210D01*
X021088Y011397D01*
X021134Y011444D01*
X021228Y011444D01*
X021274Y011397D01*
X021274Y011210D01*
X021366Y011210D02*
X021366Y011164D01*
X021413Y011164D01*
X021413Y011210D01*
X021366Y011210D01*
X021318Y011704D02*
X021318Y011984D01*
X021411Y011984D02*
X021225Y011984D01*
X021135Y011891D02*
X021135Y011704D01*
X021501Y011750D02*
X021548Y011704D01*
X021641Y011704D01*
X021688Y011750D01*
X021777Y011750D02*
X021777Y011984D01*
X021688Y011937D02*
X021688Y011891D01*
X021641Y011844D01*
X021548Y011844D01*
X021501Y011797D01*
X021501Y011750D01*
X021501Y011937D02*
X021548Y011984D01*
X021641Y011984D01*
X021688Y011937D01*
X021777Y011750D02*
X021824Y011704D01*
X021917Y011704D01*
X021964Y011750D01*
X021964Y011984D01*
X022053Y011937D02*
X022053Y011844D01*
X022100Y011797D01*
X022240Y011797D01*
X022240Y011704D02*
X022240Y011984D01*
X022100Y011984D01*
X022053Y011937D01*
X022330Y011937D02*
X022376Y011984D01*
X022470Y011984D01*
X022516Y011937D01*
X022516Y011750D01*
X022470Y011704D01*
X022376Y011704D01*
X022330Y011750D01*
X022606Y011797D02*
X022606Y011984D01*
X022793Y011984D02*
X022793Y011797D01*
X022699Y011704D01*
X022606Y011797D01*
X022992Y011884D02*
X023086Y011977D01*
X023039Y011977D02*
X023179Y011977D01*
X023179Y011884D02*
X023179Y012164D01*
X023039Y012164D01*
X022992Y012117D01*
X022992Y012024D01*
X023039Y011977D01*
X023268Y011837D02*
X023455Y011837D01*
X023591Y011930D02*
X023591Y012164D01*
X023545Y012164D02*
X023638Y012164D01*
X023821Y012117D02*
X023867Y012164D01*
X024008Y012164D01*
X024008Y011884D01*
X023867Y011884D01*
X023821Y011930D01*
X023821Y012117D01*
X023731Y011930D02*
X023685Y011884D01*
X023638Y011884D01*
X023591Y011930D01*
X024097Y011884D02*
X024097Y012071D01*
X024190Y012164D01*
X024284Y012071D01*
X024284Y011884D01*
X024373Y011977D02*
X024373Y012164D01*
X024284Y012024D02*
X024097Y012024D01*
X024373Y011977D02*
X024467Y011884D01*
X024560Y011977D01*
X024560Y012164D01*
X025053Y011917D02*
X025333Y011917D01*
X025333Y012058D01*
X025286Y012104D01*
X025193Y012104D01*
X025146Y012058D01*
X025146Y011917D01*
X025193Y011828D02*
X025193Y011641D01*
X025239Y011641D02*
X025333Y011735D01*
X025239Y011828D01*
X025053Y011828D01*
X024923Y011894D02*
X024923Y011707D01*
X024643Y011707D01*
X024643Y011618D02*
X024829Y011618D01*
X024783Y011707D02*
X024783Y011801D01*
X024643Y011618D02*
X024643Y011478D01*
X024689Y011431D01*
X024829Y011431D01*
X024923Y011248D02*
X024643Y011248D01*
X024643Y011155D02*
X024643Y011342D01*
X024829Y011155D02*
X024923Y011248D01*
X025053Y011276D02*
X025333Y011276D01*
X025286Y011365D02*
X025099Y011365D01*
X025053Y011412D01*
X025053Y011505D01*
X025099Y011552D01*
X025053Y011641D02*
X025239Y011641D01*
X025286Y011552D02*
X025333Y011505D01*
X025333Y011412D01*
X025286Y011365D01*
X025053Y011276D02*
X025333Y011089D01*
X025053Y011089D01*
X025053Y010998D02*
X025053Y010905D01*
X025053Y010951D02*
X025333Y010951D01*
X025333Y010905D02*
X025333Y010998D01*
X025333Y010815D02*
X025146Y010815D01*
X025053Y010722D01*
X025146Y010628D01*
X025333Y010628D01*
X024923Y010879D02*
X024783Y011066D01*
X024643Y010879D01*
X023533Y010170D02*
X023423Y010060D01*
X023423Y010206D01*
X023313Y010170D02*
X023533Y010170D01*
X023533Y009985D02*
X023533Y009839D01*
X023423Y009839D01*
X023459Y009912D01*
X023459Y009949D01*
X023423Y009985D01*
X023349Y009985D01*
X023313Y009949D01*
X023313Y009875D01*
X023349Y009839D01*
X023349Y009764D02*
X023496Y009764D01*
X023533Y009728D01*
X023533Y009654D01*
X023496Y009618D01*
X023459Y009618D01*
X023423Y009654D01*
X023423Y009764D01*
X023349Y009764D02*
X023313Y009728D01*
X023313Y009654D01*
X023349Y009618D01*
X023313Y009543D02*
X023313Y009397D01*
X023459Y009543D01*
X023496Y009543D01*
X023533Y009507D01*
X023533Y009433D01*
X023496Y009397D01*
X023533Y009322D02*
X023313Y009176D01*
X023386Y009065D02*
X023423Y009101D01*
X023496Y009101D01*
X023533Y009065D01*
X023533Y008955D01*
X023313Y008955D01*
X023386Y008955D02*
X023386Y009065D01*
X023533Y009176D02*
X023313Y009322D01*
X023349Y008880D02*
X023313Y008844D01*
X023313Y008770D01*
X023349Y008734D01*
X023423Y008770D02*
X023423Y008844D01*
X023386Y008880D01*
X023349Y008880D01*
X023423Y008770D02*
X023459Y008734D01*
X023496Y008734D01*
X023533Y008770D01*
X023533Y008844D01*
X023496Y008880D01*
X023560Y008124D02*
X023420Y008124D01*
X023373Y008077D01*
X023373Y007984D01*
X023420Y007937D01*
X023560Y007937D01*
X023650Y007937D02*
X023650Y008124D01*
X023560Y008124D02*
X023560Y007844D01*
X023650Y007937D02*
X023743Y007844D01*
X023836Y007937D01*
X023836Y008124D01*
X023926Y008124D02*
X024113Y008124D01*
X024113Y007984D01*
X024019Y008031D01*
X023972Y008031D01*
X023926Y007984D01*
X023926Y007890D01*
X023972Y007844D01*
X024066Y007844D01*
X024113Y007890D01*
X023467Y007937D02*
X023373Y007844D01*
X023284Y007844D02*
X023097Y007844D01*
X023008Y007890D02*
X022961Y007844D01*
X022868Y007844D01*
X022821Y007890D01*
X022821Y007984D01*
X022914Y007984D01*
X022821Y008077D02*
X022868Y008124D01*
X022961Y008124D01*
X023008Y008077D01*
X023008Y007890D01*
X023191Y007984D02*
X023284Y007984D01*
X023284Y008124D02*
X023284Y007844D01*
X023284Y008124D02*
X023097Y008124D01*
X025543Y007188D02*
X025543Y007001D01*
X025729Y007188D01*
X025776Y007188D01*
X025823Y007141D01*
X025823Y007048D01*
X025776Y007001D01*
X025776Y006912D02*
X025683Y006912D01*
X025636Y006865D01*
X025636Y006725D01*
X025543Y006725D02*
X025823Y006725D01*
X025823Y006865D01*
X025776Y006912D01*
X026251Y006807D02*
X026298Y006854D01*
X026391Y006854D01*
X026438Y006807D01*
X026527Y006807D02*
X026527Y006714D01*
X026574Y006667D01*
X026714Y006667D01*
X026714Y006574D02*
X026714Y006854D01*
X026574Y006854D01*
X026527Y006807D01*
X026438Y006574D02*
X026251Y006574D01*
X026251Y006761D02*
X026251Y006807D01*
X026251Y006761D02*
X026438Y006574D01*
X026803Y006574D02*
X026803Y006761D01*
X026897Y006854D01*
X026990Y006761D01*
X026990Y006574D01*
X027080Y006620D02*
X027126Y006574D01*
X027220Y006574D01*
X027266Y006620D01*
X027266Y006807D01*
X027220Y006854D01*
X027126Y006854D01*
X027080Y006807D01*
X026990Y006714D02*
X026803Y006714D01*
X027356Y006807D02*
X027356Y006620D01*
X027402Y006574D01*
X027496Y006574D01*
X027543Y006620D01*
X027543Y006807D01*
X027496Y006854D01*
X027402Y006854D01*
X027356Y006807D01*
X027449Y006667D02*
X027356Y006574D01*
X027406Y005884D02*
X027360Y005837D01*
X027360Y005791D01*
X027406Y005744D01*
X027360Y005697D01*
X027360Y005650D01*
X027406Y005604D01*
X027500Y005604D01*
X027546Y005650D01*
X027636Y005650D02*
X027682Y005604D01*
X027776Y005604D01*
X027823Y005650D01*
X027729Y005744D02*
X027682Y005744D01*
X027636Y005697D01*
X027636Y005650D01*
X027682Y005744D02*
X027636Y005791D01*
X027636Y005837D01*
X027682Y005884D01*
X027776Y005884D01*
X027823Y005837D01*
X027546Y005837D02*
X027500Y005884D01*
X027406Y005884D01*
X027406Y005744D02*
X027453Y005744D01*
X027270Y005791D02*
X027130Y005791D01*
X027083Y005744D01*
X027083Y005650D01*
X027130Y005604D01*
X027270Y005604D01*
X027270Y005510D02*
X027270Y005791D01*
X026994Y005744D02*
X026901Y005744D01*
X026994Y005884D02*
X026807Y005884D01*
X026994Y005884D02*
X026994Y005604D01*
X026821Y004794D02*
X026867Y004747D01*
X026867Y004514D01*
X027003Y004560D02*
X027050Y004514D01*
X027190Y004514D01*
X027190Y004420D02*
X027190Y004701D01*
X027050Y004701D01*
X027003Y004654D01*
X027003Y004560D01*
X026914Y004654D02*
X026821Y004654D01*
X027280Y004701D02*
X027326Y004654D01*
X027280Y004607D01*
X027280Y004560D01*
X027326Y004514D01*
X027420Y004514D01*
X027466Y004560D01*
X027556Y004560D02*
X027602Y004514D01*
X027696Y004514D01*
X027743Y004560D01*
X027649Y004654D02*
X027602Y004654D01*
X027556Y004607D01*
X027556Y004560D01*
X027602Y004654D02*
X027556Y004701D01*
X027556Y004747D01*
X027602Y004794D01*
X027696Y004794D01*
X027743Y004747D01*
X027466Y004747D02*
X027420Y004794D01*
X027326Y004794D01*
X027280Y004747D01*
X027280Y004701D01*
X027326Y004654D02*
X027373Y004654D01*
X027256Y003964D02*
X027162Y003964D01*
X027116Y003917D01*
X027116Y003730D01*
X027162Y003684D01*
X027256Y003684D01*
X027303Y003730D01*
X027303Y003917D01*
X027256Y003964D01*
X027209Y003777D02*
X027116Y003684D01*
X027026Y003730D02*
X027026Y003917D01*
X026980Y003964D01*
X026886Y003964D01*
X026840Y003917D01*
X026750Y003871D02*
X026657Y003964D01*
X026563Y003871D01*
X026563Y003684D01*
X026474Y003684D02*
X026474Y003964D01*
X026334Y003964D01*
X026287Y003917D01*
X026287Y003824D01*
X026334Y003777D01*
X026474Y003777D01*
X026563Y003824D02*
X026750Y003824D01*
X026750Y003871D02*
X026750Y003684D01*
X026840Y003730D02*
X026886Y003684D01*
X026980Y003684D01*
X027026Y003730D01*
X026198Y003684D02*
X026011Y003684D01*
X026104Y003684D02*
X026104Y003964D01*
X026198Y003871D01*
X025776Y005344D02*
X025589Y005344D01*
X025543Y005390D01*
X025543Y005484D01*
X025589Y005531D01*
X025543Y005620D02*
X025823Y005620D01*
X025823Y005760D01*
X025776Y005807D01*
X025683Y005807D01*
X025636Y005760D01*
X025636Y005620D01*
X025776Y005531D02*
X025823Y005484D01*
X025823Y005390D01*
X025776Y005344D01*
X025823Y005896D02*
X025589Y005896D01*
X025543Y005943D01*
X025543Y006036D01*
X025589Y006083D01*
X025823Y006083D01*
X025776Y006172D02*
X025589Y006172D01*
X025543Y006219D01*
X025543Y006312D01*
X025589Y006359D01*
X025543Y006449D02*
X025729Y006449D01*
X025823Y006542D01*
X025729Y006635D01*
X025543Y006635D01*
X025683Y006635D02*
X025683Y006449D01*
X025776Y006359D02*
X025823Y006312D01*
X025823Y006219D01*
X025776Y006172D01*
X024653Y006174D02*
X024653Y006361D01*
X024513Y006268D02*
X024513Y006174D01*
X024559Y006085D02*
X024373Y006085D01*
X024373Y005945D01*
X024419Y005898D01*
X024559Y005898D01*
X024653Y005715D02*
X024373Y005715D01*
X024373Y005622D02*
X024373Y005809D01*
X024559Y005622D02*
X024653Y005715D01*
X024419Y005530D02*
X024373Y005530D01*
X024373Y005484D01*
X024419Y005484D01*
X024419Y005530D01*
X024373Y006174D02*
X024653Y006174D01*
X020248Y006431D02*
X020215Y006374D01*
X020125Y006350D01*
X020055Y006428D02*
X020236Y006476D01*
X020248Y006431D02*
X020224Y006521D01*
X020167Y006554D01*
X020076Y006530D01*
X020043Y006473D01*
X020055Y006428D01*
X019945Y006495D02*
X019810Y006459D01*
X019777Y006402D01*
X019813Y006266D01*
X019714Y006288D02*
X019657Y006321D01*
X019522Y006285D01*
X019510Y006330D02*
X019546Y006195D01*
X019681Y006231D01*
X019714Y006288D01*
X019633Y006411D02*
X019543Y006387D01*
X019510Y006330D01*
X019411Y006352D02*
X019276Y006316D01*
X019243Y006259D01*
X019267Y006168D01*
X019324Y006135D01*
X019460Y006172D01*
X019387Y006442D01*
X019945Y006495D02*
X019993Y006315D01*
X026283Y009774D02*
X026423Y009961D01*
X026563Y009774D01*
X026803Y009807D02*
X026896Y009714D01*
X027083Y009714D01*
X027083Y009901D02*
X026896Y009901D01*
X026803Y009807D01*
X026849Y009990D02*
X026803Y010037D01*
X026803Y010130D01*
X026849Y010177D01*
X026803Y010266D02*
X027083Y010266D01*
X027083Y010406D01*
X027036Y010453D01*
X026943Y010453D01*
X026896Y010406D01*
X026896Y010266D01*
X027036Y010177D02*
X027083Y010130D01*
X027083Y010037D01*
X027036Y009990D01*
X026849Y009990D01*
X026469Y010050D02*
X026469Y010237D01*
X026376Y010237D02*
X026376Y010050D01*
X026329Y010326D02*
X026283Y010373D01*
X026283Y010466D01*
X026329Y010513D01*
X026376Y010513D01*
X026423Y010466D01*
X026423Y010420D01*
X026423Y010466D02*
X026469Y010513D01*
X026516Y010513D01*
X026563Y010466D01*
X026563Y010373D01*
X026516Y010326D01*
X026329Y010602D02*
X026329Y010649D01*
X026283Y010649D01*
X026283Y010602D01*
X026329Y010602D01*
X026329Y010740D02*
X026283Y010787D01*
X026283Y010881D01*
X026329Y010927D01*
X026376Y010927D01*
X026423Y010881D01*
X026423Y010834D01*
X026423Y010881D02*
X026469Y010927D01*
X026516Y010927D01*
X026563Y010881D01*
X026563Y010787D01*
X026516Y010740D01*
X026469Y011017D02*
X026329Y011017D01*
X026283Y011063D01*
X026283Y011204D01*
X026469Y011204D01*
X026423Y011293D02*
X026423Y011386D01*
X026563Y011293D02*
X026563Y011480D01*
X026563Y011293D02*
X026283Y011293D01*
X026803Y011282D02*
X026989Y011282D01*
X027083Y011188D01*
X026989Y011095D01*
X026803Y011095D01*
X026849Y011005D02*
X026803Y010959D01*
X026803Y010865D01*
X026849Y010819D01*
X027036Y010819D01*
X027083Y010865D01*
X027083Y010959D01*
X027036Y011005D01*
X026943Y011095D02*
X026943Y011282D01*
X026896Y011371D02*
X026896Y011511D01*
X026943Y011558D01*
X027036Y011558D01*
X027083Y011511D01*
X027083Y011371D01*
X026803Y011371D01*
X026849Y010729D02*
X027083Y010729D01*
X027083Y010542D02*
X026849Y010542D01*
X026803Y010589D01*
X026803Y010682D01*
X026849Y010729D01*
X027003Y012844D02*
X027003Y013031D01*
X027003Y013120D02*
X027003Y013307D01*
X027003Y013396D02*
X027003Y013536D01*
X027049Y013583D01*
X027236Y013583D01*
X027283Y013536D01*
X027283Y013396D01*
X027003Y013396D01*
X026853Y013441D02*
X026713Y013301D01*
X026713Y013487D01*
X026619Y013577D02*
X026619Y013624D01*
X026573Y013624D01*
X026573Y013577D01*
X026619Y013577D01*
X026619Y013715D02*
X026573Y013715D01*
X026619Y013715D02*
X026806Y013902D01*
X026853Y013902D01*
X026853Y013715D01*
X027003Y013766D02*
X027096Y013859D01*
X027283Y013859D01*
X027283Y013949D02*
X027283Y014089D01*
X027236Y014136D01*
X027143Y014136D01*
X027096Y014089D01*
X027096Y013949D01*
X027096Y014042D02*
X027003Y014136D01*
X027049Y014225D02*
X027003Y014272D01*
X027003Y014365D01*
X027049Y014412D01*
X027003Y014501D02*
X027189Y014501D01*
X027283Y014595D01*
X027189Y014688D01*
X027003Y014688D01*
X027003Y014777D02*
X027283Y014777D01*
X027283Y014917D01*
X027236Y014964D01*
X027143Y014964D01*
X027096Y014917D01*
X027096Y014777D01*
X027143Y014688D02*
X027143Y014501D01*
X027236Y014412D02*
X027283Y014365D01*
X027283Y014272D01*
X027236Y014225D01*
X027049Y014225D01*
X026853Y014267D02*
X026853Y014454D01*
X026713Y014361D02*
X026713Y014267D01*
X026759Y014178D02*
X026573Y014178D01*
X026573Y014038D01*
X026619Y013991D01*
X026759Y013991D01*
X027003Y013949D02*
X027283Y013949D01*
X027283Y013672D02*
X027096Y013672D01*
X027003Y013766D01*
X026853Y013441D02*
X026573Y013441D01*
X027003Y013120D02*
X027283Y013120D01*
X027283Y013307D01*
X027143Y013213D02*
X027143Y013120D01*
X027283Y012844D02*
X027003Y012844D01*
X026853Y014267D02*
X026573Y014267D01*
X024231Y013644D02*
X024044Y013644D01*
X023955Y013550D02*
X023955Y013504D01*
X023955Y013550D02*
X023768Y013737D01*
X023768Y013784D01*
X023955Y013784D01*
X024091Y013784D02*
X024231Y013644D01*
X024091Y013504D02*
X024091Y013784D01*
X023679Y013737D02*
X023679Y013550D01*
X023492Y013737D01*
X023492Y013550D01*
X023539Y013504D01*
X023632Y013504D01*
X023679Y013550D01*
X023679Y013737D02*
X023632Y013784D01*
X023539Y013784D01*
X023492Y013737D01*
X029349Y016073D02*
X029629Y016073D01*
X029629Y016214D01*
X029583Y016260D01*
X029489Y016260D01*
X029443Y016214D01*
X029443Y016073D01*
X029443Y015984D02*
X029629Y015984D01*
X029443Y015984D02*
X029443Y015844D01*
X029489Y015797D01*
X029629Y015797D01*
X029583Y016350D02*
X029629Y016396D01*
X029629Y016536D01*
X029629Y016626D02*
X029629Y016673D01*
X029443Y016673D01*
X029443Y016719D02*
X029443Y016626D01*
X029489Y016536D02*
X029443Y016490D01*
X029443Y016350D01*
X029536Y016396D02*
X029536Y016490D01*
X029489Y016536D01*
X029536Y016396D02*
X029583Y016350D01*
X029723Y016673D02*
X029770Y016673D01*
X029629Y016857D02*
X029629Y016997D01*
X029723Y016997D02*
X029443Y016997D01*
X029443Y016857D01*
X029489Y016810D01*
X029583Y016810D01*
X029629Y016857D01*
X029583Y017086D02*
X029629Y017133D01*
X029629Y017226D01*
X029583Y017273D01*
X029536Y017273D01*
X029536Y017086D01*
X029489Y017086D02*
X029583Y017086D01*
X029489Y017086D02*
X029443Y017133D01*
X029443Y017226D01*
X029489Y017639D02*
X029443Y017685D01*
X029443Y017825D01*
X029723Y017825D01*
X029629Y017825D02*
X029629Y017685D01*
X029583Y017639D01*
X029489Y017639D01*
X029489Y017915D02*
X029443Y017962D01*
X029443Y018055D01*
X029489Y018102D01*
X029583Y018102D01*
X029629Y018055D01*
X029629Y017962D01*
X029583Y017915D01*
X029489Y017915D01*
X029489Y018191D02*
X029443Y018238D01*
X029489Y018284D01*
X029443Y018331D01*
X029489Y018378D01*
X029629Y018378D01*
X029629Y018467D02*
X029629Y018607D01*
X029583Y018654D01*
X029443Y018654D01*
X029443Y018467D02*
X029629Y018467D01*
X029629Y018191D02*
X029489Y018191D01*
X026403Y020070D02*
X026356Y020024D01*
X026169Y020024D01*
X026123Y020070D01*
X026123Y020164D01*
X026169Y020211D01*
X026123Y020300D02*
X026309Y020487D01*
X026356Y020487D01*
X026403Y020440D01*
X026403Y020347D01*
X026356Y020300D01*
X026356Y020211D02*
X026403Y020164D01*
X026403Y020070D01*
X026123Y020300D02*
X026123Y020487D01*
X025113Y020426D02*
X025113Y020613D01*
X024973Y020520D02*
X024973Y020426D01*
X024973Y020337D02*
X024833Y020337D01*
X024833Y020426D02*
X025113Y020426D01*
X025019Y020290D02*
X025019Y020150D01*
X024833Y020150D01*
X024833Y020061D02*
X024833Y019874D01*
X024833Y019967D02*
X025113Y019967D01*
X025019Y019874D01*
X025019Y020290D02*
X024973Y020337D01*
X024113Y020377D02*
X024113Y020470D01*
X024066Y020517D01*
X024019Y020517D01*
X023973Y020470D01*
X023926Y020517D01*
X023879Y020517D01*
X023833Y020470D01*
X023833Y020377D01*
X023879Y020330D01*
X023879Y020241D02*
X023833Y020194D01*
X023833Y020100D01*
X023879Y020054D01*
X024066Y020054D01*
X024113Y020100D01*
X024113Y020194D01*
X024066Y020241D01*
X024066Y020330D02*
X024113Y020377D01*
X023973Y020423D02*
X023973Y020470D01*
X022893Y020506D02*
X022893Y020693D01*
X022753Y020600D02*
X022753Y020506D01*
X022753Y020417D02*
X022613Y020417D01*
X022613Y020506D02*
X022893Y020506D01*
X022799Y020370D02*
X022753Y020417D01*
X022799Y020370D02*
X022799Y020230D01*
X022613Y020230D01*
X022613Y020141D02*
X022613Y019954D01*
X022613Y020047D02*
X022893Y020047D01*
X022799Y019954D01*
X022533Y019654D02*
X022533Y019434D01*
X022386Y019434D01*
X022312Y019434D02*
X022165Y019434D01*
X022091Y019434D02*
X021981Y019434D01*
X021944Y019470D01*
X021944Y019617D01*
X021981Y019654D01*
X022091Y019654D01*
X022091Y019434D01*
X022238Y019544D02*
X022312Y019544D01*
X022312Y019654D02*
X022312Y019434D01*
X022312Y019654D02*
X022165Y019654D01*
X021870Y019654D02*
X021870Y019507D01*
X021796Y019434D01*
X021723Y019507D01*
X021723Y019654D01*
X021649Y019654D02*
X021539Y019654D01*
X021502Y019617D01*
X021502Y019544D01*
X021539Y019507D01*
X021649Y019507D01*
X021649Y019434D02*
X021649Y019654D01*
X021575Y019507D02*
X021502Y019434D01*
X021428Y019434D02*
X021281Y019434D01*
X021207Y019470D02*
X021170Y019434D01*
X021097Y019434D01*
X021060Y019470D01*
X021060Y019544D01*
X021133Y019544D01*
X021060Y019617D02*
X021097Y019654D01*
X021170Y019654D01*
X021207Y019617D01*
X021207Y019470D01*
X021354Y019544D02*
X021428Y019544D01*
X021428Y019654D02*
X021428Y019434D01*
X021428Y019654D02*
X021281Y019654D01*
X017865Y019624D02*
X017755Y019624D01*
X017718Y019660D01*
X017718Y019697D01*
X017755Y019734D01*
X017865Y019734D01*
X017865Y019624D02*
X017865Y019844D01*
X017755Y019844D01*
X017718Y019807D01*
X017718Y019770D01*
X017755Y019734D01*
X017644Y019697D02*
X017534Y019697D01*
X017497Y019734D01*
X017497Y019807D01*
X017534Y019844D01*
X017644Y019844D01*
X017644Y019624D01*
X017570Y019697D02*
X017497Y019624D01*
X017423Y019624D02*
X017349Y019624D01*
X017386Y019624D02*
X017386Y019844D01*
X017423Y019844D02*
X017349Y019844D01*
X017276Y019807D02*
X017276Y019660D01*
X017239Y019624D01*
X017165Y019624D01*
X017129Y019660D01*
X017129Y019734D01*
X017202Y019734D01*
X017129Y019807D02*
X017165Y019844D01*
X017239Y019844D01*
X017276Y019807D01*
X017055Y019844D02*
X017055Y019624D01*
X017055Y019734D02*
X016908Y019734D01*
X016908Y019844D02*
X016908Y019624D01*
X016760Y019624D02*
X016760Y019844D01*
X016687Y019844D02*
X016834Y019844D01*
X014213Y019814D02*
X014213Y019667D01*
X014139Y019594D01*
X014066Y019667D01*
X014066Y019814D01*
X013992Y019814D02*
X013992Y019704D01*
X013918Y019740D01*
X013882Y019740D01*
X013845Y019704D01*
X013845Y019630D01*
X013882Y019594D01*
X013955Y019594D01*
X013992Y019630D01*
X013992Y019814D02*
X013845Y019814D01*
X013771Y019814D02*
X013771Y019594D01*
X013624Y019594D01*
X013550Y019594D02*
X013403Y019594D01*
X013329Y019594D02*
X013219Y019594D01*
X013182Y019630D01*
X013182Y019777D01*
X013219Y019814D01*
X013329Y019814D01*
X013329Y019594D01*
X013476Y019704D02*
X013550Y019704D01*
X013550Y019814D02*
X013550Y019594D01*
X013550Y019814D02*
X013403Y019814D01*
X013108Y019777D02*
X013108Y019740D01*
X013071Y019704D01*
X012998Y019704D01*
X012961Y019667D01*
X012961Y019630D01*
X012998Y019594D01*
X013071Y019594D01*
X013108Y019630D01*
X013108Y019777D02*
X013071Y019814D01*
X012998Y019814D01*
X012961Y019777D01*
X014795Y022004D02*
X014795Y022191D01*
X014884Y022191D02*
X015024Y022191D01*
X015071Y022144D01*
X015024Y022097D01*
X014931Y022097D01*
X014884Y022050D01*
X014931Y022004D01*
X015071Y022004D01*
X015161Y022004D02*
X015161Y022191D01*
X015347Y022191D02*
X015347Y022050D01*
X015301Y022004D01*
X015161Y022004D01*
X014795Y022097D02*
X014701Y022191D01*
X014655Y022191D01*
X015713Y022144D02*
X015713Y022004D01*
X015713Y022144D02*
X015760Y022191D01*
X015900Y022191D01*
X015900Y022004D01*
X015991Y022004D02*
X016084Y022004D01*
X016037Y022004D02*
X016037Y022191D01*
X016084Y022191D01*
X016173Y022191D02*
X016267Y022004D01*
X016360Y022191D01*
X016037Y022284D02*
X016037Y022331D01*
X016726Y022284D02*
X016726Y022004D01*
X016866Y022004D01*
X016913Y022050D01*
X016913Y022144D01*
X016866Y022191D01*
X016726Y022191D01*
X017002Y022144D02*
X017002Y022004D01*
X017002Y022144D02*
X017049Y022191D01*
X017189Y022191D01*
X017189Y022004D01*
X017278Y022004D02*
X017418Y022004D01*
X017465Y022050D01*
X017465Y022144D01*
X017418Y022191D01*
X017278Y022191D01*
X017278Y021957D01*
X017325Y021910D01*
X017372Y021910D01*
X017831Y022004D02*
X017831Y022284D01*
X017831Y022191D02*
X017971Y022191D01*
X018017Y022144D01*
X018017Y022050D01*
X017971Y022004D01*
X017831Y022004D01*
X018107Y022004D02*
X018107Y022144D01*
X018154Y022191D01*
X018294Y022191D01*
X018294Y022004D01*
X018383Y022004D02*
X018523Y022004D01*
X018570Y022050D01*
X018570Y022144D01*
X018523Y022191D01*
X018383Y022191D01*
X018383Y021957D01*
X018430Y021910D01*
X018476Y021910D01*
X018936Y022191D02*
X019029Y022004D01*
X019122Y022191D01*
X019212Y022144D02*
X019212Y022050D01*
X019258Y022004D01*
X019352Y022004D01*
X019399Y022050D01*
X019399Y022144D02*
X019305Y022191D01*
X019258Y022191D01*
X019212Y022144D01*
X019212Y022284D02*
X019399Y022284D01*
X019399Y022144D01*
X019764Y022191D02*
X019811Y022144D01*
X019764Y022097D01*
X019764Y022050D01*
X019811Y022004D01*
X019904Y022004D01*
X019951Y022050D01*
X019858Y022144D02*
X019811Y022144D01*
X019764Y022191D02*
X019764Y022237D01*
X019811Y022284D01*
X019904Y022284D01*
X019951Y022237D01*
X020040Y022191D02*
X020134Y022004D01*
X020227Y022191D01*
X020317Y022191D02*
X020363Y022144D01*
X020317Y022097D01*
X020317Y022050D01*
X020363Y022004D01*
X020457Y022004D01*
X020503Y022050D01*
X020410Y022144D02*
X020363Y022144D01*
X020317Y022191D02*
X020317Y022237D01*
X020363Y022284D01*
X020457Y022284D01*
X020503Y022237D01*
X020870Y022191D02*
X020964Y022191D01*
X020917Y022237D02*
X020917Y022050D01*
X020870Y022004D01*
X021053Y022097D02*
X021240Y022097D01*
X021240Y022050D02*
X021240Y022144D01*
X021193Y022191D01*
X021100Y022191D01*
X021053Y022144D01*
X021053Y022097D01*
X021100Y022004D02*
X021193Y022004D01*
X021240Y022050D01*
X021329Y022050D02*
X021376Y022097D01*
X021470Y022097D01*
X021516Y022144D01*
X021470Y022191D01*
X021329Y022191D01*
X021329Y022050D02*
X021376Y022004D01*
X021516Y022004D01*
X021606Y022097D02*
X021792Y022097D01*
X021792Y022050D02*
X021792Y022144D01*
X021746Y022191D01*
X021652Y022191D01*
X021606Y022144D01*
X021606Y022097D01*
X021652Y022004D02*
X021746Y022004D01*
X021792Y022050D01*
X021882Y022191D02*
X021929Y022191D01*
X022023Y022097D01*
X022023Y022004D02*
X022023Y022191D01*
X027003Y022197D02*
X027003Y022343D01*
X027003Y022418D02*
X027003Y022564D01*
X027003Y022639D02*
X027003Y022749D01*
X027039Y022785D01*
X027186Y022785D01*
X027223Y022749D01*
X027223Y022639D01*
X027003Y022639D01*
X027113Y022491D02*
X027113Y022418D01*
X027223Y022418D02*
X027003Y022418D01*
X027223Y022418D02*
X027223Y022564D01*
X027223Y022197D02*
X027003Y022197D01*
X027039Y022122D02*
X027186Y022122D01*
X027223Y022086D01*
X027223Y021976D01*
X027003Y021976D01*
X027003Y022086D01*
X027039Y022122D01*
X027003Y021901D02*
X027223Y021901D01*
X027223Y021755D02*
X027003Y021755D01*
X027039Y021680D02*
X027113Y021680D01*
X027113Y021607D01*
X027186Y021534D02*
X027039Y021534D01*
X027003Y021570D01*
X027003Y021644D01*
X027039Y021680D01*
X027186Y021680D02*
X027223Y021644D01*
X027223Y021570D01*
X027186Y021534D01*
X027223Y021755D02*
X027003Y021901D01*
X027039Y022860D02*
X027003Y022896D01*
X027003Y022970D01*
X027039Y023006D01*
X027076Y023006D01*
X027113Y022970D01*
X027113Y022896D01*
X027149Y022860D01*
X027186Y022860D01*
X027223Y022896D01*
X027223Y022970D01*
X027186Y023006D01*
X034923Y018734D02*
X035063Y018734D01*
X035109Y018687D01*
X035109Y018547D01*
X034923Y018547D01*
X034969Y018458D02*
X035109Y018458D01*
X034969Y018458D02*
X034923Y018411D01*
X034969Y018364D01*
X034923Y018318D01*
X034969Y018271D01*
X035109Y018271D01*
X035063Y018182D02*
X035109Y018135D01*
X035109Y018042D01*
X035063Y017995D01*
X034969Y017995D01*
X034923Y018042D01*
X034923Y018135D01*
X034969Y018182D01*
X035063Y018182D01*
X035109Y017905D02*
X035109Y017765D01*
X035063Y017719D01*
X034969Y017719D01*
X034923Y017765D01*
X034923Y017905D01*
X035203Y017905D01*
X035063Y017353D02*
X035016Y017353D01*
X035016Y017166D01*
X034969Y017166D02*
X035063Y017166D01*
X035109Y017213D01*
X035109Y017306D01*
X035063Y017353D01*
X034923Y017306D02*
X034923Y017213D01*
X034969Y017166D01*
X034923Y017077D02*
X034923Y016937D01*
X034969Y016890D01*
X035063Y016890D01*
X035109Y016937D01*
X035109Y017077D01*
X035203Y017077D02*
X034923Y017077D01*
X034923Y016799D02*
X034923Y016706D01*
X034923Y016753D02*
X035109Y016753D01*
X035109Y016706D01*
X035109Y016616D02*
X035109Y016476D01*
X035063Y016430D01*
X035016Y016476D01*
X035016Y016570D01*
X034969Y016616D01*
X034923Y016570D01*
X034923Y016430D01*
X034969Y016340D02*
X034923Y016294D01*
X034923Y016153D01*
X034923Y016064D02*
X035109Y016064D01*
X035109Y016153D02*
X035109Y016294D01*
X035063Y016340D01*
X034969Y016340D01*
X034829Y016153D02*
X035109Y016153D01*
X034923Y016064D02*
X034923Y015924D01*
X034969Y015877D01*
X035109Y015877D01*
X035203Y016753D02*
X035250Y016753D01*
X033036Y012387D02*
X033073Y012350D01*
X033073Y012314D01*
X033036Y012277D01*
X032963Y012277D01*
X032926Y012240D01*
X032926Y012204D01*
X032963Y012167D01*
X033036Y012167D01*
X033073Y012204D01*
X033036Y012387D02*
X032963Y012387D01*
X032926Y012350D01*
X032852Y012387D02*
X032705Y012387D01*
X032778Y012387D02*
X032778Y012167D01*
X032631Y012204D02*
X032594Y012167D01*
X032521Y012167D01*
X032484Y012204D01*
X032484Y012350D01*
X032521Y012387D01*
X032594Y012387D01*
X032631Y012350D01*
X032631Y012204D01*
X032410Y012167D02*
X032410Y012387D01*
X032263Y012167D01*
X032263Y012387D01*
X032189Y012387D02*
X032189Y012167D01*
X032042Y012167D01*
X031968Y012130D02*
X031821Y012130D01*
X031747Y012204D02*
X031710Y012167D01*
X031637Y012167D01*
X031600Y012204D01*
X031600Y012240D01*
X031637Y012277D01*
X031710Y012277D01*
X031747Y012314D01*
X031747Y012350D01*
X031710Y012387D01*
X031637Y012387D01*
X031600Y012350D01*
X031526Y012387D02*
X031379Y012387D01*
X031452Y012387D02*
X031452Y012167D01*
X031305Y012277D02*
X031158Y012277D01*
X031084Y012167D02*
X031084Y012387D01*
X031010Y012314D01*
X030937Y012387D01*
X030937Y012167D01*
X030863Y012204D02*
X030826Y012167D01*
X030753Y012167D01*
X030716Y012204D01*
X030716Y012277D01*
X030753Y012314D01*
X030789Y012314D01*
X030863Y012277D01*
X030863Y012387D01*
X030716Y012387D01*
X030642Y012277D02*
X030495Y012277D01*
X030421Y012277D02*
X030347Y012314D01*
X030311Y012314D01*
X030274Y012277D01*
X030274Y012204D01*
X030311Y012167D01*
X030384Y012167D01*
X030421Y012204D01*
X030421Y012277D02*
X030421Y012387D01*
X030274Y012387D01*
X030200Y012314D02*
X030126Y012387D01*
X030126Y012167D01*
X030053Y012167D02*
X030200Y012167D01*
X030532Y012167D02*
X030532Y012387D01*
X030642Y012277D01*
X032042Y012387D02*
X032189Y012387D01*
X032189Y012277D02*
X032115Y012277D01*
X032073Y005714D02*
X032166Y005621D01*
X032166Y005668D02*
X032166Y005528D01*
X032073Y005528D02*
X032353Y005528D01*
X032353Y005668D01*
X032306Y005714D01*
X032213Y005714D01*
X032166Y005668D01*
X032026Y005438D02*
X032026Y005251D01*
X032119Y005162D02*
X032306Y005162D01*
X032353Y005115D01*
X032353Y004975D01*
X032073Y004975D01*
X032073Y005115D01*
X032119Y005162D01*
X032073Y004886D02*
X032073Y004699D01*
X032353Y004699D01*
X032353Y004886D01*
X032213Y004792D02*
X032213Y004699D01*
X032073Y004610D02*
X032073Y004423D01*
X032353Y004423D01*
X032306Y004333D02*
X032259Y004333D01*
X032213Y004287D01*
X032166Y004333D01*
X032119Y004333D01*
X032073Y004287D01*
X032073Y004193D01*
X032119Y004146D01*
X032073Y004057D02*
X032073Y003870D01*
X032073Y003781D02*
X032353Y003781D01*
X032259Y003870D02*
X032353Y003964D01*
X032073Y003964D01*
X032073Y003781D02*
X032353Y003594D01*
X032073Y003594D01*
X032073Y003503D02*
X032073Y003410D01*
X032073Y003457D02*
X032353Y003457D01*
X032353Y003503D02*
X032353Y003410D01*
X032306Y003321D02*
X032213Y003321D01*
X032166Y003274D01*
X032166Y003134D01*
X032073Y003134D02*
X032353Y003134D01*
X032353Y003274D01*
X032306Y003321D01*
X033363Y003635D02*
X033363Y003728D01*
X033363Y003681D02*
X033643Y003681D01*
X033643Y003635D02*
X033643Y003728D01*
X033643Y003819D02*
X033363Y003819D01*
X033456Y003819D02*
X033456Y003959D01*
X033503Y004006D01*
X033596Y004006D01*
X033643Y003959D01*
X033643Y003819D01*
X033456Y003912D02*
X033363Y004006D01*
X033409Y004095D02*
X033363Y004142D01*
X033363Y004235D01*
X033409Y004282D01*
X033363Y004371D02*
X033549Y004371D01*
X033643Y004465D01*
X033549Y004558D01*
X033363Y004558D01*
X033363Y004647D02*
X033643Y004647D01*
X033643Y004788D01*
X033596Y004834D01*
X033503Y004834D01*
X033456Y004788D01*
X033456Y004647D01*
X033503Y004558D02*
X033503Y004371D01*
X033596Y004282D02*
X033643Y004235D01*
X033643Y004142D01*
X033596Y004095D01*
X033409Y004095D01*
X032353Y004193D02*
X032353Y004287D01*
X032306Y004333D01*
X032213Y004287D02*
X032213Y004240D01*
X032306Y004146D02*
X032353Y004193D01*
X032652Y004974D02*
X032792Y005114D01*
X032839Y005067D02*
X032652Y005254D01*
X032839Y005254D02*
X032839Y004974D01*
X032928Y004974D02*
X033115Y004974D01*
X033022Y004974D02*
X033022Y005254D01*
X033115Y005161D01*
X034523Y004587D02*
X034803Y004587D01*
X034803Y004774D01*
X034663Y004681D02*
X034663Y004587D01*
X034709Y004498D02*
X034523Y004498D01*
X034523Y004358D01*
X034569Y004311D01*
X034709Y004311D01*
X034803Y004128D02*
X034523Y004128D01*
X034523Y004035D02*
X034523Y004222D01*
X034709Y004035D02*
X034803Y004128D01*
X034569Y003944D02*
X034523Y003944D01*
X034523Y003897D01*
X034569Y003897D01*
X034569Y003944D01*
X034569Y003807D02*
X034523Y003761D01*
X034523Y003667D01*
X034569Y003621D01*
X034756Y003807D01*
X034803Y003761D01*
X034803Y003667D01*
X034756Y003621D01*
X034569Y003621D01*
X034569Y003807D02*
X034756Y003807D01*
X035020Y003574D02*
X034973Y003527D01*
X035160Y003340D01*
X035113Y003294D01*
X035020Y003294D01*
X034973Y003340D01*
X034973Y003527D01*
X035020Y003574D02*
X035113Y003574D01*
X035160Y003527D01*
X035160Y003340D01*
X035250Y003340D02*
X035296Y003294D01*
X035390Y003294D01*
X035436Y003340D01*
X035250Y003527D01*
X035250Y003340D01*
X035436Y003340D02*
X035436Y003527D01*
X035390Y003574D01*
X035296Y003574D01*
X035250Y003527D01*
X035526Y003294D02*
X035713Y003294D01*
X035619Y003294D02*
X035619Y003574D01*
X035713Y003481D01*
X035432Y004867D02*
X035245Y004867D01*
X035156Y004914D02*
X035156Y005194D01*
X035016Y005194D01*
X034969Y005147D01*
X034969Y005054D01*
X035016Y005007D01*
X035156Y005007D01*
X035063Y005007D02*
X034969Y004914D01*
X035522Y004914D02*
X035615Y005007D01*
X035568Y005007D02*
X035708Y005007D01*
X035708Y004914D02*
X035708Y005194D01*
X035568Y005194D01*
X035522Y005147D01*
X035522Y005054D01*
X035568Y005007D01*
X035799Y004914D02*
X035893Y004914D01*
X035846Y004914D02*
X035846Y005194D01*
X035893Y005194D02*
X035799Y005194D01*
X031595Y005161D02*
X031502Y005254D01*
X031502Y004974D01*
X031595Y004974D02*
X031408Y004974D01*
X031319Y004974D02*
X031319Y005254D01*
X031272Y005114D02*
X031132Y004974D01*
X031319Y005067D02*
X031132Y005254D01*
X030883Y005237D02*
X030883Y005377D01*
X030836Y005424D01*
X030743Y005424D01*
X030696Y005377D01*
X030696Y005237D01*
X030603Y005237D02*
X030883Y005237D01*
X030696Y005331D02*
X030603Y005424D01*
X030556Y005148D02*
X030556Y004961D01*
X030649Y004872D02*
X030836Y004872D01*
X030883Y004825D01*
X030883Y004685D01*
X030603Y004685D01*
X030603Y004825D01*
X030649Y004872D01*
X030603Y004595D02*
X030603Y004409D01*
X030883Y004409D01*
X030883Y004595D01*
X030743Y004502D02*
X030743Y004409D01*
X030603Y004319D02*
X030603Y004132D01*
X030883Y004132D01*
X030836Y004043D02*
X030743Y004043D01*
X030696Y003996D01*
X030696Y003856D01*
X030603Y003856D02*
X030883Y003856D01*
X030883Y003996D01*
X030836Y004043D01*
X030696Y003950D02*
X030603Y004043D01*
X030603Y003767D02*
X030883Y003767D01*
X030883Y003580D02*
X030603Y003580D01*
X030696Y003673D01*
X030603Y003767D01*
X030743Y003491D02*
X030696Y003444D01*
X030696Y003304D01*
X030603Y003304D02*
X030883Y003304D01*
X030883Y003444D01*
X030836Y003491D01*
X030743Y003491D01*
X029443Y003507D02*
X029396Y003460D01*
X029349Y003460D01*
X029303Y003507D01*
X029303Y003600D01*
X029256Y003647D01*
X029209Y003647D01*
X029163Y003600D01*
X029163Y003507D01*
X029209Y003460D01*
X029209Y003371D02*
X029443Y003371D01*
X029443Y003507D02*
X029443Y003600D01*
X029396Y003647D01*
X029443Y003736D02*
X029443Y003876D01*
X029396Y003923D01*
X029349Y003923D01*
X029303Y003876D01*
X029303Y003736D01*
X029163Y003736D02*
X029443Y003736D01*
X029303Y003876D02*
X029256Y003923D01*
X029209Y003923D01*
X029163Y003876D01*
X029163Y003736D01*
X029163Y004012D02*
X029163Y004199D01*
X029163Y004289D02*
X029163Y004476D01*
X029163Y004565D02*
X029163Y004705D01*
X029209Y004752D01*
X029396Y004752D01*
X029443Y004705D01*
X029443Y004565D01*
X029163Y004565D01*
X029303Y004382D02*
X029303Y004289D01*
X029443Y004289D02*
X029163Y004289D01*
X029443Y004289D02*
X029443Y004476D01*
X029443Y004012D02*
X029163Y004012D01*
X029209Y003371D02*
X029163Y003324D01*
X029163Y003231D01*
X029209Y003184D01*
X029443Y003184D01*
X029116Y004841D02*
X029116Y005028D01*
X029163Y005117D02*
X029443Y005117D01*
X029443Y005257D01*
X029396Y005304D01*
X029303Y005304D01*
X029256Y005257D01*
X029256Y005117D01*
X029256Y005211D02*
X029163Y005304D01*
X029742Y005224D02*
X029929Y005037D01*
X029882Y005084D02*
X029742Y004944D01*
X029929Y004944D02*
X029929Y005224D01*
X030112Y005224D02*
X030112Y004944D01*
X030205Y004944D02*
X030018Y004944D01*
X030205Y005131D02*
X030112Y005224D01*
X016965Y016234D02*
X016778Y016234D01*
X016872Y016234D02*
X016872Y016514D01*
X016965Y016421D01*
X016689Y016467D02*
X016689Y016280D01*
X016502Y016467D01*
X016502Y016280D01*
X016549Y016234D01*
X016642Y016234D01*
X016689Y016280D01*
X016689Y016467D02*
X016642Y016514D01*
X016549Y016514D01*
X016502Y016467D01*
X016413Y016514D02*
X016413Y016234D01*
X016413Y016327D02*
X016273Y016421D01*
X016413Y016327D02*
X016273Y016234D01*
X016295Y017187D02*
X016108Y017187D01*
X016019Y017234D02*
X016019Y017514D01*
X015879Y017514D01*
X015832Y017467D01*
X015832Y017374D01*
X015879Y017327D01*
X016019Y017327D01*
X015925Y017327D02*
X015832Y017234D01*
X016384Y017280D02*
X016431Y017234D01*
X016571Y017234D01*
X016571Y017514D01*
X016431Y017514D01*
X016384Y017467D01*
X016384Y017421D01*
X016431Y017374D01*
X016571Y017374D01*
X016431Y017374D02*
X016384Y017327D01*
X016384Y017280D01*
X016661Y017234D02*
X016661Y017514D01*
X016754Y017421D01*
X016848Y017514D01*
X016848Y017234D01*
X016937Y017234D02*
X016937Y017421D01*
X017030Y017514D01*
X017124Y017421D01*
X017124Y017234D01*
X017124Y017374D02*
X016937Y017374D01*
X009007Y017417D02*
X008933Y017344D01*
X008860Y017417D01*
X008860Y017564D01*
X008786Y017564D02*
X008712Y017564D01*
X008749Y017564D02*
X008749Y017344D01*
X008786Y017344D02*
X008712Y017344D01*
X008639Y017344D02*
X008639Y017564D01*
X008492Y017344D01*
X008492Y017564D01*
X008418Y017307D02*
X008271Y017307D01*
X008197Y017344D02*
X008197Y017564D01*
X008086Y017564D01*
X008050Y017527D01*
X008050Y017454D01*
X008086Y017417D01*
X008197Y017417D01*
X007976Y017454D02*
X007829Y017454D01*
X007829Y017490D02*
X007829Y017344D01*
X007755Y017380D02*
X007718Y017344D01*
X007644Y017344D01*
X007608Y017380D01*
X007608Y017417D01*
X007644Y017454D01*
X007718Y017454D01*
X007755Y017490D01*
X007755Y017527D01*
X007718Y017564D01*
X007644Y017564D01*
X007608Y017527D01*
X007534Y017527D02*
X007534Y017490D01*
X007497Y017454D01*
X007424Y017454D01*
X007387Y017417D01*
X007387Y017380D01*
X007424Y017344D01*
X007497Y017344D01*
X007534Y017380D01*
X007534Y017527D02*
X007497Y017564D01*
X007424Y017564D01*
X007387Y017527D01*
X007829Y017490D02*
X007902Y017564D01*
X007976Y017490D01*
X007976Y017344D01*
X009007Y017417D02*
X009007Y017564D01*
D11*
X013033Y015494D02*
X013033Y015064D01*
X011533Y013514D02*
X010963Y013514D01*
X019573Y008514D02*
X020153Y008514D01*
X018053Y006964D02*
X018053Y006464D01*
X021553Y006044D02*
X021823Y006044D01*
X022107Y006161D02*
X022226Y006279D01*
X022343Y006574D02*
X022343Y006944D01*
X023733Y006964D02*
X023733Y006624D01*
X023840Y006279D02*
X023958Y006161D01*
X024233Y006034D02*
X024483Y006034D01*
X023584Y005964D02*
X023586Y005979D01*
X023591Y005992D01*
X023600Y006004D01*
X023611Y006014D01*
X023625Y006020D01*
X023639Y006023D01*
X023654Y006022D01*
X023668Y006017D01*
X023681Y006009D01*
X023691Y005999D01*
X023698Y005986D01*
X023702Y005971D01*
X023702Y005957D01*
X023698Y005942D01*
X023691Y005929D01*
X023681Y005919D01*
X023668Y005911D01*
X023654Y005906D01*
X023639Y005905D01*
X023625Y005908D01*
X023611Y005914D01*
X023600Y005924D01*
X023591Y005936D01*
X023586Y005949D01*
X023584Y005964D01*
X023958Y004547D02*
X023840Y004429D01*
X022226Y004429D02*
X022107Y004547D01*
X034353Y005184D02*
X034353Y005824D01*
X035853Y007344D02*
X036163Y007344D01*
X027773Y012354D02*
X027133Y012354D01*
X029343Y013954D02*
X029343Y014564D01*
X027583Y015384D02*
X027585Y015404D01*
X027591Y015422D01*
X027600Y015440D01*
X027612Y015455D01*
X027627Y015467D01*
X027645Y015476D01*
X027663Y015482D01*
X027683Y015484D01*
X027703Y015482D01*
X027721Y015476D01*
X027739Y015467D01*
X027754Y015455D01*
X027766Y015440D01*
X027775Y015422D01*
X027781Y015404D01*
X027783Y015384D01*
X027781Y015364D01*
X027775Y015346D01*
X027766Y015328D01*
X027754Y015313D01*
X027739Y015301D01*
X027721Y015292D01*
X027703Y015286D01*
X027683Y015284D01*
X027663Y015286D01*
X027645Y015292D01*
X027627Y015301D01*
X027612Y015313D01*
X027600Y015328D01*
X027591Y015346D01*
X027585Y015364D01*
X027583Y015384D01*
X025783Y015624D02*
X025783Y014924D01*
X021743Y014924D01*
X021743Y015624D01*
X032963Y015394D02*
X032965Y015414D01*
X032971Y015432D01*
X032980Y015450D01*
X032992Y015465D01*
X033007Y015477D01*
X033025Y015486D01*
X033043Y015492D01*
X033063Y015494D01*
X033083Y015492D01*
X033101Y015486D01*
X033119Y015477D01*
X033134Y015465D01*
X033146Y015450D01*
X033155Y015432D01*
X033161Y015414D01*
X033163Y015394D01*
X033161Y015374D01*
X033155Y015356D01*
X033146Y015338D01*
X033134Y015323D01*
X033119Y015311D01*
X033101Y015302D01*
X033083Y015296D01*
X033063Y015294D01*
X033043Y015296D01*
X033025Y015302D01*
X033007Y015311D01*
X032992Y015323D01*
X032980Y015338D01*
X032971Y015356D01*
X032965Y015374D01*
X032963Y015394D01*
D12*
X018978Y020112D02*
X018978Y020402D01*
X018832Y020402D01*
X018784Y020354D01*
X018784Y020257D01*
X018832Y020209D01*
X018978Y020209D01*
X018683Y020209D02*
X018586Y020209D01*
X018635Y020209D02*
X018635Y020402D01*
X018683Y020402D01*
X018635Y020499D02*
X018635Y020547D01*
X018487Y020402D02*
X018341Y020402D01*
X018293Y020354D01*
X018293Y020209D01*
X018487Y020209D02*
X018487Y020402D01*
X016078Y020364D02*
X015981Y020412D01*
X015932Y020412D01*
X015884Y020364D01*
X015884Y020267D01*
X015932Y020219D01*
X016029Y020219D01*
X016078Y020267D01*
X016078Y020364D02*
X016078Y020509D01*
X015884Y020509D01*
X015783Y020412D02*
X015686Y020219D01*
X015589Y020412D01*
X021515Y004159D02*
X021467Y004111D01*
X021467Y004062D01*
X021515Y004014D01*
X021612Y004014D01*
X021660Y004062D01*
X021660Y004111D01*
X021612Y004159D01*
X021515Y004159D01*
X021515Y004014D02*
X021467Y003965D01*
X021467Y003917D01*
X021515Y003869D01*
X021612Y003869D01*
X021660Y003917D01*
X021660Y003965D01*
X021612Y004014D01*
X021762Y004062D02*
X021762Y004111D01*
X021810Y004159D01*
X021907Y004159D01*
X021955Y004111D01*
X022056Y004111D02*
X022056Y004062D01*
X022105Y004014D01*
X022056Y003965D01*
X022056Y003917D01*
X022105Y003869D01*
X022201Y003869D01*
X022250Y003917D01*
X022351Y003869D02*
X022351Y004062D01*
X022448Y004159D01*
X022544Y004062D01*
X022544Y003869D01*
X022646Y003917D02*
X022646Y004014D01*
X022742Y004014D01*
X022646Y004111D02*
X022694Y004159D01*
X022791Y004159D01*
X022839Y004111D01*
X022839Y003917D01*
X022791Y003869D01*
X022694Y003869D01*
X022646Y003917D01*
X022544Y004014D02*
X022351Y004014D01*
X022250Y004111D02*
X022201Y004159D01*
X022105Y004159D01*
X022056Y004111D01*
X022105Y004014D02*
X022153Y004014D01*
X021955Y003869D02*
X021762Y004062D01*
X021762Y003869D02*
X021955Y003869D01*
X022940Y003869D02*
X023134Y003869D01*
X023134Y004159D01*
X022940Y004159D01*
X023037Y004014D02*
X023134Y004014D01*
X023235Y004159D02*
X023235Y003869D01*
X023428Y003869D02*
X023428Y004159D01*
X023332Y004062D01*
X023235Y004159D01*
X023529Y004159D02*
X023723Y004159D01*
X023626Y004159D02*
X023626Y003869D01*
X023824Y003869D02*
X023824Y004062D01*
X023921Y004159D01*
X024018Y004062D01*
X024018Y003869D01*
X024018Y004014D02*
X023824Y004014D01*
X030672Y003026D02*
X030796Y003026D01*
X030734Y003087D02*
X030734Y002840D01*
X030672Y002779D01*
X030917Y002902D02*
X031164Y002902D01*
X031164Y002840D02*
X031164Y002964D01*
X031102Y003026D01*
X030979Y003026D01*
X030917Y002964D01*
X030917Y002902D01*
X030979Y002779D02*
X031102Y002779D01*
X031164Y002840D01*
X031286Y002840D02*
X031347Y002902D01*
X031471Y002902D01*
X031532Y002964D01*
X031471Y003026D01*
X031286Y003026D01*
X031286Y002840D02*
X031347Y002779D01*
X031532Y002779D01*
X031654Y002902D02*
X031901Y002902D01*
X031901Y002840D02*
X031901Y002964D01*
X031839Y003026D01*
X031716Y003026D01*
X031654Y002964D01*
X031654Y002902D01*
X031716Y002779D02*
X031839Y002779D01*
X031901Y002840D01*
X032022Y003026D02*
X032084Y003026D01*
X032208Y002902D01*
X032208Y002779D02*
X032208Y003026D01*
D13*
X024411Y010624D02*
X024413Y010643D01*
X024418Y010660D01*
X024427Y010677D01*
X024440Y010691D01*
X024454Y010702D01*
X024471Y010710D01*
X024489Y010715D01*
X024508Y010716D01*
X024526Y010713D01*
X024544Y010707D01*
X024559Y010697D01*
X024573Y010684D01*
X024583Y010669D01*
X024591Y010652D01*
X024595Y010633D01*
X024595Y010615D01*
X024591Y010596D01*
X024583Y010579D01*
X024573Y010564D01*
X024559Y010551D01*
X024544Y010541D01*
X024526Y010535D01*
X024508Y010532D01*
X024489Y010533D01*
X024471Y010538D01*
X024454Y010546D01*
X024440Y010557D01*
X024427Y010571D01*
X024418Y010588D01*
X024413Y010605D01*
X024411Y010624D01*
D14*
X025333Y002854D02*
X017333Y002854D01*
X017333Y001854D01*
X025333Y001854D01*
X025333Y002854D01*
X016583Y002854D02*
X016583Y001854D01*
X008583Y001854D01*
X008583Y002854D01*
X016583Y002854D01*
X008603Y004573D02*
X008603Y005754D01*
X007422Y005754D01*
X007422Y004573D01*
X008603Y004573D01*
X008406Y004376D02*
X008209Y004376D01*
X008308Y004179D01*
X008406Y004376D01*
X008583Y020854D02*
X014583Y020854D01*
X014583Y021854D01*
X008583Y021854D01*
X008583Y020854D01*
X015583Y020854D02*
X015583Y021854D01*
X021583Y021854D01*
X021583Y020854D01*
X015583Y020854D01*
D15*
X016283Y020624D02*
X016283Y020024D01*
X016285Y020007D01*
X016289Y019990D01*
X016296Y019974D01*
X016306Y019960D01*
X016319Y019947D01*
X016333Y019937D01*
X016349Y019930D01*
X016366Y019926D01*
X016383Y019924D01*
X018083Y019924D01*
X018100Y019926D01*
X018117Y019930D01*
X018133Y019937D01*
X018147Y019947D01*
X018160Y019960D01*
X018170Y019974D01*
X018177Y019990D01*
X018181Y020007D01*
X018183Y020024D01*
X018183Y020624D01*
X018181Y020641D01*
X018177Y020658D01*
X018170Y020674D01*
X018160Y020688D01*
X018147Y020701D01*
X018133Y020711D01*
X018117Y020718D01*
X018100Y020722D01*
X018083Y020724D01*
X016383Y020724D01*
X016366Y020722D01*
X016349Y020718D01*
X016333Y020711D01*
X016319Y020701D01*
X016306Y020688D01*
X016296Y020674D01*
X016289Y020658D01*
X016285Y020641D01*
X016283Y020624D01*
X014233Y020624D02*
X014233Y020024D01*
X014231Y020007D01*
X014227Y019990D01*
X014220Y019974D01*
X014210Y019960D01*
X014197Y019947D01*
X014183Y019937D01*
X014167Y019930D01*
X014150Y019926D01*
X014133Y019924D01*
X013033Y019924D01*
X013016Y019926D01*
X012999Y019930D01*
X012983Y019937D01*
X012969Y019947D01*
X012956Y019960D01*
X012946Y019974D01*
X012939Y019990D01*
X012935Y020007D01*
X012933Y020024D01*
X012933Y020624D01*
X012935Y020641D01*
X012939Y020658D01*
X012946Y020674D01*
X012956Y020688D01*
X012969Y020701D01*
X012983Y020711D01*
X012999Y020718D01*
X013016Y020722D01*
X013033Y020724D01*
X014133Y020724D01*
X014150Y020722D01*
X014167Y020718D01*
X014183Y020711D01*
X014197Y020701D01*
X014210Y020688D01*
X014220Y020674D01*
X014227Y020658D01*
X014231Y020641D01*
X014233Y020624D01*
X008753Y018354D02*
X008753Y017754D01*
X008751Y017737D01*
X008747Y017720D01*
X008740Y017704D01*
X008730Y017690D01*
X008717Y017677D01*
X008703Y017667D01*
X008687Y017660D01*
X008670Y017656D01*
X008653Y017654D01*
X007553Y017654D01*
X007536Y017656D01*
X007519Y017660D01*
X007503Y017667D01*
X007489Y017677D01*
X007476Y017690D01*
X007466Y017704D01*
X007459Y017720D01*
X007455Y017737D01*
X007453Y017754D01*
X007453Y018354D01*
X007455Y018371D01*
X007459Y018388D01*
X007466Y018404D01*
X007476Y018418D01*
X007489Y018431D01*
X007503Y018441D01*
X007519Y018448D01*
X007536Y018452D01*
X007553Y018454D01*
X008653Y018454D01*
X008670Y018452D01*
X008687Y018448D01*
X008703Y018441D01*
X008717Y018431D01*
X008730Y018418D01*
X008740Y018404D01*
X008747Y018388D01*
X008751Y018371D01*
X008753Y018354D01*
X027323Y021784D02*
X027323Y022884D01*
X027325Y022901D01*
X027329Y022918D01*
X027336Y022934D01*
X027346Y022948D01*
X027359Y022961D01*
X027373Y022971D01*
X027389Y022978D01*
X027406Y022982D01*
X027423Y022984D01*
X028023Y022984D01*
X028040Y022982D01*
X028057Y022978D01*
X028073Y022971D01*
X028087Y022961D01*
X028100Y022948D01*
X028110Y022934D01*
X028117Y022918D01*
X028121Y022901D01*
X028123Y022884D01*
X028123Y021784D01*
X028121Y021767D01*
X028117Y021750D01*
X028110Y021734D01*
X028100Y021720D01*
X028087Y021707D01*
X028073Y021697D01*
X028057Y021690D01*
X028040Y021686D01*
X028023Y021684D01*
X027423Y021684D01*
X027406Y021686D01*
X027389Y021690D01*
X027373Y021697D01*
X027359Y021707D01*
X027346Y021720D01*
X027336Y021734D01*
X027329Y021750D01*
X027325Y021767D01*
X027323Y021784D01*
D16*
X024763Y014374D03*
X023763Y014374D03*
X022763Y014374D03*
D17*
X028603Y015854D02*
X029063Y015854D01*
X028909Y016007D01*
X029063Y016161D01*
X028603Y016161D01*
X028603Y016314D02*
X028603Y016467D01*
X028603Y016391D02*
X029063Y016391D01*
X029063Y016467D02*
X029063Y016314D01*
X028986Y016621D02*
X028679Y016621D01*
X028603Y016698D01*
X028603Y016851D01*
X028679Y016928D01*
X028679Y017081D02*
X028603Y017158D01*
X028603Y017311D01*
X028679Y017388D01*
X028833Y017388D01*
X028909Y017311D01*
X028909Y017235D01*
X028833Y017081D01*
X029063Y017081D01*
X029063Y017388D01*
X028986Y017542D02*
X028909Y017542D01*
X028833Y017618D01*
X028833Y017772D01*
X028756Y017849D01*
X028679Y017849D01*
X028603Y017772D01*
X028603Y017618D01*
X028679Y017542D01*
X028756Y017542D01*
X028833Y017618D01*
X028833Y017772D02*
X028909Y017849D01*
X028986Y017849D01*
X029063Y017772D01*
X029063Y017618D01*
X028986Y017542D01*
X028986Y018002D02*
X028909Y018002D01*
X028833Y018079D01*
X028833Y018309D01*
X028986Y018309D02*
X029063Y018232D01*
X029063Y018079D01*
X028986Y018002D01*
X028679Y018002D02*
X028603Y018079D01*
X028603Y018232D01*
X028679Y018309D01*
X028986Y018309D01*
X028909Y018462D02*
X029063Y018616D01*
X028603Y018616D01*
X028603Y018769D02*
X028603Y018462D01*
X030026Y018002D02*
X030026Y017695D01*
X030103Y017542D02*
X030256Y017388D01*
X030256Y017465D02*
X030256Y017235D01*
X030103Y017235D02*
X030563Y017235D01*
X030563Y017465D01*
X030486Y017542D01*
X030333Y017542D01*
X030256Y017465D01*
X030256Y017081D02*
X030563Y017081D01*
X030563Y016774D02*
X030256Y016774D01*
X030103Y016928D01*
X030256Y017081D01*
X030333Y016621D02*
X030256Y016544D01*
X030256Y016314D01*
X030103Y016314D02*
X030563Y016314D01*
X030563Y016544D01*
X030486Y016621D01*
X030333Y016621D01*
X030256Y016467D02*
X030103Y016621D01*
X030179Y016161D02*
X030486Y016161D01*
X030563Y016084D01*
X030563Y015854D01*
X030103Y015854D01*
X030103Y016084D01*
X030179Y016161D01*
X029063Y016698D02*
X028986Y016621D01*
X029063Y016698D02*
X029063Y016851D01*
X028986Y016928D01*
X030103Y018155D02*
X030103Y018386D01*
X030179Y018462D01*
X030256Y018462D01*
X030333Y018386D01*
X030333Y018155D01*
X030563Y018155D02*
X030563Y018386D01*
X030486Y018462D01*
X030409Y018462D01*
X030333Y018386D01*
X030486Y018616D02*
X030179Y018616D01*
X030103Y018693D01*
X030103Y018846D01*
X030179Y018923D01*
X030486Y018923D01*
X030563Y018846D01*
X030563Y018693D01*
X030486Y018616D01*
X030563Y019076D02*
X030563Y019383D01*
X030563Y019230D02*
X030103Y019230D01*
X030103Y018155D02*
X030563Y018155D01*
X033983Y018089D02*
X034059Y018012D01*
X033983Y018089D02*
X033983Y018242D01*
X034059Y018319D01*
X034366Y018319D01*
X034443Y018242D01*
X034443Y018089D01*
X034366Y018012D01*
X034289Y018012D01*
X034213Y018089D01*
X034213Y018319D01*
X034289Y018472D02*
X034443Y018626D01*
X033983Y018626D01*
X033983Y018779D02*
X033983Y018472D01*
X034059Y017859D02*
X033983Y017782D01*
X033983Y017628D01*
X034059Y017552D01*
X034136Y017552D01*
X034213Y017628D01*
X034213Y017782D01*
X034136Y017859D01*
X034059Y017859D01*
X034213Y017782D02*
X034289Y017859D01*
X034366Y017859D01*
X034443Y017782D01*
X034443Y017628D01*
X034366Y017552D01*
X034289Y017552D01*
X034213Y017628D01*
X034213Y017398D02*
X034059Y017398D01*
X033983Y017321D01*
X033983Y017168D01*
X034059Y017091D01*
X034059Y016938D02*
X033983Y016861D01*
X033983Y016708D01*
X034059Y016631D01*
X034366Y016631D01*
X034443Y016708D01*
X034443Y016861D01*
X034366Y016938D01*
X034443Y017091D02*
X034213Y017091D01*
X034289Y017245D01*
X034289Y017321D01*
X034213Y017398D01*
X034443Y017398D02*
X034443Y017091D01*
X034443Y016477D02*
X034443Y016324D01*
X034443Y016401D02*
X033983Y016401D01*
X033983Y016477D02*
X033983Y016324D01*
X033983Y016171D02*
X034443Y016171D01*
X034289Y016017D01*
X034443Y015864D01*
X033983Y015864D01*
X035483Y015864D02*
X035483Y016094D01*
X035559Y016171D01*
X035866Y016171D01*
X035943Y016094D01*
X035943Y015864D01*
X035483Y015864D01*
X035483Y016324D02*
X035943Y016324D01*
X035943Y016554D01*
X035866Y016631D01*
X035713Y016631D01*
X035636Y016554D01*
X035636Y016324D01*
X035636Y016477D02*
X035483Y016631D01*
X035636Y016784D02*
X035483Y016938D01*
X035636Y017091D01*
X035943Y017091D01*
X035943Y017245D02*
X035483Y017245D01*
X035636Y017245D02*
X035636Y017475D01*
X035713Y017552D01*
X035866Y017552D01*
X035943Y017475D01*
X035943Y017245D01*
X035636Y017398D02*
X035483Y017552D01*
X035406Y017705D02*
X035406Y018012D01*
X035483Y018319D02*
X035943Y018319D01*
X035943Y018472D02*
X035943Y018165D01*
X035866Y018626D02*
X035559Y018626D01*
X035483Y018703D01*
X035483Y018856D01*
X035559Y018933D01*
X035866Y018933D01*
X035943Y018856D01*
X035943Y018703D01*
X035866Y018626D01*
X035943Y019086D02*
X035483Y019086D01*
X035636Y019086D02*
X035636Y019316D01*
X035713Y019393D01*
X035866Y019393D01*
X035943Y019316D01*
X035943Y019086D01*
X035943Y016784D02*
X035636Y016784D01*
X007435Y003638D02*
X007065Y003638D01*
X007071Y003638D02*
X006574Y003638D01*
X006552Y003636D01*
X006530Y003631D01*
X006509Y003622D01*
X006490Y003611D01*
X006473Y003596D01*
X006458Y003579D01*
X006447Y003560D01*
X006438Y003539D01*
X006433Y003517D01*
X006431Y003495D01*
X006431Y003285D01*
X007071Y003197D02*
X007441Y003197D01*
X007441Y003196D02*
X007454Y003198D01*
X007467Y003202D01*
X007479Y003209D01*
X007489Y003219D01*
X007496Y003231D01*
X007501Y003244D01*
X007502Y003257D01*
X007501Y003257D02*
X007501Y003257D01*
X007499Y003272D01*
X007494Y003286D01*
X007487Y003298D01*
X007476Y003309D01*
X007464Y003316D01*
X007450Y003321D01*
X007435Y003323D01*
X007435Y003324D02*
X007375Y003324D01*
X007358Y003326D01*
X007341Y003331D01*
X007326Y003339D01*
X007313Y003350D01*
X007302Y003363D01*
X007294Y003378D01*
X007289Y003395D01*
X007287Y003412D01*
X007286Y003412D02*
X007286Y003423D01*
X007288Y003440D01*
X007293Y003457D01*
X007301Y003472D01*
X007312Y003485D01*
X007325Y003496D01*
X007340Y003504D01*
X007357Y003509D01*
X007374Y003511D01*
X007375Y003511D02*
X007441Y003511D01*
X007455Y003513D01*
X007467Y003517D01*
X007479Y003524D01*
X007489Y003534D01*
X007496Y003546D01*
X007500Y003558D01*
X007502Y003572D01*
X007501Y003572D02*
X007499Y003587D01*
X007494Y003601D01*
X007487Y003613D01*
X007476Y003624D01*
X007464Y003631D01*
X007450Y003636D01*
X007435Y003638D01*
X007071Y003638D02*
X007071Y000133D01*
X004074Y000133D01*
X004074Y001557D01*
X003704Y001557D01*
X003704Y001558D02*
X003691Y001557D01*
X003678Y001552D01*
X003666Y001545D01*
X003656Y001535D01*
X003649Y001523D01*
X003644Y001510D01*
X003643Y001497D01*
X003644Y001497D02*
X003644Y001497D01*
X003646Y001482D01*
X003651Y001468D01*
X003658Y001456D01*
X003669Y001445D01*
X003681Y001438D01*
X003695Y001433D01*
X003710Y001431D01*
X003710Y001430D02*
X003770Y001430D01*
X003771Y001430D02*
X003788Y001428D01*
X003805Y001423D01*
X003820Y001415D01*
X003833Y001404D01*
X003844Y001391D01*
X003852Y001376D01*
X003857Y001359D01*
X003859Y001342D01*
X003859Y001331D01*
X003858Y001331D02*
X003856Y001314D01*
X003851Y001297D01*
X003843Y001282D01*
X003832Y001269D01*
X003819Y001258D01*
X003804Y001250D01*
X003787Y001245D01*
X003770Y001243D01*
X003704Y001243D01*
X003690Y001241D01*
X003678Y001237D01*
X003666Y001230D01*
X003656Y001220D01*
X003649Y001208D01*
X003645Y001196D01*
X003643Y001182D01*
X003644Y001182D02*
X003646Y001167D01*
X003651Y001153D01*
X003658Y001141D01*
X003669Y001130D01*
X003681Y001123D01*
X003695Y001118D01*
X003710Y001116D01*
X004052Y001116D01*
X004510Y000878D02*
X004422Y002220D01*
X004421Y002220D02*
X004419Y002232D01*
X004413Y002243D01*
X004405Y002252D01*
X004395Y002259D01*
X004384Y002263D01*
X004372Y002264D01*
X004096Y002264D01*
X004791Y002209D02*
X004703Y000873D01*
X004704Y000873D02*
X004701Y000854D01*
X004694Y000837D01*
X004685Y000821D01*
X004672Y000807D01*
X004657Y000796D01*
X004641Y000788D01*
X004623Y000783D01*
X004604Y000782D01*
X004586Y000784D01*
X004568Y000790D01*
X004552Y000799D01*
X004538Y000811D01*
X004526Y000826D01*
X004517Y000842D01*
X004512Y000860D01*
X004510Y000878D01*
X004703Y000603D02*
X004725Y000605D01*
X004746Y000610D01*
X004766Y000618D01*
X004784Y000629D01*
X004801Y000643D01*
X004815Y000660D01*
X004826Y000678D01*
X004834Y000698D01*
X004839Y000719D01*
X004841Y000741D01*
X004841Y000757D01*
X004907Y002203D01*
X004906Y002217D01*
X004902Y002231D01*
X004894Y002242D01*
X004884Y002252D01*
X004872Y002259D01*
X004859Y002263D01*
X004845Y002264D01*
X004831Y002261D01*
X004818Y002255D01*
X004808Y002247D01*
X004799Y002235D01*
X004793Y002223D01*
X004791Y002209D01*
X005145Y002236D02*
X005062Y000663D01*
X005064Y000650D01*
X005070Y000637D01*
X005079Y000626D01*
X005090Y000618D01*
X005103Y000613D01*
X005117Y000611D01*
X005131Y000613D01*
X005144Y000618D01*
X005155Y000626D01*
X005164Y000637D01*
X005170Y000650D01*
X005172Y000663D01*
X005228Y001861D01*
X005228Y001888D01*
X005227Y001888D02*
X005229Y001912D01*
X005234Y001935D01*
X005242Y001957D01*
X005253Y001978D01*
X005268Y001997D01*
X005284Y002013D01*
X005303Y002028D01*
X005324Y002039D01*
X005346Y002047D01*
X005369Y002052D01*
X005393Y002054D01*
X005741Y002054D01*
X005765Y002052D01*
X005789Y002047D01*
X005812Y002039D01*
X005833Y002027D01*
X005853Y002012D01*
X005870Y001995D01*
X005885Y001975D01*
X005897Y001954D01*
X005905Y001931D01*
X005910Y001907D01*
X005912Y001883D01*
X005978Y000658D01*
X005978Y000657D02*
X005981Y000644D01*
X005987Y000631D01*
X005996Y000621D01*
X006007Y000613D01*
X006020Y000608D01*
X006034Y000607D01*
X006047Y000610D01*
X006060Y000616D01*
X006070Y000625D01*
X006078Y000636D01*
X006083Y000649D01*
X006084Y000663D01*
X006083Y000663D02*
X006000Y002247D01*
X006001Y002247D02*
X005999Y002268D01*
X005994Y002288D01*
X005986Y002307D01*
X005976Y002325D01*
X005962Y002341D01*
X005946Y002355D01*
X005928Y002365D01*
X005909Y002373D01*
X005889Y002378D01*
X005868Y002380D01*
X005288Y002380D01*
X005265Y002378D01*
X005244Y002373D01*
X005223Y002364D01*
X005203Y002352D01*
X005186Y002338D01*
X005172Y002321D01*
X005160Y002301D01*
X005151Y002280D01*
X005146Y002259D01*
X005144Y002236D01*
X006238Y002203D02*
X006304Y000757D01*
X006304Y000740D01*
X006306Y000718D01*
X006311Y000697D01*
X006319Y000677D01*
X006330Y000659D01*
X006344Y000642D01*
X006361Y000628D01*
X006379Y000617D01*
X006399Y000609D01*
X006420Y000604D01*
X006442Y000602D01*
X007049Y000602D01*
X006635Y000878D02*
X006723Y002220D01*
X006724Y002219D02*
X006726Y002231D01*
X006732Y002242D01*
X006740Y002251D01*
X006750Y002258D01*
X006761Y002262D01*
X006773Y002263D01*
X006773Y002264D02*
X007049Y002264D01*
X006353Y002209D02*
X006442Y000873D01*
X006441Y000873D02*
X006444Y000854D01*
X006451Y000837D01*
X006460Y000821D01*
X006473Y000807D01*
X006488Y000796D01*
X006504Y000788D01*
X006522Y000783D01*
X006541Y000782D01*
X006559Y000784D01*
X006577Y000790D01*
X006593Y000799D01*
X006607Y000811D01*
X006619Y000826D01*
X006628Y000842D01*
X006633Y000860D01*
X006635Y000878D01*
X007071Y001116D02*
X007441Y001116D01*
X007441Y001115D02*
X007454Y001116D01*
X007467Y001121D01*
X007479Y001128D01*
X007489Y001138D01*
X007496Y001150D01*
X007501Y001163D01*
X007502Y001176D01*
X007501Y001177D02*
X007501Y001176D01*
X007499Y001191D01*
X007494Y001205D01*
X007487Y001217D01*
X007476Y001228D01*
X007464Y001235D01*
X007450Y001240D01*
X007435Y001242D01*
X007435Y001243D02*
X007375Y001243D01*
X007374Y001243D02*
X007357Y001245D01*
X007340Y001250D01*
X007325Y001258D01*
X007312Y001269D01*
X007301Y001282D01*
X007293Y001297D01*
X007288Y001314D01*
X007286Y001331D01*
X007286Y001342D01*
X007288Y001359D01*
X007293Y001376D01*
X007301Y001391D01*
X007312Y001404D01*
X007325Y001415D01*
X007340Y001423D01*
X007357Y001428D01*
X007374Y001430D01*
X007375Y001430D02*
X007441Y001430D01*
X007455Y001432D01*
X007467Y001436D01*
X007479Y001443D01*
X007489Y001453D01*
X007496Y001465D01*
X007500Y001477D01*
X007502Y001491D01*
X007501Y001491D02*
X007499Y001506D01*
X007494Y001520D01*
X007487Y001532D01*
X007476Y001543D01*
X007464Y001550D01*
X007450Y001555D01*
X007435Y001557D01*
X007093Y001557D01*
X006354Y002209D02*
X006352Y002223D01*
X006346Y002235D01*
X006337Y002247D01*
X006327Y002255D01*
X006314Y002261D01*
X006300Y002264D01*
X006286Y002263D01*
X006273Y002259D01*
X006261Y002252D01*
X006251Y002242D01*
X006243Y002231D01*
X006239Y002217D01*
X006238Y002203D01*
X004714Y003268D02*
X004714Y003500D01*
X004712Y003522D01*
X004707Y003543D01*
X004699Y003563D01*
X004688Y003581D01*
X004674Y003598D01*
X004657Y003612D01*
X004639Y003623D01*
X004619Y003631D01*
X004598Y003636D01*
X004576Y003638D01*
X004074Y003638D01*
X003704Y003638D01*
X003704Y003639D02*
X003691Y003638D01*
X003678Y003633D01*
X003666Y003626D01*
X003656Y003616D01*
X003649Y003604D01*
X003644Y003591D01*
X003643Y003578D01*
X003644Y003577D02*
X003644Y003577D01*
X003646Y003562D01*
X003651Y003548D01*
X003658Y003536D01*
X003669Y003525D01*
X003681Y003518D01*
X003695Y003513D01*
X003710Y003511D01*
X003770Y003511D01*
X003771Y003511D02*
X003788Y003509D01*
X003805Y003504D01*
X003820Y003496D01*
X003833Y003485D01*
X003844Y003472D01*
X003852Y003457D01*
X003857Y003440D01*
X003859Y003423D01*
X003859Y003412D01*
X003858Y003412D02*
X003856Y003395D01*
X003851Y003378D01*
X003843Y003363D01*
X003832Y003350D01*
X003819Y003339D01*
X003804Y003331D01*
X003787Y003326D01*
X003770Y003324D01*
X003770Y003323D02*
X003704Y003323D01*
X003704Y003324D02*
X003690Y003322D01*
X003678Y003318D01*
X003666Y003311D01*
X003656Y003301D01*
X003649Y003289D01*
X003645Y003277D01*
X003643Y003263D01*
X003644Y003263D02*
X003646Y003248D01*
X003651Y003234D01*
X003658Y003222D01*
X003669Y003211D01*
X003681Y003204D01*
X003695Y003199D01*
X003710Y003197D01*
X004052Y003197D01*
X004074Y003638D02*
X004074Y001557D01*
X004096Y000603D02*
X004703Y000603D01*
D18*
X005745Y004179D02*
X005818Y004179D01*
X005745Y004252D01*
X005745Y004270D01*
X005763Y004289D01*
X005800Y004289D01*
X005818Y004270D01*
X005855Y004270D02*
X005874Y004289D01*
X005910Y004289D01*
X005929Y004270D01*
X005855Y004270D02*
X005855Y004252D01*
X005929Y004179D01*
X005855Y004179D01*
X006205Y004159D02*
X006278Y004159D01*
X006241Y004159D02*
X006241Y004269D01*
X006278Y004232D01*
X006315Y004214D02*
X006334Y004195D01*
X006389Y004195D01*
X006389Y004159D02*
X006389Y004269D01*
X006334Y004269D01*
X006315Y004250D01*
X006315Y004214D01*
X006352Y004195D02*
X006315Y004159D01*
X006426Y004140D02*
X006499Y004140D01*
X006536Y004177D02*
X006555Y004159D01*
X006610Y004159D01*
X006610Y004269D01*
X006555Y004269D01*
X006536Y004250D01*
X006536Y004232D01*
X006555Y004214D01*
X006610Y004214D01*
X006647Y004195D02*
X006647Y004177D01*
X006665Y004159D01*
X006702Y004159D01*
X006720Y004177D01*
X006757Y004177D02*
X006757Y004269D01*
X006720Y004250D02*
X006720Y004232D01*
X006702Y004214D01*
X006665Y004214D01*
X006647Y004195D01*
X006647Y004250D02*
X006665Y004269D01*
X006702Y004269D01*
X006720Y004250D01*
X006757Y004177D02*
X006776Y004159D01*
X006812Y004159D01*
X006831Y004177D01*
X006831Y004269D01*
X006555Y004214D02*
X006536Y004195D01*
X006536Y004177D01*
X006499Y005060D02*
X006426Y005060D01*
X006389Y005079D02*
X006389Y005189D01*
X006334Y005189D01*
X006315Y005170D01*
X006315Y005134D01*
X006334Y005115D01*
X006389Y005115D01*
X006352Y005115D02*
X006315Y005079D01*
X006278Y005079D02*
X006205Y005152D01*
X006205Y005170D01*
X006223Y005189D01*
X006260Y005189D01*
X006278Y005170D01*
X006278Y005079D02*
X006205Y005079D01*
X005929Y005079D02*
X005855Y005152D01*
X005855Y005170D01*
X005874Y005189D01*
X005910Y005189D01*
X005929Y005170D01*
X005929Y005079D02*
X005855Y005079D01*
X005818Y005079D02*
X005745Y005152D01*
X005745Y005170D01*
X005763Y005189D01*
X005800Y005189D01*
X005818Y005170D01*
X005818Y005079D02*
X005745Y005079D01*
X006536Y005097D02*
X006555Y005079D01*
X006610Y005079D01*
X006610Y005189D01*
X006555Y005189D01*
X006536Y005170D01*
X006536Y005152D01*
X006555Y005134D01*
X006610Y005134D01*
X006647Y005115D02*
X006647Y005097D01*
X006665Y005079D01*
X006702Y005079D01*
X006720Y005097D01*
X006757Y005097D02*
X006757Y005189D01*
X006720Y005170D02*
X006720Y005152D01*
X006702Y005134D01*
X006665Y005134D01*
X006647Y005115D01*
X006647Y005170D02*
X006665Y005189D01*
X006702Y005189D01*
X006720Y005170D01*
X006757Y005097D02*
X006776Y005079D01*
X006812Y005079D01*
X006831Y005097D01*
X006831Y005189D01*
X006555Y005134D02*
X006536Y005115D01*
X006536Y005097D01*
X004498Y005062D02*
X004498Y005025D01*
X004479Y005007D01*
X004406Y005007D01*
X004388Y005025D01*
X004388Y005062D01*
X004406Y005080D01*
X004388Y005118D02*
X004461Y005118D01*
X004498Y005154D01*
X004461Y005191D01*
X004388Y005191D01*
X004388Y005228D02*
X004498Y005228D01*
X004498Y005283D01*
X004479Y005301D01*
X004443Y005301D01*
X004424Y005283D01*
X004424Y005228D01*
X004443Y005191D02*
X004443Y005118D01*
X004479Y005080D02*
X004498Y005062D01*
X004498Y004970D02*
X004406Y004970D01*
X004388Y004952D01*
X004388Y004915D01*
X004406Y004897D01*
X004498Y004897D01*
X004479Y004860D02*
X004443Y004860D01*
X004424Y004841D01*
X004424Y004786D01*
X004388Y004786D02*
X004498Y004786D01*
X004498Y004841D01*
X004479Y004860D01*
X004479Y004749D02*
X004498Y004731D01*
X004498Y004694D01*
X004479Y004676D01*
X004406Y004676D01*
X004388Y004694D01*
X004388Y004731D01*
X004406Y004749D01*
X004406Y004639D02*
X004388Y004620D01*
X004388Y004565D01*
X004498Y004565D01*
X004498Y004620D01*
X004479Y004639D01*
X004461Y004639D01*
X004443Y004620D01*
X004443Y004565D01*
X004424Y004528D02*
X004406Y004528D01*
X004388Y004510D01*
X004388Y004473D01*
X004406Y004455D01*
X004406Y004418D02*
X004498Y004418D01*
X004479Y004455D02*
X004461Y004455D01*
X004443Y004473D01*
X004443Y004510D01*
X004424Y004528D01*
X004479Y004528D02*
X004498Y004510D01*
X004498Y004473D01*
X004479Y004455D01*
X004406Y004418D02*
X004388Y004399D01*
X004388Y004363D01*
X004406Y004344D01*
X004498Y004344D01*
X004443Y004620D02*
X004424Y004639D01*
X004406Y004639D01*
X004398Y005422D02*
X004398Y005440D01*
X004416Y005440D01*
X004416Y005422D01*
X004398Y005422D01*
X004398Y005477D02*
X004398Y005551D01*
X004398Y005514D02*
X004508Y005514D01*
X004471Y005477D01*
X004471Y005588D02*
X004416Y005588D01*
X004398Y005606D01*
X004398Y005661D01*
X004471Y005661D01*
X004453Y005698D02*
X004453Y005735D01*
X004508Y005698D02*
X004508Y005772D01*
X004508Y005698D02*
X004398Y005698D01*
X004655Y008949D02*
X004630Y008974D01*
X004630Y009074D01*
X004655Y009099D01*
X004730Y009099D01*
X004730Y008949D01*
X004655Y008949D01*
X004777Y008949D02*
X004777Y009099D01*
X004827Y009049D01*
X004877Y009099D01*
X004877Y008949D01*
X004924Y008974D02*
X004949Y008949D01*
X004999Y008949D01*
X005024Y008974D01*
X005072Y008949D02*
X005172Y008949D01*
X005122Y008949D02*
X005122Y009099D01*
X005172Y009049D01*
X005219Y009099D02*
X005319Y009099D01*
X005269Y009099D02*
X005269Y008949D01*
X005366Y008949D02*
X005466Y008949D01*
X005466Y009099D01*
X005514Y009074D02*
X005614Y008974D01*
X005589Y008949D01*
X005539Y008949D01*
X005514Y008974D01*
X005514Y009074D01*
X005539Y009099D01*
X005589Y009099D01*
X005614Y009074D01*
X005614Y008974D01*
X005661Y009024D02*
X005761Y009024D01*
X005686Y009099D01*
X005686Y008949D01*
X005808Y008974D02*
X005833Y008949D01*
X005883Y008949D01*
X005908Y008974D01*
X005908Y009024D02*
X005858Y009049D01*
X005833Y009049D01*
X005808Y009024D01*
X005808Y008974D01*
X005908Y009024D02*
X005908Y009099D01*
X005808Y009099D01*
X005956Y009099D02*
X006056Y009099D01*
X006006Y009099D02*
X006006Y008949D01*
X006103Y008974D02*
X006128Y008949D01*
X006203Y008949D01*
X006203Y009099D01*
X006128Y009099D01*
X006103Y009074D01*
X006103Y009049D01*
X006128Y009024D01*
X006203Y009024D01*
X006128Y009024D02*
X006103Y008999D01*
X006103Y008974D01*
X006250Y008949D02*
X006250Y009099D01*
X006300Y009049D01*
X006350Y009099D01*
X006350Y008949D01*
X006398Y008949D02*
X006398Y009099D01*
X006448Y009049D01*
X006498Y009099D01*
X006498Y008949D01*
X006818Y009908D02*
X006918Y010008D01*
X006943Y010008D01*
X006968Y009983D01*
X006968Y009933D01*
X006943Y009908D01*
X006818Y009908D02*
X006818Y010008D01*
X006818Y010055D02*
X006818Y010080D01*
X006843Y010080D01*
X006843Y010055D01*
X006818Y010055D01*
X006843Y010129D02*
X006818Y010154D01*
X006818Y010204D01*
X006843Y010229D01*
X006893Y010229D01*
X006918Y010204D01*
X006918Y010179D01*
X006893Y010129D01*
X006968Y010129D01*
X006968Y010229D01*
X006968Y010276D02*
X006818Y010276D01*
X006868Y010276D02*
X006918Y010351D01*
X006868Y010276D02*
X006818Y010351D01*
X006673Y010769D02*
X006623Y010769D01*
X006598Y010794D01*
X006598Y010919D01*
X006551Y010894D02*
X006551Y010869D01*
X006526Y010844D01*
X006476Y010844D01*
X006451Y010819D01*
X006451Y010794D01*
X006476Y010769D01*
X006526Y010769D01*
X006551Y010794D01*
X006551Y010894D02*
X006526Y010919D01*
X006476Y010919D01*
X006451Y010894D01*
X006404Y010919D02*
X006328Y010919D01*
X006303Y010894D01*
X006303Y010869D01*
X006328Y010844D01*
X006404Y010844D01*
X006404Y010769D02*
X006404Y010919D01*
X006328Y010844D02*
X006303Y010819D01*
X006303Y010794D01*
X006328Y010769D01*
X006404Y010769D01*
X006256Y010744D02*
X006156Y010744D01*
X006109Y010769D02*
X006109Y010919D01*
X006034Y010919D01*
X006009Y010894D01*
X006009Y010844D01*
X006034Y010819D01*
X006109Y010819D01*
X005962Y010769D02*
X005911Y010819D01*
X005861Y010769D01*
X005861Y010919D01*
X005814Y010919D02*
X005739Y010919D01*
X005714Y010894D01*
X005714Y010844D01*
X005739Y010819D01*
X005814Y010819D01*
X005764Y010819D02*
X005714Y010769D01*
X005667Y010744D02*
X005567Y010744D01*
X005520Y010769D02*
X005520Y010919D01*
X005445Y010919D01*
X005419Y010894D01*
X005419Y010844D01*
X005445Y010819D01*
X005520Y010819D01*
X005470Y010819D02*
X005419Y010769D01*
X005372Y010769D02*
X005272Y010769D01*
X005225Y010794D02*
X005200Y010769D01*
X005150Y010769D01*
X005125Y010794D01*
X005125Y010819D01*
X005150Y010844D01*
X005200Y010844D01*
X005225Y010869D01*
X005225Y010894D01*
X005200Y010919D01*
X005150Y010919D01*
X005125Y010894D01*
X005272Y010919D02*
X005372Y010919D01*
X005372Y010769D01*
X005372Y010844D02*
X005322Y010844D01*
X005814Y010769D02*
X005814Y010919D01*
X005962Y010919D02*
X005962Y010769D01*
X006673Y010769D02*
X006698Y010794D01*
X006698Y010919D01*
X004999Y009099D02*
X005024Y009074D01*
X005024Y009049D01*
X004999Y009024D01*
X004949Y009024D01*
X004924Y008999D01*
X004924Y008974D01*
X004924Y009074D02*
X004949Y009099D01*
X004999Y009099D01*
X020568Y005495D02*
X020678Y005495D01*
X020678Y005568D01*
X020623Y005532D02*
X020623Y005495D01*
X020641Y005458D02*
X020568Y005458D01*
X020568Y005403D01*
X020586Y005384D01*
X020641Y005384D01*
X020568Y005347D02*
X020568Y005274D01*
X020568Y005311D02*
X020678Y005311D01*
X020641Y005274D01*
X020586Y005237D02*
X020568Y005237D01*
X020568Y005219D01*
X020586Y005219D01*
X020586Y005237D01*
X021548Y005248D02*
X021566Y005230D01*
X021639Y005230D01*
X021658Y005248D01*
X021658Y005285D01*
X021639Y005304D01*
X021621Y005341D02*
X021658Y005377D01*
X021621Y005414D01*
X021548Y005414D01*
X021548Y005451D02*
X021658Y005451D01*
X021658Y005506D01*
X021639Y005524D01*
X021603Y005524D01*
X021584Y005506D01*
X021584Y005451D01*
X021603Y005414D02*
X021603Y005341D01*
X021621Y005341D02*
X021548Y005341D01*
X021566Y005304D02*
X021548Y005285D01*
X021548Y005248D01*
X021566Y005193D02*
X021658Y005193D01*
X021658Y005120D02*
X021566Y005120D01*
X021548Y005138D01*
X021548Y005175D01*
X021566Y005193D01*
X021603Y005083D02*
X021584Y005064D01*
X021584Y005009D01*
X021548Y005009D02*
X021658Y005009D01*
X021658Y005064D01*
X021639Y005083D01*
X021603Y005083D01*
X021639Y004972D02*
X021658Y004954D01*
X021658Y004917D01*
X021639Y004899D01*
X021566Y004899D01*
X021548Y004917D01*
X021548Y004954D01*
X021566Y004972D01*
X021548Y005562D02*
X021548Y005635D01*
X021548Y005598D02*
X021658Y005598D01*
X021621Y005562D01*
M02*
