%
M48
M72
T01C0.0118
T02C0.0236
T03C0.0315
T04C0.0320
T05C0.0360
T06C0.0394
T07C0.0400
T08C0.1260
%
T01
X6543Y3844
X6423Y4174
X7053Y4214
X7123Y4874
X7863Y5314
X8163Y5314
X9123Y5464
X9353Y5204
X9603Y4854
X9323Y4614
X8613Y4444
X8773Y3604
X8023Y3754
X9603Y2894
X8083Y2354
X8013Y1104
X8593Y954
X5253Y4134
X4433Y4564
X5513Y5144
X5483Y5514
X4813Y6084
X4953Y7254
X4543Y7254
X5853Y8074
X6383Y8564
X6373Y8974
X6373Y9364
X5793Y10444
X6543Y11164
X5493Y11524
X5013Y11614
X3953Y11004
X3563Y10444
X4013Y9114
X4373Y9124
X2783Y9114
X6513Y7144
X7723Y7314
X8203Y7274
X7833Y6154
X7483Y6124
X10233Y7514
X10913Y7204
X12123Y7104
X12313Y6224
X11313Y6234
X13353Y6134
X13833Y6644
X14433Y7104
X15043Y7104
X15193Y6124
X15623Y5914
X16833Y5174
X18333Y4574
X18643Y3644
X18993Y3144
X20793Y3184
X22083Y3874
X22353Y4024
X22683Y3604
X23103Y3694
X23343Y4024
X23643Y3964
X23703Y3394
X24573Y3574
X25963Y3124
X25533Y2614
X25413Y1984
X25413Y1654
X22083Y1174
X21753Y1144
X22233Y2824
X21453Y4204
X21873Y4324
X21573Y4834
X21563Y5434
X20623Y5254
X19903Y5874
X20703Y5974
X20773Y6464
X21193Y7004
X21423Y7244
X20823Y7374
X21543Y6684
X21753Y6424
X22763Y7234
X23133Y7134
X23313Y6824
X23733Y7234
X24803Y6724
X24383Y6324
X24443Y5904
X25773Y7024
X26673Y6724
X27523Y6394
X28403Y5974
X28573Y4574
X28973Y4034
X29463Y3404
X29953Y3404
X31363Y3404
X32833Y3384
X32823Y7494
X31283Y8314
X29633Y8434
X30063Y9364
X31123Y9494
X31693Y9324
X31873Y10034
X32713Y10354
X33063Y10144
X33913Y10444
X34163Y9914
X33483Y11274
X33333Y11864
X33813Y11884
X32163Y11524
X31863Y12154
X31773Y13744
X31563Y13954
X31833Y14164
X31083Y14374
X30693Y14614
X32043Y14554
X32683Y14374
X33043Y14374
X34633Y14184
X35413Y13974
X35533Y14854
X36153Y15154
X36093Y15844
X35633Y16354
X36093Y17344
X36063Y18304
X35793Y19564
X34563Y20824
X33363Y20644
X32373Y19044
X32073Y18724
X32073Y18334
X32283Y18094
X32463Y17824
X32313Y17344
X32073Y16444
X30693Y16624
X29643Y15544
X28473Y16324
X28713Y16594
X28693Y17344
X27103Y16934
X27103Y16504
X26813Y16244
X25293Y15304
X25113Y15544
X25443Y15004
X26453Y15064
X24273Y14484
X21223Y13874
X20943Y13014
X20343Y12224
X20153Y11544
X20423Y10204
X19933Y9374
X21233Y8444
X22033Y8124
X19143Y6824
X18903Y6574
X18153Y6234
X17313Y6314
X18053Y7004
X19063Y7264
X18603Y7744
X17003Y8634
X17453Y9064
X17683Y9934
X16253Y9364
X15473Y9444
X15223Y9904
X14883Y10384
X14673Y11134
X13743Y10504
X13533Y9664
X14953Y8684
X12133Y7864
X11523Y8204
X10133Y8204
X9383Y8484
X9373Y8844
X9643Y9104
X9333Y9384
X8583Y9834
X10173Y11194
X10883Y11314
X11113Y11594
X10733Y11674
X11523Y12004
X11543Y11134
X13893Y11674
X14463Y11884
X14473Y12294
X14313Y13054
X14543Y13384
X14803Y13064
X15153Y13074
X15733Y13084
X15733Y13424
X16863Y13504
X16113Y12424
X16663Y11534
X17013Y11394
X17743Y11394
X17753Y11024
X16213Y11324
X13143Y13334
X12153Y14194
X11253Y13624
X10833Y13374
X9813Y12934
X9513Y12934
X8613Y12904
X7193Y13014
X6393Y13834
X5913Y13294
X4473Y12514
X3813Y12304
X3563Y11994
X2843Y12864
X3093Y13594
X3343Y14234
X3903Y14044
X3703Y14914
X3273Y15694
X2713Y15704
X4023Y16804
X3213Y17614
X6333Y16594
X5493Y15244
X5073Y15334
X6093Y14644
X8253Y16574
X10083Y15744
X10293Y15424
X10803Y16164
X11463Y16294
X10203Y17074
X12033Y18604
X13293Y19294
X10383Y20254
X9863Y20234
X9583Y20874
X9123Y22024
X7603Y20524
X6783Y19394
X10023Y19674
X13563Y21874
X13383Y22594
X12543Y22334
X14823Y21874
X17703Y20884
X19603Y20914
X20873Y19984
X21663Y19624
X22893Y20134
X24513Y20974
X25163Y20954
X25143Y20164
X23403Y21624
X23963Y22204
X25523Y22134
X25673Y22414
X26993Y22544
X27663Y21424
X29823Y20344
X36753Y22264
X37473Y16834
X37033Y14374
X38583Y10814
X36763Y10654
X36783Y10314
X36423Y10684
X29853Y7424
X27253Y9614
X26673Y10174
X29403Y11374
X22993Y11194
X20023Y15094
X16023Y15624
X16123Y16254
X14883Y16104
X13593Y15484
X13173Y14884
X14853Y15034
X20863Y18184
X19533Y19084
X21673Y22194
X8583Y11854
X513Y13864
X3303Y21334
X4053Y22594
X11853Y4564
X14143Y3464
X14883Y3234
X15683Y3574
X15323Y4484
X17113Y3484
X16973Y1964
X15613Y1444
X13573Y2074
X19083Y1744
T02
X19013Y4034
X19763Y4034
X18263Y4034
X17513Y4034
X16763Y4034
X16013Y4034
X15263Y4034
X14513Y4034
X13763Y4034
X13013Y4034
X12263Y4034
X11513Y4034
X10763Y4034
X10013Y4034
X10333Y5384
X11333Y5384
X12333Y5384
X13333Y5384
X14333Y5384
X16333Y5384
X17333Y5384
X18333Y5384
X19333Y5384
X25183Y10194
X9453Y17064
X6323Y15534
X3713Y4384
T03
X9083Y2354
X10083Y2354
X11083Y2354
X12083Y2354
X13083Y2354
X14083Y2354
X15083Y2354
X16083Y2354
X17833Y2354
X18833Y2354
X19833Y2354
X20833Y2354
X21833Y2354
X22833Y2354
X23833Y2354
X24833Y2354
X34083Y2354
X35083Y2354
X36083Y2354
X21083Y21354
X20083Y21354
X19083Y21354
X18083Y21354
X17083Y21354
X16083Y21354
X14083Y21354
X13083Y21354
X12083Y21354
X11083Y21354
X10083Y21354
X9083Y21354
T04
X15433Y19054
X15433Y18354
X15433Y17654
X15433Y16954
X17433Y16954
X18033Y16954
X18033Y17654
X17433Y17654
X17433Y18354
X18033Y18354
X18033Y19054
X17433Y19054
X20033Y19054
X20033Y18354
X20033Y17654
X20033Y16954
T05
X833Y2354
X1833Y2354
X1833Y3354
X833Y3354
X833Y4354
X1833Y4354
X1833Y5354
X833Y5354
X833Y6354
X1833Y6354
X1833Y7354
X833Y7354
X833Y8354
X1833Y8354
X1833Y9354
X833Y9354
X833Y10354
X1833Y10354
X1833Y11354
X833Y11354
X833Y12354
X1833Y12354
X1833Y13354
X833Y13354
X833Y14354
X1833Y14354
X1833Y15354
X833Y15354
X833Y16354
X1833Y16354
X1833Y17354
X833Y17354
X833Y18354
X1833Y18354
X1833Y19354
X833Y19354
X833Y20354
X1833Y20354
X1833Y21354
X833Y21354
X38083Y21354
X39083Y21354
X39083Y20354
X38083Y20354
X38083Y19354
X39083Y19354
X39083Y18354
X38083Y18354
X38083Y17354
X39083Y17354
X39083Y16354
X38083Y16354
X38083Y15354
X39083Y15354
X39083Y14354
X38083Y14354
X38083Y13354
X39083Y13354
X39083Y12354
X38083Y12354
X38083Y11354
X39083Y11354
X39083Y10354
X38083Y10354
X38083Y9354
X39083Y9354
X39083Y8354
X38083Y8354
X38083Y7354
X39083Y7354
X39083Y6354
X38083Y6354
X38083Y5354
X39083Y5354
X39083Y4354
X38083Y4354
X38083Y3354
X39083Y3354
X39083Y2354
X38083Y2354
T06
X6419Y2437
X4726Y2437
X4773Y18143
X2883Y19364
X4773Y20545
T07
X7083Y21354
X8083Y21354
X8083Y22354
X7083Y22354
X15083Y21354
X29093Y21364
X30093Y21364
X31093Y21364
X32093Y21364
X33093Y21364
X34093Y21364
X35093Y21364
X36093Y21364
X36093Y22364
X35093Y22364
X34093Y22364
X33093Y22364
X32093Y22364
X31093Y22364
X30093Y22364
X29093Y22364
X9086Y12338
X8086Y12338
X8086Y11338
X9086Y11338
X9086Y10338
X8086Y10338
X6543Y6604
X5543Y6604
X4543Y6604
X9083Y1354
X10083Y1354
X11083Y1354
X12083Y1354
X13083Y1354
X14083Y1354
T08
X8083Y8354
X8083Y19354
X28083Y2354
M30
